<svg width="96" height="96" viewBox="0 0 96 96" fill="none" xmlns="http://www.w3.org/2000/svg">
<g filter="url(#filter0_d)">
<path fill-rule="evenodd" clip-rule="evenodd" d="M48 72C65.6731 72 80 57.6731 80 40C80 22.3269 65.6731 8 48 8C30.3269 8 16 22.3269 16 40C16 57.6731 30.3269 72 48 72Z" fill="white"/>
</g>
<path d="M60.7315 46.788L37.9771 49.2875C36.9159 49.4037 35.879 48.9156 35.2924 48.0236C34.7057 47.1316 34.6683 45.9862 35.1954 45.0579L44.8449 28.0632C45.2956 27.2695 46.1 26.7405 47.0073 26.641C47.9146 26.5416 48.8145 26.8838 49.4264 27.5611L62.5296 42.0608C63.2425 42.8529 63.4526 43.9773 63.0737 44.9733C62.6948 45.9694 61.7907 46.6699 60.7315 46.788Z" fill="url(#paint0_linear)"/>
<defs>
<filter id="filter0_d" x="0" y="0" width="96" height="96" filterUnits="userSpaceOnUse" color-interpolation-filters="sRGB">
<feFlood flood-opacity="0" result="BackgroundImageFix"/>
<feColorMatrix in="SourceAlpha" type="matrix" values="0 0 0 0 0 0 0 0 0 0 0 0 0 0 0 0 0 0 127 0"/>
<feOffset dy="8"/>
<feGaussianBlur stdDeviation="8"/>
<feColorMatrix type="matrix" values="0 0 0 0 0 0 0 0 0 0 0 0 0 0 0 0 0 0 0.0535402 0"/>
<feBlend mode="normal" in2="BackgroundImageFix" result="effect1_dropShadow"/>
<feBlend mode="normal" in="SourceGraphic" in2="effect1_dropShadow" result="shape"/>
</filter>
<linearGradient id="paint0_linear" x1="69.1294" y1="46.3822" x2="59.0605" y2="23.6457" gradientUnits="userSpaceOnUse">
<stop stop-color="#CD10FF"/>
<stop offset="1" stop-color="#9F06FF"/>
</linearGradient>
</defs>
</svg>
