<svg width="52" height="63" viewBox="0 0 52 63" fill="none" xmlns="http://www.w3.org/2000/svg">
<g clip-path="url(#clip0)">
<path d="M36.235 38.2163L10.3644 31.2843C9.96919 31.1784 9.65227 30.8841 9.51722 30.4979C7.44509 24.5779 9.76325 14.879 10.1264 13.4443C10.1402 13.3879 10.1548 13.3311 10.1699 13.2748C10.3464 12.6159 11.0233 12.2243 11.6826 12.3996L11.685 12.4003C12.3428 12.5765 12.7347 13.2518 12.5609 13.9105C12.5587 13.9186 12.5401 13.9892 12.5094 14.115C11.7038 17.5426 13.7699 21.0251 17.1944 21.9427C20.6854 22.8781 24.2865 20.799 25.2219 17.308C25.3988 16.6481 26.0772 16.2567 26.7368 16.4334L29.4813 17.1688C30.1412 17.3456 30.5327 18.0237 30.3559 18.6836C29.4205 22.1747 31.4999 25.7759 34.9909 26.7113C38.4185 27.6297 41.9522 25.6424 42.9649 22.2656C42.999 22.1467 43.0176 22.08 43.0196 22.0722C43.1985 21.4146 43.8753 21.0256 44.5333 21.202L44.5355 21.2025C45.1941 21.3804 45.5845 22.0579 45.408 22.7168C45.3928 22.7735 45.3771 22.8296 45.361 22.8857C44.958 24.3094 42.1161 33.8682 37.3618 37.9592C37.0519 38.2258 36.63 38.3221 36.235 38.2163Z" fill="#FFF780"/>
<path d="M44.5356 21.2026C44.535 21.2024 44.5344 21.2023 44.5335 21.202C43.8757 21.0258 43.1986 21.4146 43.0198 22.072C43.0177 22.08 42.9995 22.1468 42.965 22.2656C41.9524 25.6421 38.4186 27.6298 34.991 26.7114C31.5 25.7759 29.4209 22.1748 30.3563 18.6838C30.5331 18.0239 30.1413 17.3457 29.4817 17.1689L28.1096 16.8013L23.3002 34.7501L36.2352 38.216C36.6305 38.3219 37.0521 38.2256 37.362 37.959C42.1166 33.8681 44.9585 24.3092 45.3612 22.8855C45.3775 22.8298 45.3933 22.7733 45.4084 22.717C45.5846 22.0579 45.1943 21.3804 44.5356 21.2026Z" fill="#FFC02E"/>
<path d="M29.2016 12.7248C27.0731 12.1544 24.8773 13.4222 24.3069 15.5507C23.7366 17.6793 25.0044 19.8747 27.133 20.445C29.2615 21.0154 31.4572 19.748 32.0275 17.6194C32.5979 15.4909 31.3301 13.2951 29.2016 12.7248Z" fill="#FFC02E"/>
<path d="M29.2019 12.7251L27.1332 20.4457C29.2618 21.0157 31.4572 19.7482 32.0275 17.6197C32.5979 15.4911 31.3301 13.2957 29.2019 12.7251Z" fill="#FFA73B"/>
<path d="M11.9792 11.3029C9.85064 10.7326 7.65488 12.0003 7.08454 14.1288C6.5142 16.2574 7.78192 18.4531 9.91046 19.0235C12.039 19.5938 14.2345 18.326 14.8048 16.1975C15.3751 14.0689 14.1077 11.8733 11.9792 11.3029Z" fill="#FFC02E"/>
<path d="M44.8275 20.1046C42.699 19.5342 40.5035 20.8021 39.9332 22.9306C39.3629 25.0588 40.6303 27.2545 42.7589 27.8248C44.8874 28.3952 47.0832 27.1275 47.6534 24.9992C48.2238 22.8707 46.956 20.6749 44.8275 20.1046Z" fill="#FFA73B"/>
<path d="M35.1848 42.1362L9.31423 35.2042C8.65434 35.0273 8.26281 34.3492 8.43963 33.6893L9.39429 30.1265L37.6543 37.6987L36.6997 41.2616C36.5229 41.9214 35.8447 42.313 35.1848 42.1362Z" fill="#FFC02E"/>
<path d="M22.2499 38.6702L35.1849 42.1361C35.8447 42.3129 36.5229 41.9214 36.6997 41.2615L37.6544 37.6986L23.5247 33.9126L22.2499 38.6702Z" fill="#FFA73B"/>
</g>
<path d="M12.36 35V63H5.88V40.2H0.28V35H12.36ZM25.2241 46.24C23.7841 46.24 22.4774 45.96 21.3041 45.4C20.1574 44.8133 19.2507 44.0267 18.5841 43.04C17.9441 42.0267 17.6241 40.88 17.6241 39.6C17.6241 38.3467 17.9441 37.2133 18.5841 36.2C19.2507 35.1867 20.1574 34.4 21.3041 33.84C22.4774 33.28 23.7841 33 25.2241 33C26.6641 33 27.9574 33.28 29.1041 33.84C30.2507 34.4 31.1441 35.1867 31.7841 36.2C32.4507 37.2133 32.7841 38.3467 32.7841 39.6C32.7841 40.88 32.4507 42.0267 31.7841 43.04C31.1441 44.0533 30.2507 44.84 29.1041 45.4C27.9574 45.96 26.6641 46.24 25.2241 46.24ZM25.2241 42.92C26.2107 42.92 27.0107 42.6267 27.6241 42.04C28.2374 41.4267 28.5441 40.6133 28.5441 39.6C28.5441 38.5867 28.2374 37.7867 27.6241 37.2C27.0107 36.6133 26.2107 36.32 25.2241 36.32C24.2374 36.32 23.4241 36.6133 22.7841 37.2C22.1707 37.7867 21.8641 38.5867 21.8641 39.6C21.8641 40.6133 22.1707 41.4267 22.7841 42.04C23.4241 42.6267 24.2374 42.92 25.2241 42.92Z" fill="#001A49"/>
<defs>
<clipPath id="clip0">
<rect width="42" height="42" fill="white" transform="translate(10.8704) rotate(15)"/>
</clipPath>
</defs>
</svg>
