<svg width="57" height="64" viewBox="0 0 57 64" fill="none" xmlns="http://www.w3.org/2000/svg">
<g clip-path="url(#clip0)">
<path d="M41.235 38.2163L15.3644 31.2843C14.9692 31.1784 14.6523 30.8841 14.5172 30.4979C12.4451 24.5779 14.7633 14.879 15.1264 13.4443C15.1402 13.3879 15.1548 13.3311 15.1699 13.2748C15.3464 12.6159 16.0233 12.2243 16.6826 12.3996L16.685 12.4003C17.3428 12.5765 17.7347 13.2518 17.5609 13.9105C17.5587 13.9186 17.5401 13.9892 17.5094 14.115C16.7038 17.5426 18.7699 21.0251 22.1944 21.9427C25.6854 22.8781 29.2865 20.799 30.2219 17.308C30.3988 16.6481 31.0772 16.2567 31.7368 16.4334L34.4813 17.1688C35.1412 17.3456 35.5327 18.0237 35.3559 18.6836C34.4205 22.1747 36.4999 25.7759 39.9909 26.7113C43.4185 27.6297 46.9522 25.6424 47.9649 22.2656C47.999 22.1467 48.0176 22.08 48.0196 22.0722C48.1985 21.4146 48.8753 21.0256 49.5333 21.202L49.5355 21.2025C50.1941 21.3804 50.5845 22.0579 50.408 22.7168C50.3928 22.7735 50.3771 22.8296 50.361 22.8857C49.958 24.3094 47.1161 33.8682 42.3618 37.9592C42.0519 38.2258 41.63 38.3221 41.235 38.2163Z" fill="#D2D2D2"/>
<path d="M49.5356 21.2026L49.5335 21.202C48.8757 21.0258 48.1986 21.4146 48.0198 22.072C48.0177 22.08 47.9995 22.1468 47.965 22.2656C46.9524 25.6421 43.4186 27.6298 39.991 26.7114C36.5 25.7759 34.4209 22.1748 35.3563 18.6838C35.5331 18.0239 35.1413 17.3457 34.4817 17.1689L33.1096 16.8013L28.3002 34.7501L41.2352 38.216C41.6305 38.3219 42.0521 38.2256 42.362 37.959C47.1166 33.8681 49.9585 24.3092 50.3612 22.8855C50.3775 22.8298 50.3933 22.7733 50.4084 22.717C50.5846 22.0579 50.1943 21.3804 49.5356 21.2026Z" fill="#BFBFBF"/>
<path d="M34.2016 12.7248C32.0731 12.1544 29.8773 13.4222 29.3069 15.5507C28.7366 17.6793 30.0044 19.8747 32.133 20.445C34.2615 21.0154 36.4572 19.748 37.0275 17.6194C37.5979 15.4909 36.3301 13.2951 34.2016 12.7248Z" fill="#BFBFBF"/>
<path d="M34.2019 12.7251L32.1332 20.4457C34.2618 21.0157 36.4572 19.7482 37.0275 17.6197C37.5979 15.4911 36.3301 13.2957 34.2019 12.7251Z" fill="#A3A3A3"/>
<path d="M16.9792 11.3029C14.8506 10.7326 12.6549 12.0003 12.0845 14.1288C11.5142 16.2574 12.7819 18.4531 14.9105 19.0235C17.039 19.5938 19.2345 18.326 19.8048 16.1975C20.3751 14.0689 19.1077 11.8733 16.9792 11.3029Z" fill="#F1F1F1"/>
<path d="M49.8275 20.1046C47.699 19.5342 45.5035 20.8021 44.9332 22.9306C44.3629 25.0588 45.6303 27.2545 47.7589 27.8248C49.8874 28.3952 52.0832 27.1275 52.6534 24.9992C53.2238 22.8707 51.956 20.6749 49.8275 20.1046Z" fill="#A3A3A3"/>
<path d="M40.1848 42.1362L14.3142 35.2042C13.6543 35.0273 13.2628 34.3492 13.4396 33.6893L14.3943 30.1265L42.6543 37.6987L41.6997 41.2616C41.5229 41.9214 40.8447 42.313 40.1848 42.1362Z" fill="#E3E3E3"/>
<path d="M27.2499 38.6702L40.1849 42.1361C40.8447 42.3129 41.5229 41.9214 41.6997 41.2615L42.6544 37.6986L28.5247 33.9126L27.2499 38.6702Z" fill="#A3A3A3"/>
</g>
<path d="M22.48 58.72V64H1.32V59.8L12.12 49.6C13.2667 48.5067 14.04 47.5733 14.44 46.8C14.84 46 15.04 45.2133 15.04 44.44C15.04 43.32 14.6533 42.4667 13.88 41.88C13.1333 41.2667 12.0267 40.96 10.56 40.96C9.33333 40.96 8.22667 41.2 7.24 41.68C6.25333 42.1333 5.42667 42.8267 4.76 43.76L0.04 40.72C1.13333 39.0933 2.64 37.8267 4.56 36.92C6.48 35.9867 8.68 35.52 11.16 35.52C13.24 35.52 15.0533 35.8667 16.6 36.56C18.1733 37.2267 19.3867 38.1867 20.24 39.44C21.12 40.6667 21.56 42.12 21.56 43.8C21.56 45.32 21.24 46.7467 20.6 48.08C19.96 49.4133 18.72 50.9333 16.88 52.64L10.44 58.72H22.48ZM33.1538 47.24C31.7138 47.24 30.4071 46.96 29.2338 46.4C28.0871 45.8133 27.1804 45.0267 26.5138 44.04C25.8738 43.0267 25.5538 41.88 25.5538 40.6C25.5538 39.3467 25.8738 38.2133 26.5138 37.2C27.1804 36.1867 28.0871 35.4 29.2338 34.84C30.4071 34.28 31.7138 34 33.1538 34C34.5938 34 35.8871 34.28 37.0338 34.84C38.1804 35.4 39.0738 36.1867 39.7138 37.2C40.3804 38.2133 40.7138 39.3467 40.7138 40.6C40.7138 41.88 40.3804 43.0267 39.7138 44.04C39.0738 45.0533 38.1804 45.84 37.0338 46.4C35.8871 46.96 34.5938 47.24 33.1538 47.24ZM33.1538 43.92C34.1404 43.92 34.9404 43.6267 35.5538 43.04C36.1671 42.4267 36.4738 41.6133 36.4738 40.6C36.4738 39.5867 36.1671 38.7867 35.5538 38.2C34.9404 37.6133 34.1404 37.32 33.1538 37.32C32.1671 37.32 31.3538 37.6133 30.7138 38.2C30.1004 38.7867 29.7938 39.5867 29.7938 40.6C29.7938 41.6133 30.1004 42.4267 30.7138 43.04C31.3538 43.6267 32.1671 43.92 33.1538 43.92Z" fill="#001A49"/>
<defs>
<clipPath id="clip0">
<rect width="42" height="42" fill="white" transform="translate(15.8704) rotate(15)"/>
</clipPath>
</defs>
</svg>
