<svg width="60" height="65" viewBox="0 0 60 65" fill="none" xmlns="http://www.w3.org/2000/svg">
<g clip-path="url(#clip0)">
<path d="M44.2353 38.2163L18.3647 31.2843C17.9694 31.1784 17.6525 30.8841 17.5175 30.4979C15.4453 24.5779 17.7635 14.879 18.1267 13.4443C18.1405 13.3879 18.155 13.3311 18.1701 13.2748C18.3467 12.6159 19.0235 12.2243 19.6828 12.3996L19.6853 12.4003C20.343 12.5765 20.735 13.2518 20.5611 13.9105C20.559 13.9186 20.5404 13.9892 20.5096 14.115C19.704 17.5426 21.7701 21.0251 25.1946 21.9427C28.6856 22.8781 32.2868 20.799 33.2222 17.308C33.399 16.6481 34.0775 16.2567 34.737 16.4334L37.4815 17.1688C38.1414 17.3456 38.5329 18.0237 38.3561 18.6836C37.4207 22.1747 39.5001 25.7759 42.9912 26.7113C46.4187 27.6297 49.9525 25.6424 50.9651 22.2656C50.9993 22.1467 51.0178 22.08 51.0199 22.0722C51.1988 21.4146 51.8756 21.0256 52.5336 21.202L52.5358 21.2025C53.1944 21.3804 53.5848 22.0579 53.4082 22.7168C53.393 22.7735 53.3773 22.8296 53.3613 22.8857C52.9583 24.3094 50.1163 33.8682 45.3621 37.9592C45.0521 38.2258 44.6302 38.3221 44.2353 38.2163Z" fill="#FFAE80"/>
<path d="M52.5359 21.2026C52.5353 21.2024 52.5346 21.2023 52.5337 21.202C51.876 21.0258 51.1989 21.4146 51.0201 22.072C51.0179 22.08 50.9997 22.1468 50.9652 22.2656C49.9527 25.6421 46.4189 27.6298 42.9913 26.7114C39.5002 25.7759 37.4211 22.1748 38.3566 18.6838C38.5334 18.0239 38.1415 17.3457 37.4819 17.1689L36.1099 16.8013L31.3005 34.7501L44.2355 38.216C44.6307 38.3219 45.0523 38.2256 45.3623 37.959C50.1168 33.8681 52.9588 24.3092 53.3615 22.8855C53.3777 22.8298 53.3935 22.7733 53.4086 22.717C53.5849 22.0579 53.1945 21.3804 52.5359 21.2026V21.2026Z" fill="#FF792E"/>
<path d="M37.2021 12.7248C35.0735 12.1544 32.8778 13.4222 32.3074 15.5507C31.7371 17.6793 33.0049 19.8747 35.1334 20.445C37.262 21.0154 39.4577 19.748 40.028 17.6194C40.5983 15.4909 39.3306 13.2951 37.2021 12.7248Z" fill="#FF792E"/>
<path d="M37.2021 12.7251L35.1334 20.4457C37.2621 21.0157 39.4574 19.7482 40.0278 17.6197C40.5981 15.4911 39.3303 13.2957 37.2021 12.7251V12.7251Z" fill="#FF5E3B"/>
<path d="M19.9794 11.3029C17.8509 10.7326 15.6551 12.0003 15.0848 14.1288C14.5144 16.2574 15.7822 18.4531 17.9107 19.0235C20.0392 19.5938 22.2347 18.326 22.805 16.1975C23.3754 14.0689 22.108 11.8733 19.9794 11.3029Z" fill="#FF792E"/>
<path d="M52.8277 20.1046C50.6992 19.5342 48.5038 20.8021 47.9334 22.9306C47.3632 25.0588 48.6306 27.2545 50.7591 27.8248C52.8877 28.3952 55.0834 27.1275 55.6537 24.9992C56.224 22.8707 54.9563 20.6749 52.8277 20.1046Z" fill="#FF5E3B"/>
<path d="M43.1851 42.1362L17.3145 35.2042C16.6546 35.0273 16.2631 34.3492 16.4399 33.6893L17.3945 30.1265L45.6546 37.6987L44.6999 41.2616C44.5231 41.9214 43.8449 42.313 43.1851 42.1362V42.1362Z" fill="#FF792E"/>
<path d="M30.2501 38.6702L43.1851 42.1361C43.845 42.3129 44.5231 41.9214 44.7 41.2615L45.6546 37.6986L31.5249 33.9126L30.2501 38.6702Z" fill="#FF5E3B"/>
</g>
<path d="M15.64 47.4C18.0933 47.8 19.9733 48.72 21.28 50.16C22.5867 51.5733 23.24 53.3333 23.24 55.44C23.24 57.0667 22.8133 58.5733 21.96 59.96C21.1067 61.32 19.8 62.4133 18.04 63.24C16.3067 64.0667 14.1733 64.48 11.64 64.48C9.66667 64.48 7.72 64.2267 5.8 63.72C3.90667 63.1867 2.29333 62.44 0.96 61.48L3.48 56.52C4.54667 57.32 5.77333 57.9467 7.16 58.4C8.57333 58.8267 10.0133 59.04 11.48 59.04C13.1067 59.04 14.3867 58.7333 15.32 58.12C16.2533 57.48 16.72 56.5867 16.72 55.44C16.72 53.1467 14.9733 52 11.48 52H8.52V47.72L14.28 41.2H2.36V36H21.96V40.2L15.64 47.4ZM34.2319 47.24C32.7919 47.24 31.4852 46.96 30.3119 46.4C29.1652 45.8133 28.2585 45.0267 27.5919 44.04C26.9519 43.0267 26.6319 41.88 26.6319 40.6C26.6319 39.3467 26.9519 38.2133 27.5919 37.2C28.2585 36.1867 29.1652 35.4 30.3119 34.84C31.4852 34.28 32.7919 34 34.2319 34C35.6719 34 36.9652 34.28 38.1119 34.84C39.2585 35.4 40.1519 36.1867 40.7919 37.2C41.4585 38.2133 41.7919 39.3467 41.7919 40.6C41.7919 41.88 41.4585 43.0267 40.7919 44.04C40.1519 45.0533 39.2585 45.84 38.1119 46.4C36.9652 46.96 35.6719 47.24 34.2319 47.24ZM34.2319 43.92C35.2185 43.92 36.0185 43.6267 36.6319 43.04C37.2452 42.4267 37.5519 41.6133 37.5519 40.6C37.5519 39.5867 37.2452 38.7867 36.6319 38.2C36.0185 37.6133 35.2185 37.32 34.2319 37.32C33.2452 37.32 32.4319 37.6133 31.7919 38.2C31.1785 38.7867 30.8719 39.5867 30.8719 40.6C30.8719 41.6133 31.1785 42.4267 31.7919 43.04C32.4319 43.6267 33.2452 43.92 34.2319 43.92Z" fill="#001A49"/>
<defs>
<clipPath id="clip0">
<rect width="42" height="42" fill="white" transform="translate(18.8706) rotate(15)"/>
</clipPath>
</defs>
</svg>
