<svg width="279" height="41" viewBox="0 0 279 41" fill="none" xmlns="http://www.w3.org/2000/svg">
<rect width="279" height="41" rx="20.5" fill="url(#paint0_linear)" fill-opacity="0.35"/>
<path d="M75.9691 27.05C75.6518 27.442 75.2645 27.7407 74.8071 27.946C74.3591 28.1513 73.8645 28.254 73.3231 28.254C72.5951 28.254 71.9371 28.0953 71.3491 27.778C70.7611 27.47 70.0891 26.9193 69.3331 26.126C68.4465 26.014 67.6531 25.7293 66.9531 25.272C66.2625 24.8147 65.7211 24.2267 65.3291 23.508C64.9465 22.78 64.7551 21.9773 64.7551 21.1C64.7551 20.1387 64.9838 19.2753 65.4411 18.51C65.9078 17.7353 66.5471 17.1287 67.3591 16.69C68.1805 16.2513 69.0998 16.032 70.1171 16.032C71.1345 16.032 72.0491 16.2513 72.8611 16.69C73.6731 17.1287 74.3125 17.7353 74.7791 18.51C75.2458 19.2753 75.4791 20.1387 75.4791 21.1C75.4791 22.2387 75.1571 23.2373 74.5131 24.096C73.8785 24.9547 73.0338 25.552 71.9791 25.888C72.2125 26.1307 72.4365 26.3033 72.6511 26.406C72.8751 26.518 73.1131 26.574 73.3651 26.574C73.9718 26.574 74.5038 26.3313 74.9611 25.846L75.9691 27.05ZM67.0511 21.1C67.0511 21.7067 67.1818 22.248 67.4431 22.724C67.7138 23.2 68.0825 23.5733 68.5491 23.844C69.0158 24.1053 69.5385 24.236 70.1171 24.236C70.6958 24.236 71.2185 24.1053 71.6851 23.844C72.1518 23.5733 72.5158 23.2 72.7771 22.724C73.0478 22.248 73.1831 21.7067 73.1831 21.1C73.1831 20.4933 73.0478 19.952 72.7771 19.476C72.5158 19 72.1518 18.6313 71.6851 18.37C71.2185 18.0993 70.6958 17.964 70.1171 17.964C69.5385 17.964 69.0158 18.0993 68.5491 18.37C68.0825 18.6313 67.7138 19 67.4431 19.476C67.1818 19.952 67.0511 20.4933 67.0511 21.1ZM84.1091 26.168C82.7091 26.168 81.6171 25.7807 80.8331 25.006C80.0584 24.2313 79.6711 23.1253 79.6711 21.688V16.2H81.9391V21.604C81.9391 23.3587 82.6671 24.236 84.1231 24.236C84.8324 24.236 85.3737 24.026 85.7471 23.606C86.1204 23.1767 86.307 22.5093 86.307 21.604V16.2H88.5471V21.688C88.5471 23.1253 88.1551 24.2313 87.3711 25.006C86.5964 25.7807 85.5091 26.168 84.1091 26.168ZM100.948 24.18V26H93.3597V16.2H100.766V18.02H95.6137V20.148H100.164V21.912H95.6137V24.18H100.948ZM114.242 26L114.228 20.12L111.344 24.964H110.322L107.452 20.246V26H105.324V16.2H107.2L110.868 22.29L114.48 16.2H116.342L116.37 26H114.242ZM129.608 26.168C128.946 26.168 128.334 26.0467 127.774 25.804C127.224 25.552 126.771 25.1973 126.416 24.74L127.676 23.228C128.208 23.9467 128.815 24.306 129.496 24.306C130.42 24.306 130.882 23.7647 130.882 22.682V18.02H127.438V16.2H133.136V22.556C133.136 23.76 132.838 24.6653 132.24 25.272C131.643 25.8693 130.766 26.168 129.608 26.168ZM144.197 23.9H139.647L138.779 26H136.455L140.823 16.2H143.063L147.445 26H145.065L144.197 23.9ZM143.483 22.178L141.929 18.426L140.375 22.178H143.483ZM142.559 13.386H144.911L142.377 15.402H140.669L142.559 13.386ZM164.024 23.9H159.474L158.606 26H156.282L160.65 16.2H162.89L167.272 26H164.892L164.024 23.9ZM163.31 22.178L161.756 18.426L160.202 22.178H163.31ZM175.102 16.2C175.97 16.2 176.721 16.3447 177.356 16.634C178 16.9233 178.494 17.334 178.84 17.866C179.185 18.398 179.358 19.028 179.358 19.756C179.358 20.4747 179.185 21.1047 178.84 21.646C178.494 22.178 178 22.5887 177.356 22.878C176.721 23.158 175.97 23.298 175.102 23.298H173.128V26H170.86V16.2H175.102ZM174.976 21.45C175.657 21.45 176.175 21.3053 176.53 21.016C176.884 20.7173 177.062 20.2973 177.062 19.756C177.062 19.2053 176.884 18.7853 176.53 18.496C176.175 18.1973 175.657 18.048 174.976 18.048H173.128V21.45H174.976ZM188.431 26.168C187.414 26.168 186.494 25.9487 185.673 25.51C184.861 25.0713 184.222 24.4693 183.755 23.704C183.298 22.9293 183.069 22.0613 183.069 21.1C183.069 20.1387 183.298 19.2753 183.755 18.51C184.222 17.7353 184.861 17.1287 185.673 16.69C186.494 16.2513 187.414 16.032 188.431 16.032C189.448 16.032 190.363 16.2513 191.175 16.69C191.987 17.1287 192.626 17.7353 193.093 18.51C193.56 19.2753 193.793 20.1387 193.793 21.1C193.793 22.0613 193.56 22.9293 193.093 23.704C192.626 24.4693 191.987 25.0713 191.175 25.51C190.363 25.9487 189.448 26.168 188.431 26.168ZM188.431 24.236C189.01 24.236 189.532 24.1053 189.999 23.844C190.466 23.5733 190.83 23.2 191.091 22.724C191.362 22.248 191.497 21.7067 191.497 21.1C191.497 20.4933 191.362 19.952 191.091 19.476C190.83 19 190.466 18.6313 189.999 18.37C189.532 18.0993 189.01 17.964 188.431 17.964C187.852 17.964 187.33 18.0993 186.863 18.37C186.396 18.6313 186.028 19 185.757 19.476C185.496 19.952 185.365 20.4933 185.365 21.1C185.365 21.7067 185.496 22.248 185.757 22.724C186.028 23.2 186.396 23.5733 186.863 23.844C187.33 24.1053 187.852 24.236 188.431 24.236ZM198.069 16.2H200.337V26H198.069V16.2ZM211.688 23.9H207.138L206.27 26H203.946L208.314 16.2H210.554L214.936 26H212.556L211.688 23.9ZM210.974 22.178L209.42 18.426L207.866 22.178H210.974Z" fill="#001A49"/>
<defs>
<linearGradient id="paint0_linear" x1="0" y1="41" x2="279" y2="41" gradientUnits="userSpaceOnUse">
<stop stop-color="#FFD7A9"/>
<stop offset="1" stop-color="#FFAE70"/>
</linearGradient>
</defs>
</svg>
