<svg width="476" height="381" viewBox="0 0 476 381" fill="none" xmlns="http://www.w3.org/2000/svg">
<path opacity="0.75" fill-rule="evenodd" clip-rule="evenodd" d="M404.611 24.2459C327.594 -25.3463 267.544 120.224 223.927 138.55C136.025 175.483 -27.2454 207.605 3.8919 279.407C46.6458 377.997 195.405 387.834 301.785 377.997C440.153 365.202 556.033 121.749 404.611 24.2459Z" fill="#AD09FF"/>
<path fill-rule="evenodd" clip-rule="evenodd" d="M360.15 163.133C360.816 163.721 361.042 164.64 361.209 165.52L362.221 171.043C362.362 171.811 363.007 172.175 363.255 171.738C363.517 171.275 364.219 171.467 364.689 171.717L370.556 174.839C368.56 176.272 366.205 177.2 363.768 177.515C362.566 177.67 362.372 179.316 362.5 180.52L362.847 183.798C362.956 184.819 361.349 185.166 360.547 184.525C359.744 183.885 359.44 182.812 358.807 182.003C357.786 180.696 355.98 180.209 354.328 180.36C352.676 180.511 351.129 181.204 349.618 181.887C348.643 182.327 347.571 181.161 347.647 180.094C347.714 179.153 348.316 178.364 348.93 177.629L349.175 177.338C349.864 176.52 350.553 175.551 350.437 174.487C350.34 173.602 349.708 172.889 349.074 172.252L348.703 171.88C348.115 171.279 347.557 170.612 347.454 169.79C347.336 168.851 348.193 167.77 349.093 168.061C352.561 169.182 356.737 166.997 357.792 163.508C358.066 162.602 359.44 162.507 360.15 163.133Z" fill="white"/>
<path fill-rule="evenodd" clip-rule="evenodd" d="M360.15 163.133C360.816 163.721 361.042 164.64 361.209 165.52L362.221 171.043C362.362 171.811 362.053 173 361.32 172.731C360.276 170.518 359.72 168.075 359.704 165.627C359.306 165.245 358.713 165.814 358.465 166.308L355.989 171.241C355.553 172.109 354.252 171.918 353.393 171.463L352.932 171.22C352.187 170.833 351.375 170.491 350.668 170.872C350.308 171.952 351.911 172.491 352.743 173.268C353.693 174.156 353.637 175.751 352.973 176.868C352.309 177.986 351.186 178.74 350.101 179.455C351.66 179.713 353.324 179.257 354.535 178.241C355.082 177.781 355.583 177.192 356.282 177.046C357.363 176.82 358.335 177.758 358.896 178.709C359.457 179.661 359.902 180.775 360.861 181.324C361.341 180.568 361.084 179.618 360.782 178.743L360.638 178.336C360.291 177.358 360.135 176.063 360.986 175.469C361.306 175.246 361.703 175.181 362.094 175.138L366.279 174.719L363.868 172.963C363.462 172.667 363.007 172.175 363.255 171.738C363.517 171.275 364.219 171.467 364.689 171.717L370.556 174.839C368.56 176.272 366.205 177.2 363.768 177.515C362.566 177.67 362.372 179.316 362.5 180.52L362.847 183.798C362.956 184.819 361.349 185.166 360.547 184.525C359.744 183.885 359.44 182.812 358.807 182.003C357.786 180.696 355.98 180.209 354.328 180.36C352.676 180.511 351.129 181.204 349.618 181.887C348.643 182.327 347.571 181.161 347.647 180.094C347.714 179.153 348.316 178.364 348.93 177.629L349.175 177.338C349.864 176.52 350.553 175.551 350.437 174.487C350.34 173.602 349.708 172.889 349.074 172.252L348.703 171.88C348.115 171.279 347.557 170.612 347.454 169.79C347.336 168.851 348.193 167.77 349.093 168.061C352.561 169.182 356.737 166.997 357.792 163.508C358.066 162.602 359.44 162.507 360.15 163.133Z" fill="#FFB61D"/>
<path fill-rule="evenodd" clip-rule="evenodd" d="M129.285 64.085C126.774 52.9262 133.614 34.4031 145.837 26.9554C158.06 19.5077 173.694 18.9975 187.306 23.4203C186.872 10.2702 200.208 -1.01396 213.321 0.0724772C226.433 1.15892 237.312 12.9312 239.074 25.97C240.447 36.1295 235.231 48.2308 225.146 50.071C228.711 62.8085 230.693 76.2102 228.737 89.2916C226.78 102.373 220.555 115.151 210.049 123.187C207.148 127.089 209.339 132.974 213.157 135.984C216.976 138.993 221.918 140.05 226.487 141.711C245.633 148.669 259.113 167.558 262.255 187.685C265.397 207.812 259.121 228.686 247.779 245.607C240.011 257.197 229.443 267.49 216.221 271.948C197.663 278.204 177.315 272.113 159.294 264.444C152.425 261.521 145.429 258.198 140.58 252.522C135.382 246.437 125.557 249.724 118.472 253.445C123.183 255.4 127.894 257.355 132.605 259.309C133.617 259.729 134.716 260.228 135.185 261.219C136.173 263.303 133.739 265.31 131.678 266.347C129.464 267.462 127.25 268.577 125.036 269.692C111.444 276.536 97.2896 283.529 82.0783 283.952C65.4477 284.414 49.7384 276.98 34.7712 269.716C33.1075 268.908 31.3441 268.01 30.4395 266.397C29.5349 264.784 30.0406 262.268 31.8283 261.796C48.619 257.355 64.5157 249.562 78.3094 239.008C77.2542 232.439 77.5029 225.662 79.0368 219.188C79.2587 218.251 79.5778 217.224 80.4123 216.745C82.4641 215.566 84.2462 218.671 84.6087 221.009C85.5238 226.912 86.4388 232.814 87.3539 238.716C98.3418 237.501 109.006 233.465 118.045 227.1C110.995 221.423 103.945 215.745 96.8949 210.067C92.8271 206.791 88.9007 204.832 86.7038 198.417C85.2392 194.141 86.4213 189.748 90.25 185.238C85.9759 163.938 84.1057 147.882 84.6395 137.069C84.782 134.183 85.1051 131.067 87.0477 128.928C90.4769 125.152 97.2102 126.78 100.34 130.807C103.47 134.835 103.994 140.24 104.399 145.325C116.317 143.869 128.235 142.413 140.152 140.956C144.513 140.424 149.028 139.903 153.225 141.201C158.49 142.829 162.719 147.44 163.886 152.827C168.915 151.467 174.392 149.793 177.233 145.426C180.073 141.059 177.667 133.463 172.462 133.688C156.182 134.393 140.26 122.312 136.555 106.443C135.612 102.408 135.246 97.9226 132.413 94.8979C127.923 90.1047 124.502 83.9255 124.524 77.3581C124.546 70.7907 127.298 70.0071 129.285 64.085ZM32.1035 266.195C32.4701 266.743 33.1098 267.03 33.7158 267.289C39.9327 269.95 46.1497 272.611 52.3667 275.271C55.1955 276.482 58.0335 277.696 60.9918 278.542C69.242 280.903 78.1322 280.327 86.3352 282.847C87.3301 283.153 88.3981 282.837 89.3888 282.518C96.5432 280.213 103.614 277.648 110.581 274.828C117.87 271.878 125.093 268.623 131.565 264.156C132.154 263.75 132.765 263.298 133.034 262.635C133.302 261.972 133.055 261.05 132.367 260.854C127.999 259.614 123.695 258.151 119.476 256.472C118.12 255.933 116.593 255.163 116.305 253.732C112.588 253.882 109.338 256.226 106.597 258.74C103.855 261.254 101.28 264.093 97.9023 265.65C94.5243 267.208 89.9906 267.073 87.6505 264.182C87.4006 263.873 87.1496 263.518 86.7653 263.417C86.381 263.317 85.8874 263.7 86.0665 264.054C86.5304 264.973 85.5339 266.134 84.5069 266.07C83.4799 266.006 82.6769 265.071 82.4241 264.073C82.1713 263.076 80.7991 264.858 78.8103 265.154C76.8216 265.451 74.7117 264.175 74.0511 262.276C73.5067 260.71 71.3722 260.683 69.7411 260.39C66.0325 259.724 63.2163 255.838 63.7379 252.106C53.0796 255.661 42.6146 259.795 32.4044 264.483C31.8055 264.759 31.737 265.648 32.1035 266.195Z" fill="white"/>
<path d="M181.735 112.667C184.865 112.667 187.402 110.13 187.402 107C187.402 103.87 184.865 101.333 181.735 101.333C178.605 101.333 176.068 103.87 176.068 107C176.068 110.13 178.605 112.667 181.735 112.667Z" fill="#FFB61D"/>
<path d="M142.401 108C144.058 108 145.401 106.657 145.401 105C145.401 103.343 144.058 102 142.401 102C140.745 102 139.401 103.343 139.401 105C139.401 106.657 140.745 108 142.401 108Z" fill="#FFB61D"/>
<path fill-rule="evenodd" clip-rule="evenodd" d="M208.796 129.743C209.315 132.436 210.857 135.046 212.911 136.664C216.73 139.673 225.313 142.772 229.882 144.432C230.298 144.583 227.953 145.907 224.927 148.835C216.733 156.761 198.818 170.955 181.316 163.822C179.27 162.989 177.56 162.029 176.167 161.011C174.883 160.074 186.666 161.424 197.682 159.336C208.758 157.236 219.063 151.688 216.305 147.29C213.712 143.156 206.421 136.153 205.852 132.034C205.094 126.547 208.349 127.428 208.796 129.743Z" fill="#E7EAEE"/>
<path fill-rule="evenodd" clip-rule="evenodd" d="M31.8784 264.637C31.8784 262.439 38.8097 260.66 50.6588 256.203C58.8085 253.137 74.6936 244.267 82.5091 243.854C87.7097 243.579 108.493 251.188 122.056 256.652C128.876 259.4 134.137 261.121 134.137 262.002C134.137 263.773 119.657 272.321 104.856 277.939C97.6325 280.681 90.8549 283.137 84.6393 282.971C65.6894 282.466 31.8784 270.202 31.8784 264.637Z" fill="white"/>
<path fill-rule="evenodd" clip-rule="evenodd" d="M299.59 82.0623C272.416 93.6684 249.715 113.5 228.085 133.667L226.762 134.902C225.501 136.082 223.585 137.315 222.224 136.252L226.427 132.426C248.417 112.446 271.154 92.6351 298.363 80.8646C319.282 71.815 319.06 73.7465 299.59 82.0623ZM182.54 275.385L195.287 289.27C195.912 289.95 196.562 290.68 196.737 291.587C196.912 292.494 196.386 293.602 195.468 293.698L169.222 296.443C164.862 296.898 160.417 293.876 159.161 289.676C157.906 285.477 159.915 280.557 163.712 278.367C167.509 276.177 172.717 276.868 175.868 279.914C176.649 280.669 178.02 280.028 178.574 279.094C179.129 278.16 179.248 277.015 179.821 276.093C180.394 275.171 181.805 274.585 182.54 275.385ZM161.375 283.399C159.747 286.488 160.776 290.672 163.562 292.776C164.927 293.808 166.603 294.361 168.292 294.633C170.678 295.018 173.445 294.727 174.979 292.859C175.539 292.178 175.882 291.342 176.116 290.491C176.896 287.66 176.5 284.525 175.04 281.977C174.643 281.283 174.032 280.559 173.233 280.594C172.854 280.61 172.502 280.802 172.124 280.841C171.495 280.906 170.913 280.547 170.34 280.28C167.175 278.806 163.002 280.31 161.375 283.399ZM181.407 278.17C180.906 280.26 179.869 282.218 178.423 283.807C178.015 284.255 178.115 284.947 178.198 285.546C178.6 288.466 177.935 291.521 176.356 294.009C178.944 293.397 181.59 293.03 184.246 292.917C187.888 292.762 191.688 293.055 195.026 291.59C193.242 290.814 191.729 289.433 190.792 287.729C190.242 286.726 189.48 285.859 188.724 285L182.92 278.405C182.501 277.928 181.555 277.552 181.407 278.17ZM115.493 278.045C116.326 280.644 119.456 281.534 122.168 282.002L140.266 285.025C144.451 285.723 148.747 286.421 152.908 285.596C153.693 285.44 154.109 286.687 153.591 287.297C153.073 287.908 152.171 287.98 151.371 287.983C147.745 287.995 144.14 287.513 140.552 286.974L136.73 286.391C129.965 285.351 123.203 284.244 116.581 282.521C115.448 282.226 114.274 281.889 113.406 281.102C112.539 280.316 112.087 278.942 112.698 277.942C113.308 276.943 115.136 276.929 115.493 278.045ZM213.321 0.0724773C226.433 1.15892 237.312 12.9312 239.074 25.97C240.447 36.1295 235.231 48.2308 225.146 50.071C228.711 62.8085 230.693 76.2102 228.737 89.2916C226.78 102.373 220.555 115.151 210.049 123.187C207.148 127.089 209.339 132.974 213.157 135.984C216.976 138.993 221.918 140.05 226.487 141.711C245.633 148.669 259.112 167.558 262.255 187.685C265.397 207.812 259.121 228.686 247.779 245.607C240.011 257.197 229.443 267.49 216.221 271.948C197.848 278.142 177.722 272.233 159.836 264.674L159.294 264.444C152.568 261.582 145.721 258.337 140.886 252.874L140.58 252.522C135.382 246.437 125.557 249.724 118.472 253.445L132.605 259.309C133.617 259.729 134.716 260.228 135.185 261.219C136.173 263.303 133.739 265.31 131.678 266.347L123.38 270.525C110.295 277.092 96.6729 283.546 82.0783 283.952C65.6411 284.408 50.1038 277.152 35.2936 269.969L34.3537 269.512C32.8196 268.754 31.2687 267.875 30.4395 266.397C29.5349 264.784 30.0406 262.268 31.8283 261.796C48.619 257.355 64.5157 249.562 78.3094 239.009C77.2542 232.439 77.5029 225.662 79.0368 219.188L79.115 218.873C79.336 218.03 79.6705 217.171 80.4123 216.745C82.4641 215.566 84.2462 218.671 84.6087 221.009L87.3539 238.716C98.3418 237.501 109.006 233.465 118.045 227.1L96.3264 209.609C92.4379 206.463 88.501 203.061 86.7038 198.417C84.8189 193.546 86.3353 186.944 91.2062 185.059C91.5905 166.607 90.6179 148.128 88.2989 129.82C85.0922 148.106 87.6693 166.853 90.25 185.238C85.825 169.921 83.9089 153.882 84.5985 137.954L84.6395 137.069C84.782 134.183 85.1051 131.067 87.0477 128.928C90.4769 125.152 97.2102 126.78 100.34 130.807C103.47 134.835 103.994 140.24 104.399 145.325L140.972 140.857C145.076 140.366 149.29 139.984 153.225 141.201C158.49 142.829 162.719 147.441 163.886 152.827L164.744 152.592C169.526 151.269 174.553 149.546 177.233 145.426C180.042 141.105 177.718 133.625 172.628 133.684L172.462 133.689C156.182 134.393 140.26 122.312 136.555 106.443C135.612 102.408 135.246 97.9226 132.413 94.8979C127.923 90.1047 124.502 83.9255 124.524 77.3581C124.546 70.7907 128.734 64.0179 135.111 62.448C141.488 60.8781 149.035 66.1986 148.485 72.7429C151.578 72.4279 154.743 72.8305 157.66 73.9103C155.996 69.4263 160.307 64.4768 165.045 63.826C169.783 63.1752 174.4 65.5417 178.34 68.2524C182.281 70.9631 186.045 74.1543 190.626 75.5282L190.837 75.0396C191.784 72.8292 192.656 70.4684 192.179 68.1317C191.667 65.6218 188.839 63.4513 186.55 64.6004C184.942 59.9958 182.385 55.7251 179.085 52.1344L169.913 56.4587C168.731 54.6888 168.007 52.616 167.83 50.4952C161.774 53.9562 155.201 56.5104 148.397 58.0466L149.093 52.8517L128.76 63.4127C125.758 49.4181 133.614 34.4031 145.837 26.9554C158.06 19.5077 173.694 18.9975 187.306 23.4203C186.872 10.2702 200.208 -1.01396 213.321 0.0724773ZM313.349 228.167C301.636 230.994 290.264 235.238 279.563 240.777L278.789 241.181C272.86 244.305 267.04 248.048 263.323 253.603C265.833 253.168 268.513 253.822 270.54 255.365C271.82 256.339 272.89 257.8 272.813 259.408C272.774 260.241 272.428 261.036 271.961 261.727C270.138 264.428 266.277 265.525 263.306 264.186C260.335 262.847 258.599 259.228 259.415 256.073C246.809 260.377 235.973 269.637 229.743 281.409L229.534 281.806C229.227 282.399 228.852 283.062 228.201 283.209C227.306 283.412 226.51 282.413 226.551 281.496C226.591 280.579 227.179 279.789 227.747 279.068C235.092 269.741 243.677 260.862 254.664 256.36L255.491 256.027C258.083 254.999 260.796 253.99 262.469 251.797C266.528 246.48 272.372 242.829 278.307 239.739C283.617 236.974 289.111 234.56 294.74 232.519C300.389 230.47 306.164 228.799 311.952 227.179L331.559 221.72C326.256 225.447 319.65 226.646 313.349 228.167ZM63.7379 252.106C53.0796 255.661 42.6146 259.795 32.4044 264.483C31.8055 264.759 31.737 265.648 32.1035 266.196C32.4701 266.743 33.1098 267.03 33.7158 267.289L52.3667 275.271C55.1955 276.482 58.0335 277.696 60.9918 278.542C69.242 280.903 78.1322 280.327 86.3352 282.847C87.3301 283.153 88.3981 282.837 89.3888 282.518C96.5432 280.213 103.614 277.648 110.581 274.828C117.87 271.878 125.093 268.623 131.565 264.156C132.154 263.75 132.765 263.298 133.034 262.635C133.302 261.972 133.055 261.05 132.367 260.854C127.999 259.614 123.695 258.151 119.476 256.472L119.183 256.353C117.908 255.819 116.572 255.061 116.305 253.732C112.588 253.882 109.338 256.226 106.597 258.74C103.855 261.254 101.28 264.093 97.9023 265.65C94.5243 267.208 89.9906 267.073 87.6505 264.182L87.4994 263.993C87.2949 263.741 87.0728 263.498 86.7653 263.417C86.381 263.317 85.8874 263.7 86.0665 264.054C86.5304 264.973 85.5339 266.134 84.5069 266.07C83.4799 266.006 82.6769 265.071 82.4241 264.073C82.2616 263.432 82.2759 262.769 82.3536 262.108L82.3731 261.946C81.9165 263.563 80.4851 264.905 78.8103 265.154C76.8216 265.451 74.7117 264.175 74.0511 262.276C73.5067 260.71 71.3722 260.683 69.7411 260.39C66.0325 259.724 63.2163 255.838 63.7379 252.106ZM88.9257 189.82C86.7287 193.729 88.7694 198.674 91.4755 202.248C99.9614 213.457 114.175 218.836 123.873 229.015C126.309 231.572 128.433 234.406 130.53 237.25L137.121 246.201C138.332 247.846 139.548 249.496 140.961 250.971C144.647 254.817 149.5 257.299 154.3 259.608C164.039 264.295 174.058 268.601 184.632 270.838C195.206 273.075 206.442 273.152 216.616 269.504C226.138 266.089 234.343 259.541 240.718 251.686C246.941 244.018 251.509 235.13 255.171 225.955L255.437 225.283C255.964 223.945 256.481 222.545 256.372 221.111C256.256 219.595 255.448 218.216 254.505 217.023C250.91 212.474 244.9 209.901 239.146 210.612C233.481 211.312 228.294 215.242 226.219 220.554L226.123 220.808C221.613 233.033 210.384 242.227 197.769 245.489C185.154 248.752 171.434 246.414 159.919 240.315C148.405 234.216 139.01 224.562 132.004 213.576L131.622 212.969C130.356 210.938 129.206 208.801 128.76 206.457C128.27 203.879 128.769 200.98 130.63 199.131C131.86 197.91 133.61 197.193 134.504 195.708C135.399 194.223 134.348 191.601 132.698 192.131L131.597 192.48C124.013 194.84 115.215 196.67 109.113 191.76L108.527 191.291C105.68 189.028 102.638 186.869 99.1013 186.091C95.3206 185.259 90.8227 186.446 88.9257 189.82ZM119.157 229.436C109.958 235.248 99.577 239.18 88.8357 240.92C87.4176 241.15 87.0365 242.988 87.0142 244.425C86.9433 248.99 87.1643 253.56 87.6756 258.097C88.8391 257.549 89.315 256.181 90.1083 255.169C90.9015 254.156 92.7117 253.602 93.3248 254.732C93.7531 255.522 93.1815 256.511 92.4516 257.035C91.7217 257.558 90.824 257.842 90.1731 258.461C88.5537 260.001 89.4002 263.03 91.3732 264.079C93.3461 265.129 95.8418 264.581 97.7334 263.391C99.625 262.201 101.086 260.456 102.69 258.9C106.121 255.571 110.316 253.036 114.859 251.549C120.625 249.66 127.046 249.379 132.119 246.05C132.461 245.826 132.814 245.563 132.943 245.175C133.119 244.645 132.822 244.095 132.505 243.624L126.436 234.81C125.469 233.407 124.356 231.899 122.7 231.497C121.942 231.313 121.135 231.384 120.391 231.15C119.648 230.915 118.948 230.187 119.157 229.436ZM76.7804 242.239C74.4139 243.344 73.0134 245.942 72.7017 248.535C72.39 251.128 73.0021 253.739 73.729 256.247C74.1753 257.787 74.6702 259.322 75.4082 260.745C75.8788 261.653 76.5019 262.558 77.445 262.953C78.388 263.347 79.6968 262.992 80.0033 262.017C80.1296 261.615 80.073 261.181 79.9999 260.766C79.7253 259.208 79.2325 257.688 78.541 256.264L78.2506 255.687C77.8346 254.855 77.4428 253.873 77.9777 253.147C78.4884 252.453 79.7437 252.166 79.6237 251.313L78.4517 242.982C78.4175 242.739 78.3772 242.481 78.2191 242.293C77.8862 241.897 77.2493 242.02 76.7804 242.239ZM264.404 255.089C263.623 255.085 262.8 255.193 262.173 255.659C261.806 255.932 261.529 256.313 261.333 256.726C260.509 258.475 261.27 260.722 262.832 261.861C264.395 262.999 266.56 263.106 268.369 262.424C269.752 261.902 271.083 260.721 271.036 259.243C271 258.077 270.115 257.104 269.139 256.465C267.744 255.553 266.07 255.096 264.404 255.089ZM81.2207 218.63C81.0207 218.778 80.9218 219.024 80.8373 219.258C79.6067 222.673 79.456 226.374 79.49 230.003C79.5751 239.103 80.7442 248.192 82.9645 257.017L83.0749 257.446C83.5288 259.169 84.1492 260.937 85.5548 262.002C85.8163 248.018 84.9089 234.011 82.8453 220.177C82.7113 219.279 81.9493 218.088 81.2207 218.63ZM70.1386 248.689C69.8449 248.772 69.6563 249.052 69.5096 249.319C68.3096 251.509 68.2285 254.276 69.2984 256.532C69.7781 257.543 70.6006 258.527 71.7132 258.651C72.1668 258.086 71.9595 257.272 71.7053 256.58L71.4859 255.995C70.6692 253.781 69.9989 251.385 70.7187 249.16C70.8126 248.87 70.4324 248.607 70.1386 248.689ZM66.1353 251.723C65.2937 253.594 65.6686 255.948 67.0498 257.465C67.6199 256.882 67.3692 255.927 67.1744 255.135C66.8698 253.896 66.801 252.6 66.9728 251.336C66.7605 251.024 66.2899 251.379 66.1353 251.723ZM83.8734 185.039C85.1491 186.138 85.9602 188.509 84.4452 189.243C83.4746 189.714 82.3747 189.026 81.4581 188.457C76.6955 185.502 70.6059 185.284 65.2064 186.788C59.8069 188.291 54.9797 191.353 50.4492 194.653C45.9375 197.939 41.5872 201.545 38.1947 205.977C34.8022 210.409 32.4026 215.75 32.2057 221.328C31.9697 228.012 34.8574 234.402 38.1966 240.197C40.3248 243.891 42.7247 247.532 46.0284 250.214L46.7076 250.751C47.6447 251.503 48.607 252.436 48.368 253.568C45.1298 253.421 42.7795 250.524 40.9962 247.818C38.4603 243.968 36.1488 239.972 34.0773 235.854C32.3547 232.43 30.7802 228.863 30.2569 225.066C29.2727 217.925 32.1718 210.665 36.6779 205.038C41.184 199.412 47.1809 195.19 53.2464 191.296C57.8536 188.337 62.5952 185.5 67.767 183.703C73.1007 181.849 79.5951 181.354 83.8734 185.039ZM220.751 153.588C213.081 160.747 202.886 165.145 192.416 165.811C187.788 166.106 183.01 165.663 178.823 163.671C174.635 161.679 171.109 157.964 170.135 153.431L169.788 153.538C166.757 154.497 163.287 156.232 163.318 159.355C163.447 172.601 163.139 185.852 162.394 199.078C162.251 201.616 161.284 204.948 158.743 204.873C149.716 204.608 140.63 206.692 132.621 210.865C141.635 225.003 154.456 237.363 170.403 242.541C186.35 247.719 205.583 244.483 216.758 231.983C220.34 227.977 222.977 223.24 225.515 218.494L226.1 217.4C226.64 216.387 227.189 215.185 226.709 214.143C226.403 213.477 227.063 212.786 227.67 212.376C236.587 206.34 249.865 207.978 257.049 215.999C256.479 214.886 256.997 213.351 258.124 212.81C259.02 214.249 259.21 216.107 258.623 217.698C259.011 218.247 259.724 217.364 259.785 216.694C260.743 206.267 260.668 195.745 259.561 185.333C259.162 181.579 258.62 177.801 257.276 174.273C256.098 171.178 254.328 168.342 252.388 165.659C247.925 159.486 242.499 154.01 236.367 149.491L235.922 149.167C234.95 148.471 233.927 147.829 232.778 147.516C228.23 146.278 224.196 150.372 220.751 153.588ZM158.793 147.59C153.723 149.296 148.233 148.968 142.896 149.337C135.376 149.857 127.957 151.812 121.157 155.068C118.229 156.47 115.396 158.118 112.299 159.093C105.721 161.164 98.1817 159.885 92.6553 155.761C91.4639 164.856 91.8153 174.151 93.69 183.131C93.8104 183.707 94.1902 184.445 94.7534 184.272C98.4911 183.124 102.511 184.748 105.834 186.808C109.158 188.868 112.281 191.437 116.055 192.456C120.484 193.652 125.176 192.547 129.559 191.157L129.887 191.053C132.134 190.331 135.04 189.73 136.48 191.599C137.696 193.175 136.928 195.529 135.642 197.048C134.355 198.566 132.611 199.695 131.561 201.386C130.272 203.462 130.266 206.267 131.545 208.349C139.915 204.992 148.875 203.109 157.888 202.812C159.696 202.752 160.33 200.413 160.441 198.607C161.415 182.789 161.713 166.929 161.337 151.085C161.296 149.396 160.394 147.051 158.793 147.59ZM294.317 190.365L294.675 190.545C296.895 191.673 299.257 193.176 299.588 195.607C299.697 196.407 299.56 197.221 299.37 198.006C299.106 199.093 298.705 200.208 297.86 200.941C296.964 201.717 295.705 201.938 294.52 201.892C292.187 201.801 289.852 200.714 288.501 198.81C287.149 196.906 286.932 194.183 288.192 192.217C289.453 190.252 292.225 189.328 294.317 190.365ZM290.856 193.084C289.473 193.661 288.975 195.532 289.552 196.915C290.13 198.297 291.5 199.208 292.925 199.674C294.381 200.151 296.258 200.112 297.126 198.849C297.414 198.428 297.551 197.922 297.631 197.418C297.805 196.32 297.699 195.106 296.993 194.249C296.117 193.187 294.623 192.974 293.227 192.895L292.881 192.878C292.197 192.847 291.488 192.821 290.856 193.084ZM116.26 164.493C116.435 165.157 116.3 165.858 116.181 166.534C115.339 171.296 115.278 176.195 115.999 180.976L116.133 181.822C116.221 182.421 116.257 183.053 115.913 183.535C115.516 184.09 114.404 184.034 114.348 183.354C113.875 177.56 113.571 171.753 113.439 165.942C113.413 164.832 113.703 163.356 114.81 163.27C115.494 163.218 116.085 163.829 116.26 164.493ZM77.3014 152.883C78.1202 153.13 78.9066 153.69 79.1439 154.512C79.3811 155.333 78.8411 156.371 77.9878 156.425C77.1926 156.475 76.5857 155.751 75.855 155.433C74.5432 154.862 73.0715 155.659 71.8655 156.429L71.2517 156.825C70.0938 157.588 68.9723 158.443 68.3365 159.659C67.6861 160.903 67.6316 162.364 67.6518 163.768C67.6657 164.743 67.7114 165.733 68.0131 166.661C68.6675 168.674 70.5348 170.182 72.6061 170.619C74.6773 171.055 76.8926 170.49 78.6447 169.302L78.9877 169.069C79.2971 168.865 79.6214 168.687 79.9854 168.67C80.4858 168.646 81.0336 169.117 80.8635 169.589C80.8125 169.73 80.7077 169.844 80.6029 169.952C77.739 172.894 72.7936 173.524 69.2837 171.393C68.6576 171.013 68.0739 170.555 67.6007 169.996C66.1785 168.315 65.9131 165.96 65.8739 163.759C65.8528 162.568 65.8822 161.359 66.2208 160.216C66.9523 157.748 69.0196 155.915 71.1683 154.498C72.9926 153.294 75.2084 152.254 77.3014 152.883ZM60.7318 147.82L67.8717 156.299C67.479 156.724 66.7905 156.752 66.2599 156.521C65.7882 156.316 65.4119 155.949 65.0574 155.572L60.8682 151.067C60.2971 155.64 58.9135 160.11 56.8015 164.206C56.5959 164.605 57.1783 164.941 57.6245 164.987C58.7141 165.099 59.816 164.974 60.8904 164.762L61.4442 164.65C62.3118 164.477 63.2017 164.342 64.0105 164.663C64.9927 165.052 65.5988 166.481 64.8112 167.185C64.3257 167.619 63.5902 167.565 62.9439 167.485L55.9903 166.625L55.7766 166.595C55.0901 166.482 54.3356 166.213 54.235 165.552C54.1743 165.153 54.3958 164.772 54.6032 164.426C57.0782 160.295 58.7271 155.672 59.4271 150.908L59.5326 150.152C59.6686 149.225 59.9094 148.219 60.7318 147.82ZM303.99 161.141C304.851 161.751 305.664 162.948 304.997 163.766C304.579 164.277 303.774 164.29 303.173 164.015C302.573 163.739 302.106 163.246 301.588 162.836C299.463 161.157 296.272 160.98 293.975 162.414C293.648 162.618 293.323 162.872 293.19 163.234C293.057 163.596 293.204 164.082 293.574 164.191C296.506 162.949 300.002 163.123 302.797 164.65C303.201 164.871 303.625 165.164 303.724 165.614C303.824 166.063 303.341 166.602 302.94 166.377C301.116 165.356 298.939 164.981 296.879 165.331C295.918 165.495 294.979 165.811 294.005 165.841C293.031 165.872 291.966 165.547 291.449 164.721C290.972 163.959 291.085 162.931 291.55 162.161C292.015 161.392 292.778 160.847 293.575 160.432C296.822 158.742 301.002 159.027 303.99 161.141ZM206.713 119.92C199.751 125.772 191.57 130.167 182.848 132.744L182.266 132.913C181.133 133.236 179.708 133.953 179.946 135.106L180.093 135.822C180.528 137.974 180.897 140.165 180.587 142.33C180.252 144.665 178.965 147.002 176.835 147.983L176.639 148.069C172.846 149.63 172.313 155.296 174.8 158.558C177.287 161.819 181.601 163.082 185.676 163.553C197.634 164.936 210.114 160.927 219.029 152.837C222.263 149.903 225.156 146.391 229.16 144.648L219.148 140.983C216.447 139.994 213.711 138.988 211.36 137.331C209.009 135.674 207.049 133.262 206.569 130.426C205.98 126.953 207.645 123.317 206.713 119.92ZM91.2272 129.31C90.976 129.422 90.7194 129.57 90.5986 129.817C90.4776 130.065 90.5184 130.357 90.5611 130.629L92.8549 145.088C93.5309 149.349 94.4805 154.071 97.9948 156.573C101.844 159.315 107.131 158.241 111.613 156.676L111.853 156.591C120.197 153.628 128.228 149.502 136.973 148.114C143.252 147.117 149.837 147.544 155.775 145.271C153.603 141.993 148.898 142.01 144.962 142.44L112.807 146.095C110.316 146.378 107.7 146.708 105.677 148.189C104.791 148.837 103.953 149.727 102.857 149.772C101.791 149.816 100.864 148.263 101.7 147.692L101.773 147.647C102.69 147.142 102.628 145.827 102.441 144.797L101.468 139.465C100.976 136.82 100.376 134.128 98.7935 131.969C97.0845 129.637 93.8694 128.136 91.2272 129.31ZM313.212 150.922C313.988 151.824 314.021 153.21 313.504 154.282C312.987 155.354 312.009 156.142 310.95 156.685C309.673 157.34 308.266 157.682 306.856 157.974L306.151 158.117C305.875 158.173 305.584 158.227 305.317 158.138C305.095 158.064 304.915 157.898 304.769 157.715C304.042 156.803 304.068 155.458 304.56 154.4C305.051 153.343 305.932 152.521 306.837 151.785C307.762 151.033 308.768 150.325 309.927 150.05C311.087 149.775 312.436 150.017 313.212 150.922ZM309.41 152.508L309.039 152.758C308.484 153.138 307.949 153.553 307.577 154.108C307.121 154.785 306.962 155.73 307.412 156.412L310.395 154.752C310.88 154.482 311.384 154.196 311.699 153.738C312.014 153.281 312.077 152.597 311.687 152.201C311.103 151.606 310.105 152.046 309.41 152.508ZM261.835 119.867C262.043 119.951 262.183 120.14 262.305 120.332L266.674 127.469C267.455 128.745 269.232 128.887 270.724 128.782C273.583 128.58 276.414 127.997 279.12 127.052C279.574 126.893 280.004 127.471 279.906 127.941C279.809 128.412 279.404 128.747 279.025 129.043L272.462 134.158C271.656 134.101 271.885 132.782 272.538 132.307L272.732 132.172C273.362 131.747 274.126 131.327 274.086 130.597L270.294 131.782C269.569 132.008 268.764 132.231 268.076 131.913C267.618 131.702 267.297 131.287 267.007 130.869L262.189 123.836L262.106 129.995C262.099 130.5 262.077 131.048 261.757 131.438C261.529 131.715 261.188 131.864 260.849 131.989L254.201 134.375C255.976 136.15 259.299 134.282 261.424 135.62C262.879 136.537 263.128 138.579 262.814 140.27C262.5 141.962 261.78 143.607 261.874 145.325C263.087 144.445 263.978 143.13 264.346 141.677C264.494 141.092 264.568 140.468 264.893 139.96C265.792 138.557 267.937 138.843 269.424 139.593C270.911 140.343 272.453 141.422 274.08 141.066L271.72 137.292C271.505 136.948 271.281 136.575 271.301 136.17C271.32 135.764 271.705 135.354 272.093 135.472C272.264 135.523 272.391 135.658 272.503 135.799L277.768 142.624C275.919 143.843 273.479 143.075 271.344 142.487L271.028 142.404C268.945 141.889 266.402 141.837 265.252 143.603C264.442 144.847 263.49 145.999 262.422 147.031C261.972 147.465 261.459 147.898 260.838 147.969C260.216 148.04 259.502 147.569 259.557 146.946L260.169 140.045C260.209 139.598 260.239 139.111 259.99 138.738C259.728 138.345 259.233 138.193 258.778 138.067L253.026 136.478C251.776 136.133 251.766 134.186 252.704 133.29C253.642 132.394 255.024 132.206 256.274 131.859C257.524 131.512 258.876 130.776 259.102 129.499L260.562 121.23C260.686 120.524 261.169 119.598 261.835 119.867ZM107.08 3.29315L106.017 4.15638C98.9396 9.92422 91.9651 15.971 86.7742 23.4688C81.3237 31.3414 77.9776 41.1037 79.6003 50.5405C81.9649 64.2923 94.2655 75.244 94.7914 89.1877C94.8612 91.0399 96.7474 92.1926 98.3253 93.1651C104.553 97.0029 109.167 103.094 112.213 109.745C115.163 116.188 116.738 123.17 117.883 130.167L117.992 130.845C118.163 131.912 118.287 133.126 117.599 133.959C116.911 134.792 115.141 134.5 115.21 133.422C116.017 120.744 111.41 107.81 102.768 98.4983C100.524 96.0793 97.9159 93.837 94.7546 92.8899C94.5533 97.7731 92.9091 102.749 89.4286 106.181C85.9481 109.612 80.4574 111.179 75.9516 109.286C71.4459 107.392 68.6894 101.675 70.7172 97.2285C72.416 93.5033 76.6348 91.6214 80.6514 90.8283C84.5926 90.0501 88.6781 90.0096 92.6339 90.7093C93.1662 90.8035 93.3981 90.0594 93.3874 89.519C93.1014 75.0255 79.7042 63.6783 77.9455 49.289C76.9844 41.4252 79.6675 33.5091 83.5613 26.6098C88.6748 17.5493 95.9492 9.71798 104.608 3.95117L104.835 3.80409C105.529 3.36748 106.337 2.9951 107.08 3.29315ZM151.191 77.1118C149.253 78.3588 149.302 81.1262 149.142 83.4257C148.922 86.5799 147.838 89.737 145.723 92.0873C143.608 94.4377 140.394 95.8814 137.257 95.4869C136.445 95.3848 136.199 96.5591 136.305 97.3702C138.129 111.271 146.561 124.919 159.668 129.896C167.681 132.939 176.732 132.535 184.901 129.941C192.876 127.409 200.094 122.906 206.69 117.751L207.172 117.373C208.128 116.618 209.09 115.83 209.755 114.809C210.429 113.773 210.761 112.547 210.922 111.321C211.788 104.755 207.4 97.8849 201.079 95.9086C200.335 95.6761 200.507 94.4692 201.16 94.0432C201.813 93.6173 202.653 93.6461 203.399 93.4184C205.418 92.8013 206.347 90.5014 206.808 88.4408C207.441 85.6095 207.619 82.3807 205.864 80.0701C203.493 76.9476 198.882 76.9516 194.973 77.2509L188.629 77.7365C186.44 77.904 183.622 78.6757 183.519 80.8691C183.298 85.5932 181.217 90.299 177.54 93.2736C173.863 96.2482 168.569 97.2766 164.204 95.4558C159.909 93.6638 156.874 88.9878 157.37 84.3712L157.397 84.1479C157.656 82.195 157.513 80.0744 156.369 78.4708C155.225 76.8671 152.848 76.0461 151.191 77.1118ZM203.586 3.2902C200.757 4.09434 198.04 5.39135 195.807 7.30482C192.686 9.97895 190.612 13.8432 190.107 17.9219C189.928 19.367 190.215 21.2309 191.619 21.6191C195.047 22.5676 198.115 24.7669 200.114 27.7095C196.873 25.7807 193.319 24.3773 189.635 23.5704L205.209 32.3828C206.111 32.8936 207.049 33.4361 207.616 34.3042C208.184 35.1723 208.244 36.4679 207.464 37.1517L206.375 36.3044C203.646 34.1927 200.857 32.1456 197.803 30.5475C195.481 29.3323 193.03 28.3894 190.566 27.4913L189.221 27.0044C184.66 25.3587 180.056 23.7025 175.252 23.0449C170.792 22.4346 166.214 22.7056 161.857 23.8377L160.998 24.0579C155.113 25.5471 148.977 26.7648 144.111 30.363C141.217 32.5034 138.95 35.3687 136.798 38.2543L136.291 38.943C132.015 44.8136 128.108 52.0513 130.609 58.7868C142.095 57.372 151.043 48.4854 161.447 43.4197C162.243 43.0325 163.554 42.914 163.675 43.7902L152.032 50.6703C152.356 52.4469 152.05 54.3315 151.182 55.915C159.689 53.5114 167.641 49.1712 174.267 43.3208L174.688 42.9454C175.739 41.9991 177.765 41.2163 178.212 42.5577L177.643 42.8759C175.553 44.0512 173.475 45.3367 172.035 47.2399C170.463 49.316 169.838 52.3342 171.231 54.5341L185.928 45.8801C186.525 45.5286 187.176 45.1644 187.865 45.2368C188.555 45.3091 189.201 46.0512 188.903 46.6769L188.403 46.7811C186.817 47.1181 185.208 47.5404 183.973 48.5738C182.607 49.716 181.9 51.8573 182.915 53.32C184.735 55.9436 186.211 58.8048 187.296 61.8081C187.319 60.4948 189.109 59.8232 190.289 60.3998C191.469 60.9764 192.094 62.2777 192.521 63.5196C193.745 67.0723 194.068 70.9309 193.453 74.6375C197.149 75.9426 201.484 74.401 205.039 76.0518C208.338 77.5841 209.953 81.5585 209.723 85.1894C209.494 88.8204 207.778 92.1777 205.946 95.321C211.067 99.2882 213.802 106.122 212.834 112.527C213.726 112.381 214.481 111.61 214.607 110.715L216.638 111.996C213.462 113.792 211.202 117.123 210.709 120.739C224.664 107.679 229.298 86.9809 227.284 67.9739L227.206 67.265C226.408 60.4014 224.509 53.2469 219.347 48.7005C222.114 47.105 225.664 47.7325 228.625 46.5344C231.423 45.4024 233.346 42.7785 234.644 40.054C238.986 30.9458 237.491 19.3571 230.979 11.6493C224.468 3.9414 213.292 0.531036 203.586 3.2902ZM157.963 117.518C158.403 117.591 158.903 117.74 159.075 118.151C159.35 118.809 158.579 119.409 157.911 119.658C156.942 120.019 155.924 120.25 154.894 120.344C154.03 120.422 152.939 120.255 152.672 119.429C152.496 118.886 152.801 118.276 153.263 117.941C153.726 117.606 154.31 117.493 154.877 117.432C155.903 117.321 156.945 117.35 157.963 117.518ZM142.176 108.099C145.213 111.669 149.964 113.559 154.651 113.596C159.337 113.633 163.935 111.938 167.826 109.326L168.153 109.106C168.648 108.777 169.16 108.469 169.74 108.368C170.448 108.245 171.29 108.542 171.531 109.22C167.462 112.676 162.36 114.959 157.043 115.441C151.726 115.924 146.218 114.559 141.879 111.448C141.096 110.886 140.287 110.148 140.255 109.185C140.223 108.222 141.551 107.366 142.176 108.099ZM78.515 92.9806C76.403 93.6544 74.2776 94.6417 72.9452 96.4134C70.966 99.0452 71.3121 103.038 73.4498 105.543C75.5875 108.048 79.2023 109.048 82.4273 108.382C85.6523 107.717 88.4522 105.541 90.2644 102.791C92.0767 100.042 92.964 96.7595 93.2328 93.4775C93.2779 92.9273 93.1779 92.199 92.6352 92.098C87.9516 91.2266 83.0536 91.5327 78.515 92.9806ZM153.351 80.1564C153.44 80.9134 153.147 81.6561 152.877 82.3691C151.357 86.3976 150.431 90.6503 150.139 94.9466C150.092 95.6425 150.065 96.3642 150.32 97.0134C150.561 97.6265 151.121 98.1598 151.769 98.1964L151.885 98.1976C152.475 98.1767 152.755 99.0568 152.384 99.5163C152.013 99.9758 151.316 100.027 150.749 99.8587C149.587 99.5126 148.753 98.4304 148.416 97.2652C148.079 96.1 148.165 94.8559 148.334 93.6546C148.907 89.5818 150.394 85.633 150.466 81.5207C150.487 80.3603 150.724 78.796 151.881 78.7037C152.641 78.643 153.263 79.3995 153.351 80.1564ZM167.804 66.411C165.388 66.9079 163.544 68.8893 162.292 71.0134C159.726 75.3649 158.994 80.7603 160.31 85.6378C160.901 87.8279 161.91 89.9445 163.495 91.5679C165.079 93.1913 167.28 94.281 169.548 94.2435C171.131 94.2172 172.667 93.6554 174.043 92.8708C178.635 90.2508 181.552 84.941 181.301 79.6599C181.05 74.3788 177.642 69.3695 172.823 67.1968C171.253 66.4892 169.49 66.064 167.804 66.411ZM134.469 64.2458C130.153 65.8446 127.367 70.3263 126.774 74.89C126.18 79.4537 127.46 84.0702 129.285 88.2952C129.776 89.433 130.335 90.5899 131.278 91.3936C132.221 92.1974 133.65 92.5577 134.722 91.9356C135.221 91.6461 135.687 92.3232 136.066 92.7585C136.82 93.6257 138.148 93.6997 139.275 93.4744C142.989 92.7323 145.843 89.4871 146.998 85.8805C148.114 82.3941 147.876 78.6204 147.216 75.0128L147.147 74.6402C146.451 71.0018 144.878 66.9129 141.336 65.8295C139.479 65.2614 137.238 65.5934 135.803 64.2853C135.456 63.9695 134.908 64.0829 134.469 64.2458ZM203.049 79.6725C204.509 81.2899 203.912 83.8016 203.182 85.8769L203.122 86.0442C202.83 86.858 202.527 87.6911 201.969 88.351C201.41 89.011 200.533 89.4719 199.686 89.2957C198.84 89.1195 198.18 88.1378 198.536 87.3497C198.977 86.3714 200.477 86.3216 201.018 85.3949L199.556 85.2568C198.57 85.1638 197.51 85.0387 196.78 84.3704C196.05 83.7022 195.958 82.288 196.846 81.8501C197.461 81.5466 198.202 81.844 198.771 82.2266C199.34 82.6091 199.885 83.0934 200.563 83.1976C201.241 83.3018 202.065 82.7693 201.926 82.0978C201.731 81.1631 202.211 80.1283 203.049 79.6725ZM169.661 85.9865C169.776 86.6295 169.819 87.3116 169.578 87.919C169.338 88.5264 168.751 89.0346 168.098 89.0074C167.087 88.9653 166.546 87.801 166.369 86.8047C166.151 85.5737 166.492 83.8795 167.739 83.7879C168.806 83.7095 169.471 84.9335 169.661 85.9865ZM138.512 83.3734C139.015 84.1073 138.944 85.0878 138.744 85.9551C138.488 87.0648 137.845 88.3029 136.712 88.4188C135.689 88.5234 134.815 87.608 134.481 86.6356C134.072 85.4489 134.271 83.9991 135.197 83.1526C136.124 82.3061 137.802 82.3386 138.512 83.3734ZM139.455 70.8493C139.907 71.0571 140.226 71.6268 139.997 72.0688L139.56 72.1835C137.07 72.8479 134.416 73.7725 133.227 76.0235C132.942 76.563 132.757 77.1583 132.402 77.6546C132.047 78.1509 131.449 78.5453 130.852 78.4196C130.171 78.2764 129.778 77.4933 129.85 76.8018C129.923 76.1103 130.344 75.5075 130.794 74.978C132.627 72.8246 135.21 71.3224 137.988 70.794C138.477 70.701 139.003 70.6414 139.455 70.8493ZM171.274 72.0925C172.019 72.6924 172.585 73.4919 173.337 74.0819C173.972 74.5804 174.776 74.9746 175.064 75.729C175.353 76.4834 174.484 77.5488 173.854 77.0437C172.208 75.7248 170.381 74.6323 168.441 73.8064C167.561 73.432 167.761 71.9517 168.619 71.5302C169.477 71.1088 170.53 71.4926 171.274 72.0925ZM162.053 67.3616C160.431 67.8964 159.278 69.6035 159.389 71.3079C160.009 70.9904 160.482 70.3971 160.652 69.7214L160.628 69.6531C161.348 69.0842 161.861 68.259 162.053 67.3616Z" fill="#00160A"/>
<path fill-rule="evenodd" clip-rule="evenodd" d="M70.6469 271.644C71.2995 271.65 71.8997 271.952 72.4699 272.285L72.7781 272.468C76.273 274.56 79.9609 276.33 83.7797 277.748C84.3045 277.943 84.1415 278.824 83.6299 279.051C83.1184 279.279 82.5281 279.076 82.0064 278.873L70.7286 274.485C70.0069 274.204 69.1692 273.776 69.1059 273.004C69.0429 272.235 69.8756 271.638 70.6469 271.644Z" fill="#E7EAEE"/>
<path fill-rule="evenodd" clip-rule="evenodd" d="M52.6681 259.357L87.5561 271.733L87.7754 271.815C88.6975 272.176 89.6947 272.792 89.5962 273.744C89.5159 274.52 88.6573 275.02 87.8778 274.994C87.2182 274.972 86.6089 274.679 86.026 274.356L85.7105 274.179C80.846 271.42 75.7423 269.144 70.5079 267.177C64.5785 264.949 58.4815 263.119 52.3748 261.434C51.4409 261.176 50.2574 260.342 50.793 259.535C51.1686 258.968 52.0277 259.13 52.6681 259.357Z" fill="#E7EAEE"/>
</svg>
