<svg width="476" height="381" viewBox="0 0 476 381" fill="none" xmlns="http://www.w3.org/2000/svg">
<path opacity="0.75" fill-rule="evenodd" clip-rule="evenodd" d="M71.3895 24.2459C148.406 -25.3463 208.456 120.224 252.073 138.55C339.975 175.483 503.245 207.605 472.108 279.407C429.354 377.997 280.595 387.834 174.215 377.997C35.8466 365.202 -80.0325 121.749 71.3895 24.2459Z" fill="#AD09FF"/>
<path fill-rule="evenodd" clip-rule="evenodd" d="M115.85 163.133C115.184 163.721 114.958 164.64 114.791 165.52L113.779 171.043C113.638 171.811 112.993 172.175 112.745 171.738C112.483 171.275 111.781 171.467 111.311 171.717L105.444 174.839C107.44 176.272 109.795 177.2 112.232 177.515C113.434 177.67 113.628 179.316 113.5 180.52L113.153 183.798C113.044 184.819 114.651 185.166 115.453 184.525C116.256 183.885 116.56 182.812 117.193 182.003C118.214 180.696 120.02 180.209 121.672 180.36C123.324 180.511 124.871 181.204 126.382 181.887C127.357 182.327 128.429 181.161 128.353 180.094C128.286 179.153 127.684 178.364 127.07 177.629L126.825 177.338C126.136 176.52 125.447 175.551 125.563 174.487C125.66 173.602 126.292 172.889 126.926 172.252L127.297 171.88C127.885 171.279 128.443 170.612 128.546 169.79C128.664 168.851 127.807 167.77 126.907 168.061C123.439 169.182 119.263 166.997 118.208 163.508C117.934 162.602 116.56 162.507 115.85 163.133Z" fill="white"/>
<path fill-rule="evenodd" clip-rule="evenodd" d="M115.85 163.133C115.184 163.721 114.958 164.64 114.791 165.52L113.779 171.043C113.638 171.811 113.947 173 114.68 172.731C115.724 170.518 116.28 168.075 116.296 165.627C116.694 165.245 117.287 165.814 117.535 166.308L120.011 171.241C120.447 172.109 121.748 171.918 122.607 171.463L123.068 171.22C123.813 170.833 124.625 170.491 125.332 170.872C125.692 171.952 124.089 172.491 123.257 173.268C122.307 174.156 122.363 175.751 123.027 176.868C123.691 177.986 124.814 178.74 125.899 179.455C124.34 179.713 122.676 179.257 121.465 178.241C120.918 177.781 120.417 177.192 119.718 177.046C118.637 176.82 117.665 177.758 117.104 178.709C116.543 179.661 116.098 180.775 115.139 181.324C114.659 180.568 114.916 179.618 115.218 178.743L115.362 178.336C115.709 177.358 115.865 176.063 115.014 175.469C114.694 175.246 114.297 175.181 113.906 175.138L109.721 174.719L112.132 172.963C112.538 172.667 112.993 172.175 112.745 171.738C112.483 171.275 111.781 171.467 111.311 171.717L105.444 174.839C107.44 176.272 109.795 177.2 112.232 177.515C113.434 177.67 113.628 179.316 113.5 180.52L113.153 183.798C113.044 184.819 114.651 185.166 115.453 184.525C116.256 183.885 116.56 182.812 117.193 182.003C118.214 180.696 120.02 180.209 121.672 180.36C123.324 180.511 124.871 181.204 126.382 181.887C127.357 182.327 128.429 181.161 128.353 180.094C128.286 179.153 127.684 178.364 127.07 177.629L126.825 177.338C126.136 176.52 125.447 175.551 125.563 174.487C125.66 173.602 126.292 172.889 126.926 172.252L127.297 171.88C127.885 171.279 128.443 170.612 128.546 169.79C128.664 168.851 127.807 167.77 126.907 168.061C123.439 169.182 119.263 166.997 118.208 163.508C117.934 162.602 116.56 162.507 115.85 163.133Z" fill="#FFB61D"/>
<path fill-rule="evenodd" clip-rule="evenodd" d="M346.715 64.085C349.226 52.9262 342.386 34.4031 330.163 26.9554C317.94 19.5077 302.306 18.9975 288.694 23.4203C289.128 10.2702 275.792 -1.01396 262.679 0.0724772C249.567 1.15892 238.688 12.9312 236.926 25.97C235.553 36.1295 240.769 48.2308 250.854 50.071C247.289 62.8085 245.307 76.2102 247.263 89.2916C249.22 102.373 255.445 115.151 265.951 123.187C268.852 127.089 266.661 132.974 262.843 135.984C259.024 138.993 254.082 140.05 249.513 141.711C230.367 148.669 216.887 167.558 213.745 187.685C210.603 207.812 216.879 228.686 228.221 245.607C235.989 257.197 246.557 267.49 259.779 271.948C278.337 278.204 298.685 272.113 316.706 264.444C323.575 261.521 330.571 258.198 335.42 252.522C340.618 246.437 350.443 249.724 357.528 253.445C352.817 255.4 348.106 257.355 343.395 259.309C342.383 259.729 341.284 260.228 340.815 261.219C339.827 263.303 342.261 265.31 344.322 266.347C346.536 267.462 348.75 268.577 350.964 269.692C364.556 276.536 378.71 283.529 393.922 283.952C410.552 284.414 426.262 276.98 441.229 269.716C442.892 268.908 444.656 268.01 445.561 266.397C446.465 264.784 445.959 262.268 444.172 261.796C427.381 257.355 411.484 249.562 397.691 239.008C398.746 232.439 398.497 225.662 396.963 219.188C396.741 218.251 396.422 217.224 395.588 216.745C393.536 215.566 391.754 218.671 391.391 221.009C390.476 226.912 389.561 232.814 388.646 238.716C377.658 237.501 366.994 233.465 357.955 227.1C365.005 221.423 372.055 215.745 379.105 210.067C383.173 206.791 387.099 204.832 389.296 198.417C390.761 194.141 389.579 189.748 385.75 185.238C390.024 163.938 391.894 147.882 391.36 137.069C391.218 134.183 390.895 131.067 388.952 128.928C385.523 125.152 378.79 126.78 375.66 130.807C372.53 134.835 372.006 140.24 371.601 145.325C359.683 143.869 347.765 142.413 335.848 140.956C331.487 140.424 326.972 139.903 322.775 141.201C317.51 142.829 313.281 147.44 312.114 152.827C307.085 151.467 301.608 149.793 298.767 145.426C295.927 141.059 298.333 133.463 303.538 133.688C319.818 134.393 335.74 122.312 339.445 106.443C340.388 102.408 340.754 97.9226 343.587 94.8979C348.077 90.1047 351.498 83.9255 351.476 77.3581C351.454 70.7907 348.702 70.0071 346.715 64.085ZM443.896 266.195C443.53 266.743 442.89 267.03 442.284 267.289C436.067 269.95 429.85 272.611 423.633 275.271C420.804 276.482 417.967 277.696 415.008 278.542C406.758 280.903 397.868 280.327 389.665 282.847C388.67 283.153 387.602 282.837 386.611 282.518C379.457 280.213 372.386 277.648 365.419 274.828C358.13 271.878 350.907 268.623 344.435 264.156C343.846 263.75 343.235 263.298 342.966 262.635C342.698 261.972 342.945 261.05 343.633 260.854C348.001 259.614 352.305 258.151 356.524 256.472C357.88 255.933 359.407 255.163 359.695 253.732C363.412 253.882 366.662 256.226 369.403 258.74C372.145 261.254 374.72 264.093 378.098 265.65C381.476 267.208 386.009 267.073 388.349 264.182C388.599 263.873 388.85 263.518 389.235 263.417C389.619 263.317 390.113 263.7 389.934 264.054C389.47 264.973 390.466 266.134 391.493 266.07C392.52 266.006 393.323 265.071 393.576 264.073C393.829 263.076 395.201 264.858 397.19 265.154C399.178 265.451 401.288 264.175 401.949 262.276C402.493 260.71 404.628 260.683 406.259 260.39C409.967 259.724 412.784 255.838 412.262 252.106C422.92 255.661 433.385 259.795 443.596 264.483C444.195 264.759 444.263 265.648 443.896 266.195Z" fill="white"/>
<path d="M294.265 112.667C291.135 112.667 288.598 110.13 288.598 107C288.598 103.87 291.135 101.333 294.265 101.333C297.395 101.333 299.932 103.87 299.932 107C299.932 110.13 297.395 112.667 294.265 112.667Z" fill="#FFB61D"/>
<path d="M333.598 108C331.942 108 330.598 106.657 330.598 105C330.598 103.343 331.942 102 333.598 102C335.255 102 336.598 103.343 336.598 105C336.598 106.657 335.255 108 333.598 108Z" fill="#FFB61D"/>
<path fill-rule="evenodd" clip-rule="evenodd" d="M267.204 129.743C266.685 132.436 265.143 135.046 263.089 136.664C259.27 139.673 250.687 142.772 246.118 144.432C245.702 144.583 248.047 145.907 251.073 148.835C259.267 156.761 277.182 170.955 294.684 163.822C296.73 162.989 298.44 162.029 299.833 161.011C301.117 160.074 289.334 161.424 278.318 159.336C267.242 157.236 256.937 151.688 259.695 147.29C262.288 143.156 269.579 136.153 270.148 132.034C270.906 126.547 267.651 127.428 267.204 129.743Z" fill="#E7EAEE"/>
<path fill-rule="evenodd" clip-rule="evenodd" d="M444.122 264.637C444.122 262.439 437.19 260.66 425.341 256.203C417.191 253.137 401.306 244.267 393.491 243.854C388.29 243.579 367.507 251.188 353.944 256.652C347.124 259.4 341.863 261.121 341.863 262.002C341.863 263.773 356.343 272.321 371.144 277.939C378.367 280.681 385.145 283.137 391.361 282.971C410.311 282.466 444.122 270.202 444.122 264.637Z" fill="white"/>
<path fill-rule="evenodd" clip-rule="evenodd" d="M176.41 82.0623C203.584 93.6684 226.285 113.5 247.915 133.667L249.238 134.902C250.499 136.082 252.415 137.315 253.776 136.252L249.573 132.426C227.583 112.446 204.846 92.6351 177.637 80.8646C156.718 71.815 156.94 73.7465 176.41 82.0623ZM293.46 275.385L280.713 289.27C280.088 289.95 279.438 290.68 279.263 291.587C279.088 292.494 279.614 293.602 280.532 293.698L306.778 296.443C311.138 296.898 315.583 293.876 316.839 289.676C318.094 285.477 316.085 280.557 312.288 278.367C308.491 276.177 303.283 276.868 300.132 279.914C299.351 280.669 297.98 280.028 297.426 279.094C296.871 278.16 296.752 277.015 296.179 276.093C295.606 275.171 294.195 274.585 293.46 275.385ZM314.625 283.399C316.253 286.488 315.224 290.672 312.438 292.776C311.073 293.808 309.397 294.361 307.708 294.633C305.322 295.018 302.555 294.727 301.021 292.859C300.461 292.178 300.118 291.342 299.884 290.491C299.104 287.66 299.5 284.525 300.96 281.977C301.357 281.283 301.968 280.559 302.767 280.594C303.146 280.61 303.498 280.802 303.876 280.841C304.505 280.906 305.087 280.547 305.66 280.28C308.825 278.806 312.998 280.31 314.625 283.399ZM294.593 278.17C295.094 280.26 296.131 282.218 297.577 283.807C297.985 284.255 297.885 284.947 297.802 285.546C297.4 288.466 298.065 291.521 299.644 294.009C297.056 293.397 294.41 293.03 291.754 292.917C288.112 292.762 284.312 293.055 280.974 291.59C282.758 290.814 284.271 289.433 285.208 287.729C285.758 286.726 286.52 285.859 287.276 285L293.08 278.405C293.499 277.928 294.445 277.552 294.593 278.17ZM360.507 278.045C359.674 280.644 356.544 281.534 353.832 282.002L335.734 285.025C331.549 285.723 327.253 286.421 323.092 285.596C322.307 285.44 321.891 286.687 322.409 287.297C322.927 287.908 323.829 287.98 324.629 287.983C328.255 287.995 331.86 287.513 335.448 286.974L339.27 286.391C346.035 285.351 352.797 284.244 359.419 282.521C360.552 282.226 361.726 281.889 362.594 281.102C363.461 280.316 363.913 278.942 363.302 277.942C362.692 276.943 360.864 276.929 360.507 278.045ZM262.679 0.0724773C249.567 1.15892 238.688 12.9312 236.926 25.97C235.553 36.1295 240.769 48.2308 250.854 50.071C247.289 62.8085 245.307 76.2102 247.263 89.2916C249.22 102.373 255.445 115.151 265.951 123.187C268.852 127.089 266.661 132.974 262.843 135.984C259.024 138.993 254.082 140.05 249.513 141.711C230.367 148.669 216.888 167.558 213.745 187.685C210.603 207.812 216.879 228.686 228.221 245.607C235.989 257.197 246.557 267.49 259.779 271.948C278.152 278.142 298.278 272.233 316.164 264.674L316.706 264.444C323.432 261.582 330.279 258.337 335.114 252.874L335.42 252.522C340.618 246.437 350.443 249.724 357.528 253.445L343.395 259.309C342.383 259.729 341.284 260.228 340.815 261.219C339.827 263.303 342.261 265.31 344.322 266.347L352.62 270.525C365.705 277.092 379.327 283.546 393.922 283.952C410.359 284.408 425.896 277.152 440.706 269.969L441.646 269.512C443.18 268.754 444.731 267.875 445.561 266.397C446.465 264.784 445.959 262.268 444.172 261.796C427.381 257.355 411.484 249.562 397.691 239.009C398.746 232.439 398.497 225.662 396.963 219.188L396.885 218.873C396.664 218.03 396.329 217.171 395.588 216.745C393.536 215.566 391.754 218.671 391.391 221.009L388.646 238.716C377.658 237.501 366.994 233.465 357.955 227.1L379.674 209.609C383.562 206.463 387.499 203.061 389.296 198.417C391.181 193.546 389.665 186.944 384.794 185.059C384.409 166.607 385.382 148.128 387.701 129.82C390.908 148.106 388.331 166.853 385.75 185.238C390.175 169.921 392.091 153.882 391.401 137.954L391.36 137.069C391.218 134.183 390.895 131.067 388.952 128.928C385.523 125.152 378.79 126.78 375.66 130.807C372.53 134.835 372.006 140.24 371.601 145.325L335.028 140.857C330.924 140.366 326.71 139.984 322.775 141.201C317.51 142.829 313.281 147.441 312.114 152.827L311.256 152.592C306.474 151.269 301.447 149.546 298.767 145.426C295.958 141.105 298.282 133.625 303.372 133.684L303.538 133.689C319.818 134.393 335.74 122.312 339.445 106.443C340.388 102.408 340.754 97.9226 343.587 94.8979C348.077 90.1047 351.498 83.9255 351.476 77.3581C351.454 70.7907 347.266 64.0179 340.889 62.448C334.512 60.8781 326.965 66.1986 327.515 72.7429C324.422 72.4279 321.257 72.8305 318.34 73.9103C320.004 69.4263 315.693 64.4768 310.955 63.826C306.217 63.1752 301.6 65.5417 297.66 68.2524C293.719 70.9631 289.955 74.1543 285.374 75.5282L285.163 75.0396C284.216 72.8292 283.344 70.4684 283.821 68.1317C284.333 65.6218 287.161 63.4513 289.45 64.6004C291.058 59.9958 293.615 55.7251 296.915 52.1344L306.087 56.4587C307.269 54.6888 307.993 52.616 308.17 50.4952C314.226 53.9562 320.799 56.5104 327.603 58.0466L326.907 52.8517L347.24 63.4127C350.242 49.4181 342.386 34.4031 330.163 26.9554C317.94 19.5077 302.306 18.9975 288.694 23.4203C289.128 10.2702 275.792 -1.01396 262.679 0.0724773ZM162.651 228.167C174.364 230.994 185.736 235.238 196.437 240.777L197.211 241.181C203.14 244.305 208.96 248.048 212.677 253.603C210.167 253.168 207.487 253.822 205.46 255.365C204.18 256.339 203.11 257.8 203.187 259.408C203.226 260.241 203.572 261.036 204.039 261.727C205.862 264.428 209.723 265.525 212.694 264.186C215.665 262.847 217.401 259.228 216.585 256.073C229.191 260.377 240.027 269.637 246.257 281.409L246.466 281.806C246.773 282.399 247.148 283.062 247.799 283.209C248.694 283.412 249.49 282.413 249.449 281.496C249.409 280.579 248.821 279.789 248.253 279.068C240.908 269.741 232.323 260.862 221.336 256.36L220.509 256.027C217.917 254.999 215.204 253.99 213.531 251.797C209.472 246.48 203.628 242.829 197.693 239.739C192.383 236.974 186.889 234.56 181.26 232.519C175.611 230.47 169.836 228.799 164.048 227.179L144.441 221.72C149.744 225.447 156.35 226.646 162.651 228.167ZM412.262 252.106C422.92 255.661 433.385 259.795 443.596 264.483C444.195 264.759 444.263 265.648 443.896 266.196C443.53 266.743 442.89 267.03 442.284 267.289L423.633 275.271C420.804 276.482 417.967 277.696 415.008 278.542C406.758 280.903 397.868 280.327 389.665 282.847C388.67 283.153 387.602 282.837 386.611 282.518C379.457 280.213 372.386 277.648 365.419 274.828C358.13 271.878 350.907 268.623 344.435 264.156C343.846 263.75 343.235 263.298 342.966 262.635C342.698 261.972 342.945 261.05 343.633 260.854C348.001 259.614 352.305 258.151 356.524 256.472L356.817 256.353C358.092 255.819 359.428 255.061 359.695 253.732C363.412 253.882 366.662 256.226 369.403 258.74C372.145 261.254 374.72 264.093 378.098 265.65C381.476 267.208 386.009 267.073 388.349 264.182L388.501 263.993C388.705 263.741 388.927 263.498 389.235 263.417C389.619 263.317 390.113 263.7 389.934 264.054C389.47 264.973 390.466 266.134 391.493 266.07C392.52 266.006 393.323 265.071 393.576 264.073C393.738 263.432 393.724 262.769 393.646 262.108L393.627 261.946C394.084 263.563 395.515 264.905 397.19 265.154C399.178 265.451 401.288 264.175 401.949 262.276C402.493 260.71 404.628 260.683 406.259 260.39C409.967 259.724 412.784 255.838 412.262 252.106ZM387.074 189.82C389.271 193.729 387.231 198.674 384.525 202.248C376.039 213.457 361.825 218.836 352.127 229.015C349.691 231.572 347.567 234.406 345.47 237.25L338.879 246.201C337.668 247.846 336.452 249.496 335.039 250.971C331.353 254.817 326.5 257.299 321.7 259.608C311.961 264.295 301.942 268.601 291.368 270.838C280.794 273.075 269.558 273.152 259.384 269.504C249.862 266.089 241.657 259.541 235.282 251.686C229.059 244.018 224.491 235.13 220.829 225.955L220.563 225.283C220.036 223.945 219.519 222.545 219.628 221.111C219.744 219.595 220.552 218.216 221.495 217.023C225.09 212.474 231.1 209.901 236.854 210.612C242.519 211.312 247.706 215.242 249.781 220.554L249.877 220.808C254.387 233.033 265.616 242.227 278.231 245.489C290.846 248.752 304.566 246.414 316.081 240.315C327.595 234.216 336.99 224.562 343.996 213.576L344.378 212.969C345.644 210.938 346.794 208.801 347.24 206.457C347.73 203.879 347.231 200.98 345.37 199.131C344.14 197.91 342.39 197.193 341.496 195.708C340.601 194.223 341.652 191.601 343.302 192.131L344.403 192.48C351.987 194.84 360.785 196.67 366.887 191.76L367.473 191.291C370.32 189.028 373.362 186.869 376.899 186.091C380.679 185.259 385.177 186.446 387.074 189.82ZM356.843 229.436C366.042 235.248 376.423 239.18 387.164 240.92C388.582 241.15 388.963 242.988 388.986 244.425C389.057 248.99 388.836 253.56 388.324 258.097C387.161 257.549 386.685 256.181 385.892 255.169C385.099 254.156 383.288 253.602 382.675 254.732C382.247 255.522 382.819 256.511 383.548 257.035C384.278 257.558 385.176 257.842 385.827 258.461C387.446 260.001 386.6 263.03 384.627 264.079C382.654 265.129 380.158 264.581 378.267 263.391C376.375 262.201 374.914 260.456 373.31 258.9C369.879 255.571 365.684 253.036 361.141 251.549C355.375 249.66 348.954 249.379 343.881 246.05C343.539 245.826 343.186 245.563 343.057 245.175C342.881 244.645 343.178 244.095 343.495 243.624L349.564 234.81C350.531 233.407 351.644 231.899 353.3 231.497C354.058 231.313 354.865 231.384 355.609 231.15C356.352 230.915 357.052 230.187 356.843 229.436ZM399.22 242.239C401.586 243.344 402.987 245.942 403.298 248.535C403.61 251.128 402.998 253.739 402.271 256.247C401.825 257.787 401.33 259.322 400.592 260.745C400.121 261.653 399.498 262.558 398.555 262.953C397.612 263.347 396.303 262.992 395.997 262.017C395.87 261.615 395.927 261.181 396 260.766C396.275 259.208 396.768 257.688 397.459 256.264L397.749 255.687C398.165 254.855 398.557 253.873 398.022 253.147C397.512 252.453 396.256 252.166 396.376 251.313L397.548 242.982C397.583 242.739 397.623 242.481 397.781 242.293C398.114 241.897 398.751 242.02 399.22 242.239ZM211.596 255.089C212.377 255.085 213.2 255.193 213.827 255.659C214.194 255.932 214.471 256.313 214.667 256.726C215.491 258.475 214.73 260.722 213.168 261.861C211.605 262.999 209.44 263.106 207.631 262.424C206.248 261.902 204.917 260.721 204.964 259.243C205 258.077 205.885 257.104 206.861 256.465C208.256 255.553 209.93 255.096 211.596 255.089ZM394.779 218.63C394.979 218.778 395.078 219.024 395.163 219.258C396.393 222.673 396.544 226.374 396.51 230.003C396.425 239.103 395.256 248.192 393.035 257.017L392.925 257.446C392.471 259.169 391.851 260.937 390.445 262.002C390.184 248.018 391.091 234.011 393.155 220.177C393.289 219.279 394.051 218.088 394.779 218.63ZM405.861 248.689C406.155 248.772 406.344 249.052 406.49 249.319C407.69 251.509 407.771 254.276 406.702 256.532C406.222 257.543 405.399 258.527 404.287 258.651C403.833 258.086 404.041 257.272 404.295 256.58L404.514 255.995C405.331 253.781 406.001 251.385 405.281 249.16C405.187 248.87 405.568 248.607 405.861 248.689ZM409.865 251.723C410.706 253.594 410.331 255.948 408.95 257.465C408.38 256.882 408.631 255.927 408.826 255.135C409.13 253.896 409.199 252.6 409.027 251.336C409.239 251.024 409.71 251.379 409.865 251.723ZM392.127 185.039C390.851 186.138 390.04 188.509 391.555 189.243C392.525 189.714 393.625 189.026 394.542 188.457C399.304 185.502 405.394 185.284 410.794 186.788C416.193 188.291 421.02 191.353 425.551 194.653C430.063 197.939 434.413 201.545 437.805 205.977C441.198 210.409 443.597 215.75 443.794 221.328C444.03 228.012 441.143 234.402 437.803 240.197C435.675 243.891 433.275 247.532 429.972 250.214L429.292 250.751C428.355 251.503 427.393 252.436 427.632 253.568C430.87 253.421 433.221 250.524 435.004 247.818C437.54 243.968 439.851 239.972 441.923 235.854C443.645 232.43 445.22 228.863 445.743 225.066C446.727 217.925 443.828 210.665 439.322 205.038C434.816 199.412 428.819 195.19 422.754 191.296C418.146 188.337 413.405 185.5 408.233 183.703C402.899 181.849 396.405 181.354 392.127 185.039ZM255.249 153.588C262.919 160.747 273.114 165.145 283.584 165.811C288.212 166.106 292.99 165.663 297.177 163.671C301.365 161.679 304.891 157.964 305.865 153.431L306.212 153.538C309.243 154.497 312.713 156.232 312.682 159.355C312.553 172.601 312.861 185.852 313.606 199.078C313.749 201.616 314.716 204.948 317.257 204.873C326.284 204.608 335.37 206.692 343.379 210.865C334.365 225.003 321.544 237.363 305.597 242.541C289.65 247.719 270.417 244.483 259.242 231.983C255.66 227.977 253.023 223.24 250.485 218.494L249.9 217.4C249.36 216.387 248.811 215.185 249.291 214.143C249.597 213.477 248.937 212.786 248.33 212.376C239.413 206.34 226.135 207.978 218.951 215.999C219.521 214.886 219.003 213.351 217.876 212.81C216.98 214.249 216.79 216.107 217.377 217.698C216.989 218.247 216.276 217.364 216.215 216.694C215.257 206.267 215.332 195.745 216.439 185.333C216.838 181.579 217.38 177.801 218.724 174.273C219.902 171.178 221.672 168.342 223.612 165.659C228.075 159.486 233.501 154.01 239.633 149.491L240.078 149.167C241.05 148.471 242.073 147.829 243.222 147.516C247.77 146.278 251.804 150.372 255.249 153.588ZM317.207 147.59C322.277 149.296 327.767 148.968 333.104 149.337C340.624 149.857 348.043 151.812 354.843 155.068C357.771 156.47 360.604 158.118 363.701 159.093C370.279 161.164 377.818 159.885 383.345 155.761C384.536 164.856 384.185 174.151 382.31 183.131C382.19 183.707 381.81 184.445 381.247 184.272C377.509 183.124 373.489 184.748 370.166 186.808C366.842 188.868 363.719 191.437 359.945 192.456C355.516 193.652 350.824 192.547 346.441 191.157L346.113 191.053C343.866 190.331 340.96 189.73 339.52 191.599C338.304 193.175 339.072 195.529 340.358 197.048C341.645 198.566 343.389 199.695 344.439 201.386C345.728 203.462 345.734 206.267 344.455 208.349C336.085 204.992 327.125 203.109 318.112 202.812C316.304 202.752 315.67 200.413 315.559 198.607C314.585 182.789 314.287 166.929 314.663 151.085C314.704 149.396 315.606 147.051 317.207 147.59ZM181.683 190.365L181.325 190.545C179.105 191.673 176.743 193.176 176.412 195.607C176.303 196.407 176.44 197.221 176.63 198.006C176.894 199.093 177.295 200.208 178.14 200.941C179.036 201.717 180.295 201.938 181.48 201.892C183.813 201.801 186.148 200.714 187.499 198.81C188.851 196.906 189.068 194.183 187.808 192.217C186.547 190.252 183.775 189.328 181.683 190.365ZM185.144 193.084C186.527 193.661 187.025 195.532 186.448 196.915C185.87 198.297 184.5 199.208 183.075 199.674C181.619 200.151 179.742 200.112 178.874 198.849C178.586 198.428 178.449 197.922 178.369 197.418C178.195 196.32 178.301 195.106 179.007 194.249C179.883 193.187 181.377 192.974 182.773 192.895L183.119 192.878C183.803 192.847 184.512 192.821 185.144 193.084ZM359.74 164.493C359.565 165.157 359.7 165.858 359.819 166.534C360.661 171.296 360.722 176.195 360.001 180.976L359.867 181.822C359.779 182.421 359.743 183.053 360.087 183.535C360.484 184.09 361.596 184.034 361.652 183.354C362.125 177.56 362.429 171.753 362.561 165.942C362.587 164.832 362.297 163.356 361.19 163.27C360.506 163.218 359.915 163.829 359.74 164.493ZM398.699 152.883C397.88 153.13 397.093 153.69 396.856 154.512C396.619 155.333 397.159 156.371 398.012 156.425C398.807 156.475 399.414 155.751 400.145 155.433C401.457 154.862 402.929 155.659 404.134 156.429L404.748 156.825C405.906 157.588 407.028 158.443 407.663 159.659C408.314 160.903 408.368 162.364 408.348 163.768C408.334 164.743 408.289 165.733 407.987 166.661C407.333 168.674 405.465 170.182 403.394 170.619C401.323 171.055 399.107 170.49 397.355 169.302L397.012 169.069C396.703 168.865 396.379 168.687 396.015 168.67C395.514 168.646 394.966 169.117 395.137 169.589C395.188 169.73 395.292 169.844 395.397 169.952C398.261 172.894 403.206 173.524 406.716 171.393C407.342 171.013 407.926 170.555 408.399 169.996C409.822 168.315 410.087 165.96 410.126 163.759C410.147 162.568 410.118 161.359 409.779 160.216C409.048 157.748 406.98 155.915 404.832 154.498C403.007 153.294 400.792 152.254 398.699 152.883ZM415.268 147.82L408.128 156.299C408.521 156.724 409.209 156.752 409.74 156.521C410.212 156.316 410.588 155.949 410.943 155.572L415.132 151.067C415.703 155.64 417.087 160.11 419.199 164.206C419.404 164.605 418.822 164.941 418.376 164.987C417.286 165.099 416.184 164.974 415.11 164.762L414.556 164.65C413.688 164.477 412.798 164.342 411.989 164.663C411.007 165.052 410.401 166.481 411.189 167.185C411.674 167.619 412.41 167.565 413.056 167.485L420.01 166.625L420.223 166.595C420.91 166.482 421.664 166.213 421.765 165.552C421.826 165.153 421.604 164.772 421.397 164.426C418.922 160.295 417.273 155.672 416.573 150.908L416.467 150.152C416.331 149.225 416.091 148.219 415.268 147.82ZM172.01 161.141C171.149 161.751 170.336 162.948 171.003 163.766C171.421 164.277 172.226 164.29 172.827 164.015C173.427 163.739 173.894 163.246 174.412 162.836C176.537 161.157 179.728 160.98 182.025 162.414C182.352 162.618 182.677 162.872 182.81 163.234C182.943 163.596 182.796 164.082 182.426 164.191C179.494 162.949 175.998 163.123 173.203 164.65C172.799 164.871 172.375 165.164 172.276 165.614C172.176 166.063 172.659 166.602 173.06 166.377C174.884 165.356 177.061 164.981 179.121 165.331C180.082 165.495 181.021 165.811 181.995 165.841C182.969 165.872 184.034 165.547 184.551 164.721C185.028 163.959 184.915 162.931 184.45 162.161C183.985 161.392 183.222 160.847 182.425 160.432C179.178 158.742 174.998 159.027 172.01 161.141ZM269.287 119.92C276.249 125.772 284.43 130.167 293.152 132.744L293.734 132.913C294.867 133.236 296.292 133.953 296.054 135.106L295.907 135.822C295.472 137.974 295.103 140.165 295.413 142.33C295.748 144.665 297.035 147.002 299.165 147.983L299.361 148.069C303.154 149.63 303.687 155.296 301.2 158.558C298.713 161.819 294.399 163.082 290.324 163.553C278.366 164.936 265.886 160.927 256.971 152.837C253.737 149.903 250.844 146.391 246.84 144.648L256.852 140.983C259.553 139.994 262.289 138.988 264.64 137.331C266.991 135.674 268.951 133.262 269.431 130.426C270.02 126.953 268.355 123.317 269.287 119.92ZM384.773 129.31C385.024 129.422 385.281 129.57 385.401 129.817C385.522 130.065 385.482 130.357 385.439 130.629L383.145 145.088C382.469 149.349 381.52 154.071 378.005 156.573C374.156 159.315 368.869 158.241 364.387 156.676L364.147 156.591C355.803 153.628 347.772 149.502 339.027 148.114C332.748 147.117 326.163 147.544 320.225 145.271C322.397 141.993 327.102 142.01 331.038 142.44L363.193 146.095C365.684 146.378 368.3 146.708 370.323 148.189C371.209 148.837 372.047 149.727 373.143 149.772C374.209 149.816 375.136 148.263 374.3 147.692L374.227 147.647C373.31 147.142 373.372 145.827 373.559 144.797L374.532 139.465C375.024 136.82 375.624 134.128 377.206 131.969C378.916 129.637 382.131 128.136 384.773 129.31ZM162.788 150.922C162.012 151.824 161.979 153.21 162.496 154.282C163.013 155.354 163.991 156.142 165.05 156.685C166.327 157.34 167.734 157.682 169.144 157.974L169.849 158.117C170.125 158.173 170.416 158.227 170.683 158.138C170.905 158.064 171.085 157.898 171.231 157.715C171.958 156.803 171.932 155.458 171.44 154.4C170.949 153.343 170.068 152.521 169.163 151.785C168.238 151.033 167.232 150.325 166.073 150.05C164.913 149.775 163.564 150.017 162.788 150.922ZM166.59 152.508L166.961 152.758C167.516 153.138 168.051 153.553 168.423 154.108C168.879 154.785 169.038 155.73 168.588 156.412L165.605 154.752C165.12 154.482 164.616 154.196 164.301 153.738C163.986 153.281 163.923 152.597 164.313 152.201C164.897 151.606 165.895 152.046 166.59 152.508ZM214.165 119.867C213.957 119.951 213.817 120.14 213.695 120.332L209.326 127.469C208.545 128.745 206.768 128.887 205.276 128.782C202.417 128.58 199.586 127.997 196.88 127.052C196.426 126.893 195.996 127.471 196.094 127.941C196.191 128.412 196.596 128.747 196.975 129.043L203.538 134.158C204.344 134.101 204.115 132.782 203.462 132.307L203.268 132.172C202.638 131.747 201.874 131.327 201.914 130.597L205.706 131.782C206.431 132.008 207.236 132.231 207.924 131.913C208.382 131.702 208.703 131.287 208.993 130.869L213.811 123.836L213.894 129.995C213.901 130.5 213.923 131.048 214.243 131.438C214.471 131.715 214.812 131.864 215.151 131.989L221.799 134.375C220.024 136.15 216.701 134.282 214.576 135.62C213.121 136.537 212.872 138.579 213.186 140.27C213.5 141.962 214.22 143.607 214.126 145.325C212.913 144.445 212.022 143.13 211.654 141.677C211.506 141.092 211.432 140.468 211.107 139.96C210.208 138.557 208.063 138.843 206.576 139.593C205.089 140.343 203.547 141.422 201.92 141.066L204.28 137.292C204.495 136.948 204.719 136.575 204.699 136.17C204.68 135.764 204.295 135.354 203.907 135.472C203.736 135.523 203.609 135.658 203.497 135.799L198.232 142.624C200.081 143.843 202.521 143.075 204.656 142.487L204.972 142.404C207.055 141.889 209.598 141.837 210.748 143.603C211.558 144.847 212.51 145.999 213.578 147.031C214.028 147.465 214.541 147.898 215.162 147.969C215.784 148.04 216.498 147.569 216.443 146.946L215.831 140.045C215.791 139.598 215.761 139.111 216.01 138.738C216.272 138.345 216.767 138.193 217.222 138.067L222.974 136.478C224.224 136.133 224.234 134.186 223.296 133.29C222.358 132.394 220.976 132.206 219.726 131.859C218.476 131.512 217.124 130.776 216.898 129.499L215.438 121.23C215.314 120.524 214.831 119.598 214.165 119.867ZM368.92 3.29315L369.983 4.15638C377.06 9.92422 384.035 15.971 389.226 23.4688C394.676 31.3414 398.022 41.1037 396.4 50.5405C394.035 64.2923 381.735 75.244 381.209 89.1877C381.139 91.0399 379.253 92.1926 377.675 93.1651C371.447 97.0029 366.833 103.094 363.787 109.745C360.837 116.188 359.262 123.17 358.117 130.167L358.008 130.845C357.837 131.912 357.713 133.126 358.401 133.959C359.089 134.792 360.859 134.5 360.79 133.422C359.983 120.744 364.59 107.81 373.232 98.4983C375.476 96.0793 378.084 93.837 381.245 92.8899C381.447 97.7731 383.091 102.749 386.571 106.181C390.052 109.612 395.543 111.179 400.048 109.286C404.554 107.392 407.311 101.675 405.283 97.2285C403.584 93.5033 399.365 91.6214 395.349 90.8283C391.407 90.0501 387.322 90.0096 383.366 90.7093C382.834 90.8035 382.602 90.0594 382.613 89.519C382.899 75.0255 396.296 63.6783 398.054 49.289C399.016 41.4252 396.332 33.5091 392.439 26.6098C387.325 17.5493 380.051 9.71798 371.392 3.95117L371.165 3.80409C370.471 3.36748 369.663 2.9951 368.92 3.29315ZM324.809 77.1118C326.747 78.3588 326.698 81.1262 326.858 83.4257C327.078 86.5799 328.162 89.737 330.277 92.0873C332.392 94.4377 335.606 95.8814 338.743 95.4869C339.555 95.3848 339.801 96.5591 339.695 97.3702C337.871 111.271 329.439 124.919 316.332 129.896C308.319 132.939 299.268 132.535 291.099 129.941C283.124 127.409 275.906 122.906 269.31 117.751L268.828 117.373C267.872 116.618 266.91 115.83 266.245 114.809C265.571 113.773 265.239 112.547 265.078 111.321C264.212 104.755 268.6 97.8849 274.921 95.9086C275.665 95.6761 275.493 94.4692 274.84 94.0432C274.187 93.6173 273.347 93.6461 272.601 93.4184C270.582 92.8013 269.653 90.5014 269.192 88.4408C268.559 85.6095 268.381 82.3807 270.136 80.0701C272.507 76.9476 277.118 76.9516 281.027 77.2509L287.371 77.7365C289.56 77.904 292.378 78.6757 292.481 80.8691C292.702 85.5932 294.783 90.299 298.46 93.2736C302.137 96.2482 307.431 97.2766 311.796 95.4558C316.091 93.6638 319.126 88.9878 318.63 84.3712L318.603 84.1479C318.344 82.195 318.487 80.0744 319.631 78.4708C320.775 76.8671 323.152 76.0461 324.809 77.1118ZM272.414 3.2902C275.243 4.09434 277.96 5.39135 280.193 7.30482C283.314 9.97895 285.388 13.8432 285.893 17.9219C286.072 19.367 285.785 21.2309 284.381 21.6191C280.953 22.5676 277.885 24.7669 275.886 27.7095C279.127 25.7807 282.681 24.3773 286.365 23.5704L270.791 32.3828C269.889 32.8936 268.951 33.4361 268.384 34.3042C267.816 35.1723 267.756 36.4679 268.536 37.1517L269.625 36.3044C272.354 34.1927 275.143 32.1456 278.197 30.5475C280.519 29.3323 282.97 28.3894 285.434 27.4913L286.779 27.0044C291.34 25.3587 295.944 23.7025 300.748 23.0449C305.208 22.4346 309.786 22.7056 314.143 23.8377L315.002 24.0579C320.887 25.5471 327.023 26.7648 331.889 30.363C334.783 32.5034 337.05 35.3687 339.202 38.2543L339.709 38.943C343.985 44.8136 347.892 52.0513 345.391 58.7868C333.905 57.372 324.957 48.4854 314.553 43.4197C313.757 43.0325 312.446 42.914 312.325 43.7902L323.968 50.6703C323.644 52.4469 323.95 54.3315 324.818 55.915C316.311 53.5114 308.359 49.1712 301.733 43.3208L301.312 42.9454C300.261 41.9991 298.235 41.2163 297.788 42.5577L298.357 42.8759C300.447 44.0512 302.525 45.3367 303.965 47.2399C305.537 49.316 306.162 52.3342 304.769 54.5341L290.072 45.8801C289.475 45.5286 288.824 45.1644 288.135 45.2368C287.445 45.3091 286.799 46.0512 287.097 46.6769L287.597 46.7811C289.183 47.1181 290.792 47.5404 292.027 48.5738C293.393 49.716 294.1 51.8573 293.085 53.32C291.265 55.9436 289.789 58.8048 288.704 61.8081C288.681 60.4948 286.891 59.8232 285.711 60.3998C284.531 60.9764 283.906 62.2777 283.479 63.5196C282.255 67.0723 281.932 70.9309 282.547 74.6375C278.851 75.9426 274.516 74.401 270.961 76.0518C267.662 77.5841 266.047 81.5585 266.277 85.1894C266.506 88.8204 268.222 92.1777 270.054 95.321C264.933 99.2882 262.198 106.122 263.166 112.527C262.274 112.381 261.519 111.61 261.393 110.715L259.362 111.996C262.538 113.792 264.798 117.123 265.291 120.739C251.336 107.679 246.702 86.9809 248.716 67.9739L248.794 67.265C249.592 60.4014 251.491 53.2469 256.653 48.7005C253.886 47.105 250.336 47.7325 247.375 46.5344C244.577 45.4024 242.654 42.7785 241.356 40.054C237.014 30.9458 238.509 19.3571 245.021 11.6493C251.532 3.9414 262.708 0.531036 272.414 3.2902ZM318.037 117.518C317.597 117.591 317.097 117.74 316.925 118.151C316.65 118.809 317.421 119.409 318.089 119.658C319.058 120.019 320.076 120.25 321.106 120.344C321.97 120.422 323.061 120.255 323.328 119.429C323.504 118.886 323.199 118.276 322.737 117.941C322.274 117.606 321.69 117.493 321.123 117.432C320.097 117.321 319.055 117.35 318.037 117.518ZM333.824 108.099C330.787 111.669 326.036 113.559 321.349 113.596C316.663 113.633 312.065 111.938 308.174 109.326L307.847 109.106C307.352 108.777 306.84 108.469 306.26 108.368C305.552 108.245 304.71 108.542 304.469 109.22C308.538 112.676 313.64 114.959 318.957 115.441C324.274 115.924 329.782 114.559 334.121 111.448C334.904 110.886 335.713 110.148 335.745 109.185C335.777 108.222 334.449 107.366 333.824 108.099ZM397.485 92.9806C399.597 93.6544 401.722 94.6417 403.055 96.4134C405.034 99.0452 404.688 103.038 402.55 105.543C400.413 108.048 396.798 109.048 393.573 108.382C390.348 107.717 387.548 105.541 385.736 102.791C383.923 100.042 383.036 96.7595 382.767 93.4775C382.722 92.9273 382.822 92.199 383.365 92.098C388.048 91.2266 392.946 91.5327 397.485 92.9806ZM322.649 80.1564C322.56 80.9134 322.853 81.6561 323.123 82.3691C324.643 86.3976 325.569 90.6503 325.861 94.9466C325.908 95.6425 325.935 96.3642 325.68 97.0134C325.439 97.6265 324.879 98.1598 324.231 98.1964L324.115 98.1976C323.525 98.1767 323.245 99.0568 323.616 99.5163C323.987 99.9758 324.684 100.027 325.251 99.8587C326.413 99.5126 327.247 98.4304 327.584 97.2652C327.921 96.1 327.835 94.8559 327.666 93.6546C327.093 89.5818 325.606 85.633 325.534 81.5207C325.513 80.3603 325.276 78.796 324.119 78.7037C323.359 78.643 322.737 79.3995 322.649 80.1564ZM308.196 66.411C310.612 66.9079 312.456 68.8893 313.708 71.0134C316.274 75.3649 317.006 80.7603 315.69 85.6378C315.099 87.8279 314.09 89.9445 312.505 91.5679C310.921 93.1913 308.72 94.281 306.452 94.2435C304.869 94.2172 303.333 93.6554 301.957 92.8708C297.365 90.2508 294.448 84.941 294.699 79.6599C294.95 74.3788 298.358 69.3695 303.177 67.1968C304.747 66.4892 306.51 66.064 308.196 66.411ZM341.531 64.2458C345.847 65.8446 348.633 70.3263 349.226 74.89C349.82 79.4537 348.54 84.0702 346.715 88.2952C346.224 89.433 345.665 90.5899 344.722 91.3936C343.779 92.1974 342.35 92.5577 341.278 91.9356C340.779 91.6461 340.313 92.3232 339.934 92.7585C339.18 93.6257 337.852 93.6997 336.725 93.4744C333.011 92.7323 330.157 89.4871 329.002 85.8805C327.886 82.3941 328.124 78.6204 328.784 75.0128L328.853 74.6402C329.549 71.0018 331.122 66.9129 334.664 65.8295C336.521 65.2614 338.762 65.5934 340.197 64.2853C340.544 63.9695 341.092 64.0829 341.531 64.2458ZM272.951 79.6725C271.491 81.2899 272.088 83.8016 272.818 85.8769L272.878 86.0442C273.17 86.858 273.473 87.6911 274.031 88.351C274.59 89.011 275.467 89.4719 276.314 89.2957C277.16 89.1195 277.82 88.1378 277.464 87.3497C277.023 86.3714 275.523 86.3216 274.982 85.3949L276.444 85.2568C277.43 85.1638 278.49 85.0387 279.22 84.3704C279.95 83.7022 280.042 82.288 279.154 81.8501C278.539 81.5466 277.798 81.844 277.229 82.2266C276.66 82.6091 276.115 83.0934 275.437 83.1976C274.759 83.3018 273.935 82.7693 274.074 82.0978C274.269 81.1631 273.789 80.1283 272.951 79.6725ZM306.339 85.9865C306.224 86.6295 306.181 87.3116 306.422 87.919C306.662 88.5264 307.249 89.0346 307.902 89.0074C308.913 88.9653 309.454 87.801 309.631 86.8047C309.849 85.5737 309.508 83.8795 308.261 83.7879C307.194 83.7095 306.529 84.9335 306.339 85.9865ZM337.488 83.3734C336.985 84.1073 337.056 85.0878 337.256 85.9551C337.512 87.0648 338.155 88.3029 339.288 88.4188C340.311 88.5234 341.185 87.608 341.519 86.6356C341.928 85.4489 341.729 83.9991 340.803 83.1526C339.876 82.3061 338.198 82.3386 337.488 83.3734ZM336.545 70.8493C336.093 71.0571 335.774 71.6268 336.003 72.0688L336.44 72.1835C338.93 72.8479 341.584 73.7725 342.773 76.0235C343.058 76.563 343.243 77.1583 343.598 77.6546C343.953 78.1509 344.551 78.5453 345.148 78.4196C345.829 78.2764 346.222 77.4933 346.15 76.8018C346.077 76.1103 345.656 75.5075 345.206 74.978C343.373 72.8246 340.79 71.3224 338.012 70.794C337.523 70.701 336.997 70.6414 336.545 70.8493ZM304.726 72.0925C303.981 72.6924 303.415 73.4919 302.663 74.0819C302.028 74.5804 301.224 74.9746 300.936 75.729C300.647 76.4834 301.516 77.5488 302.146 77.0437C303.792 75.7248 305.619 74.6323 307.559 73.8064C308.439 73.432 308.239 71.9517 307.381 71.5302C306.523 71.1088 305.47 71.4926 304.726 72.0925ZM313.947 67.3616C315.569 67.8964 316.722 69.6035 316.611 71.3079C315.991 70.9904 315.518 70.3971 315.348 69.7214L315.372 69.6531C314.652 69.0842 314.139 68.259 313.947 67.3616Z" fill="#00160A"/>
<path fill-rule="evenodd" clip-rule="evenodd" d="M405.353 271.644C404.701 271.65 404.1 271.952 403.53 272.285L403.222 272.468C399.727 274.56 396.039 276.33 392.22 277.748C391.696 277.943 391.859 278.824 392.37 279.051C392.882 279.279 393.472 279.076 393.994 278.873L405.271 274.485C405.993 274.204 406.831 273.776 406.894 273.004C406.957 272.235 406.124 271.638 405.353 271.644Z" fill="#E7EAEE"/>
<path fill-rule="evenodd" clip-rule="evenodd" d="M423.332 259.357L388.444 271.733L388.225 271.815C387.303 272.176 386.305 272.792 386.404 273.744C386.484 274.52 387.343 275.02 388.122 274.994C388.782 274.972 389.391 274.679 389.974 274.356L390.289 274.179C395.154 271.42 400.258 269.144 405.492 267.177C411.421 264.949 417.518 263.119 423.625 261.434C424.559 261.176 425.743 260.342 425.207 259.535C424.831 258.968 423.972 259.13 423.332 259.357Z" fill="#E7EAEE"/>
</svg>
