<svg width="519" height="403" viewBox="0 0 519 403" fill="none" xmlns="http://www.w3.org/2000/svg">
<path opacity="0.8" fill-rule="evenodd" clip-rule="evenodd" d="M359.459 4.94764C414.965 -8.21648 466.389 7.40208 494.029 52.0135C521.668 96.6249 514.438 167.414 508.451 198.661C502.463 229.908 487.275 258.528 468.425 283.374C433.412 329.524 386.097 364.839 333.203 383.903C280.309 402.966 222.88 406.875 167.757 397.231C136.836 391.821 40.1103 365.318 19.2309 285.337C-1.64853 205.356 -14.8626 136.997 30.3521 109.229C75.5668 81.4613 106.885 102.346 129.269 112.617C233.842 160.599 303.952 18.1118 359.459 4.94764Z" fill="#002D7E"/>
<path fill-rule="evenodd" clip-rule="evenodd" d="M437.715 79.9454C446.621 79.2161 456.22 79.6878 463.478 85.2095C470.735 90.7312 474.032 102.856 468.073 109.912C474.811 107.119 482.729 111.856 486.104 118.641C489.479 125.426 489.303 133.555 488.287 141.149C485.772 159.958 478.541 178.035 467.536 193.024C467.03 194.605 466.524 196.185 466.018 197.765C479.027 201.321 529.825 222.24 516.1 273.809C502.374 325.378 442.432 345.005 436.297 351.177C425.602 361.935 409.279 362.671 394.546 362.175C358.319 360.956 322.203 356.074 286.847 347.617C283.841 346.898 280.034 346.46 278.301 349.162C265.759 368.715 239.532 370.463 217.288 368.761C188.717 366.575 160.31 361.98 132.423 355.034C116.605 351.095 99.8074 345.609 89.9533 331.91C78.4654 315.939 79.792 293.797 81.6561 273.809C74.1054 278.26 61.5822 280.671 44.0863 281.041C33.7852 278.814 27.3596 274.854 24.8096 269.163C13.1485 243.138 9.14967 209.602 23.6709 183.95C25.4153 180.869 27.428 177.832 30.2684 175.871C33.2798 173.792 36.9511 173.109 40.5305 172.773C54.6484 171.447 69.1337 174.941 81.3213 182.613C81.2125 140.61 81.1036 98.608 80.9948 56.6057C80.9885 54.2003 81.0201 51.648 82.2295 49.613C83.9787 46.6697 87.5619 45.7574 90.7872 45.119C120.126 39.3116 149.798 35.3949 179.584 33.3978C189.316 32.7452 202.635 35.6173 202.68 45.9576C202.849 85.557 203.019 125.156 203.189 164.756C203.229 174.181 203.8 173.393 207.965 170.662C205.347 170.949 205.931 166.241 207.915 164.407C215.321 157.561 226.113 157.31 235.938 157.416C257.914 157.655 279.889 157.893 301.865 158.132C323.157 158.363 348.692 161.226 358.331 181.359C358.052 175.375 363.166 169.729 368.815 169.784C374.977 169.844 380.129 164.176 381.928 157.928C383.726 151.679 382.933 144.965 382.124 138.488C372.189 128.288 369.589 110.949 376.048 97.984C382.508 85.0192 397.482 77.5256 411.027 80.4791C419.776 82.3868 428.809 80.6747 437.715 79.9454ZM182.719 274.191C182.427 282.528 182.118 290.978 179.803 298.951L182.719 274.191ZM173.615 171.871C175.66 172.506 178.191 174.429 177.117 176.381C186.002 177.322 183.349 176.886 183.749 165.784C184.154 154.518 184.188 142.061 177.233 133.534C171.078 125.989 161.04 123.629 151.666 122.781C140.725 121.79 129.666 122.266 118.836 124.194C113.552 125.134 107.828 126.755 104.762 131.414C103.046 134.021 102.414 137.241 101.91 140.376C99.9269 152.705 99.3075 165.28 100.069 177.762C122.848 166.524 149.501 164.389 173.615 171.871ZM371.309 254.643C371.865 254.047 372.71 253.902 373.493 253.787C376.624 253.331 379.754 252.874 382.885 252.418C375.7 248.977 371.346 240.804 370.045 232.56C368.744 224.315 370.015 215.886 371.298 207.639C366.702 213.062 367.033 221.244 367.635 228.506C368.953 244.402 370.752 255.24 371.309 254.643ZM312.203 332.939C312.819 330.815 314.914 329.675 316.449 328.163C319.212 325.441 320.237 321.325 321.139 317.442C324.252 304.024 327.386 290.442 327.346 276.624C327.338 273.696 327.198 270.689 328.112 267.926C329.026 265.164 331.317 262.666 334.078 262.652C336.989 262.637 337.684 258.354 337.424 255.28C336.526 244.679 335.629 234.077 334.732 223.476C334.445 220.09 334.152 216.672 333.183 213.431C329.601 201.45 315.794 194.206 304.638 198.454C303.272 198.974 302.907 200.803 302.752 202.333C301.035 219.29 299.318 236.248 297.6 253.205C297.295 256.218 300.964 258.141 303.734 257.394C306.504 256.648 308.618 254.354 311.013 252.701C313.408 251.047 316.784 250.095 318.983 252.031C321.468 254.218 325.147 251.788 327.306 249.241C329.465 246.694 332.277 243.623 335.347 244.686C331.746 248.339 328.144 251.992 324.542 255.645C323.348 256.857 322.294 259.277 323.804 259.992C327.942 258.436 331.683 255.708 334.536 252.168C335.854 252.123 335.917 254.32 335.181 255.481C332.408 259.857 325.881 260.831 324.201 265.793C320.279 277.373 308.047 285.066 296.582 283.161C294.23 282.771 293.058 286.05 292.775 288.557C291.646 298.549 290.517 308.542 289.389 318.534C289.129 320.833 288.887 323.265 289.78 325.378C291.269 328.903 295.253 330.237 298.784 331.186C303.452 332.44 308.174 333.7 312.946 334.248C314.955 334.478 314.947 333.698 312.203 332.939ZM126.224 314.618C132.894 316.987 139.954 317.789 146.949 318.577C149.915 318.911 153.074 319.211 155.736 317.781C158.868 316.099 160.537 312.453 161.884 309.014C169.398 289.84 173.687 269.251 174.491 248.504C174.605 245.556 171.046 244.255 168.27 244.057C146.106 242.48 124.91 252.81 104.837 262.899C103.875 263.383 102.845 263.934 102.37 264.944C102.016 265.698 102.034 266.579 102.061 267.42C102.42 278.882 102.874 290.754 107.708 301.012C109.013 303.782 110.674 306.449 113.025 308.286C114.449 309.399 116.08 310.172 117.696 310.935C120.501 312.26 123.312 313.584 126.224 314.618ZM269.602 272.2C272.556 255.353 274.638 238.334 275.836 221.246C276.245 215.4 276.545 209.457 275.354 203.733C274.162 198.008 271.286 192.444 266.586 189.359C263.689 187.458 260.298 186.605 256.945 185.97C250.825 184.813 244.599 184.287 238.383 184.404C232.899 184.508 227.142 185.217 222.664 188.577C221.184 189.688 219.839 191.143 219.298 192.979C218.757 194.815 219.212 197.071 220.714 198.149C224.511 200.875 226.058 205.976 226.77 210.779C227.481 215.581 227.652 220.611 229.716 224.952C230.78 227.19 232.307 229.144 233.907 230.989C242.586 240.994 253.905 248.396 266.233 252.126C268.4 252.782 271.158 254.202 270.7 256.541C277.518 261.102 269.489 272.846 269.602 272.2ZM250.813 321.888C253.323 320.271 255.025 317.579 256.523 314.9C262.881 303.534 267.05 290.798 268.7 277.7C245.832 277.59 223.101 268.441 205.924 252.434C205.337 254.936 205.449 257.554 205.529 260.131C206.031 276.219 205.13 292.355 202.844 308.268C202.299 312.061 204.436 315.854 207.374 318.094C210.312 320.334 213.931 321.296 217.484 322.022C225.495 323.658 233.68 324.329 241.833 324.017C244.933 323.899 248.161 323.596 250.813 321.888ZM395.113 183.122C393.78 179.716 392.78 175.876 390.014 173.64C387.249 171.403 382.042 172.498 381.88 176.181C384.616 175.647 386.708 179.229 386.242 182.138C385.776 185.047 383.781 187.36 382.197 189.786C380.007 193.138 378.51 196.932 377.028 200.694C373.504 209.646 372.132 219.54 373.077 229.189C373.634 234.87 375.102 240.705 378.724 244.931C382.347 249.158 388.556 251.272 393.33 248.626C397.43 246.354 399.475 241.345 400.415 236.542C401.355 231.739 401.523 226.711 403.299 222.182C406.576 213.826 414.657 208.778 422.651 205.609C410.634 203.878 399.761 195 395.113 183.122ZM361.882 192.161C362.417 194.351 363.157 196.485 364.088 198.521C364.646 195.652 365.544 192.858 366.752 190.224C365.53 190.076 364.299 190.005 363.069 190.013C362.771 190.015 362.455 190.027 362.203 190.196C361.635 190.578 361.714 191.47 361.882 192.161ZM217.034 189.907C216.277 190.552 215.833 191.942 216.632 192.528C217.855 191.229 219.078 189.93 220.302 188.632C220.049 188.299 219.681 188.067 219.285 187.99C218.8 188.882 217.79 189.261 217.034 189.907Z" fill="white"/>
<path d="M428.868 180.602C431.481 180.602 433.6 178.355 433.6 175.584C433.6 172.813 431.481 170.567 428.868 170.567C426.255 170.567 424.136 172.813 424.136 175.584C424.136 178.355 426.255 180.602 428.868 180.602Z" fill="#FFB61D"/>
<path d="M401.768 175.585C403.194 175.585 404.349 174.359 404.349 172.848C404.349 171.336 403.194 170.111 401.768 170.111C400.343 170.111 399.188 171.336 399.188 172.848C399.188 174.359 400.343 175.585 401.768 175.585Z" fill="#FFB61D"/>
<path fill-rule="evenodd" clip-rule="evenodd" d="M157.374 103.587C165.117 103.639 172.859 103.692 180.602 103.744C180.965 103.746 181.354 103.757 181.646 103.985C182.244 104.45 182.005 105.539 181.39 105.977C180.775 106.415 179.978 106.397 179.238 106.369C172.424 106.118 165.59 106.494 158.837 107.489C157.81 107.641 156.726 107.8 155.766 107.386C154.805 106.972 154.07 105.752 154.512 104.758C154.974 103.719 156.291 103.58 157.374 103.587ZM131.482 102.781C131.972 103.3 131.737 104.252 131.192 104.705C130.647 105.158 129.917 105.249 129.228 105.323C122.364 106.06 115.499 106.797 108.635 107.534C107.823 107.621 106.984 107.706 106.207 107.441C105.431 107.175 104.728 106.463 104.709 105.598C104.691 104.706 105.405 103.948 106.203 103.664C107.001 103.379 107.867 103.459 108.707 103.529C115.74 104.115 122.842 103.777 129.797 102.524C130.38 102.419 131.063 102.339 131.482 102.781ZM130.52 88.8095C131.033 89.2484 130.851 90.1891 130.336 90.6257C129.821 91.0622 129.121 91.1347 128.464 91.1896L106.42 93.0338C105.594 93.1029 104.739 93.168 103.961 92.8694C103.183 92.5707 102.5 91.8018 102.544 90.9253C102.59 90.0374 103.363 89.3486 104.178 89.1389C104.993 88.9292 105.846 89.0858 106.676 89.2158C114.158 90.3884 121.766 89.3193 129.298 88.5932C129.72 88.5524 130.19 88.5271 130.52 88.8095ZM161.307 84.1784C165.907 84.8014 170.57 84.8962 175.189 84.4605C177.025 84.2873 179.245 84.206 180.288 85.8176C179.05 86.8791 177.348 87.0297 175.759 87.1359C170.492 87.4879 165.224 87.84 159.957 88.192C158.756 88.2723 157.258 88.1758 156.763 87.0121C156.319 85.9678 157.101 84.712 158.105 84.289C159.109 83.866 160.236 84.0332 161.307 84.1784ZM121.57 78.207C121.575 79.0506 120.579 79.4146 119.791 79.537L108.215 81.3361C107.389 81.4645 106.535 81.5916 105.728 81.3631C104.922 81.1347 104.167 80.454 104.092 79.5721C103.999 78.4925 104.955 77.5814 105.953 77.3462C106.951 77.1109 107.985 77.357 108.999 77.4955C112.496 77.9732 116.023 77.1584 119.547 77.03C120.409 76.9986 121.564 77.2923 121.57 78.207ZM177.427 75.2689C178.322 75.375 179.242 75.9417 179.481 76.863C177.89 78.1386 175.788 78.3708 173.801 78.5575C170.401 78.8771 167.001 79.1967 163.6 79.5162C162.402 79.6288 161.204 79.7414 160.006 79.854C159.131 79.9363 158.219 80.0139 157.397 79.6843C156.574 79.3547 155.872 78.4892 155.994 77.5659C156.187 76.1109 157.988 75.7332 159.373 75.7648C164.514 75.8819 169.718 76.7045 174.754 75.6072C175.637 75.4149 176.531 75.1627 177.427 75.2689ZM181.942 61.5054C156.746 65.1079 130.913 63.2425 106.064 68.9416C104.59 69.2796 102.533 69.2962 102.152 67.7493C102.186 65.9266 104.409 65.2687 106.124 65.139C130.298 63.311 154.471 61.4829 178.645 59.6548C180.063 59.5476 182.054 60.0024 181.942 61.5054Z" fill="#E7EAEE"/>
<path fill-rule="evenodd" clip-rule="evenodd" d="M93.3114 338.445C93.5748 341.677 89.3728 342.772 86.3132 342.785C70.4118 342.852 54.5263 345.979 39.6621 351.969C37.3936 352.883 34.9657 354.035 33.8616 356.327C32.3997 359.361 33.9953 363.244 36.5817 365.266C39.1681 367.288 42.4694 367.905 45.6411 368.452C128.083 382.687 211.751 388.926 295.26 387.068L296.603 387.037C306.234 386.801 316.064 386.252 324.887 382.208C317.583 376.78 310.278 371.351 302.974 365.923C315.618 363.245 328.665 365.152 341.497 366.495C370.866 369.57 400.514 369.632 429.895 366.683C427.827 370.187 423.279 370.673 419.381 370.762C382.424 371.606 345.421 370.214 308.614 366.595C313.416 369.946 318.218 373.297 323.021 376.648C324.761 377.863 326.686 379.404 326.787 381.61C326.938 384.926 323.096 386.581 320.007 387.122C309.757 388.918 299.33 389.204 288.942 389.365C207.816 390.622 126.588 384.467 46.4543 370.989C42.5442 370.332 38.4928 369.597 35.2325 367.216C31.9722 364.834 29.7495 360.306 31.1195 356.368C32.4822 352.45 36.6283 350.61 40.3716 349.314C57.5019 343.381 75.3308 339.721 93.3114 338.445ZM202.68 45.9576C202.85 85.557 203.02 125.156 203.189 164.756C203.23 174.181 204.981 186.108 213.577 188.508C225.455 182.693 238.843 180.397 251.844 181.943C259.286 182.828 267.015 185.214 272.053 191.089C278.965 199.148 278.975 211.286 278.233 222.151C276.729 244.173 273.767 266.084 269.375 287.668C272.864 287.434 276.423 288.919 278.827 291.611C275.125 293.406 270.713 293.481 266.958 291.813C269.538 306.637 258.148 321.262 244.507 325.509C230.867 329.756 216.065 325.752 203.238 319.251C202.035 324.219 208.302 327.137 213.087 327.887C225.233 329.791 237.378 331.694 249.524 333.598C234.524 334.076 219.475 332.774 204.747 329.724C202.035 333.797 208.177 337.908 212.818 338.705C225.129 340.818 237.44 342.93 249.751 345.043C235.846 344.944 221.947 343.961 208.153 342.101C216.925 350.492 228.9 355.003 240.699 354.363C234.043 356.684 226.649 356.544 220.075 353.973C228.299 365.651 245.124 367.814 257.411 361.283C269.698 354.751 277.72 341.388 281.645 327.421C285.569 313.453 285.951 298.692 286.646 284.136C287.93 257.268 290.383 230.437 294.822 203.949C297.811 186.113 305.153 164.845 322.072 162.324C291.93 160.852 261.759 160.057 231.585 159.942C222.416 159.907 211.027 161.497 207.965 170.662C205.348 170.949 205.932 166.241 207.916 164.407C215.322 157.561 226.114 157.31 235.939 157.416L301.865 158.132C323.158 158.363 348.692 161.226 358.332 181.358C358.052 175.375 363.167 169.729 368.816 169.784C374.977 169.844 380.13 164.176 381.928 157.928C383.727 151.679 382.934 144.965 382.124 138.488C372.19 128.288 369.589 110.949 376.049 97.984C377.876 94.317 380.576 85.5733 395.653 79.9454C405.705 76.1934 415.64 76.6059 425.461 81.183C443.902 77.4017 456.575 78.7439 463.479 85.2095C473.835 94.9079 474.033 102.856 468.074 109.912C474.811 107.119 482.73 111.856 486.105 118.641C489.48 125.426 489.303 133.555 488.288 141.149C485.773 159.958 478.542 178.035 467.536 193.024L466.019 197.765C492.643 205.043 514.18 229.996 518.666 258.759C509.814 237.604 497.831 215.199 477.186 207.688C472.528 212.87 467.737 218.277 465.549 225.049C463.362 231.821 464.543 240.379 470.091 244.458C466.607 245.315 463.122 246.171 459.638 247.028C460.798 249.209 461.958 251.39 463.118 253.572C449.952 264.184 448.437 284.258 448.517 301.794C448.597 319.331 448.296 339.108 436.297 351.177C425.603 361.935 409.28 362.671 394.546 362.175C358.32 360.956 322.204 356.074 286.848 347.617C283.842 346.898 280.034 346.46 278.301 349.162C265.759 368.715 239.532 370.463 217.289 368.761C188.718 366.575 160.31 361.98 132.423 355.034C116.605 351.095 99.808 345.609 89.9538 331.91C78.4659 315.939 79.7926 293.797 81.6566 273.809C70.3306 280.486 56.9036 283.071 44.0868 281.041C57.5971 271.675 64.1486 253.758 64.2717 236.643C64.3948 219.528 59.0071 202.939 53.013 187.047C39.8062 195.17 32.8575 212.29 33.8908 228.442C34.9241 244.594 43.0061 259.586 53.8497 270.982C40.4825 262.037 31.6373 245.922 30.9052 229.18C30.1731 212.437 37.574 195.523 50.1033 185.305C48.1011 178.045 37.7719 177.158 32.3583 182.083C26.9446 187.009 25.2456 195.004 23.8531 202.423C21.28 216.13 18.6962 230.157 20.5658 243.993C22.4354 257.828 29.6428 271.677 41.7203 277.275C36.0761 281.589 28.5585 275.378 24.8101 269.163C9.60923 243.958 9.15017 209.602 23.6715 183.95C25.4158 180.869 27.4285 177.832 30.2689 175.871C33.2803 173.792 36.9516 173.109 40.531 172.773C54.649 171.447 69.1343 174.941 81.3218 182.612C81.213 140.61 81.1042 98.6079 80.9953 56.6057C80.9891 54.2003 81.0207 51.648 82.2301 49.613C83.9793 46.6697 87.5625 45.7574 90.7877 45.119C120.127 39.3116 149.798 35.3949 179.584 33.3978C189.317 32.7452 202.636 35.6173 202.68 45.9576ZM182.787 35.9284C151.207 37.5047 119.741 41.6442 88.7546 48.2987C87.4359 48.5819 86.0394 48.9126 85.0808 49.9139C83.7751 51.2777 83.6741 53.4387 83.657 55.3821C83.2869 97.2049 83.4434 139.033 84.1263 180.851C87.9183 179.849 91.7102 178.846 95.5022 177.844C94.0199 169.263 92.5313 160.566 93.1651 151.868C93.7989 143.17 96.8091 134.324 103.001 128.579C109.702 122.361 119.053 120.604 127.936 119.943C136.477 119.307 145.071 119.454 153.589 120.383C162.284 121.331 171.444 123.378 177.717 129.832C186.778 139.156 186.925 154.261 186.456 167.64C185.211 203.157 183.965 238.674 182.72 274.191C182.428 282.528 182.118 290.978 179.804 298.951C177.49 306.925 172.897 314.504 165.948 318.417C159.129 322.257 150.97 322.148 143.299 321.223C135.975 320.341 128.721 318.801 121.641 316.626C117.34 315.305 113.037 313.715 109.382 310.972C97.2871 301.896 95.8571 283.787 95.5634 268.079C90.9193 267.19 86.3793 270.938 84.4618 275.51C82.5443 280.082 82.6293 285.277 82.7484 290.28C83.0455 302.758 83.5041 315.859 89.5115 326.593C98.7803 343.155 118.249 349.274 136.025 353.229C167.575 360.248 199.608 364.826 231.786 366.914C217.425 359.158 204.694 345.885 201.665 329.101C200.842 324.542 200.754 319.874 200.668 315.233C198.991 224.485 197.315 133.737 195.638 42.9882C195.532 37.2492 188.194 35.6585 182.787 35.9284ZM305.208 184.92C304.409 186.986 303.829 189.278 304.36 191.438C304.892 193.598 306.872 195.484 308.949 195.117C318.251 193.475 328.279 198.333 333.196 206.866C337.254 213.906 337.817 222.519 338.274 230.756L342.435 305.784C342.879 313.801 343.099 322.624 338.399 328.923C332.302 337.095 320.853 337.367 311.072 336.353C303.002 335.516 294.512 334.092 288.247 328.634C288.469 331.811 287.595 335.061 285.828 337.637C283.646 340.816 287.168 345 290.595 346.503C294.78 348.339 299.331 348.979 303.822 349.597C324.393 352.428 344.977 355.158 365.573 357.787C381.425 359.811 397.531 361.77 413.291 359.054C403.321 356.088 393.78 351.503 385.104 345.508C380.776 342.517 376.59 339.101 373.638 334.605C368.819 327.266 367.803 317.941 367.001 309.039C364.617 282.567 362.842 256.034 361.679 229.471C360.822 209.878 354.897 190.562 344.721 174.183C342.901 171.254 340.676 168.215 337.459 167.399C324.668 164.157 310.198 172.018 305.208 184.92ZM246.56 354.468C247.645 354.664 248.758 354.922 249.652 355.602C250.547 356.282 251.171 357.49 250.895 358.619C250.62 359.749 249.214 360.493 248.325 359.804C247.345 359.044 246.041 359.018 244.872 358.667C243.704 358.317 242.479 357.288 242.689 356.02C242.955 354.412 245.042 354.195 246.56 354.468ZM201.515 354.946C202.861 355.242 204.437 356.26 204.161 357.688C203.918 358.947 202.449 359.367 201.247 359.537C199.9 359.728 198.462 359.905 197.239 359.277C196.016 358.649 195.223 356.877 196.025 355.714C196.566 354.93 197.579 354.721 198.495 354.682C199.507 354.638 200.524 354.727 201.515 354.946ZM282.048 339.072C280.771 340.049 279.893 341.489 278.991 342.858C274.882 349.102 269.673 354.529 263.714 358.777C263.863 359.447 264.81 359.277 265.371 358.932C272.271 354.693 277.196 347.69 281.922 340.879C282.308 340.322 282.627 339.389 282.048 339.072ZM343.747 170.404C347.429 175.013 351.139 179.666 353.832 184.988C356.752 190.759 358.392 197.153 359.712 203.55C367.1 239.335 365.128 276.539 369.916 312.817C370.78 319.363 371.922 326.049 375.134 331.714C378.897 338.351 385.143 342.951 391.505 346.752C396.651 349.827 402.022 352.526 407.674 354.347C416.66 357.243 427.456 357.446 434.345 350.676C438.213 346.874 440.248 341.45 441.838 336.117C448.65 313.26 449.399 288.409 443.977 265.137C444.113 279.055 445.818 292.941 445.428 306.854C445.038 320.767 442.344 335.094 434.631 346.356C433.103 348.588 431.333 350.729 429.024 351.997C425.983 353.668 422.37 353.635 418.97 353.195C413.033 352.426 407.227 350.523 401.916 347.606C397.881 345.39 394.148 342.606 390.531 339.69C386.327 336.3 382.199 332.648 379.254 328C376.334 323.392 374.707 318.01 373.416 312.631C363.991 273.353 370.73 230.983 359.547 192.227C356.911 183.093 352.334 173.293 343.747 170.404ZM118.906 343.201C140.663 346.762 162.42 350.323 184.177 353.884C183.626 355.41 181.637 355.463 180.109 355.247C161.502 352.611 142.895 349.976 124.288 347.34C122.184 347.042 120.081 346.744 117.977 346.446C116.979 346.305 115.739 345.921 115.613 344.862C115.435 343.368 117.503 342.971 118.906 343.201ZM371.298 207.639C366.703 213.062 367.034 221.243 367.636 228.506C368.953 244.402 370.271 260.298 371.588 276.193C371.65 276.937 371.725 277.721 372.136 278.327C372.809 279.318 374.111 279.49 375.259 279.576C390.902 280.744 406.544 281.913 422.186 283.082C421.017 285.042 418.38 285.072 416.199 284.893C401.473 283.688 386.687 283.297 371.922 283.723C371.668 291.752 372.784 299.827 375.2 307.441C376.247 310.741 380.279 311.444 383.56 311.585C396.072 312.122 408.584 312.659 421.096 313.196C421.671 314.571 419.65 315.429 418.232 315.412C405.371 315.255 392.51 315.098 379.649 314.942C377.888 314.92 377.25 317.566 377.914 319.297C379.649 323.819 385.173 324.792 389.768 325.097L418.521 327.007C419.178 327.05 419.314 328.144 418.835 328.622C418.356 329.099 417.625 329.112 416.968 329.097L383.302 328.34C392.007 339.325 404.216 347.131 417.441 350.167C420.29 350.821 423.312 351.25 426.08 350.281C429.393 349.122 431.836 346.139 433.749 343.045C443.892 326.636 443.218 305.522 442.181 285.933L441.006 263.73C441.416 263.131 442.259 262.924 442.876 263.27C443.114 262.182 441.779 261.536 440.742 261.334C417.859 256.877 394.378 252.413 371.478 256.766C370.746 256.447 370.753 255.239 371.309 254.643C371.866 254.047 372.71 253.902 373.494 253.787C376.624 253.331 379.755 252.874 382.885 252.417C375.701 248.977 371.347 240.804 370.046 232.56C368.745 224.315 370.015 215.886 371.298 207.639ZM258.832 342.618C260.87 343.02 263.223 343.681 264.019 345.711C261.75 347.351 258.77 347.183 256.032 346.951C255.279 346.887 254.456 346.79 253.927 346.218C252.991 345.206 253.689 343.341 254.894 342.727C256.098 342.112 257.518 342.359 258.832 342.618ZM103.603 327.786C127.044 335.596 151.335 340.533 175.837 342.469C177.738 342.619 180.293 343.58 179.928 345.564C154.014 342.456 128.258 337.863 102.811 331.812C101.187 331.426 99.1034 330.199 99.7081 328.555C100.239 327.11 102.208 327.321 103.603 327.786ZM189.46 339.84C190.657 339.837 191.813 340.272 192.932 340.724C193.501 340.953 194.127 341.249 194.347 341.851C194.818 343.133 193.15 344.05 191.873 344.296C191.014 344.461 190.154 344.626 189.295 344.792C188.57 344.931 187.79 345.064 187.123 344.732C186.039 344.194 185.757 342.535 186.379 341.451C187.001 340.366 188.264 339.843 189.46 339.84ZM299.842 337.1C310.211 339.191 320.831 339.31 331.386 339.422C332.202 339.43 332.423 340.793 331.839 341.399C331.256 342.005 330.345 342.032 329.528 342.015C319.676 341.81 309.811 340.709 299.987 341.53C298.918 341.619 297.808 341.726 296.803 341.327C295.799 340.928 294.942 339.851 295.133 338.732C295.298 337.768 296.184 337.091 297.092 336.905C298 336.718 298.934 336.917 299.842 337.1ZM323.267 164.744C311.527 166.603 301.664 177.682 300.59 190.217C299.588 201.925 296.54 213.309 294.371 224.837C287.404 261.858 289.518 300.224 283.358 337.405C285.608 333.062 286.215 328.006 286.781 323.087L301.716 193.394C302.114 189.944 302.52 186.453 303.689 183.205C306.885 174.328 315.142 168.752 323.267 164.744ZM269.887 332.716C270.527 332.932 271.182 333.215 271.609 333.764C272.035 334.314 272.142 335.201 271.676 335.713C271.324 336.1 270.774 336.169 270.27 336.217C268.619 336.371 266.969 336.526 265.319 336.68C264.428 336.764 263.508 336.844 262.659 336.546C261.81 336.247 261.045 335.467 261.02 334.519C260.979 332.914 262.847 332.107 264.358 332.002C266.222 331.873 268.108 332.117 269.887 332.716ZM304.638 198.454C303.272 198.974 302.907 200.803 302.753 202.333L297.601 253.205C297.296 256.218 300.965 258.14 303.735 257.394C306.504 256.648 308.619 254.354 311.014 252.7C313.409 251.047 316.785 250.095 318.984 252.03C321.469 254.218 325.148 251.788 327.307 249.241C329.466 246.694 332.277 243.623 335.348 244.686C331.746 248.339 328.145 251.992 324.543 255.645C323.348 256.857 322.295 259.277 323.804 259.992C327.943 258.436 331.684 255.708 334.536 252.168C335.855 252.123 335.917 254.32 335.181 255.481C332.408 259.857 325.882 260.831 324.202 265.792C320.279 277.373 308.047 285.066 296.582 283.161C294.231 282.77 293.058 286.05 292.775 288.556C291.647 298.549 290.518 308.542 289.39 318.534C289.13 320.833 288.888 323.265 289.78 325.378C291.27 328.903 295.253 330.237 298.785 331.186C305.419 332.968 312.161 334.763 319 334.507C325.839 334.25 332.911 331.658 337.241 326.039C336.042 324.388 333.371 326.505 331.624 325.55C329.915 324.615 330.823 321.503 332.658 320.891C334.492 320.279 336.429 321.251 338.132 322.197C339.202 319.983 340.303 317.613 340.083 315.136C339.863 312.659 337.719 310.209 335.432 310.766C333.929 311.133 333.316 308.371 334.528 307.359C335.74 306.348 337.48 306.676 338.981 307.054C339.064 301.076 339.147 295.098 339.23 289.12C339.247 287.9 339.251 286.618 338.706 285.544C338.16 284.47 336.867 283.717 335.83 284.247C334.417 284.969 333.192 282.418 334.138 281.091C335.083 279.764 336.868 279.593 338.436 279.535C338.557 274.226 338.233 268.905 337.47 263.656C331.568 266.791 330.536 275.065 329.941 282.035C328.8 295.403 326.504 308.66 323.09 321.585C322.326 324.481 321.466 327.442 319.679 329.777C317.892 332.112 314.947 333.698 312.204 332.939C312.819 330.815 314.915 329.675 316.45 328.163C319.212 325.441 320.238 321.325 321.139 317.442C324.253 304.024 327.386 290.442 327.347 276.624L327.341 275.697C327.321 273.066 327.295 270.398 328.113 267.926C329.027 265.164 331.317 262.666 334.078 262.652C336.989 262.637 337.685 258.354 337.425 255.28C336.527 244.678 335.63 234.077 334.732 223.476C334.446 220.09 334.153 216.672 333.184 213.431C329.601 201.45 315.794 194.206 304.638 198.454ZM348.568 327.75C349.936 328.139 351.264 329.631 350.696 331.007C350.152 332.321 348.448 332.394 347.1 332.259C346.441 332.192 345.739 332.109 345.224 331.667C344.322 330.893 344.45 329.253 345.295 328.41C346.14 327.567 347.447 327.431 348.568 327.75ZM184.135 326.28C185.035 326.487 185.973 326.765 186.62 327.46C187.267 328.155 187.481 329.394 186.838 330.093C186.312 330.664 185.464 330.674 184.712 330.646C183.631 330.606 182.55 330.566 181.468 330.525C180.842 330.502 180.173 330.463 179.67 330.067C178.595 329.22 179.067 327.235 180.221 326.515C181.374 325.794 182.826 325.98 184.135 326.28ZM100.813 315.878C106.867 318.863 113.518 320.165 120.095 321.38C133.41 323.839 146.764 326.054 160.151 328.024C162.024 328.3 164.099 328.69 165.24 330.289C160.056 330.664 154.875 329.749 149.751 328.836C132.859 325.829 115.966 322.821 99.0743 319.813C97.3037 319.498 95.0175 318.455 95.3624 316.587C95.7712 314.372 98.8836 314.926 100.813 315.878ZM205.925 252.434C205.337 254.936 205.449 257.554 205.53 260.131C206.031 276.219 205.131 292.355 202.844 308.267C202.299 312.061 204.436 315.854 207.374 318.094C210.312 320.334 213.932 321.296 217.485 322.022C225.495 323.658 233.681 324.329 241.833 324.017C244.934 323.899 248.162 323.596 250.813 321.888C253.323 320.27 255.026 317.579 256.524 314.9C262.881 303.534 267.05 290.798 268.7 277.7C245.833 277.59 223.102 268.441 205.925 252.434ZM265.734 316.217C267.295 316.764 268.856 317.31 270.418 317.856C270.938 318.039 271.497 318.25 271.806 318.73C272.327 319.542 271.821 320.73 271.013 321.211C270.206 321.693 269.225 321.667 268.299 321.628C266.614 321.557 264.752 321.407 263.576 320.125C262.399 318.843 262.802 316.078 264.486 315.962C264.911 315.932 265.329 316.076 265.734 316.217ZM347.575 316.457C348.504 316.615 349.483 316.796 350.199 317.443C350.915 318.09 351.208 319.371 350.549 320.082C350.283 320.368 349.915 320.515 349.557 320.648C348.175 321.158 346.639 321.565 345.273 321.009C343.907 320.454 342.974 318.538 343.834 317.282C344.623 316.127 346.247 316.232 347.575 316.457ZM104.838 262.899C103.876 263.383 102.846 263.934 102.371 264.944C102.016 265.697 102.035 266.579 102.061 267.42C102.421 278.882 102.874 290.754 107.708 301.012C109.014 303.782 110.674 306.449 113.026 308.286C114.45 309.399 116.08 310.172 117.696 310.935C120.501 312.259 123.313 313.584 126.224 314.618C132.895 316.986 139.955 317.789 146.95 318.577C149.916 318.911 153.075 319.211 155.736 317.781C158.869 316.099 160.538 312.453 161.885 309.014C169.398 289.84 173.688 269.25 174.492 248.504C174.606 245.556 171.046 244.255 168.27 244.057C146.106 242.48 124.91 252.81 104.838 262.899ZM177.933 247.672C177.365 248.465 177.294 249.527 177.238 250.521C175.911 273.983 170.404 297.172 161.093 318.502C169.964 313.741 176.574 304.496 178.502 294.154C179.164 290.598 179.3 286.958 179.434 283.336C179.855 271.915 180.277 260.495 180.699 249.074C180.721 248.472 180.725 247.81 180.364 247.345C179.766 246.576 178.502 246.879 177.933 247.672ZM181.608 304.818C182.733 304.883 183.791 305.379 184.885 305.667C185.865 305.926 186.161 307.405 185.614 308.305C185.067 309.206 184.012 309.597 183.012 309.746C181.969 309.901 180.846 309.842 179.948 309.256C179.051 308.671 178.468 307.447 178.827 306.396C179.21 305.272 180.482 304.753 181.608 304.818ZM348.221 301.717C349.273 301.947 350.176 302.639 351.042 303.313C351.513 303.679 352.013 304.089 352.167 304.686C352.363 305.447 351.889 306.268 351.237 306.647C350.584 307.027 349.801 307.054 349.059 306.991C348.004 306.902 346.915 306.624 346.119 305.885C345.323 305.146 344.918 303.848 345.414 302.857C345.918 301.85 347.168 301.486 348.221 301.717ZM97.8227 266.236C97.5348 266.78 97.5929 267.448 97.6593 268.068L99.2232 282.668C100.072 290.591 101.183 299.131 106.406 304.868C107.277 304.43 106.786 303.042 106.237 302.202C102.006 295.728 101.191 287.496 100.505 279.654C100.103 275.057 99.7006 270.46 99.2984 265.863C98.894 265.41 98.1106 265.692 97.8227 266.236ZM376.33 296.145C390.679 296.52 405.029 296.896 419.378 297.271C421.574 297.329 423.777 297.387 425.95 297.733C425.496 299.397 423.433 299.71 421.8 299.693C407.41 299.549 392.973 298.605 378.661 300.191C377.437 300.327 376.116 300.46 375.055 299.801C373.993 299.143 373.517 297.335 374.493 296.541C374.999 296.129 375.692 296.128 376.33 296.145ZM336.906 293.155C337.222 293.264 337.545 293.381 337.803 293.604C338.66 294.344 338.341 295.926 337.464 296.64C336.587 297.354 335.404 297.436 334.298 297.465C333.147 297.495 331.805 297.399 331.15 296.395C330.326 295.136 331.305 293.272 332.667 292.761C334.03 292.251 335.532 292.678 336.906 293.155ZM347.397 290.08C348.735 290.234 350.037 290.731 351.16 291.518C352.018 292.119 351.847 293.629 351.066 294.339C350.286 295.049 349.171 295.149 348.143 295.109C347.104 295.069 346.019 294.902 345.178 294.253C344.337 293.604 343.836 292.349 344.287 291.356C344.801 290.221 346.217 289.945 347.397 290.08ZM202.844 255.357C202.062 267.299 201.712 279.273 201.794 291.243C201.798 291.749 202.123 292.467 202.53 292.204C203.394 282.143 203.818 272.038 203.801 261.935C203.797 259.697 203.754 257.377 202.844 255.357ZM187.504 285.992C188.735 286.091 189.822 286.85 190.825 287.613C191.134 287.847 191.452 288.098 191.625 288.457C191.983 289.201 191.554 290.158 190.881 290.593C190.209 291.029 189.377 291.063 188.591 291.024C186.801 290.935 184.552 289.903 184.752 288.015C184.89 286.714 186.273 285.894 187.504 285.992ZM350.378 277.948C351.576 278.47 352.809 279.832 352.19 281.038C351.771 281.855 350.75 282.031 349.873 282.041C348.855 282.051 347.836 281.963 346.833 281.778C345.423 281.517 345.206 279.164 346.302 278.186C347.397 277.208 349.053 277.372 350.378 277.948ZM490.008 254.582C490.502 255.458 490.51 256.538 490.505 257.558C490.463 264.785 490.421 272.011 490.379 279.237C490.374 280.115 490.263 281.178 489.512 281.547C488.862 281.865 488.062 281.418 487.701 280.763C487.34 280.109 487.307 279.314 487.295 278.556C487.19 272.104 487.868 265.499 486.145 259.311C485.633 257.472 485.02 255.176 486.359 253.887C487.406 252.881 489.283 253.296 490.008 254.582ZM314.8 253.745C309.634 257.144 304.2 260.638 298.136 261.101C297.033 261.186 296.536 262.583 296.319 263.733C295.339 268.906 294.799 274.172 294.706 279.447C294.7 279.77 294.703 280.116 294.879 280.379C295.159 280.798 295.729 280.816 296.212 280.789C300.942 280.526 305.737 280.002 310.131 278.124C314.524 276.246 318.521 272.845 320.311 268.194C322.101 263.544 321.241 257.613 317.585 254.419C316.798 253.732 315.665 253.175 314.8 253.745ZM275.252 274.085C276.911 274.548 278.571 275.01 280.231 275.472C280.851 275.645 281.541 275.874 281.837 276.477C282.186 277.187 281.78 278.103 281.148 278.541C280.516 278.98 279.729 279.063 278.977 279.134C277.784 279.246 276.556 279.355 275.411 278.981C274.266 278.608 273.212 277.629 273.081 276.366C272.95 275.104 274.093 273.763 275.252 274.085ZM45.0177 177.789C51.2294 180.456 55.9049 186.227 58.8049 192.633C61.7048 199.04 63.0252 206.104 64.176 213.104C66.0807 224.691 67.5975 236.519 66.2087 248.188C64.8199 259.857 60.2196 271.493 51.6914 279.013C57.9036 279.365 65.321 279.104 68.6936 273.561C70.2071 271.073 73.4645 269.972 76.0565 271.072C74.427 269.579 75.657 266.797 76.8663 264.907C81.8215 257.163 85.2214 248.262 86.4364 238.993C88.7921 221.02 82.8693 202.804 74.081 187.233C68.379 177.131 55.0788 172.809 45.0177 177.789ZM192.302 270.893C193.584 271.428 193.285 273.675 192.087 274.396C190.889 275.117 189.396 274.793 188.061 274.433C187.438 274.265 186.777 274.069 186.355 273.556C185.368 272.358 186.5 270.334 187.962 269.977C189.423 269.619 190.906 270.311 192.302 270.893ZM238.384 184.404C232.899 184.508 227.142 185.217 222.665 188.577C221.184 189.688 219.839 191.143 219.298 192.979C218.758 194.815 219.213 197.071 220.715 198.149C224.511 200.875 226.059 205.976 226.77 210.779C227.482 215.581 227.653 220.611 229.717 224.952C230.781 227.19 232.307 229.144 233.908 230.989C242.586 240.994 253.906 248.396 266.234 252.126C268.401 252.782 271.158 254.201 270.7 256.541C252.965 252.597 236.792 241.248 226.435 225.48C223.288 235.728 217.081 244.893 208.928 251.328C224.832 265.679 245.413 274.087 266.287 274.761C267.232 274.792 268.302 274.754 268.94 274.013C269.358 273.528 269.489 272.846 269.603 272.2C272.557 255.353 274.639 238.334 275.836 221.246C276.246 215.4 276.546 209.457 275.354 203.733C274.162 198.008 271.287 192.444 266.586 189.359C263.69 187.458 260.299 186.605 256.945 185.97C250.825 184.813 244.599 184.287 238.384 184.404ZM347.36 266.392C348.798 266.393 350.612 266.839 350.865 268.34C351.116 269.836 349.509 270.95 348.087 271.143C347.047 271.284 345.917 271.15 345.092 270.464C344.267 269.778 343.883 268.434 344.456 267.503C345.044 266.549 346.285 266.391 347.36 266.392ZM453.614 236.351C450.974 247.192 449.433 258.296 447.898 269.374C447.821 269.925 447.777 270.577 448.169 270.948C452.284 265.527 456.058 259.817 459.459 253.867C459.795 253.28 460.125 252.512 459.748 251.953C458.896 250.69 458.044 249.426 457.192 248.163C456.559 247.225 455.907 245.99 456.463 245C456.916 244.194 457.928 244.024 458.808 243.938L466.036 243.233C465.958 242.758 465.686 242.349 465.421 241.957C463.485 239.101 461.374 236.098 458.275 234.845C456.558 234.151 454.073 234.464 453.614 236.351ZM118.837 124.194C113.552 125.134 107.829 126.755 104.762 131.413C103.046 134.021 102.415 137.241 101.911 140.376C99.9275 152.705 99.3081 165.28 100.069 177.762C122.849 166.524 149.502 164.389 173.615 171.871C175.661 172.506 178.191 174.429 177.118 176.381C159.029 169.286 138.882 168.228 120.221 173.393C114.183 175.064 108.315 177.362 102.311 179.167C93.3886 181.85 84.1733 183.436 74.9087 183.883C91.7819 208.175 93.9654 242.96 80.2773 269.409C88.7937 267.7 96.796 263.905 104.648 260.014C116.373 254.205 128.046 248.078 140.5 244.349C152.954 240.619 166.42 239.4 178.773 243.488C180.218 243.967 181.014 241.755 181.072 240.151L183.749 165.784C184.155 154.518 184.189 142.061 177.233 133.534C171.078 125.989 161.041 123.629 151.667 122.781C140.725 121.79 129.666 122.266 118.837 124.194ZM282.039 262.223C282.384 262.463 282.741 262.765 282.822 263.194C282.986 264.066 281.986 264.621 281.18 264.863C280.009 265.215 278.802 265.568 277.591 265.433C276.381 265.298 275.149 264.561 274.751 263.341C274.353 262.121 275.153 260.52 276.37 260.496C278.365 260.457 280.368 261.067 282.039 262.223ZM453.861 215.427C449.455 218.047 444.19 219.005 439.213 218.091C439.849 219.974 442.641 220.631 442.655 222.631C442.663 223.849 441.581 224.706 440.966 225.734C440.493 226.526 440.288 227.46 440.099 228.376C438.326 236.987 437.307 245.772 437.062 254.583C437.02 256.101 437.376 258.106 438.799 258.271C441.749 258.614 444.526 260.367 446.216 262.953C447.6 253.716 448.985 244.478 450.369 235.241C450.69 233.097 450.961 230.703 449.776 228.933C448.146 226.498 449.565 223.162 450.994 220.589L453.861 215.427ZM191.492 255.355C192.996 255.673 194.707 257.051 194.138 258.56C193.787 259.491 192.727 259.866 191.783 259.92C190.839 259.973 189.858 259.825 188.974 260.18C187.934 260.598 186.71 259.622 186.583 258.45C186.456 257.278 187.224 256.141 188.225 255.626C189.225 255.112 190.402 255.124 191.492 255.355ZM347.342 253.928C348.29 254.067 349.29 254.289 349.98 254.992C350.67 255.696 350.86 257.034 350.125 257.685C349.883 257.9 349.576 258.014 349.277 258.122C347.974 258.594 346.581 259.056 345.244 258.706C343.908 258.356 342.747 256.852 343.209 255.477C343.742 253.892 345.77 253.698 347.342 253.928ZM433.651 234.938C432.647 235.195 431.915 236.083 431.253 236.923L427.266 241.986C426.487 242.976 427.858 244.355 429.07 244.463C430.281 244.57 431.696 244.268 432.558 245.177C433.461 246.129 433.089 247.789 432.349 248.889C431.61 249.988 430.561 250.886 430.114 252.151C429.445 254.041 430.552 256.41 432.375 256.993C433.365 257.309 434.754 256.822 434.763 255.726C434.814 249.317 435.168 242.91 435.821 236.538C435.933 235.45 434.655 234.681 433.651 234.938ZM231.335 238.121C232.099 238.659 232.593 239.52 233.102 240.329C237.476 247.274 244.793 252.048 252.611 253.057C254.42 253.291 256.554 253.524 257.46 255.199C255.757 256.988 252.981 256.77 250.646 256.194C242.368 254.152 234.783 249.081 229.476 242.041C228.63 240.918 227.857 239.21 228.801 238.179C229.44 237.481 230.571 237.583 231.335 238.121ZM429.352 207.431C423.506 208.954 417.668 211.103 412.931 215.041C408.193 218.978 404.669 224.961 404.706 231.344C404.753 239.438 401.002 247.46 394.897 252.32L405.176 253.603C406.379 253.753 407.729 253.862 408.671 253.054C410.049 251.872 409.696 249.603 409.348 247.76C409 245.917 409.077 243.482 410.73 242.804C412.784 241.962 414.482 244.983 414.172 247.293C413.861 249.604 412.596 251.828 412.992 254.124C417.86 254.856 422.743 255.473 427.637 255.975C426.663 255.127 426.557 253.521 427.049 252.292C427.542 251.063 428.498 250.122 429.428 249.221C430.418 248.261 428.99 246.569 427.656 246.417C426.322 246.265 424.753 246.605 423.812 245.59C422.643 244.328 423.52 242.213 424.518 240.795C426.454 238.042 428.854 234.725 427.608 231.556C424.569 223.829 425.238 214.577 429.352 207.431ZM205.169 186.316C204.354 207.47 204.465 228.665 205.503 249.808C213.123 245.423 218.692 237.708 222.145 229.275C224.252 224.13 225.662 218.459 224.82 212.922C224.192 208.792 222.348 204.978 220.204 201.466C216.401 195.238 211.437 189.615 205.169 186.316ZM381.88 176.181C384.617 175.647 386.709 179.229 386.243 182.138C385.776 185.047 383.782 187.36 382.197 189.786C380.008 193.138 378.51 196.932 377.029 200.694C373.504 209.646 372.132 219.54 373.078 229.189C373.634 234.87 375.103 240.705 378.725 244.931C382.348 249.158 388.557 251.271 393.33 248.626C397.43 246.354 399.475 241.344 400.416 236.542C401.356 231.739 401.523 226.711 403.3 222.182C406.577 213.826 414.658 208.778 422.652 205.609C410.635 203.878 399.762 195 395.114 183.122C393.781 179.716 392.78 175.876 390.015 173.64C387.25 171.403 382.043 172.497 381.88 176.181ZM280.303 244.326C281.148 244.498 281.977 244.759 282.775 245.103C284.09 245.67 285.503 247.239 284.657 248.449C284.195 249.109 283.307 249.189 282.531 249.21C281.117 249.248 279.592 249.253 278.437 248.387C277.282 247.521 276.882 245.425 278.047 244.574C278.687 244.107 279.54 244.171 280.303 244.326ZM344.012 240.756C345.156 240.858 346.295 241.027 347.422 241.26C347.98 241.375 348.581 241.535 348.932 242.01C349.464 242.728 349.129 243.855 348.457 244.426C347.785 244.997 346.891 245.158 346.04 245.299C344.741 245.515 343.354 245.719 342.155 245.145C340.956 244.571 340.137 242.891 340.87 241.732C341.509 240.722 342.868 240.653 344.012 240.756ZM16.9463 234.23C15.9773 234.219 15.6421 235.591 15.6715 236.618C15.7559 239.57 16.3194 242.505 17.3297 245.257C17.6109 245.561 17.9374 244.926 17.8981 244.502L16.9463 234.23ZM203.154 241.829C202.549 242.177 202.319 243.099 202.682 243.719L202.697 243.741L202.684 243.756C202.667 243.777 202.65 243.801 202.632 243.831C202.388 244.221 202.729 244.841 203.17 244.808C203.467 243.848 203.462 242.786 203.154 241.829ZM190.559 237.652C191.87 237.96 193.294 239.113 192.967 240.495C192.751 241.41 191.843 241.947 190.974 242.152C190.106 242.357 189.188 242.343 188.358 242.684C187.303 243.119 186.033 242.217 185.815 241.039C185.598 239.861 186.278 238.632 187.26 238.035C188.242 237.438 189.454 237.393 190.559 237.652ZM198.148 42.7978C198.224 106.479 199.603 170.159 202.286 233.776L202.568 240.354L202.61 238.238C202.687 233.293 202.619 228.347 202.551 223.401C201.75 165.435 200.95 107.469 200.149 49.5035C200.115 47.0765 199.935 44.3141 198.148 42.7978ZM284.047 228.34C284.783 228.573 285.521 228.928 285.998 229.566C286.475 230.203 286.612 231.184 286.14 231.826C285.683 232.448 284.855 232.566 284.114 232.635L280.955 232.933C280.438 232.981 279.883 233.022 279.434 232.746C279.071 232.524 278.831 232.118 278.721 231.69C278.389 230.4 279.212 229 280.351 228.425C281.489 227.85 282.839 227.957 284.047 228.34ZM29.5346 178.491C26.2495 181.914 24.5409 186.645 22.9621 191.233C18.563 204.016 14.3826 217.584 16.5532 230.996C17.2243 231.127 17.5442 230.158 17.594 229.437C18.4863 216.498 20.9247 203.68 24.8324 191.386C26.3234 186.695 28.1167 181.932 31.4288 178.443C31.3836 177.594 30.107 177.895 29.5346 178.491ZM433.393 206.456C432.82 206.605 432.449 207.178 432.15 207.717C429.323 212.803 427.992 218.809 428.387 224.698C428.55 227.13 429.288 229.931 431.429 230.818C433.171 229.045 434.912 227.272 436.653 225.5C436.929 225.218 437.213 224.926 437.365 224.554C437.747 223.621 437.201 222.581 436.699 221.714C434.219 217.433 432.355 212.006 434.422 207.484C434.679 206.921 433.966 206.306 433.393 206.456ZM469.573 200.967C469.295 201.121 469.081 201.375 468.873 201.624C463.733 207.788 458.769 214.117 453.99 220.599C452.992 221.953 451.95 223.48 452.048 225.195C452.136 226.719 453.147 228.048 454.373 228.85C455.599 229.652 457.027 230.017 458.429 230.371C458.804 230.466 459.211 230.558 459.563 230.392C459.888 230.24 460.094 229.903 460.281 229.583C463.207 224.58 466.174 219.479 467.556 213.778C467.851 212.562 468.845 211.713 469.639 210.782C471.2 208.954 472.115 206.519 472.167 204.054C472.185 203.219 472.093 202.338 471.637 201.657C471.182 200.976 470.271 200.581 469.573 200.967ZM344.392 225.367C345.1 225.553 345.881 225.838 346.198 226.535C346.758 227.762 345.445 229.042 344.216 229.445C343.264 229.757 342.203 229.866 341.289 229.442C340.376 229.019 339.683 227.951 339.89 226.917C340.258 225.082 342.674 224.916 344.392 225.367ZM191.731 222.687C192.066 223.005 192.376 223.379 192.502 223.835C192.757 224.754 192.152 225.767 191.323 226.145C190.493 226.522 189.523 226.376 188.687 226.015C187.806 225.634 186.949 224.906 186.837 223.904C186.709 222.759 187.687 221.705 188.763 221.54C189.84 221.374 190.921 221.918 191.731 222.687ZM286.991 212.618C287.85 212.989 287.939 214.367 287.347 215.124C286.755 215.881 285.767 216.132 284.842 216.215C283.918 216.298 282.962 216.261 282.099 216.62C280.772 217.171 279.328 215.471 279.644 213.998C279.96 212.524 281.453 211.609 282.876 211.538C284.299 211.468 285.671 212.048 286.991 212.618ZM342.919 210.402C344.137 210.466 345.342 210.805 346.428 211.39C346.9 211.644 347.387 211.995 347.521 212.538C347.798 213.655 346.476 214.422 345.406 214.64C344.458 214.833 343.496 214.948 342.531 214.983C341.34 215.027 339.903 214.784 339.428 213.625C339.06 212.724 339.509 211.62 340.263 211.051C341.018 210.482 341.995 210.354 342.919 210.402ZM421.431 127.928C414.326 129.143 407.189 130.151 400.032 130.949C394.847 131.527 389.964 134.646 387.058 139.235C386.461 140.178 386.05 141.682 386.972 142.26C389.581 139.069 393.122 136.747 396.98 135.698C398.359 135.323 399.869 135.118 401.169 135.733C402.469 136.347 403.399 138.038 402.81 139.413C401.907 141.524 399.025 140.933 396.843 140.792C390.775 140.4 385.527 147.764 387.54 153.846C388.953 148.04 396.771 145.519 401.153 149.309C405.534 153.1 404.999 161.425 400.312 164.781C398.764 165.89 396.775 166.663 396.068 168.497C395.462 170.07 396.045 171.846 396.627 173.429C397.539 175.914 398.451 178.399 399.364 180.883C401.276 186.093 403.309 191.492 407.18 195.286C410.157 198.204 414.018 199.94 417.957 200.958C432.157 204.628 448.144 198.787 457.199 186.621C457.924 185.646 459.58 186.571 459.709 187.805C459.839 189.04 459.043 190.15 458.256 191.069C454.201 195.801 449.091 199.509 443.463 201.802C440.803 202.886 437.641 204.058 436.823 206.953C436.146 209.35 437.571 211.999 439.617 213.247C441.663 214.495 444.157 214.6 446.503 214.328C451.182 213.785 455.709 211.844 459.427 208.784C460.555 207.857 461.646 206.773 462.147 205.356C462.621 204.015 462.513 202.531 462.398 201.104L462.299 199.877C461.859 194.554 461.291 189.17 459.245 184.303C458.26 181.961 456.944 179.768 456.219 177.322C455.325 174.306 455.379 171.071 454.778 167.974C454.177 164.878 452.657 161.662 449.876 160.52C450.611 158.542 452.443 157.297 453.629 155.583C454.816 153.869 454.99 150.875 453.123 150.1C452.229 149.73 451.212 150.049 450.361 150.518C446.774 152.493 444.839 157.327 445.991 161.435C446.742 164.116 442.748 165.915 440.597 164.295C438.446 162.676 437.916 159.592 437.492 156.832C435.848 146.13 432.549 134.594 423.93 128.761C423.176 128.251 422.313 127.777 421.431 127.928ZM190.978 203.835C192.111 204.225 193.241 205.304 193.005 206.542C192.782 207.713 191.512 208.261 190.402 208.463C188.827 208.748 186.774 208.421 186.331 206.793C185.91 205.244 187.439 203.76 188.951 203.591C189.632 203.514 190.326 203.611 190.978 203.835ZM372.709 181.546C371.653 182.608 371.138 184.124 370.658 185.58C369.575 188.868 368.478 192.251 368.603 195.73C368.683 197.97 367.457 199.987 366.582 202.028C365.708 204.069 365.233 206.682 366.605 208.388C369.88 205.468 370.666 200.552 371.386 196.079C372.247 190.732 373.418 185.189 376.679 181.009C375.538 180.052 373.766 180.484 372.709 181.546ZM286.403 196.449C287.246 196.736 288.201 197.311 288.211 198.25C288.223 199.392 286.898 199.917 285.838 200.123C285.307 200.226 284.776 200.329 284.245 200.432C282.891 200.695 281.44 200.947 280.182 200.356C278.924 199.765 278.086 197.964 278.908 196.793C279.439 196.036 280.416 195.83 281.304 195.772C283.024 195.659 284.763 195.89 286.403 196.449ZM163.319 179.955C164.8 180.706 166.457 182.186 165.908 183.826C150.65 180.299 134.35 182.044 120.064 188.733C113.636 191.743 107.602 195.722 100.95 198.122C98.6737 198.943 96.1889 199.573 93.8897 198.828C91.5905 198.084 89.6729 195.497 90.3455 193.05C90.9768 190.752 93.3893 189.661 95.5268 188.893C106.062 185.112 116.78 181.905 127.625 179.289C139.458 176.435 152.371 174.402 163.319 179.955ZM382.403 179.761C381.314 179.756 380.397 180.604 379.681 181.474C377.943 183.585 376.708 186.117 375.789 188.745C374.648 192.009 373.973 195.456 373.794 198.932C376.949 193.177 380.323 187.557 383.903 182.089C384.525 181.14 383.493 179.766 382.403 179.761ZM363.07 190.013C362.771 190.015 362.456 190.027 362.203 190.196C361.635 190.578 361.714 191.47 361.883 192.161C362.417 194.351 363.157 196.485 364.088 198.521C364.647 195.652 365.544 192.858 366.752 190.224C365.53 190.076 364.3 190.005 363.07 190.013ZM123.981 182.618C114.95 185.561 105.918 188.504 96.8868 191.448C95.8079 191.799 94.5561 192.342 94.3263 193.514C95.0606 194.65 96.4592 195.132 97.7566 195.065C99.054 194.999 100.285 194.471 101.488 193.95C110.65 189.98 119.813 186.011 128.975 182.041C127.339 181.556 125.605 182.089 123.981 182.618ZM219.286 187.99C218.8 188.882 217.791 189.261 217.034 189.906C216.277 190.552 215.833 191.942 216.632 192.527C217.856 191.229 219.079 189.93 220.302 188.631C220.049 188.299 219.682 188.067 219.286 187.99ZM314.576 187.299C321.141 188.024 327.765 188.394 334.341 187.794C336.042 187.638 338.077 187.565 339.086 189.026C337.812 190.402 335.808 190.568 333.991 190.651C327.165 190.961 320.34 191.271 313.514 191.581C312.182 191.641 310.496 191.461 310.064 190.125C309.724 189.072 310.497 187.911 311.467 187.489C312.438 187.067 313.532 187.184 314.576 187.299ZM416.068 179.693C417.657 181.742 418.237 184.624 417.575 187.182C417.412 187.813 417.174 188.432 416.793 188.948C415.794 190.299 413.951 190.699 412.376 190.299C410.802 189.899 409.452 188.836 408.251 187.685C407.012 186.499 405.85 185.147 405.255 183.493C404.661 181.84 404.73 179.828 405.785 178.456C406.654 177.326 408.059 176.784 409.431 176.677C411.925 176.484 414.48 177.644 416.068 179.693ZM194.765 184.456C195.393 184.994 195.287 186.11 194.752 186.749C194.216 187.388 193.4 187.661 192.617 187.868C191.693 188.112 190.722 188.303 189.795 188.07C188.869 187.836 188 187.074 187.886 186.072C187.721 184.618 189.157 183.48 190.521 183.252C192.011 183.003 193.592 183.451 194.765 184.456ZM408.8 180.176C408.104 181.131 408.561 182.853 409.689 183.016C410.991 183.205 412.004 184.656 411.794 186.032C411.629 187.112 412.872 188.014 413.857 187.69C414.843 187.366 415.413 186.194 415.391 185.101C415.369 184.007 414.877 182.987 414.319 182.067C413.703 181.052 412.95 180.067 411.912 179.573C410.874 179.079 409.495 179.221 408.8 180.176ZM405.332 82.1138C395.868 83.9519 386.493 88.3353 380.389 96.2214C374.284 104.107 372.173 115.91 376.945 124.769C378.632 127.899 381.206 130.629 384.444 131.731C387.681 132.833 391.596 132.022 393.756 129.238C396.206 126.08 401.153 129.109 404.84 127.91C409.94 126.252 415.242 125.289 420.572 125.054C421.836 124.999 423.139 124.99 424.319 125.475C425.599 126.002 426.611 127.057 427.583 128.085C430.957 131.649 434.4 135.316 436.398 139.901C439.565 147.171 438.781 156.035 442.783 162.828C443.25 158.568 443.718 154.309 444.186 150.05C444.359 148.47 444.552 146.828 445.358 145.486C446.164 144.144 447.774 143.202 449.185 143.745C451.673 144.703 454.263 145.732 456.048 147.804C457.834 149.876 458.495 153.33 456.778 155.466C455.12 157.531 457.001 160.515 457.882 163.061C459.409 167.473 457.614 172.514 458.814 177.038C459.807 180.785 462.678 183.583 465.421 186.17C466.223 186.927 467.159 187.733 468.228 187.63C469.123 187.543 469.842 186.836 470.453 186.137C474.099 181.971 476.595 176.688 477.561 171.098C477.95 168.842 477.211 165.556 475.068 165.864C475.653 160.453 480.345 156.766 483.1 152.169C486.071 147.21 486.773 141.113 486.909 135.24C487.046 129.338 486.502 122.923 482.792 118.519C478.336 113.229 469.675 112.834 464.806 117.698C463.593 118.911 461.993 120.514 460.545 119.636C461.68 117.477 462.815 115.319 463.95 113.16C465.799 109.642 467.687 105.996 468.064 101.989C468.806 94.0808 463.128 86.5936 456.108 83.8128C449.087 81.0319 441.161 82.185 434.119 84.9047C432.354 85.5864 430.269 87.0506 430.747 88.9767C431.025 90.092 432.09 90.7655 432.637 91.7628C432.978 92.3845 432.944 92.5837 432.558 93.0867C432.325 93.3906 431.906 94.2704 431.53 94.0989C427.537 89.1959 423.219 84.0627 417.365 82.2085C413.485 80.9794 409.315 81.3403 405.332 82.1138ZM359.988 183.233C359.489 182.92 358.533 182.714 358.627 183.321C358.897 184.806 360.158 185.911 361.518 186.365C362.879 186.819 364.339 186.742 365.764 186.661C366.321 186.629 366.915 186.584 367.358 186.225C367.73 185.924 367.934 185.45 368.123 184.997C368.447 184.22 368.772 183.443 369.096 182.666C366.449 180.84 362.705 184.94 359.988 183.233ZM283.547 178.16C284.661 178.249 285.766 178.455 286.841 178.774C287.773 179.051 288.843 179.629 288.889 180.654C288.95 182.003 287.295 182.554 286.026 182.67C284.735 182.788 283.444 182.906 282.152 183.025C281.212 183.111 280.147 183.155 279.456 182.473C278.527 181.558 278.902 179.782 279.908 178.963C280.913 178.145 282.283 178.06 283.547 178.16ZM313.745 177.867C319.92 178.744 326.18 178.955 332.396 178.497C333.125 178.443 333.919 178.398 334.52 178.84C335.12 179.282 335.27 180.421 334.614 180.765C334.415 180.869 334.186 180.879 333.965 180.888C326.45 181.189 318.936 181.49 311.421 181.79C310.736 181.818 309.982 181.822 309.455 181.356C308.511 180.524 309.053 178.743 310.134 178.128C311.216 177.513 312.528 177.694 313.745 177.867ZM373.707 171.377C371.307 171.514 368.866 171.75 366.651 172.736C364.436 173.723 362.449 175.579 361.787 178.028C361.653 178.525 361.603 179.137 361.963 179.486C362.242 179.758 362.664 179.762 363.043 179.746C367.029 179.58 370.997 178.951 374.854 177.873C376.771 177.338 379.083 176.045 378.823 173.961C378.687 172.863 377.794 172.006 376.808 171.642C375.822 171.279 374.749 171.318 373.707 171.377ZM96.9296 171.07C96.5471 173.217 96.4535 175.422 96.6527 177.596C97.1484 178.164 97.8007 177.056 97.7588 176.284C97.6631 174.521 97.3845 172.769 96.9296 171.07ZM225.257 168.445C239.071 169.107 252.885 169.769 266.7 170.431C267.989 170.492 269.702 171.016 269.626 172.382C267.977 173.505 265.85 173.273 263.904 173.032C251.59 171.511 239.132 171.3 226.778 172.406C225.712 172.501 224.579 172.594 223.627 172.075C222.675 171.556 222.062 170.173 222.68 169.246C223.22 168.436 224.321 168.4 225.257 168.445ZM191.759 166.908C192.367 167.006 193 167.174 193.441 167.628C194.451 168.665 193.827 170.636 192.614 171.387C191.4 172.139 189.896 172.033 188.496 171.905C186.959 171.764 186.46 169.32 187.47 168.083C188.479 166.846 190.234 166.664 191.759 166.908ZM240.345 161.49C262.859 162.729 285.373 163.967 307.887 165.206C309.093 165.272 310.689 165.764 310.626 167.042C306.913 167.752 303.068 167.673 299.384 166.812L302.656 169.796C301.096 170.839 299.435 171.916 297.592 171.959C295.748 172.002 293.742 170.561 293.794 168.607C294.727 168.151 295.659 167.695 296.592 167.238C278.405 165.586 260.133 164.983 241.884 165.433C240.831 165.459 239.707 165.469 238.818 164.87C237.928 164.272 237.478 162.817 238.215 162.018C238.741 161.446 239.593 161.449 240.345 161.49ZM386.127 164.683C385.315 164.73 384.627 165.301 383.998 165.847C383.253 166.493 382.507 167.14 381.762 167.787C380.981 168.464 380.135 169.273 380.09 170.342C380.065 170.921 380.481 171.61 381.015 171.479C381.164 171.443 381.293 171.347 381.418 171.254C383.193 169.926 384.969 168.598 386.745 167.27C387.107 166.999 387.494 166.693 387.611 166.239C387.826 165.408 386.938 164.636 386.127 164.683ZM413.744 157.727C413.815 159.663 412.908 161.478 412.586 163.386C412.263 165.293 412.878 167.722 414.656 168.169C415.181 168.3 415.333 169.096 415.037 169.574C414.74 170.051 414.181 170.257 413.65 170.36C412.002 170.677 410.051 170.116 409.294 168.532C408.915 167.739 408.886 166.817 408.864 165.928C408.807 163.549 408.749 161.17 408.691 158.79C408.652 157.164 408.824 155.161 410.228 154.504C411.9 153.722 413.674 155.79 413.744 157.727ZM389.254 168.521C388.93 168.681 388.708 169.053 388.712 169.433L388.631 169.455C388.811 169.879 389.459 169.945 389.713 169.566C389.966 169.186 389.692 168.56 389.254 168.521ZM386.148 156.085C385.403 156.105 384.57 156.248 384.13 156.886C383.659 157.567 383.85 158.567 384.333 159.238C384.817 159.909 385.53 160.341 386.195 160.806C388.996 162.766 391.233 165.62 392.536 168.899C393.423 167.661 394.309 166.424 395.196 165.187C395.858 164.263 396.556 163.206 396.416 162.055C396.315 161.224 395.789 160.525 395.23 159.932C392.861 157.419 389.498 155.994 386.148 156.085ZM100.608 136.943C99.5667 137.033 99.027 138.273 98.6997 139.325C98.2009 140.928 97.7022 142.531 97.2034 144.134C96.6585 145.885 96.1097 147.655 95.9602 149.493C95.8612 150.71 95.9396 151.935 96.018 153.154C96.263 156.962 96.508 160.77 96.753 164.577C96.8003 165.313 97.3286 166.33 97.9026 165.913C97.6643 156.187 98.5754 146.43 100.608 136.943ZM395.111 150.943C394.165 151.325 393.161 151.996 393.025 153.059C392.888 154.121 394.363 155.108 394.935 154.223C395.666 153.095 397.491 153.684 398.095 154.894C398.699 156.103 398.522 157.558 398.513 158.927C398.504 160.296 398.8 161.866 399.925 162.536C400.114 160.705 400.303 158.875 400.491 157.044C400.724 154.784 400.711 151.98 398.837 150.874C397.716 150.212 396.31 150.459 395.111 150.943ZM425.461 149.909C426.995 149.982 428.633 150.549 429.472 151.912C430.311 153.276 429.866 155.51 428.387 155.949C426.277 156.576 424.304 153.423 422.241 154.206C420.951 154.695 420.155 156.619 418.81 156.343C417.976 156.172 417.514 155.112 417.68 154.229C417.846 153.345 418.467 152.638 419.133 152.078C420.908 150.587 423.198 149.802 425.461 149.909ZM190.543 148.299C192.022 148.552 193.47 150.269 192.69 151.625C192.471 152.006 192.116 152.277 191.743 152.484C190.821 152.999 189.684 153.174 188.731 152.725C187.779 152.276 187.109 151.111 187.367 150.041C187.691 148.695 189.25 148.077 190.543 148.299ZM427.866 139.371C428.883 140.397 429.676 142.33 428.537 143.2C427.332 144.121 425.888 142.567 424.735 141.574C423.446 140.464 421.701 139.974 420.063 140.263C419.016 140.448 418.029 140.93 416.979 141.092C415.928 141.254 414.706 140.998 414.132 140.051C413.531 139.057 413.914 137.65 414.741 136.859C415.568 136.069 416.717 135.78 417.826 135.672C421.463 135.319 425.219 136.703 427.866 139.371ZM190.492 136.227C191.4 136.791 191.889 138.122 191.384 139.101C190.716 140.395 188.966 140.378 187.616 140.022C187.13 139.894 186.618 139.725 186.297 139.318C185.528 138.346 186.39 136.822 187.462 136.261C188.406 135.768 189.584 135.662 190.492 136.227Z" fill="#00160A"/>
<path fill-rule="evenodd" clip-rule="evenodd" d="M68.6116 266.338C68.7358 266.703 68.8504 267.112 68.7085 267.47C68.4539 268.112 67.6251 268.137 66.9681 268.131C62.3471 268.092 58.051 272.301 57.7229 277.188C57.6882 277.705 57.0189 277.941 56.5859 277.702C56.1529 277.463 55.9301 276.946 55.7803 276.454C54.9361 273.676 55.4801 270.563 56.8259 268.018C58.1717 265.472 60.2543 263.442 62.5167 261.78C63.3944 261.136 64.4872 260.517 65.4801 260.933C66.1362 261.208 66.5648 261.871 66.922 262.516C67.5949 263.731 68.1613 265.012 68.6116 266.338ZM65.9276 265.782C65.5208 264.462 63.8702 263.989 62.6372 264.455C61.4041 264.921 60.5051 266.032 59.6661 267.098C58.8707 268.108 58.0384 269.21 57.9446 270.522C60.0709 268.134 62.8964 266.456 65.9276 265.782Z" fill="#FFB61D"/>
</svg>
