<svg width="579" height="453" viewBox="0 0 579 453" fill="none" xmlns="http://www.w3.org/2000/svg">
<path fill-rule="evenodd" clip-rule="evenodd" d="M404.843 1.12269C286.703 -14.8298 298.748 144.854 141.553 122.998C-19.2309 100.643 -67.2861 258.344 -19.2309 345.453C32.6716 439.535 365.015 490.111 483.912 420.757C617.731 342.698 626.507 31.054 404.843 1.12269Z" fill="#335798"/>
<path fill-rule="evenodd" clip-rule="evenodd" d="M236.756 167.815C236.756 167.815 246.644 189.375 255.232 199.369C267.419 213.553 284.822 225.335 291.357 236.397C306.885 262.681 299.997 275.538 299.997 275.538C299.997 275.538 291.794 247.203 280.036 233.365C271.062 222.802 253.435 211.088 247.543 202.414C236.93 186.788 231.447 171.819 231.447 171.819L236.756 167.815Z" fill="white"/>
<path d="M358.833 391.292C318.29 393.186 277.775 395.698 237.309 398.826C232.119 399.339 228.28 399.416 228.485 399.966C224.837 399.735 218.242 397.75 214.408 399.339C217.296 400.008 222.755 402.561 223.079 405.508C184.892 407.711 146.492 406.224 108.588 401.077C145.7 403.607 182.925 404.475 220.115 403.678C215.322 400.462 209.159 399.367 203.552 400.736C210.779 397.242 219.155 396.176 227.027 397.75C221.021 391.03 217.04 382.523 215.73 373.606C221.73 377.709 226.529 383.548 229.393 390.229C229.119 377.671 238.006 365.468 250.043 361.875C242.356 371.665 238.293 384.236 238.795 396.673C277.225 393.39 315.739 391.094 354.286 389.788C352.383 388.279 351.089 386.023 350.747 383.619C352.632 382.011 355.416 381.537 357.726 382.433C359.422 369.006 368.762 356.813 381.284 351.681C374.31 359.558 369.464 369.303 367.393 379.618C369.545 378.315 372.268 377.999 374.661 378.776C373.979 381.684 372.272 384.342 369.911 386.173C417.64 375.264 467.743 393.849 516.226 387.032C491.752 394.948 465.307 388.811 439.722 386.149C402.271 382.433 366.301 389.788 358.833 391.292Z" fill="white"/>
<path d="M459.828 106.976C460.247 102.982 463.687 99.9874 467.214 98.0656C473.593 94.5897 481.104 93.2333 488.296 94.2585C491.553 94.7227 494.036 91.6197 496.363 89.2944C502.402 83.2594 511.632 81.056 520.055 82.4501C528.479 83.8443 536.111 88.4973 542.259 94.4222C548.406 100.347 553.204 107.516 557.645 114.808C558.577 116.338 560.738 116.379 562.526 116.291C566.386 116.101 570.448 116.208 573.82 118.096C577.192 119.984 579.562 124.175 578.197 127.791C577.558 129.484 576.201 130.834 574.651 131.768C571.559 133.632 567.811 133.953 564.211 134.228C540.205 136.061 516.2 137.894 492.194 139.727C485.626 140.228 478.954 140.724 472.504 139.388C466.053 138.052 459.738 134.614 456.436 128.914C453.134 123.214 453.686 115.095 458.752 110.884C459.822 109.994 459.682 108.36 459.828 106.976" fill="white"/>
<path d="M379.475 143.756C384.715 149.775 411.76 147.667 412.637 158.678C409.538 159.528 406.44 160.378 403.342 161.228C398.304 162.609 393.21 164.014 388.653 166.567C386.514 167.765 383.971 169.246 381.796 168.116C373.386 163.745 363.606 162.387 354.171 163.289C344.736 164.191 335.61 167.266 327.047 171.33C322.577 173.453 317.54 175.903 312.913 174.149C296.021 167.744 276.75 167.856 259.934 174.457C256.953 175.627 253.629 174.328 250.695 173.045C247.521 171.656 244.347 170.267 241.174 168.879C245.267 164.197 262.764 157.685 266.332 153.154C266.958 152.358 290.323 136.156 315.943 143.477C317.091 142.938 356.938 136.156 379.475 143.756Z" fill="white"/>
<path fill-rule="evenodd" clip-rule="evenodd" d="M274.75 220.27C259.894 206.15 242.742 191.857 238.742 171.755C246.084 190.613 262.389 204.189 276.689 218.508C290.99 232.827 304.535 250.688 303.651 270.906C327.033 265.802 351.263 264.605 375.034 267.381C377.47 256.407 384.563 247.169 390.129 237.402C403.926 213.191 408.59 185.005 413.023 157.493C414.144 150.538 405.628 146.415 398.801 144.675C391.982 142.937 385.163 141.2 378.345 139.463C365.53 136.197 352.253 132.909 339.219 135.142C330.404 136.651 321.7 140.668 312.885 139.164C298.854 136.77 283.967 139.801 271.988 147.491C265.967 151.357 260.615 156.368 254.042 159.196C240.207 165.149 228.022 174.882 219.159 187.059C214.528 163.108 222.33 138.596 231.45 115.97C241.646 90.6772 254.445 65.0863 276.382 48.8857C308.544 25.1333 350.477 29.7565 383.933 51.6481C417.39 73.5397 437.833 109.64 444.44 149.073C445.208 153.659 445.753 158.623 443.594 162.742C441.434 166.86 440.62 169.244 437.099 166.205C434.098 163.615 430.904 160.929 427.01 160.183C423.117 159.437 418.393 161.461 417.638 165.353C412.109 193.855 406.304 223.081 390.943 247.718C386.943 254.134 382.285 260.26 379.742 267.38C377.795 272.829 377.168 278.645 376.554 284.398C375.276 296.384 373.998 308.371 372.72 320.358C372.181 325.411 371.43 330.913 367.75 334.416C364.235 337.762 359.004 338.363 354.171 338.792C338.475 340.186 322.779 341.58 307.084 342.974C304.276 343.224 301.094 343.351 299.044 341.418C297.464 339.928 297.026 337.621 296.716 335.472C294.511 320.222 294.511 304.655 296.717 289.405C299.883 267.524 290.091 245.139 274.668 229.299C266.631 221.045 257.153 214.297 249.129 206.03C241.104 197.762 234.388 187.372 233.907 175.861C239.367 190.99 249.429 204.423 262.412 213.918C281.813 228.107 295.636 249.724 300.377 273.288C304.103 253.133 289.606 234.391 274.75 220.27Z" fill="white"/>
<path fill-rule="evenodd" clip-rule="evenodd" d="M234.606 266.323C232.251 265.032 231.384 262.138 230.765 259.525C227.728 246.707 225.508 233.695 224.123 220.595C224.035 219.763 223.994 218.801 224.6 218.223C225.898 219.753 226.128 221.892 226.327 223.889C227.759 238.25 230.535 252.477 234.606 266.323Z" fill="#00160A"/>
<path fill-rule="evenodd" clip-rule="evenodd" d="M421.304 222.659C423.438 215.524 425.011 208.221 426.004 200.841C426.138 199.841 426.515 198.584 427.52 198.507C428.107 199.02 428.05 199.933 427.939 200.705C426.994 207.286 425.644 213.808 423.9 220.224C423.547 221.526 422.556 223.161 421.304 222.659H421.304Z" fill="#00160A"/>
<path fill-rule="evenodd" clip-rule="evenodd" d="M366.924 388.181C368.089 385.02 370.221 382.223 372.96 380.263C370.049 380.442 367.218 381.709 365.146 383.762C366.288 374.813 369.15 366.087 373.53 358.201C365.427 364.852 360.197 374.891 359.389 385.344C357.459 384.219 355.051 383.948 352.918 384.614C354.889 386.84 356.861 389.066 358.833 391.292C318.29 393.186 277.775 395.698 237.309 398.826C235.205 387.643 237.941 375.634 244.681 366.466C235.787 372.738 230.296 383.565 230.491 394.447C226.526 389.157 224.55 381.601 218.595 378.578C219.649 383.762 220.866 384.928 227.861 398.318C228.147 398.866 228.28 399.416 228.485 399.966C224.837 399.735 218.242 397.75 214.408 399.339C217.296 400.008 222.755 402.561 223.079 405.508C184.892 407.711 146.492 406.224 108.588 401.077C145.7 403.607 182.925 404.475 220.115 403.678C215.322 400.462 209.159 399.367 203.552 400.736C210.779 397.242 219.155 396.176 227.027 397.75C221.021 391.03 217.04 382.523 215.73 373.606C221.73 377.709 226.529 383.548 229.393 390.229C229.119 377.671 238.006 365.468 250.043 361.875C242.356 371.665 238.293 384.236 238.795 396.673C277.225 393.39 315.739 391.094 354.286 389.788C352.383 388.279 351.089 386.023 350.747 383.619C352.632 382.011 355.416 381.537 357.726 382.433C359.422 369.006 368.762 356.813 381.284 351.681C374.31 359.558 369.464 369.303 367.393 379.618C369.545 378.315 372.268 377.999 374.661 378.776C373.979 381.684 372.272 384.342 369.911 386.173C417.64 375.264 467.743 393.849 516.226 387.032C491.752 394.948 465.307 388.811 439.722 386.149C415.508 383.629 390.961 384.315 366.924 388.181Z" fill="#00160A"/>
<path fill-rule="evenodd" clip-rule="evenodd" d="M388.421 219.666C389.006 220.527 388.822 221.677 388.586 222.69C387.169 228.776 384.671 234.608 381.244 239.833C380.29 238.644 381.167 236.923 381.969 235.628C384.105 232.181 385.674 228.384 386.595 224.436C386.986 222.76 387.301 220.972 388.421 219.666H388.421Z" fill="#00160A"/>
<path fill-rule="evenodd" clip-rule="evenodd" d="M379.283 230.715C378.402 229.954 378.796 228.538 379.219 227.453C380.576 223.967 381.488 220.308 381.926 216.593C382.071 215.361 382.302 213.911 383.413 213.36C383.936 213.832 383.857 214.66 383.736 215.355C382.816 220.631 381.858 226.018 379.283 230.715Z" fill="#00160A"/>
<path fill-rule="evenodd" clip-rule="evenodd" d="M305.898 250.383C306.156 250.152 306.559 250.39 306.798 250.64C307.872 251.765 308.512 253.294 308.56 254.848C307.123 254.078 306.07 252.629 305.781 251.025C305.741 250.801 305.729 250.535 305.898 250.383L305.898 250.383Z" fill="#00160A"/>
<path fill-rule="evenodd" clip-rule="evenodd" d="M418.964 203.257C418.581 210.033 417.034 216.742 414.41 223.001C414.342 223.163 414.27 223.331 414.137 223.445C413.747 223.781 413.09 223.42 412.951 222.925C412.811 222.43 413.01 221.909 413.199 221.431C415.05 216.747 416.277 211.816 416.84 206.811C417.007 205.323 417.476 203.431 418.964 203.257L418.964 203.257Z" fill="#00160A"/>
<path fill-rule="evenodd" clip-rule="evenodd" d="M303.401 238.698C300.88 235.289 298.853 231.516 297.402 227.533C297.215 227.021 297.329 226.157 297.855 226.299C298.053 226.352 298.171 226.55 298.268 226.731C300.457 230.813 302.646 234.894 304.835 238.976C304.724 239.59 303.772 239.199 303.401 238.698H303.401Z" fill="#00160A"/>
<path fill-rule="evenodd" clip-rule="evenodd" d="M231.612 167.864C230.453 167.263 230.407 165.648 230.546 164.351C233.137 140.172 244.909 117.09 262.958 100.794C263.373 103.862 261.005 106.519 258.906 108.793C243.951 124.994 234.256 145.975 231.612 167.864Z" fill="#00160A"/>
<path fill-rule="evenodd" clip-rule="evenodd" d="M383.347 167.84C383.677 159.901 382.35 151.164 379.475 143.756C384.715 149.775 384.932 158.532 384.877 166.512C393.235 161.541 402.913 158.81 412.637 158.679C409.538 159.528 406.44 160.378 403.342 161.228C398.304 162.61 393.21 164.014 388.653 166.567C386.514 167.765 383.971 169.247 381.796 168.116C373.386 163.745 363.606 162.387 354.171 163.29C344.736 164.192 335.61 167.999 327.047 172.064C322.577 174.186 317.54 176.637 312.913 174.883C296.021 168.478 276.75 167.857 259.934 174.457C256.953 175.628 253.629 174.329 250.695 173.045C247.521 171.656 244.347 170.268 241.174 168.879C244.863 169.653 254.024 172.949 254.024 172.949C254.024 172.949 256.663 173.268 257.494 172.254C258.324 171.241 258.587 169.894 258.886 168.618C260.203 163.004 262.764 157.685 266.332 153.155C266.958 152.358 268.3 151.615 268.8 152.497C263.863 158.219 260.571 165.344 259.414 172.813C277.408 166.026 297.941 166.241 315.789 173.401C317.494 163.527 317.546 153.368 315.943 143.477C317.091 142.938 317.934 144.649 318.047 145.912C318.869 155.111 318.722 164.397 317.607 173.566C327.929 168.58 338.634 164.074 349.952 162.256C361.271 160.437 373.352 162.227 383.347 167.84Z" fill="#00160A"/>
<path fill-rule="evenodd" clip-rule="evenodd" d="M252.152 148.128C257.548 132.685 265.96 118.302 276.773 106.028C277.566 105.128 278.509 104.172 279.708 104.131C280.906 104.09 282.032 105.657 281.186 106.508C268.745 119.016 259.041 134.232 252.947 150.788C251.851 150.817 251.79 149.163 252.152 148.128H252.152Z" fill="#00160A"/>
<path fill-rule="evenodd" clip-rule="evenodd" d="M235.105 217.667C235.262 217.86 235.28 218.127 235.293 218.375C235.811 228.66 238.425 238.71 241.025 248.674C241.136 249.099 240.515 249.407 240.125 249.204C239.735 249 239.564 248.543 239.429 248.125C236.396 238.79 234.46 229.099 233.674 219.315C233.635 218.827 233.607 218.301 233.867 217.886C234.127 217.472 234.794 217.289 235.105 217.667H235.105Z" fill="#00160A"/>
<path fill-rule="evenodd" clip-rule="evenodd" d="M316.351 134.151C315.268 134.196 314.914 132.724 314.93 131.641C315.094 120.313 315.258 108.986 315.422 97.6587C315.44 96.408 315.779 94.7789 317.022 94.6414C318.128 95.9361 318.104 97.8184 318.022 99.5188C317.465 111.063 316.908 122.607 316.351 134.151Z" fill="#00160A"/>
<path fill-rule="evenodd" clip-rule="evenodd" d="M420.646 151.487C423.046 147.59 422.884 142.686 422.48 138.127C421.771 130.142 420.556 122.202 418.844 114.37C418.679 113.619 418.581 112.673 419.213 112.236C419.736 111.875 420.499 112.125 420.909 112.61C421.318 113.096 421.461 113.746 421.587 114.368C423.551 124.104 424.446 134.056 424.249 143.987C424.176 147.679 423.571 152.011 420.33 153.781C419.707 153.213 420.204 152.205 420.646 151.487H420.646Z" fill="#00160A"/>
<path fill-rule="evenodd" clip-rule="evenodd" d="M382.631 125.243C383.446 128.864 383.1 132.737 381.657 136.156C380.665 135.091 380.944 133.421 381.116 131.977C381.782 126.366 379.818 120.778 377.401 115.67C374.985 110.562 372.066 105.63 370.613 100.169C370.395 99.3474 370.428 98.1576 371.266 98.0123C371.973 97.8896 372.456 98.69 372.719 99.358C375.435 106.237 378.15 113.115 380.865 119.994C381.544 121.713 382.225 123.44 382.631 125.243Z" fill="#00160A"/>
<path fill-rule="evenodd" clip-rule="evenodd" d="M456.164 104.776C456.584 100.782 460.024 97.7874 463.551 95.8657C469.93 92.3898 477.441 91.0334 484.633 92.0585C487.89 92.5227 490.373 89.4197 492.7 87.0945C498.739 81.0594 507.969 78.8561 516.392 80.2502C524.815 81.6443 532.448 86.2973 538.595 92.2222C544.743 98.1471 549.541 105.316 553.982 112.608C554.914 114.138 557.074 114.179 558.863 114.091C562.723 113.902 566.785 114.008 570.157 115.896C573.529 117.784 575.899 121.975 574.534 125.591C573.895 127.284 572.538 128.634 570.988 129.568C567.896 131.432 564.147 131.753 560.548 132.028C536.542 133.861 512.536 135.694 488.531 137.527C481.963 138.028 475.291 138.524 468.841 137.188C462.39 135.852 456.075 132.414 452.773 126.714C449.471 121.014 450.023 112.895 455.089 108.684C456.159 107.794 456.019 106.161 456.164 104.776M465.261 97.1048C462.387 98.4743 459.519 100.491 458.572 103.53C458.235 104.613 458.166 105.763 457.853 106.853C457.041 109.679 454.702 111.802 453.468 114.471C450.896 120.036 453.827 126.957 458.732 130.636C463.636 134.316 469.987 135.409 476.103 135.84C498.115 137.39 520.002 131.805 542.061 131.25C550.725 131.031 559.666 131.548 567.771 128.478C570.839 127.316 574.211 124.377 572.894 121.372C572.561 120.613 571.962 120.004 571.333 119.464C567.453 116.126 561.895 114.85 556.948 116.159C554.424 116.826 552.317 114.267 550.935 112.052C544.924 102.417 538.117 92.814 528.405 86.9278C518.693 81.0417 505.377 79.7545 496.342 86.6358C492.283 89.7281 488.506 94.5328 483.432 93.9946C477.243 93.3382 470.879 94.4275 465.261 97.1048Z" fill="#00160A"/>
<path fill-rule="evenodd" clip-rule="evenodd" d="M111.079 29.0382C110.269 31.5667 111.29 34.2877 112.397 36.7009C113.684 39.5056 115.798 42.6693 118.878 42.4748C128.387 41.8743 137.897 41.2737 147.406 40.6731C148.784 40.5861 150.68 40.9453 150.688 42.3258C138.763 43.2803 126.838 44.2348 114.913 45.1893C106.892 45.8313 98.5042 46.592 91.7312 50.9373C84.9582 55.2826 80.5433 64.4446 84.1968 71.6145C85.5811 74.3312 88.2979 76.6023 91.3456 76.5115C99.5593 76.2669 107.773 76.0223 115.987 75.7777C117.9 75.7207 120.519 76.3248 120.434 78.2374C107.381 77.4575 94.2503 77.9738 81.2987 79.7761C76.6488 80.4232 71.8657 81.2958 67.9663 83.9102C64.0669 86.5245 61.2651 91.3246 62.3569 95.8906C63.1105 99.042 65.5791 101.573 68.4338 103.106C71.2886 104.639 74.52 105.303 77.7155 105.84C111.603 111.53 146.368 104.875 180.64 107.36C184.475 107.639 188.627 108.177 191.358 110.883C161.79 105.208 131.297 111.541 101.223 110.118C94.5294 109.801 87.8603 109.1 81.1956 108.398C75.7406 107.824 70.0252 107.157 65.525 104.021C63.3598 102.512 61.5447 100.427 60.639 97.9482C58.3951 91.8072 62.3548 84.7915 67.9346 81.3836C73.5143 77.9757 80.2851 77.3009 86.7964 76.7087C81.4747 73.0672 79.8925 65.397 82.1949 59.3737C84.4973 53.3505 89.9736 48.9588 95.9756 46.6018C101.978 44.2447 108.517 43.6754 114.958 43.372C113.059 40.884 111.131 38.3449 110.069 35.4003C109.007 32.4556 108.929 28.9872 110.623 26.3551C111.801 24.5247 113.691 23.2857 115.576 22.1978C133.613 11.7906 155.415 10.5823 176.232 11.0984C181.889 11.2386 187.73 11.5319 192.817 14.0093C200.709 17.8526 205.506 26.7388 205.554 35.5166C205.601 44.2944 201.354 52.764 195.112 58.9353C194.109 57.5462 195.363 55.6995 196.461 54.3848C201.546 48.2971 204.436 40.1806 203.354 32.3223C202.272 24.4641 196.88 17.1139 189.364 14.5778C186.224 13.518 182.87 13.2941 179.56 13.1255C158.034 12.0287 135.475 13.1552 116.622 23.6023C114.301 24.8883 111.889 26.5114 111.079 29.0382Z" fill="#00160A"/>
<path fill-rule="evenodd" clip-rule="evenodd" d="M274.75 220.271C259.894 206.15 242.742 191.857 238.742 171.755C246.084 190.613 262.389 204.189 276.69 218.508C290.99 232.827 304.535 250.688 303.651 270.906C327.033 265.802 351.263 264.605 375.034 267.381C377.471 256.408 384.564 247.169 390.129 237.402C403.926 213.191 408.591 185.005 413.024 157.493C414.145 150.538 405.628 146.415 398.801 144.675C391.982 142.938 385.164 141.2 378.345 139.463C365.53 136.197 352.253 132.909 339.219 135.142C330.405 136.651 321.701 140.668 312.885 139.164C298.854 136.77 283.967 139.802 271.989 147.491C265.967 151.357 260.671 156.61 254.042 159.196C239.689 164.796 231.446 171.578 219.159 187.059C214.528 163.108 222.33 138.596 231.451 115.97C241.646 90.6773 254.445 65.0864 276.382 48.8858C308.544 25.1334 355.61 27.5566 389.067 49.4482C422.524 71.3398 442.967 109.64 449.574 149.073C450.342 153.659 450.887 158.623 448.727 162.742C446.568 166.861 440.62 169.244 437.1 166.205C434.098 163.615 430.905 160.929 427.011 160.183C423.117 159.437 418.393 161.461 417.639 165.353C412.11 193.855 406.304 223.081 390.944 247.718C386.944 254.135 382.286 260.26 379.742 267.38C377.796 272.829 377.168 278.645 376.555 284.398C375.277 296.385 373.999 308.371 372.721 320.358C372.182 325.411 371.431 330.913 367.75 334.416C364.235 337.762 359.005 338.363 354.172 338.792C338.476 340.186 322.78 341.58 307.084 342.974C304.277 343.224 301.094 343.351 299.044 341.418C297.464 339.928 297.026 337.621 296.716 335.472C294.511 320.222 294.512 304.655 296.718 289.405C299.883 267.525 290.091 245.139 274.668 229.3C266.631 221.045 257.153 214.297 249.129 206.03C241.104 197.762 234.389 187.372 233.907 175.861C239.367 190.99 249.429 204.423 262.412 213.918C281.813 228.107 295.637 249.724 300.377 273.288C304.103 253.133 289.606 234.391 274.75 220.271ZM308.071 136.383C314.384 136.999 320.995 138.569 326.886 136.219C342.75 129.892 361.153 130.226 376.777 137.126C383.445 140.071 390.951 140.233 398.132 141.49C405.312 142.747 412.892 145.612 416.548 151.918C420.654 159 432.718 157.042 437.394 163.762C439.333 166.548 444.102 165.487 445.938 162.631C447.773 159.775 447.526 156.1 447.115 152.73C443.775 125.301 433.73 98.4074 416.395 76.8899C399.059 55.3724 374.191 39.5493 346.908 35.1746C319.625 30.7999 290.185 38.5331 269.992 57.3943C257.77 68.8103 249.293 83.6203 241.844 98.5943C228.871 124.674 218.251 153.146 220.347 182.199C229.054 171.663 238.512 160.608 251.572 156.574C254.69 155.611 258.107 154.992 260.474 152.744C273.02 140.831 290.852 134.701 308.071 136.383ZM322.026 316.142C321.978 323.147 323.028 330.158 325.124 336.841C325.303 337.411 325.525 338.026 326.032 338.342C326.525 338.649 327.154 338.591 327.731 338.522C334.75 337.683 341.768 336.843 348.787 336.004C349.045 335.973 349.332 335.926 349.486 335.717C349.646 335.501 349.597 335.2 349.541 334.937C348.278 329 347.014 323.062 345.751 317.125C345.68 316.791 345.599 316.438 345.363 316.191C345.073 315.887 344.623 315.816 344.207 315.763C337.313 314.89 330.349 314.566 323.403 314.793C322.996 314.806 322.541 314.843 322.274 315.15C322.046 315.413 322.029 315.794 322.026 316.142ZM344.303 291.393C344.072 291.078 343.634 291.015 343.245 290.98C336.169 290.354 329.028 290.457 321.972 291.286C321.564 291.334 321.131 291.395 320.814 291.658C320.296 292.089 320.292 292.869 320.332 293.542C320.567 297.539 320.803 301.536 321.038 305.533C321.096 306.509 321.475 307.797 322.452 307.748C329.372 307.4 336.322 307.654 343.198 308.505C344.143 308.622 344.509 307.316 344.507 306.363C344.499 301.653 344.491 296.943 344.483 292.233C344.482 291.942 344.475 291.628 344.303 291.393ZM300.434 318.548C299.9 318.791 299.354 319.062 298.992 319.524C298.416 320.258 298.44 321.282 298.492 322.215C298.673 325.486 298.854 328.757 299.036 332.028C299.127 333.684 299.224 335.366 299.786 336.926C300.347 338.486 301.449 339.935 303.003 340.512C304.283 340.988 305.701 340.828 307.057 340.661C309.623 340.346 312.188 340.031 314.754 339.716C315.808 339.586 316.899 339.444 317.801 338.884C315.396 331.58 313.798 324.011 313.045 316.358C312.992 315.822 312.271 315.696 311.734 315.73C307.838 315.976 303.989 316.936 300.434 318.548ZM369.47 309.788C370.23 305.093 370.989 300.398 371.749 295.702C371.816 295.291 371.872 294.831 371.63 294.491C371.385 294.147 370.922 294.053 370.505 293.986C364.942 293.092 359.365 292.286 353.777 291.567C353.358 291.513 352.849 291.496 352.607 291.843C352.463 292.05 352.468 292.323 352.478 292.575C352.68 297.47 352.882 302.365 353.084 307.26C353.103 307.707 353.145 308.206 353.48 308.503C353.716 308.713 354.045 308.772 354.357 308.822C359.048 309.58 363.739 310.337 368.43 311.095C369.044 311.194 369.37 310.402 369.47 309.788ZM320.707 282.089C320.606 282.63 320.572 283.323 321.053 283.588C321.284 283.716 321.565 283.694 321.828 283.669C329.184 282.962 336.539 282.256 343.895 281.549C344.275 281.513 344.675 281.469 344.981 281.241C345.398 280.931 345.525 280.373 345.624 279.864C346.223 276.761 346.823 273.659 347.422 270.556C347.508 270.115 347.56 269.577 347.209 269.296C346.965 269.1 346.618 269.117 346.305 269.143C339.254 269.733 332.202 270.323 325.151 270.914C324.575 270.962 323.974 271.018 323.486 271.329C322.662 271.855 322.413 272.924 322.234 273.886C321.725 276.621 321.216 279.355 320.707 282.089ZM353.846 271.885C353.571 274.575 353.295 277.264 353.02 279.954C352.974 280.397 352.935 280.872 353.151 281.261C353.469 281.837 354.204 282.004 354.853 282.113C360.755 283.108 366.657 284.102 372.56 285.096C372.804 285.137 373.065 285.177 373.293 285.079C373.728 284.892 373.825 284.329 373.857 283.857C374.091 280.386 374.144 276.903 374.014 273.426C373.992 272.827 373.96 272.212 373.717 271.665C372.976 270.003 370.775 269.727 368.957 269.69C364.696 269.604 360.435 269.517 356.175 269.43C355.733 269.421 355.27 269.417 354.879 269.622C354.111 270.024 353.934 271.024 353.846 271.885ZM416.682 157.48C413.637 161.45 412.801 166.633 412.028 171.577C408.115 196.586 403.041 222.174 389.28 243.419C384.566 250.698 378.691 257.884 378.024 266.529C380.62 257.529 387.809 250.717 392.744 242.755C396.365 236.913 398.781 230.415 400.994 223.908C406.336 208.201 410.636 192.14 413.858 175.865C415.016 170.014 416.158 163.859 419.926 159.235C418.647 159.222 417.393 158.543 416.682 157.48ZM311.086 308.68C311.496 308.574 311.934 308.449 312.2 308.121C312.485 307.768 312.497 307.275 312.497 306.822C312.492 302.506 312.486 298.191 312.481 293.875C312.481 293.564 312.471 293.226 312.274 292.986C311.992 292.64 311.469 292.653 311.025 292.702C307.601 293.076 304.209 293.75 300.901 294.714C300.513 294.827 300.107 294.956 299.831 295.251C299.515 295.591 299.433 296.081 299.37 296.541C298.727 301.201 298.47 305.914 298.603 310.616C298.614 310.999 298.67 311.454 299.011 311.63C299.246 311.753 299.531 311.688 299.788 311.621C303.554 310.641 307.32 309.661 311.086 308.68ZM366.249 331.93C368.743 328.932 368.765 324.654 368.662 320.755C368.642 319.996 367.749 319.62 367.012 319.438C363.071 318.467 359.067 317.749 355.034 317.291C354.681 317.25 354.294 317.22 353.999 317.419C353.55 317.723 353.554 318.375 353.613 318.914C354.159 323.948 355.205 328.927 356.728 333.756C356.905 334.316 357.138 334.933 357.669 335.185C357.955 335.321 358.284 335.326 358.601 335.317C361.473 335.234 364.411 334.139 366.249 331.93ZM305.983 273.876C305.003 274.158 304.004 274.489 303.232 275.155C302.5 275.788 302.034 276.673 301.672 277.57C300.52 280.42 300.259 283.539 300.009 286.603C299.99 286.837 299.978 287.095 300.121 287.281C300.335 287.561 300.759 287.524 301.106 287.459C304.091 286.899 307.076 286.339 310.061 285.78C310.911 285.62 311.852 285.404 312.334 284.686C312.662 284.198 312.703 283.578 312.734 282.99C312.916 279.464 313.099 275.937 313.282 272.41C310.814 272.699 308.37 273.19 305.983 273.876ZM322.739 288.978C329.259 288.272 335.845 288.186 342.38 288.72C343.121 288.78 343.936 288.829 344.536 288.39C345.476 287.703 345.349 286.287 345.124 285.144C345.066 284.846 344.999 284.53 344.79 284.309C344.457 283.957 343.902 283.971 343.418 284.012C336.894 284.559 330.37 285.106 323.845 285.653C322.945 285.729 321.985 285.828 321.286 286.4C320.587 286.972 320.361 288.199 321.081 288.744C321.537 289.09 322.17 289.04 322.739 288.978ZM372.412 288.46C371.628 287.658 370.448 287.423 369.344 287.227C364.462 286.36 359.579 285.492 354.697 284.624C354.06 284.511 353.277 284.452 352.894 284.973C352.727 285.201 352.68 285.492 352.638 285.771C352.431 287.16 352.602 289.095 353.994 289.278C359.544 290.009 365.095 290.741 370.645 291.472C371.195 291.545 371.786 291.611 372.278 291.353C373.27 290.831 373.196 289.261 372.412 288.46ZM316.162 316.006C315.831 316.914 315.997 317.919 316.169 318.87C317.221 324.687 318.364 330.488 319.672 336.253C319.849 337.029 320.044 337.838 320.56 338.445C321.076 339.051 322.018 339.375 322.691 338.949C323.702 338.309 323.329 336.777 322.894 335.662C320.648 329.903 320.01 323.652 319.7 317.478C319.646 316.394 319.437 315.072 318.418 314.697C317.511 314.363 316.493 315.097 316.162 316.006ZM368.178 317.078C369.36 316.627 368.543 314.61 369.388 313.669C364.48 312.445 359.476 311.605 354.437 311.16C353.249 311.055 352.697 312.847 353.405 313.807C354.113 314.768 355.407 315.041 356.582 315.244C357.642 315.428 358.702 315.611 359.761 315.794C362.249 316.224 364.737 316.655 367.225 317.085C367.542 317.14 367.877 317.193 368.178 317.078ZM323.894 312.666C329.986 312.309 336.111 312.538 342.159 313.349C343.367 313.511 345.043 313.369 345.205 312.161C345.372 310.911 343.687 310.362 342.428 310.299C336.308 309.995 330.175 309.952 324.051 310.171C322.966 310.21 321.479 310.76 321.766 311.807C321.985 312.609 323.064 312.715 323.894 312.666ZM347.283 292.132C346.997 292.728 346.989 293.415 346.987 294.076C346.974 297.807 346.96 301.537 346.947 305.268C346.944 306.095 346.948 306.953 347.295 307.704C347.643 308.455 348.44 309.066 349.254 308.922C350.606 308.684 350.856 306.873 350.781 305.503C350.564 301.534 350.348 297.565 350.131 293.596C350.078 292.619 349.823 291.393 348.866 291.193C348.218 291.058 347.569 291.535 347.283 292.132ZM351.447 317.945C351.176 317.164 350.551 316.444 349.732 316.331C348.914 316.218 348.011 316.953 348.168 317.764C349.127 322.705 350.086 327.645 351.046 332.585C351.27 333.742 351.58 335.029 352.578 335.656C353.576 336.283 355.311 335.443 354.938 334.325C353.423 329.789 351.896 325.175 351.735 320.396C351.707 319.57 351.718 318.725 351.447 317.945ZM318.062 307.405C318.508 306.61 318.472 305.643 318.425 304.732C318.259 301.555 318.094 298.377 317.928 295.199C317.877 294.212 317.791 293.138 317.123 292.41C316.455 291.681 314.991 291.675 314.67 292.61C314.584 292.858 314.593 293.128 314.602 293.39C314.754 297.642 314.905 301.893 315.057 306.145C315.083 306.882 315.163 307.726 315.761 308.158C316.5 308.692 317.617 308.201 318.062 307.405ZM315.77 272.629C314.925 273.796 314.887 275.343 314.882 276.783C314.875 278.768 314.867 280.753 314.86 282.737C314.856 283.802 315.246 285.254 316.305 285.151C317.133 285.071 317.464 284.058 317.602 283.237C318.221 279.552 318.84 275.867 319.459 272.182C318.591 271.032 316.614 271.462 315.77 272.629ZM309.963 314.029C310.835 313.951 311.807 313.876 312.396 313.228C312.984 312.581 312.617 311.2 311.749 311.319C309.073 311.686 306.397 312.052 303.72 312.419C302.332 312.609 300.858 312.837 299.801 313.756C298.743 314.675 298.394 316.543 299.476 317.432C302.657 315.531 306.272 314.358 309.963 314.029ZM300.207 290.063C299.407 290.825 299.263 292.357 300.209 292.927C303.273 291.905 306.447 291.21 309.658 290.86C310.45 290.773 311.289 290.69 311.923 290.209C312.557 289.728 312.837 288.689 312.263 288.137C311.811 287.702 311.091 287.766 310.47 287.859C308.069 288.219 305.667 288.579 303.266 288.939C302.173 289.103 301.006 289.301 300.207 290.063ZM350.267 269.555C349.984 269.857 349.899 270.288 349.825 270.694C349.261 273.796 348.697 276.898 348.133 280C348.031 280.561 347.968 281.238 348.405 281.604C348.852 281.977 349.581 281.747 349.933 281.284C350.286 280.821 350.363 280.211 350.428 279.633C350.777 276.523 351.127 273.414 351.476 270.304C351.508 270.025 351.531 269.713 351.356 269.492C351.1 269.168 350.549 269.254 350.267 269.555ZM349.214 310.64C348.041 310.497 346.903 311.996 347.634 312.924C348.146 313.574 348.747 314.237 349.554 314.414C350.362 314.591 351.367 314.002 351.289 313.179C351.178 312.002 350.387 310.783 349.214 310.64ZM349.677 286.826C350.073 285.876 350.168 284.355 349.145 284.236C348.746 284.19 348.367 284.436 348.093 284.73C346.819 286.098 347.477 288.709 349.247 289.31C349.815 288.656 350.015 287.702 349.758 286.874C349.476 285.969 349.313 287.701 349.677 286.826ZM317.991 288.567C317.753 287.692 317.026 286.868 316.119 286.859C314.943 286.848 314.173 288.517 314.946 289.404C315.719 290.291 317.478 289.756 317.627 288.589C317.759 287.556 318.265 289.572 317.991 288.567ZM318.714 312.633C318.993 312.395 319.193 312.066 319.277 311.709C318.502 310.844 317.145 310.564 316.092 311.052C315.858 311.16 315.633 311.309 315.5 311.529C315.121 312.16 315.75 313.008 316.476 313.128C317.202 313.248 317.914 312.894 318.565 312.551L318.714 312.633Z" fill="#00160A"/>
</svg>
