<svg width="637" height="641" viewBox="0 0 637 641" fill="none" xmlns="http://www.w3.org/2000/svg">
<path fill-rule="evenodd" clip-rule="evenodd" d="M351.379 462.27C279.429 470.328 180.321 471.504 161.133 366.716C141.945 261.928 191.756 202.122 269.53 175.744C347.301 149.368 455.561 178.075 479.44 305.509C503.319 432.943 423.329 454.213 351.379 462.27ZM530.726 267.284C524.072 238.572 511.813 212.088 495.182 189.004L513.613 169.301C516.72 165.981 516.545 160.773 513.229 157.666L463.01 110.688C459.687 107.583 454.478 107.757 451.371 111.077L432.94 130.781C408.798 115.73 381.556 105.264 352.469 100.536L351.566 73.5842C351.417 69.0398 347.611 65.48 343.065 65.6324L274.336 67.9248C269.791 68.0773 266.234 71.8819 266.383 76.4263L267.287 103.378C238.57 110.034 221.785 127.077 198.699 143.703L178.995 125.272C175.676 122.166 170.467 122.34 167.362 125.66L120.385 175.881C117.279 179.2 117.453 184.409 120.772 187.514L140.476 205.946C125.426 230.088 105.264 252.545 100.537 281.636L73.5833 282.536C69.0405 282.687 65.48 286.493 65.6316 291.036L67.9249 359.766C68.0767 364.309 71.8825 367.869 76.4255 367.718L103.379 366.819C110.034 395.53 122.293 422.014 138.919 445.099L120.488 464.803C117.382 468.123 117.556 473.331 120.876 476.437L171.097 523.415C174.416 526.52 179.625 526.346 182.73 523.026L201.161 503.323C225.303 518.374 252.546 528.84 281.637 533.567L282.536 560.52C282.687 565.063 286.493 568.623 291.036 568.471L359.766 566.175C364.306 566.027 367.869 562.221 367.719 557.674L366.817 530.725C395.527 524.071 422.014 511.811 445.1 495.184L464.8 513.617C468.123 516.721 473.331 516.544 476.439 513.227L523.416 463.006C526.517 459.689 526.349 454.477 523.026 451.373L503.319 432.943C518.374 408.8 528.837 381.559 533.568 352.466L560.518 351.568C565.063 351.415 568.626 347.609 568.471 343.067L566.176 274.338C566.027 269.794 562.221 266.233 557.676 266.386L530.726 267.284Z" fill="#AD09FF"/>
<path fill-rule="evenodd" clip-rule="evenodd" d="M362.581 168.042L360.386 168.704L360.979 170.654C362.052 174.159 363.359 177.855 364.784 181.886C365.776 184.694 366.826 187.665 367.895 190.846L369.663 197.244C371.656 203.087 374.457 211.21 378.066 221.615L388.371 251.222C386.955 252.293 386.223 254.077 386.551 255.834C385.303 256.481 384.671 257.942 385.127 259.286C385.45 260.238 386.241 260.904 387.166 261.125L386.999 263.684C386.925 264.822 386.533 265.905 385.867 266.818C382.946 270.818 382.17 275.954 383.791 280.559C383.834 280.681 383.879 280.803 383.925 280.923C384.092 281.361 384.587 281.574 385.036 281.408C385.483 281.238 385.71 280.746 385.543 280.308C385.502 280.201 385.462 280.094 385.424 279.985C383.986 275.901 385.399 271.1 387.99 267.552C388.848 266.377 389.352 264.985 389.447 263.527L388.904 261.011L390.069 260.615C390.069 260.615 391.214 262.658 391.791 264.362C392.369 266.065 393.109 269.578 393.109 269.578L391.765 270.033C390.226 270.555 389.39 272.206 389.902 273.713C390.413 275.221 392.081 276.022 393.62 275.501L393.812 275.435C395.351 274.913 395.612 273.947 394.952 272.001C394.606 270.982 394.471 270.215 396.134 269.651C397.797 269.087 397.961 270.98 397.961 270.98C398.472 272.487 400.14 273.289 401.679 272.767L401.871 272.702C403.41 272.18 404.246 270.529 403.735 269.022C403.224 267.514 400.196 267.12 398.657 267.642C398.657 267.642 397.207 264.714 396.677 263.151C396.231 261.834 395.727 259.002 395.727 259.002L394.087 259.558C394.087 259.558 395.282 261.956 395.802 263.49C396.322 265.024 397.017 268.198 397.017 268.198C397.017 268.198 396.169 268.668 395.741 268.823C395.313 268.978 394.749 269.022 394.749 269.022C394.749 269.022 393.325 266.008 392.815 264.503C392.305 262.998 391.709 260.059 391.709 260.059L393.994 259.284L395.634 258.728L396.8 258.333L398.622 260.414C399.538 261.46 401.406 262.017 402.83 262.441L403.011 262.495C407.138 263.729 409.692 267.11 411.055 271.129C412.207 274.523 411.926 278.166 410.266 281.386C408.606 284.606 406.02 287.723 402.533 288.85C399.769 289.744 396.443 289.182 393.687 288.285C391.019 287.416 386.786 284 385.986 283.151C385.187 282.303 385.508 283.961 385.786 284.339C387.619 286.84 390.283 288.757 393.289 289.735C396.398 290.747 399.689 290.748 402.809 289.74C406.739 288.468 409.933 285.77 411.805 282.14C413.677 278.509 413.993 274.401 412.695 270.573C411.158 266.041 407.462 262.505 402.808 261.114C401.675 260.775 400.682 260.146 399.937 259.296L398.248 257.367C398.848 256.628 399.071 255.619 398.748 254.667C398.292 253.322 396.902 252.547 395.518 252.793C394.606 250.995 392.604 249.99 390.585 250.293L390.48 250.329L379.859 223.148C376.22 212.665 370.079 191.328 370.079 191.328C367.358 183.246 365.055 176.13 363.172 169.984L362.581 168.042ZM401.134 271.161C400.5 271.376 399.812 271.046 399.601 270.424L399.008 268.676C399.008 268.676 401.672 268.33 402.095 269.578C402.484 270.723 402.047 270.863 401.482 271.045C401.431 271.061 401.379 271.078 401.327 271.096L401.134 271.161ZM390.914 273.37C391.553 274.904 395.042 274.484 394.036 272.311L393.443 270.564C393.443 270.564 390.275 271.836 390.914 273.37ZM388.212 255.235C388.09 253.885 388.921 252.566 390.285 252.103C391.649 251.641 393.111 252.183 393.835 253.328L388.212 255.235ZM395.627 254.511L395.277 254.63L387.86 257.145L387.509 257.264C386.896 257.472 386.563 258.13 386.767 258.73C386.97 259.331 387.635 259.65 388.248 259.442L396.366 256.689C396.979 256.481 397.312 255.823 397.109 255.223C396.905 254.622 396.24 254.303 395.627 254.511ZM412.048 256.738L413.481 256.252C413.885 256.115 414.102 255.68 413.967 255.28C413.831 254.88 413.393 254.667 412.989 254.804L411.556 255.29C411.152 255.427 410.935 255.862 411.07 256.262C411.206 256.662 411.644 256.875 412.048 256.738ZM412.647 262.25L414.223 262.362C414.667 262.394 415.013 262.793 414.995 263.254C414.978 263.715 414.603 264.063 414.159 264.031L412.583 263.918C412.139 263.886 411.793 263.487 411.811 263.027C411.824 262.675 412.045 262.39 412.346 262.288C412.44 262.256 412.542 262.242 412.647 262.25ZM407.412 250.86L408.353 249.386C408.618 248.97 408.512 248.36 408.117 248.023C407.873 247.815 407.575 247.76 407.321 247.846C407.164 247.9 407.023 248.007 406.921 248.166L405.981 249.641C405.716 250.056 405.821 250.666 406.217 251.003C406.612 251.34 407.147 251.276 407.412 250.86ZM375.108 269.266L373.675 269.752C373.271 269.89 372.833 269.677 372.698 269.277C372.562 268.877 372.779 268.441 373.184 268.304L374.616 267.818C375.02 267.681 375.458 267.894 375.594 268.294C375.729 268.694 375.512 269.129 375.108 269.266ZM377.985 274.006L376.803 275.054C376.469 275.349 376.438 275.877 376.732 276.231C377.026 276.586 377.535 276.635 377.868 276.339L379.05 275.291C379.383 274.996 379.415 274.469 379.121 274.114C378.897 273.843 378.548 273.751 378.247 273.853C378.153 273.885 378.064 273.936 377.985 274.006ZM375.211 261.782L373.567 261.183C373.104 261.015 372.817 260.466 372.925 259.959C372.993 259.645 373.195 259.42 373.45 259.334C373.607 259.28 373.784 259.28 373.961 259.345L375.605 259.943C376.068 260.112 376.356 260.66 376.247 261.168C376.138 261.675 375.674 261.95 375.211 261.782Z" fill="#FFB61D"/>
<path d="M324.19 406.485C332.888 405.879 338.683 409.491 343.724 412.976C348.772 416.459 340.396 416.828 335.619 416.573C330.843 416.318 318.604 413.535 318.604 413.535L281.58 414.768L276.312 399.236L286.155 395.244C286.155 395.244 315.483 407.094 324.19 406.485Z" fill="white"/>
<path d="M250.815 304.535C267.216 329.282 279.744 354.033 288.793 378.785C288.793 378.785 295.804 377.344 296.96 383.515C298.116 389.685 285.875 411.648 285.875 411.648L272.88 393.444L245.247 319.493L250.815 304.535Z" fill="white"/>
<path fill-rule="evenodd" clip-rule="evenodd" d="M257.983 317.616L252.931 316.279C252.609 316.194 252.307 316.447 252.319 316.794L252.501 322.058C252.516 322.496 253 322.748 253.325 322.486L258.195 318.559C258.527 318.291 258.4 317.726 257.983 317.616ZM257.752 318.575L253.181 321.76L253.216 316.904L257.752 318.575Z" fill="#FFB61D"/>
<path fill-rule="evenodd" clip-rule="evenodd" d="M267.837 352.62L262.785 351.284C262.463 351.198 262.161 351.452 262.173 351.799L262.355 357.063C262.37 357.501 262.854 357.753 263.179 357.491L268.049 353.563C268.381 353.296 268.254 352.731 267.837 352.62ZM267.606 353.579L263.035 356.764L263.07 351.909L267.606 353.579Z" fill="#FFB61D"/>
<path fill-rule="evenodd" clip-rule="evenodd" d="M272.222 372.677L270.853 367.633C270.766 367.311 270.396 367.177 270.101 367.361L265.633 370.15C265.261 370.383 265.286 370.928 265.675 371.078L271.511 373.332C271.909 373.486 272.335 373.093 272.222 372.677ZM271.275 372.956L266.232 370.59L270.455 368.193L271.275 372.956Z" fill="#FFB61D"/>
<path fill-rule="evenodd" clip-rule="evenodd" d="M278.803 366.382L273.759 367.75C273.437 367.838 273.303 368.208 273.486 368.502L276.276 372.97C276.508 373.342 277.053 373.318 277.204 372.929L279.458 367.093C279.611 366.695 279.219 366.269 278.803 366.382ZM279.082 367.328L276.716 372.372L274.318 368.149L279.082 367.328Z" fill="#FFB61D"/>
<path fill-rule="evenodd" clip-rule="evenodd" d="M283.529 392.855L279.845 396.561C279.61 396.798 279.679 397.186 279.985 397.349L284.635 399.824C285.022 400.03 285.482 399.736 285.418 399.324L284.452 393.142C284.386 392.721 283.833 392.549 283.529 392.855ZM284.244 393.535L284.716 399.085L280.529 396.627L284.244 393.535Z" fill="#FFB61D"/>
<path fill-rule="evenodd" clip-rule="evenodd" d="M281.036 378.362L277.352 382.068C277.117 382.305 277.186 382.693 277.492 382.856L282.142 385.331C282.529 385.537 282.989 385.243 282.924 384.831L281.958 378.65C281.892 378.228 281.34 378.056 281.036 378.362ZM281.75 379.042L282.223 384.593L278.035 382.134L281.75 379.042Z" fill="#FFB61D"/>
<path d="M232.279 329.047L232.395 345.409C232.683 382.874 232.999 401.834 233.378 403.493C233.613 404.523 234.469 405.063 235.486 405C236.098 404.962 236.779 404.722 237.587 404.308C238.843 403.663 240.443 402.567 242.328 401.105C243.785 399.976 245.336 398.686 246.892 397.334L247.545 396.763C247.757 396.576 247.963 396.394 248.162 396.217L249.193 395.287L249.486 395.018L249.578 394.631C249.742 393.944 249.909 392.77 249.943 391.226C249.973 389.87 249.885 388.458 249.652 387.014L249.558 386.471C249.46 385.946 249.755 384.551 250.502 382.088L251.032 380.398C251.473 379.029 252.326 376.409 252.411 376.144L252.907 374.589C253.379 373.095 253.783 371.767 254.166 370.436C256.087 363.757 257.135 358.126 257.156 353.043C257.174 348.731 256.426 344.994 254.785 341.883C252.277 337.135 250.958 332.232 250.606 327.331C250.313 323.258 246.054 320.854 241.172 321.095C236.127 321.344 232.248 324.315 232.279 329.047Z" fill="white"/>
<path d="M233.056 304.53C236.747 306.489 239.769 307.913 242.122 308.802C246.086 310.298 251.455 311.522 258.231 312.473C241.919 322.576 231.384 327.053 226.627 325.902C226.627 325.902 225.655 317.673 226.884 313.589C227.798 310.549 233.056 304.53 233.056 304.53Z" fill="white"/>
<path d="M248.665 257.974C249.725 273.19 244.622 291.183 232.966 291.996C221.309 292.808 208.911 275.723 207.851 260.507C206.792 245.29 215.382 232.296 227.038 231.483C238.694 230.67 247.606 242.758 248.665 257.974Z" fill="white"/>
<path d="M252.624 261.598C253.884 278.997 248.172 299.544 234.968 300.428C221.765 301.311 207.651 281.734 206.392 264.336C205.132 246.938 214.815 232.117 228.018 231.233C241.222 230.349 251.365 244.201 252.624 261.598Z" fill="white"/>
<path fill-rule="evenodd" clip-rule="evenodd" d="M222.146 235.275C230.558 232.945 237.5 233.613 242.496 237.245L243.064 237.669C245.551 239.512 247.47 240.552 249.63 244.905L249.854 245.37C251.222 248.252 252.399 251.382 252.575 252.493C252.628 252.97 252.49 253.19 252.234 253.224C251.652 253.302 249.388 251.272 245.443 247.131L244.289 250.019C243.656 251.575 241.833 253.457 240.814 254.753C239.794 256.048 222.146 235.275 222.146 235.275Z" fill="#E7EAEE"/>
<path fill-rule="evenodd" clip-rule="evenodd" d="M245.869 277.828C251.114 278.186 255.449 279.491 256.023 278.142C256.598 276.793 252.372 274.711 248.468 271.261C244.456 267.874 240.199 263.338 239.003 261.311L235.965 256.192C234.012 261.659 235.718 277.2 245.869 277.828Z" fill="white"/>
<path d="M388.58 522.97L393.533 538.39L384.81 541.349L376.229 524.639L388.58 522.97Z" fill="white"/>
<path d="M265.39 473.822C265.39 473.822 321.564 453.376 338.486 444.775C357.271 435.228 365.789 424.832 370.354 424.17C372.493 423.861 385.088 421.937 410.772 416.166C421.634 413.725 448.907 404.666 448.907 404.666L451.845 378.602C451.845 378.602 372.453 388.888 351.143 403.318C344.44 407.856 329.427 416.217 310.032 421.602C293.26 426.257 245.551 432.745 245.551 432.745C245.551 432.745 229.679 445.361 238.361 460.205C247.043 475.049 265.39 473.822 265.39 473.822Z" fill="white"/>
<path fill-rule="evenodd" clip-rule="evenodd" d="M449.052 390.275L449.114 379.02C449.114 379.02 370.214 390.346 348.904 404.775C342.201 409.314 336.657 414.929 317.262 420.314C309.837 422.375 296.801 424.895 278.155 427.873C268.723 429.38 267.481 430.427 276.044 432.633C295.902 437.75 331.205 422.983 362.383 407.069C420.327 377.491 449.052 390.275 449.052 390.275Z" fill="#E7EAEE"/>
<path d="M379.914 529.792C377.606 535.124 374.99 543.503 379.791 549.375L428.077 547.998C428.077 547.998 428.045 542.382 424.101 539.037C420.148 535.687 390.664 527.183 390.664 527.183L379.914 529.792Z" fill="white"/>
<path fill-rule="evenodd" clip-rule="evenodd" d="M403.186 532.059C403.449 531.882 403.806 531.952 403.982 532.215C404.159 532.478 404.089 532.834 403.826 533.011C402.533 533.88 401.9 535.098 401.956 536.349C402.029 537.967 402.494 539.489 403.795 541.736C403.954 542.01 403.861 542.361 403.587 542.52C403.313 542.679 402.962 542.585 402.803 542.311C401.411 539.908 400.892 538.207 400.811 536.401C400.736 534.744 401.565 533.148 403.186 532.059Z" fill="#E7EAEE"/>
<path fill-rule="evenodd" clip-rule="evenodd" d="M382.208 549.362L429.516 547.43C429.516 547.43 434.589 544.429 428.668 545.542C422.585 546.686 383.327 542.65 380.551 546.752C380.156 547.335 381.581 548.595 382.208 549.362Z" fill="#E7EAEE"/>
<path d="M238.911 479.224C238.911 479.224 260.399 478.768 276.808 475.763C293.216 472.759 324.837 463.492 324.837 463.492C324.837 463.492 336.365 465.482 337.824 467.719C338.392 468.59 344.144 480.702 353.687 495.43C358.175 502.358 380.049 533.153 380.049 533.153L391.58 522.545C391.58 522.545 369.672 459.739 353.925 441.784C338.178 423.829 242.269 433.731 242.269 433.731C242.269 433.731 222.215 436.722 222.312 453.918C222.409 471.114 238.911 479.224 238.911 479.224Z" fill="white"/>
<path fill-rule="evenodd" clip-rule="evenodd" d="M381.485 530.244L393.016 519.637C378.41 477.766 365.858 450.845 355.36 438.875C355.36 438.875 386.408 511.022 381.485 530.244Z" fill="#E7EAEE"/>
<path d="M464.474 385.966C469.324 389.166 477.122 393.196 483.738 389.488L490.766 341.697C490.766 341.697 484.599 341.143 480.621 344.446C476.635 347.758 463.62 375.613 463.62 375.613L464.474 385.966Z" fill="white"/>
<path fill-rule="evenodd" clip-rule="evenodd" d="M414.521 536.278C414.667 535.997 415.014 535.887 415.295 536.034C415.576 536.18 415.685 536.526 415.539 536.807C414.687 538.444 415.14 540.549 416.278 541.526C416.519 541.732 416.546 542.094 416.34 542.335C416.134 542.575 415.772 542.603 415.531 542.396C413.996 541.078 413.419 538.396 414.521 536.278Z" fill="#E7EAEE"/>
<path fill-rule="evenodd" clip-rule="evenodd" d="M408.871 534.201C409.02 533.922 409.368 533.816 409.647 533.965C409.926 534.114 410.032 534.461 409.883 534.741L409.685 535.123C408.164 538.144 408.176 540.331 410.901 541.757C411.182 541.903 411.29 542.25 411.143 542.531C410.997 542.811 410.65 542.92 410.37 542.773C408.355 541.719 407.48 540.14 407.567 538.233C407.627 536.918 408.086 535.675 408.871 534.201Z" fill="#E7EAEE"/>
<path fill-rule="evenodd" clip-rule="evenodd" d="M387.73 540.579C389.784 542.538 396.071 539.316 392.684 533.117C391.082 530.184 382.04 535.15 387.73 540.579Z" fill="#E7EAEE"/>
<path fill-rule="evenodd" clip-rule="evenodd" d="M479.863 391.647C485.219 378.687 482.622 354.507 487.201 344.331C488.817 340.739 491.907 339.008 490.55 346.674C488.066 360.701 484.152 390.192 484.152 390.192C483.604 390.746 482.675 390.693 481.937 390.943L479.863 391.647Z" fill="#E7EAEE"/>
<path d="M324.19 406.486C332.888 405.879 338.683 409.491 343.724 412.977C348.772 416.459 340.396 416.828 335.619 416.573C330.843 416.319 320.631 412.666 320.631 412.666L324.19 406.486Z" fill="white"/>
<path d="M245.032 412.239C245.032 412.239 296.536 416.305 302.88 414.181C309.216 412.061 327.304 414.335 330.14 419.935C333.589 426.749 302.935 425.412 302.935 425.412C302.935 425.412 242.399 445.943 228.892 439.275C215.378 432.608 214.975 409.308 214.975 409.308L245.032 412.239Z" fill="white"/>
<path d="M203.588 325.986C203.588 325.986 216.801 329.003 225.895 350.294C234.989 371.584 237.102 399.929 237.102 399.929C237.102 399.929 242.45 401.865 244.43 404.944C246.41 408.022 245.36 413.328 245.36 413.328C245.36 413.328 224.371 434.246 222.974 435.657C221.578 437.068 213.996 436.827 211.715 430.101C209.434 423.375 209.96 416.634 209.96 416.634C196.118 371.854 174.419 331.191 203.588 325.986Z" fill="white"/>
<path fill-rule="evenodd" clip-rule="evenodd" d="M232.346 264.367C233.757 260.027 238.841 257.045 242.154 262.018C242.154 262.018 244.393 264.936 242.826 267.74C238.024 276.331 230.934 268.707 232.346 264.367Z" fill="white"/>
<path fill-rule="evenodd" clip-rule="evenodd" d="M248.061 263.225C249.402 259.102 254.231 256.27 257.378 260.994C257.378 260.994 259.506 263.766 258.017 266.43C253.455 274.591 246.72 267.348 248.061 263.225Z" fill="white"/>
<path d="M242.226 312.158C242.226 312.158 255.933 352.572 264.186 374.955C272.439 397.338 274.81 421.346 270.821 442.102C266.833 462.859 276.623 487.296 269.96 491.619C217.26 525.813 172.037 341.435 189.491 322.753C206.945 304.071 213.171 299.256 213.171 299.256" fill="white"/>
<path fill-rule="evenodd" clip-rule="evenodd" d="M216.498 333.527L214.045 342.632C213.842 343.387 214.437 344.12 215.218 344.075L222.471 343.66C223.314 343.612 223.818 342.7 223.409 341.96L218.609 333.271C218.11 332.368 216.766 332.531 216.498 333.527ZM217.965 334.302L222.405 342.515L215.812 342.033L217.965 334.302Z" fill="#FFB61D"/>
<path fill-rule="evenodd" clip-rule="evenodd" d="M198.051 331.703L195.383 343.089C195.212 343.816 195.772 344.51 196.519 344.497L207.856 344.308C208.8 344.292 209.321 343.206 208.743 342.459L200.074 331.262C199.483 330.499 198.271 330.763 198.051 331.703ZM199.828 332.377L206.806 343.116L196.754 342.624L199.828 332.377Z" fill="#FFB61D"/>
<path fill-rule="evenodd" clip-rule="evenodd" d="M218.564 404.047L227.625 417.666C228.182 418.503 229.47 418.27 229.697 417.29L232.381 405.732C232.53 405.091 232.11 404.457 231.462 404.343L219.717 402.282C218.724 402.108 218.006 403.207 218.564 404.047ZM219.765 404.135L230.54 405.718L228.58 417.031L219.765 404.135Z" fill="#FFB61D"/>
<path fill-rule="evenodd" clip-rule="evenodd" d="M229.231 461.723L234.883 471.248C235.402 472.122 236.717 471.94 236.978 470.957L239.851 460.138C240.063 459.34 239.388 458.586 238.571 458.71L230.045 460.004C229.241 460.126 228.816 461.023 229.231 461.723ZM231.071 460.918L238.876 461.025L235.192 469.929L231.071 460.918Z" fill="#FFB61D"/>
<path fill-rule="evenodd" clip-rule="evenodd" d="M247.319 453.167L252.971 462.692C253.49 463.566 254.805 463.383 255.066 462.401L257.939 451.582C258.151 450.784 257.475 450.03 256.659 450.154L248.133 451.447C247.328 451.569 246.903 452.467 247.319 453.167ZM248.626 453.718L256.663 450.743L252.896 461.584L248.626 453.718Z" fill="#FFB61D"/>
<path fill-rule="evenodd" clip-rule="evenodd" d="M230.061 435.608L235.714 445.133C236.232 446.007 237.547 445.824 237.808 444.842L240.682 434.023C240.894 433.225 240.218 432.471 239.402 432.595L230.875 433.889C230.071 434.011 229.646 434.908 230.061 435.608ZM231.048 435.023L239.095 434.698L235.73 444.069L231.048 435.023Z" fill="#FFB61D"/>
<path fill-rule="evenodd" clip-rule="evenodd" d="M481.739 387.276C481.555 388.527 480.81 389.275 479.639 389.747C475.468 391.425 471.462 390.692 467.528 388.98C466.036 388.33 464.626 387.495 463.133 386.849C462.083 386.395 461.061 386.214 459.96 387.089C459.116 387.759 457.945 388.011 456.932 388.475C454.646 389.519 452.391 390.636 450.077 391.613C448.601 392.236 449.002 393.539 448.949 394.55C448.829 396.836 448.94 399.136 449.005 401.429C449.031 402.319 448.745 402.772 447.835 403.068C443.294 404.546 438.772 406.085 434.262 407.656C432.207 408.371 430.23 409.317 428.158 409.968C424.259 411.193 420.343 412.382 416.385 413.394C412.556 414.373 408.662 415.094 404.804 415.96C402.094 416.568 399.412 417.313 396.688 417.842C393.519 418.458 390.313 418.878 387.133 419.439C385.542 419.719 383.982 420.172 382.393 420.462C379.667 420.961 376.937 421.444 374.195 421.838C371.65 422.204 369.556 423.43 367.555 424.938C363.661 427.873 359.743 430.779 355.821 433.678C355.124 434.193 354.962 434.478 355.637 435.308C358.116 438.355 360.525 441.468 362.79 444.677C364.388 446.941 365.782 449.359 367.136 451.782C368.796 454.751 370.367 457.772 371.885 460.816C373.046 463.141 374.09 465.526 375.141 467.904C376.476 470.927 377.797 473.956 379.066 477.007C380.33 480.045 381.561 483.099 382.735 486.173C384.729 491.392 386.673 496.631 388.626 501.866C389.808 505.036 390.955 508.219 392.146 511.386C392.492 512.306 393.114 513.158 393.275 514.098C393.397 514.808 393.237 515.911 392.761 516.309C391.532 517.333 391.48 518.523 391.984 519.967C392.627 521.811 393.487 523.584 394.064 525.446C394.432 526.632 395.161 527.3 396.227 527.634C401.074 529.151 405.942 530.602 410.788 532.122C413.088 532.843 415.377 533.612 417.633 534.458C420.05 535.364 422.447 536.333 424.81 537.371C427.165 538.405 428.803 540.09 429.956 542.494C430.851 544.358 431.214 546.248 431.517 548.207C431.675 549.227 431.259 549.808 430.146 549.821C425.474 549.875 420.801 549.9 416.131 550.025C408.416 550.233 400.703 550.508 392.989 550.757C390.24 550.846 387.491 550.936 384.742 551.035C383.057 551.096 382.27 549.835 381.565 548.69C379.561 545.434 379.514 541.868 380.371 538.278C380.896 536.08 381.65 533.937 382.304 531.77C382.838 530.001 382.08 528.631 381.054 527.26C377.713 522.798 374.396 518.317 371.134 513.797C367.915 509.334 364.707 504.861 361.618 500.308C358.352 495.497 355.209 490.601 352.058 485.714C350.353 483.069 348.684 480.397 347.107 477.675C345.927 475.639 344.925 473.501 343.833 471.415C342.528 468.922 341.373 466.329 339.826 463.996C339.16 462.992 337.747 462.346 336.543 461.863C333.92 460.812 331.146 460.306 328.308 460.281C327.607 460.274 326.877 460.353 326.207 460.553C323.02 461.501 319.859 462.539 316.67 463.479C313.555 464.398 310.424 465.269 307.285 466.103C304.048 466.963 300.798 467.781 297.542 468.569C294.057 469.412 290.582 470.322 287.06 470.976C283.326 471.669 279.546 472.118 275.779 472.625C274.554 472.79 273.952 473.772 274.323 475.451C275.134 479.125 275.047 482.824 274.711 486.531C274.468 489.204 272.918 491.025 270.653 492.235C269.037 493.099 267.374 493.964 265.629 494.483C260.664 495.96 255.743 495.826 250.799 494.036C244.529 491.765 239.856 487.474 235.493 482.69C233.538 480.546 231.306 478.624 229.563 476.326C227.67 473.83 226.187 471.02 224.547 468.334C223.271 466.244 221.985 464.158 220.784 462.024C219.835 460.336 219.002 458.583 218.129 456.853C216.969 454.555 215.813 452.255 214.669 449.949C214.29 449.186 213.912 448.418 213.605 447.625C212.646 445.143 211.739 442.64 210.779 440.158C209.431 436.678 207.955 433.244 206.71 429.727C204.581 423.713 202.54 417.666 200.563 411.6C199.695 408.936 199.019 406.205 198.36 403.479C197.611 400.38 197.007 397.247 196.287 394.141C195.774 391.924 195.108 389.741 194.628 387.517C193.924 384.255 193.255 380.981 192.699 377.691C192.037 373.777 191.466 369.847 190.937 365.912C189.936 358.468 189.172 350.99 189.525 343.474C189.75 338.685 190.018 333.787 192.321 329.449C193.317 327.571 195.083 326.085 196.571 324.488C200.656 320.103 204.783 315.758 208.87 311.376C209.061 311.171 209.137 310.738 209.081 310.447C208.887 309.439 208.488 308.456 208.409 307.445C208.357 306.786 208.557 305.976 208.936 305.439C210.205 303.637 211.591 301.916 212.967 300.192C213.213 299.884 213.599 299.556 213.964 299.495C215.919 299.165 216.462 297.709 216.622 296.09C216.838 293.897 216.963 291.687 216.961 289.484C216.956 285.836 216.958 282.176 216.66 278.546C216.557 277.294 215.646 276.067 214.963 274.912C213.575 272.561 212.26 270.133 210.584 267.997C209.512 266.631 207.93 265.6 206.43 264.649C202.552 262.191 199.833 258.888 198.819 254.39C198.379 252.437 198.592 250.406 199.538 248.557C200.651 246.382 201.82 244.236 202.94 242.065C203.756 240.482 203.366 239.616 201.397 239.007C198.642 238.154 195.934 237.142 193.231 236.129C190.923 235.265 189.429 233.417 188.217 231.416C186.567 228.692 185.481 225.749 185.708 222.468C186.069 217.22 187.55 212.489 192.132 209.341C196.169 206.566 200.652 205.141 205.518 206.313C209.939 207.377 213.414 210.019 215.865 213.902C218.741 218.458 218.897 223.384 217.83 228.482C217.74 228.909 217.877 229.383 217.909 229.835C218.306 229.779 218.716 229.77 219.097 229.66C223.994 228.244 228.97 227.154 234.069 227.988C240.761 229.082 245.949 232.655 249.633 238.345C250.184 239.197 250.522 240.199 250.882 241.161C252.111 244.439 253.246 247.754 254.563 250.995C254.838 251.672 255.654 252.34 256.369 252.591C259.8 253.794 262.485 258.68 261.008 262.613C260.86 263.006 260.76 263.418 260.618 263.814C260.063 265.361 258.859 266.429 257.377 266.654C256.113 266.846 256.148 267.282 256.053 268.294C255.85 270.455 255.46 272.611 254.969 274.728C254.311 277.566 253.621 280.411 252.681 283.163C252.113 284.825 251.102 286.351 250.186 287.875C249.074 289.724 247.838 291.497 246.687 293.323C246.113 294.233 245.357 294.859 244.296 295.056C243.195 295.261 242.805 296.051 242.786 297.005C242.749 298.847 242.778 300.694 242.88 302.533C242.901 302.921 243.285 303.366 243.619 303.646C246.536 306.092 249.443 308.552 252.425 310.916C254.846 312.835 257.437 314.542 259.816 316.508C261.288 317.724 262.506 319.246 263.835 320.635C266.153 323.056 268.495 325.456 270.762 327.924C271.228 328.432 271.56 329.173 271.689 329.856C271.877 330.851 271.043 331.471 269.821 331.203C268.4 330.891 267.008 330.435 265.623 329.981C264.765 329.7 263.945 329.304 263.106 328.966C263.009 328.927 262.897 328.926 262.791 328.908C262.816 329.026 262.816 329.156 262.868 329.26C263.483 330.475 264.064 331.71 264.738 332.893C265.433 334.114 266.252 335.265 266.959 336.479C268.366 338.892 269.756 341.315 271.11 343.757C272.633 346.504 274.138 349.261 275.595 352.043C276.344 353.473 276.945 354.98 277.664 356.427C278.75 358.615 279.912 360.766 280.979 362.963C281.562 364.164 282.027 365.422 282.525 366.662C283.204 368.353 283.852 370.056 284.535 371.745C286.22 375.913 287.908 380.079 289.617 384.236C290.041 385.267 290.935 385.867 291.986 385.847C294.974 385.789 297.928 388.299 298.366 391.082C298.468 391.729 298.546 392.408 298.464 393.05C298.267 394.591 299.364 395.056 300.434 395.46C302.172 396.116 303.944 396.685 305.717 397.244C309.924 398.571 314.144 399.858 318.352 401.185C322.163 402.387 326.059 402.8 330.048 402.677C333.25 402.578 336.287 403.419 339.263 404.566C340.725 405.129 342.188 406.201 343.875 405.242C346.263 403.884 348.63 402.488 350.999 401.099C351.714 400.68 352.389 400.192 353.116 399.798C355.647 398.423 356.589 395.983 357.504 393.479C358.185 391.615 359.038 389.816 359.779 387.973C361.237 384.349 362.662 380.712 364.118 377.087C364.842 375.286 365.611 373.502 366.351 371.707C368.434 366.647 370.491 361.575 372.603 356.527C373.709 353.88 374.913 351.275 376.061 348.645C376.369 347.938 376.717 347.231 376.899 346.488C377.176 345.358 377.683 344.868 378.967 344.85C381.774 344.811 381.676 344.67 380.565 347.21C378.577 351.758 376.726 356.367 374.801 360.943C373.86 363.18 372.852 365.39 371.927 367.634C370.304 371.571 368.732 375.53 367.116 379.47C365.969 382.267 364.792 385.052 363.615 387.836C362.705 389.991 361.767 392.134 360.863 394.291C360.784 394.479 360.819 394.915 360.874 394.928C361.309 395.031 361.826 395.227 362.198 395.084C365.231 393.922 368.221 392.645 371.259 391.498C373.533 390.639 375.84 389.856 378.168 389.155C381.151 388.257 384.147 387.383 387.178 386.669C390.555 385.873 393.978 385.274 397.38 384.581C400.867 383.871 404.34 383.082 407.843 382.454C411.343 381.827 414.875 381.384 418.385 380.81C421.292 380.334 424.179 379.734 427.089 379.281C430.8 378.702 434.528 378.229 438.245 377.685C440.855 377.303 443.455 376.86 446.065 376.478C448.581 376.11 451.109 375.816 453.623 375.432C455.207 375.191 456.806 374.947 458.337 374.497C458.979 374.309 459.669 373.691 459.987 373.085C462.42 368.45 464.704 363.735 467.159 359.111C469.906 353.936 472.911 348.912 476.381 344.174C477.968 342.006 480.388 341.47 482.724 340.897C484.086 340.563 485.581 340.767 487.017 340.739C488.195 340.716 488.512 341.341 488.354 342.429C487.636 347.374 486.962 352.325 486.243 357.27C485.621 361.543 484.96 365.811 484.274 370.165C483.402 375.925 482.575 381.601 481.739 387.276ZM272.39 423.61C272.411 419.961 272.276 416.305 272.035 412.664C271.877 410.298 271.446 407.947 271.065 405.601C270.673 403.19 270.215 400.79 269.746 398.393C269.202 395.609 268.857 392.756 267.994 390.071C266.263 384.68 264.221 379.389 262.343 374.045C261.195 370.779 260.063 367.505 259.016 364.206C258.192 361.611 256.04 360.198 254.229 358.454C253.024 357.293 251.774 356.133 250.8 354.788C249.012 352.321 247.365 349.746 245.751 347.159C244.647 345.39 243.652 343.549 242.692 341.696C241.581 339.552 240.118 337.681 238.458 335.957C238.318 335.813 237.598 335.917 237.558 336.039C237.346 336.692 237.258 337.386 237.139 338.067C236.927 339.28 236.408 340.543 236.584 341.699C236.935 344.009 236.565 346.218 236.173 348.435C235.929 349.815 234.864 350.21 233.754 349.396C232.562 348.521 231.302 347.657 230.354 346.547C228.125 343.937 226.004 341.229 223.952 338.477C221.255 334.86 218.624 331.191 216.048 327.487C214.703 325.554 213.349 323.585 212.342 321.469C211.355 319.395 210.805 317.113 210.056 314.924C209.989 314.728 209.862 314.553 209.763 314.368C209.698 314.468 209.646 314.579 209.566 314.666C207.699 316.708 205.854 318.772 203.951 320.779C202.063 322.771 200.158 324.75 198.18 326.651C196.012 328.733 193.848 330.857 193.214 333.895C192.527 337.182 191.525 340.433 191.599 343.85C191.675 347.374 191.608 350.905 191.826 354.418C192.049 358.013 192.583 361.586 192.903 365.176C193.108 367.469 192.957 369.811 193.346 372.066C193.939 375.505 194.742 378.92 195.678 382.285C196.481 385.172 197.456 388.009 198.031 390.961C198.478 393.254 199.023 395.527 199.501 397.813C200.228 401.295 200.627 404.879 201.711 408.245C204.109 415.696 206.929 423.01 209.41 430.437C210.709 434.329 212.577 437.931 214.334 441.605C216.284 445.685 218.036 449.86 219.964 453.951C221.274 456.731 222.59 459.528 224.17 462.158C226.742 466.439 229.387 470.691 232.265 474.769C235.856 479.857 240.119 484.351 245.217 488.01C248.402 490.297 251.88 491.876 255.74 492.549C260.973 493.461 265.638 491.647 270.132 489.302C270.87 488.917 271.674 487.977 271.782 487.201C272.086 485.027 272.237 482.791 272.088 480.604C271.877 477.496 271.206 474.421 270.979 471.313C270.603 466.19 270.571 461.039 270.12 455.923C269.749 451.71 270.365 447.585 270.709 443.434C270.961 440.379 271.456 437.344 271.926 434.132C272.091 430.625 272.369 427.118 272.39 423.61ZM330.374 457.547C333.132 458.169 335.875 458.89 338.579 459.716C340.268 460.232 341.724 461.32 342.578 462.859C344.555 466.424 346.314 470.109 348.27 473.686C349.643 476.196 351.208 478.602 352.664 481.067C353.849 483.074 355.002 485.1 356.166 487.12C357.309 489.105 358.442 491.096 359.591 493.078C360.466 494.589 361.351 496.094 362.243 497.595C363.684 500.022 365.023 502.52 366.612 504.848C368.176 507.141 370.062 509.212 371.69 511.465C374.399 515.214 377.373 518.724 380.572 522.064C381.331 522.855 382.006 522.415 382.385 522.095C384.789 520.07 387.123 517.957 389.426 515.816C390.153 515.14 390.356 514.24 389.971 513.234C388.924 510.502 387.91 507.757 386.895 505.013C385.681 501.73 384.479 498.443 383.271 495.158C382.087 491.942 380.968 488.701 379.7 485.518C378.462 482.409 377.08 479.357 375.747 476.286C374.086 472.46 372.446 468.625 370.727 464.826C369.54 462.202 368.369 459.555 366.95 457.056C364.491 452.729 361.843 448.51 359.278 444.243C356.289 439.271 352.446 435.358 346.793 433.358C342.487 431.834 338.112 430.653 333.611 430.051C328.631 429.385 323.622 428.792 318.608 428.557C312.876 428.288 307.111 427.448 301.386 428.88C298.636 429.568 295.822 429.999 293.053 430.622C290.833 431.121 288.65 431.789 286.428 432.281C282.911 433.059 279.366 433.712 275.859 434.53C275.367 434.645 274.802 435.335 274.656 435.865C274.321 437.082 274.191 438.36 274.035 439.621C273.546 443.557 272.745 447.492 272.695 451.436C272.629 456.647 273.154 461.865 273.436 467.08C273.595 470.034 273.62 470.16 276.14 469.855C279.055 469.503 281.949 468.944 284.835 468.388C286.723 468.025 288.574 467.473 290.455 467.067C294.019 466.298 297.6 465.609 301.159 464.815C303.423 464.31 305.667 463.707 307.905 463.093C311.25 462.176 314.592 461.246 317.915 460.252C319.904 459.657 321.855 458.93 324.074 458.178C326.122 457.441 328.24 457.066 330.374 457.547ZM423.548 408.473C425.695 407.855 427.845 407.241 429.976 406.569C434.917 405.009 439.851 403.428 444.778 401.824C445.761 401.503 446.506 400.799 446.428 399.701C446.009 393.792 447.097 387.812 445.509 381.949C445.107 380.462 444.127 379.648 442.552 379.892C440.909 380.147 439.249 380.285 437.603 380.515C435.532 380.804 433.468 381.141 431.4 381.444C429.542 381.716 427.682 381.974 425.822 382.228C424.461 382.415 423.096 382.574 421.735 382.766C419.131 383.134 416.527 383.511 413.925 383.894C412.145 384.155 410.365 384.408 408.592 384.708C407.217 384.941 405.856 385.256 404.484 385.509C401.586 386.042 398.685 386.56 395.785 387.083C394.129 387.381 392.468 387.656 390.816 387.978C388.613 388.409 386.337 388.645 384.233 389.372C378.953 391.196 373.741 393.223 368.523 395.223C366.027 396.179 363.541 397.179 361.124 398.315C359.771 398.951 358.569 399.855 357.95 401.387C356.943 403.881 355.777 406.312 354.748 408.798C354.098 410.368 353.537 411.978 353.004 413.592C352.299 415.727 351.085 417.29 348.791 417.876C345.033 418.834 341.295 419.87 337.538 420.831C336.144 421.188 334.722 421.443 333.307 421.713C330.907 422.169 328.496 422.572 326.1 423.05C323.808 423.507 321.527 424.015 319.249 424.535C318.606 424.682 317.983 424.933 317.369 425.18C317.246 425.229 317.205 425.481 317.127 425.639C317.275 425.655 317.423 425.665 317.57 425.687C318.867 425.889 320.157 426.165 321.461 426.282C325.285 426.622 329.141 426.715 332.937 427.246C338.448 428.017 343.822 429.419 348.995 431.54C350.599 432.197 352.06 432.594 353.999 431.635C357.074 430.115 359.814 428.3 362.226 425.914C365.473 422.703 368.903 419.809 373.689 419.22C376.458 418.879 379.219 418.467 381.99 418.144C383.746 417.94 385.539 417.977 387.271 417.662C389.419 417.272 391.52 416.62 393.646 416.099C397.512 415.153 401.384 414.227 405.25 413.279C407.876 412.635 410.495 411.969 413.285 411.396C416.706 410.423 420.13 409.457 423.548 408.473ZM268.082 380.286C268.459 381.277 268.76 382.296 269.118 383.295C270.788 387.963 272.455 392.634 274.152 397.293C274.644 398.645 275.061 400.07 275.816 401.27C277.345 403.701 279.056 406.02 280.745 408.347C281.469 409.343 282.309 410.24 283.717 410.254C284.942 410.266 286.167 410.389 287.391 410.393C289.209 410.4 289.637 410.019 290.193 408.17C290.377 407.558 290.628 406.965 290.866 406.371C292.404 402.542 294.04 398.749 295.458 394.876C296.504 392.018 294.966 388.512 291.545 388.379C291.177 388.365 290.803 388.325 290.441 388.369C288.527 388.606 288.611 388.582 287.978 386.912C285.717 380.943 284.372 374.646 281.376 368.934C280.18 366.654 279.491 364.11 278.324 361.812C276.507 358.237 274.491 354.762 272.535 351.258C270.685 347.943 268.834 344.629 266.926 341.348C265.502 338.9 263.978 336.51 262.516 334.084C261.401 332.233 260.372 330.327 259.174 328.533C258.851 328.048 258.054 327.877 257.475 327.563C257.142 328.21 256.421 328.941 256.541 329.489C257.145 332.27 257.658 335.14 258.794 337.717C260.1 340.678 261.584 343.549 262.029 346.777C262.537 350.455 262.557 354.146 261.71 357.802C261.241 359.828 261.055 361.829 261.935 363.841C262.805 365.833 263.562 367.877 264.289 369.926C265.324 372.841 266.287 375.782 267.366 378.963C267.608 379.403 267.905 379.822 268.082 380.286ZM219.716 280.999C219.616 281.398 219.425 281.798 219.429 282.195C219.475 286.252 219.635 290.31 219.589 294.365C219.56 296.808 219.015 299.165 217.486 301.213C216.375 302.701 215.409 304.296 214.345 305.82C213.821 306.572 214.119 306.967 214.767 307.444C216.706 308.871 218.708 310.242 220.473 311.866C222.909 314.107 225.17 316.54 227.47 318.925C229.711 321.249 232.004 323.534 234.095 325.989C235.871 328.074 237.265 330.488 239.064 332.55C240.691 334.415 242.372 336.226 243.482 338.437C243.86 339.189 244.118 339.109 244.715 338.904C248.304 337.672 251.613 336.02 253.917 332.854C254.114 332.583 254.206 332.133 254.148 331.8C254.008 330.997 253.722 330.22 253.551 329.42C253.43 328.856 253.585 328.149 253.297 327.719C252.229 326.12 251.018 324.617 249.88 323.064C247.704 320.099 245.214 317.279 243.931 313.806C242.626 310.273 241.732 306.583 240.767 302.932C240.373 301.443 240.163 299.886 240.051 298.347C239.92 296.541 239.664 296.122 237.892 295.821C234.976 295.325 232.244 294.254 229.942 292.46C226.185 289.531 222.905 286.12 220.635 281.661C220.329 281.44 220.022 281.219 219.716 280.999ZM255.086 267.762C255.108 267.604 255.575 266.974 254.616 267.129C253.648 267.285 252.463 267.191 251.611 266.749C249.941 265.881 248.412 264.728 246.879 263.618C246.445 263.304 246.256 263.088 246.012 263.724C245.857 264.127 245.601 264.493 245.447 264.897C244.108 268.404 241.243 270.672 237.932 270.946C233.963 271.276 230.409 268.13 229.211 264.762C228.733 263.42 227.923 262.433 226.582 262.023C224.35 261.339 222.09 260.743 219.832 260.148C218.569 259.814 217.661 260.371 217.76 261.539C218.006 264.431 218.091 267.384 218.783 270.178C219.638 273.636 220.924 276.983 222.864 280.064C226.132 285.255 229.708 290.029 235.668 292.447C239.512 294.005 243.379 293.338 246.392 290.584C249.377 287.854 250.566 284.276 251.658 280.6C252.575 277.511 253.485 274.42 254.482 271.162C254.692 270.03 254.925 268.901 255.086 267.762ZM463.903 384.041C467.392 386.316 471.105 387.943 475.409 387.88C478.067 387.841 478.898 387.407 479.367 384.43C480.323 378.356 481.242 372.277 482.152 366.196C482.516 363.768 482.785 361.325 483.15 358.896C483.865 354.153 484.611 349.415 485.358 344.677C485.495 343.812 484.903 343.272 484.31 343.388C482.25 343.794 479.979 343.936 478.562 345.774C476.694 348.197 474.813 350.636 473.222 353.241C470.808 357.193 468.57 361.258 466.397 365.349C465.412 367.205 464.734 369.227 463.965 371.193C463.358 372.747 462.397 374.207 462.57 375.989C462.73 377.637 462.895 379.284 463.143 381.183C463.034 382.236 462.905 383.39 463.903 384.041ZM426.629 547.002C427.219 546.853 428.237 546.217 428.19 546.06C427.531 543.873 427.163 541.443 424.65 540.413C421.384 539.074 418.162 537.608 414.834 536.443C409.465 534.565 404.026 532.887 398.615 531.128C396.682 530.5 394.733 529.798 392.668 530.164C390.819 530.491 389.015 531.064 387.171 531.426C385.616 531.732 384.822 532.72 384.282 534.098C382.972 537.438 382.357 540.866 382.899 544.443C383.323 547.246 384.668 548.413 387.014 548.318C391.482 548.136 395.954 548.062 400.424 547.91C403.627 547.801 406.827 547.596 410.03 547.508C414.701 547.379 419.374 547.316 424.298 547.14C425.078 547.107 425.888 547.19 426.629 547.002ZM286.082 413.08C282.9 412.921 279.72 412.714 276.537 412.575C275.597 412.533 274.857 412.678 275.017 414.05C275.191 415.541 275.003 417.071 275.005 418.583C275.009 421.94 275.009 425.297 275.073 428.653C275.085 429.273 275.081 430.151 276.223 429.882C277.711 429.533 279.224 429.287 280.703 428.903C283.589 428.152 286.477 427.397 289.331 426.533C293.57 425.25 297.783 423.876 302.002 422.528C303.349 422.097 304.682 421.618 306.024 421.171C306.35 421.062 306.688 420.921 307.023 420.913C311.039 420.817 315.057 420.765 319.073 420.657C323.113 420.547 327.152 420.415 330.984 418.872C332.314 418.337 332.477 417.998 331.555 416.919C331.052 416.331 330.439 415.765 329.76 415.41C326.443 413.676 322.849 412.899 319.154 412.511C316.21 412.202 313.278 411.738 310.314 412.415C308.927 412.732 307.511 412.997 306.095 413.101C303.845 413.267 301.583 413.343 299.327 413.34C296.507 413.337 293.687 413.215 290.616 413.23C289.105 413.181 287.592 413.156 286.082 413.08ZM216.925 312.895C215.131 311.472 213.289 310.109 211.464 308.724C211.21 308.531 210.944 308.355 210.684 308.17C210.706 308.622 210.678 309.082 210.76 309.522C211.03 310.978 211.392 312.417 211.621 313.878C212.076 316.769 212.73 319.54 215.324 321.367C215.488 321.483 215.638 321.637 215.751 321.804C217.205 323.949 218.648 326.102 220.1 328.249C220.468 328.793 220.842 329.333 221.239 329.855C222.945 332.103 224.816 334.245 226.331 336.614C227.887 339.048 229.295 341.547 231.479 343.511C232.106 344.075 232.519 344.874 233.065 345.536C233.228 345.734 233.636 346.003 233.716 345.944C233.974 345.757 234.288 345.438 234.301 345.157C234.446 341.889 233.918 338.553 235.228 335.406C236.341 332.733 235.252 330.757 233.395 328.936C232.67 328.224 232.082 327.374 231.395 326.621C229.908 324.993 228.451 323.334 226.881 321.789C225.51 320.439 223.995 319.235 222.555 317.954C221.543 317.054 220.549 316.132 219.379 315.136C218.564 314.385 217.79 313.582 216.925 312.895ZM323.901 405.154C319.427 404.027 314.925 402.986 310.509 401.659C306.812 400.548 303.23 399.059 299.576 397.799C298.59 397.459 297.626 397.562 297.137 398.745C296.345 400.661 295.521 402.563 294.731 404.481C294.143 405.908 293.605 407.356 293.015 408.783C292.554 409.899 292.789 410.333 294.003 410.289C297.903 410.147 301.8 409.911 305.701 409.807C311.026 409.664 316.354 409.547 321.68 409.552C323.385 409.553 325.087 410.146 326.792 410.155C328.524 410.164 330.275 409.882 331.985 409.556C333.961 409.179 335.907 408.636 337.85 408.109C338.16 408.024 338.39 407.644 338.656 407.401C338.383 407.206 338.136 406.941 337.833 406.827C333.978 405.381 329.942 405.328 325.734 405.24C325.122 405.217 324.482 405.3 323.901 405.154ZM253.676 355.199C254.743 356.811 256.144 357.296 257.905 356.877C259.426 356.515 259.585 355.56 259.579 354.361C259.57 352.644 259.556 350.927 259.513 349.21C259.416 345.398 258.084 341.974 256.253 338.686C255.656 337.614 255.3 336.406 254.851 335.254C254.786 335.087 254.813 334.883 254.798 334.696C254.643 334.805 254.476 334.901 254.334 335.025C253.445 335.804 252.649 336.734 251.655 337.341C249.794 338.477 247.841 339.473 245.879 340.431C245.121 340.8 244.681 341.042 245.261 341.926C245.809 342.761 246.226 343.68 246.73 344.545C247.816 346.408 248.92 348.261 250.102 350.369C251.301 351.974 252.572 353.532 253.676 355.199ZM268.743 329.02C268.995 329.12 269.259 329.186 269.518 329.267C269.421 328.987 269.394 328.65 269.218 328.436C268.182 327.174 267.177 325.877 266.04 324.71C263.615 322.219 261.276 319.605 258.602 317.406C255.972 315.245 252.879 313.655 250.163 311.587C248.218 310.105 246.564 308.241 244.764 306.566C244.487 306.308 244.12 306.148 243.794 305.942C243.801 306.311 243.712 306.715 243.832 307.042C244.611 309.166 245.366 311.302 246.269 313.374C246.885 314.787 247.627 316.169 248.495 317.441C249.458 318.854 250.741 320.051 251.677 321.478C252.773 323.147 254.035 324.011 256.14 324.387C259.631 325.012 263.237 325.669 266.351 328.053C267.148 328.376 267.943 328.705 268.743 329.02ZM231.582 262.483C231.093 264.215 234.552 268.531 235.649 268.567C243.329 268.821 243.783 263.776 243.464 262.541C242.83 260.091 242.303 257.568 239.386 256.396C233.024 257.232 232.371 259.684 231.582 262.483ZM258.333 255.629C256.645 253.659 254.755 252.642 252.52 253.98C251.379 254.663 250.626 256.006 249.726 257.075C247.793 259.371 247.748 260.284 249.482 262.604C251.218 264.925 253.71 265.747 256.407 265.398C258.639 265.109 259.693 263.307 260.136 260.982C259.81 259.106 259.67 257.188 258.333 255.629ZM248.315 255.739C249.06 254.708 249.774 253.313 250.82 252.916C252.63 252.228 251.953 251.21 251.456 250.396C250.069 248.121 248.524 245.939 246.997 243.752C245.951 242.255 245.511 242.298 244.738 243.864C243.414 246.548 242.05 249.201 240.002 251.438C239.361 252.138 239.591 253.172 240.42 253.766C240.729 253.987 241.098 254.141 241.362 254.404C242.664 255.698 243.907 257.054 245.251 258.301C245.549 258.576 245.815 259.818 246.697 258.538C247.23 257.6 247.687 256.608 248.315 255.739ZM457.311 385.774C458.913 384.876 460.596 383.817 460.089 381.453C460.003 381.056 460.054 380.632 460.012 380.223C459.754 377.689 458.888 377.143 456.448 377.689C454.151 378.203 451.817 378.552 449.494 378.944C448.251 379.153 448.109 379.448 448.385 380.691C448.768 382.413 449.071 384.157 449.317 385.905C449.533 387.436 450.322 388.438 451.683 388.291C453.566 387.465 455.525 386.775 457.311 385.774ZM390.984 527.589C391.22 527.497 391.465 526.885 391.382 526.611C390.832 524.794 390.179 523.009 389.589 521.204C389.257 520.19 388.472 520.419 387.976 520.784C386.897 521.58 385.941 522.545 384.948 523.455C384.23 524.112 383.383 524.735 383.898 525.916C384.261 526.751 384.56 527.63 385.039 528.394C385.836 529.662 386.804 528.602 387.87 528.547C388.913 528.24 389.975 527.982 390.984 527.589ZM274.494 404.172C274.352 403.992 274.013 403.968 273.764 403.872C273.691 404.122 273.511 404.397 273.564 404.617C273.884 405.948 274.222 407.278 274.622 408.587C275.013 409.866 276.188 410.383 277.436 409.83C277.647 409.736 277.904 409.22 277.823 409.076C277.285 408.111 276.661 407.194 275.896 406.179C275.434 405.506 274.998 404.812 274.494 404.172ZM353.344 403.889C353.39 403.565 353.422 402.696 352.624 403.145C351.406 403.83 350.253 404.633 349.093 405.415C348.881 405.558 348.764 405.842 348.603 406.06C348.887 406.093 349.198 406.217 349.449 406.142C350.504 405.826 351.541 405.45 352.668 404.928C352.908 404.583 353.292 404.259 353.344 403.889ZM211.608 305.028C211.447 305.213 211.286 305.397 211.125 305.582C211.342 305.704 211.554 305.904 211.779 305.919C211.913 305.928 212.113 305.672 212.205 305.495C212.724 304.483 213.224 303.462 213.718 302.438C213.817 302.232 213.861 302.001 213.931 301.781C213.693 301.917 213.364 301.995 213.235 302.199C212.688 303.066 212.2 303.97 211.608 305.028Z" fill="#00160A"/>
<path fill-rule="evenodd" clip-rule="evenodd" d="M233.573 281.263C232.18 281.026 230.839 280.899 230.113 279.564C228.703 276.969 228.595 273.385 232.25 272.356C235.547 271.428 238.514 273.42 238.398 276.847C238.313 279.373 236.64 281.179 233.573 281.263Z" fill="#FFB61D"/>
<path fill-rule="evenodd" clip-rule="evenodd" d="M246.057 265.566C245.978 265.121 245.943 264.804 245.907 264.486C246.096 264.71 246.312 264.915 246.471 265.159C247.646 266.964 250.917 271.344 249.778 274.255C249.683 274.498 248.889 274.8 248.377 274.938C247.371 275.21 245.731 274.147 245.596 273.148C245.575 272.998 248.734 274.499 248.821 273.078C248.965 270.708 246.3 266.282 246.057 265.566Z" fill="#00160A"/>
<path fill-rule="evenodd" clip-rule="evenodd" d="M237.543 284.536C237.427 284.519 237.295 284.579 237.178 284.624C236.889 284.736 236.311 284.347 236.406 284.068C236.55 283.647 236.727 283.211 237 282.873C237.163 282.672 237.649 282.98 237.687 283.177C237.715 283.323 237.923 283.498 238.085 283.549C240.542 284.327 243.044 284.523 245.587 284.163C245.755 284.139 245.941 284.233 246.118 284.273C246.006 284.424 245.927 284.671 245.777 284.712C243.118 285.445 239.545 284.823 237.543 284.536Z" fill="#00160A"/>
<path fill-rule="evenodd" clip-rule="evenodd" d="M212.403 419.273L213.513 430.691C213.599 431.574 214.612 432.029 215.329 431.507L223.02 425.914C223.666 425.444 223.645 424.472 222.978 424.03L214.177 418.206C213.372 417.673 212.309 418.312 212.403 419.273ZM214.035 420.61L221.621 425.232L214.655 430.58L214.035 420.61Z" fill="#FFB61D"/>
<path fill-rule="evenodd" clip-rule="evenodd" d="M199.388 355.637C198.455 355.863 198.195 357.066 198.952 357.656L208.499 365.096C209.143 365.597 210.089 365.285 210.309 364.499L213.227 354.043C213.462 353.199 212.703 352.414 211.852 352.62L199.388 355.637ZM200.608 356.433L212.152 354.865L208.032 363.717L200.608 356.433Z" fill="#FFB61D"/>
<path fill-rule="evenodd" clip-rule="evenodd" d="M264.142 415.322L255.258 418.335C254.521 418.585 254.242 419.479 254.705 420.104L260.836 428.368C261.414 429.148 262.64 428.9 262.871 427.957L265.624 416.68C265.839 415.801 264.999 415.031 264.142 415.322ZM264.032 417.377L262.48 427.439L256.35 419.175L264.032 417.377Z" fill="#FFB61D"/>
<path fill-rule="evenodd" clip-rule="evenodd" d="M252.078 475.459L254.4 483.639C254.643 484.496 255.728 484.761 256.339 484.111L264.802 475.105C265.519 474.342 264.923 473.096 263.879 473.176L253.094 474.003C252.371 474.058 251.88 474.762 252.078 475.459ZM253.124 475.961L263.064 474.059L255.797 482.515L253.124 475.961Z" fill="#FFB61D"/>
<path fill-rule="evenodd" clip-rule="evenodd" d="M204.884 381.336L198.792 389.557C198.276 390.253 198.688 391.247 199.545 391.374L210.488 392.998C211.402 393.134 212.093 392.186 211.685 391.357L206.834 381.512C206.454 380.742 205.395 380.646 204.884 381.336ZM205.854 383.145L210.656 391.864L199.713 390.24L205.854 383.145Z" fill="#FFB61D"/>
<path fill-rule="evenodd" clip-rule="evenodd" d="M249.446 392.587L246.993 401.693C246.782 402.477 247.429 403.226 248.236 403.13L254.463 402.388C255.232 402.296 255.691 401.484 255.373 400.777L251.598 392.414C251.155 391.432 249.726 391.548 249.446 392.587ZM251.303 393.615L253.998 401.561L248.319 401.243L251.303 393.615Z" fill="#FFB61D"/>
<path fill-rule="evenodd" clip-rule="evenodd" d="M238.532 357.314C239.658 355.88 241.002 355.673 240.674 358.099C240.674 358.099 239.618 379.767 237.443 380.757C235.38 381.696 233.412 379.284 227.752 372.399L227.511 372.105C227.489 372.079 227.469 372.053 227.451 372.026L227.414 371.968L227.382 371.94L227.308 371.858L226.624 371.014C225.813 370.007 224.109 368.469 223.325 368C222.489 367.5 223.675 366.613 224.66 366.279C226.497 365.656 228.92 365.406 232.11 363.186C235.847 360.586 236.988 359.279 238.532 357.314ZM238.656 368.219L238.578 368.317C237.746 369.321 236.753 370.213 235.601 370.991C234.222 371.921 232.036 372.72 230.505 372.893L230.247 372.918L230.409 373.107C231.894 374.84 233.396 376.916 234.42 377.884L234.774 378.212C235.403 378.782 235.919 379.176 236.301 379.388L236.418 379.449L236.482 379.282C236.745 378.531 237.641 375.733 238.033 373.11L238.074 372.835C238.239 371.703 238.404 370.424 238.568 368.999L238.656 368.219ZM239.177 359.556L239.036 359.715C237.71 361.18 235.518 363.609 233.42 365.069C230.91 366.816 228.648 367.903 226.62 368.304L226.495 368.326L226.628 368.495C226.989 368.952 228.609 371.142 229.015 371.425C230.494 372.084 231.909 371.714 233.461 370.731L233.682 370.586C239.341 367.363 239.177 359.556 239.177 359.556Z" fill="#FFB61D"/>
<path fill-rule="evenodd" clip-rule="evenodd" d="M474.484 354.248C474.665 353.988 475.022 353.924 475.282 354.105C477.112 355.38 479.263 354.744 481.553 352.22C481.766 351.986 482.129 351.968 482.363 352.181C482.598 352.394 482.615 352.757 482.402 352.991C479.767 355.895 477.013 356.709 474.627 355.046C474.367 354.865 474.303 354.508 474.484 354.248Z" fill="#E7EAEE"/>
<path fill-rule="evenodd" clip-rule="evenodd" d="M471.855 359.99C472.008 359.713 472.357 359.613 472.634 359.766C475.245 361.213 477.812 360.476 479.495 358.681C479.711 358.45 480.074 358.439 480.305 358.655C480.536 358.872 480.548 359.235 480.331 359.466C478.321 361.609 475.208 362.503 472.078 360.77C471.801 360.616 471.701 360.267 471.855 359.99Z" fill="#E7EAEE"/>
<path fill-rule="evenodd" clip-rule="evenodd" d="M468.869 365.807C469.018 365.527 469.365 365.421 469.645 365.57C472.137 366.895 476.186 366.583 478.276 364.368C478.494 364.138 478.857 364.127 479.087 364.344C479.317 364.562 479.328 364.925 479.11 365.155C476.635 367.778 472.024 368.134 469.106 366.582C468.827 366.434 468.72 366.087 468.869 365.807Z" fill="#E7EAEE"/>
<path fill-rule="evenodd" clip-rule="evenodd" d="M478.097 381.666C481.284 378.529 475.025 373.031 472.274 377.049C470.51 379.625 475.097 384.62 478.097 381.666Z" fill="#E7EAEE"/>
</svg>
