<svg width="307" height="41" viewBox="0 0 307 41" fill="none" xmlns="http://www.w3.org/2000/svg">
<rect width="307" height="41" rx="20.5" fill="url(#paint0_linear)" fill-opacity="0.35"/>
<path d="M40.2699 20.946H42.3419V24.922C41.8099 25.3233 41.1939 25.6313 40.4939 25.846C39.7939 26.0607 39.0892 26.168 38.3799 26.168C37.3626 26.168 36.4479 25.9533 35.6359 25.524C34.8239 25.0853 34.1846 24.4833 33.7179 23.718C33.2606 22.9433 33.0319 22.0707 33.0319 21.1C33.0319 20.1293 33.2606 19.2613 33.7179 18.496C34.1846 17.7213 34.8286 17.1193 35.6499 16.69C36.4712 16.2513 37.3952 16.032 38.4219 16.032C39.2806 16.032 40.0599 16.1767 40.7599 16.466C41.4599 16.7553 42.0479 17.1753 42.5239 17.726L41.0679 19.07C40.3679 18.3327 39.5232 17.964 38.5339 17.964C37.9086 17.964 37.3532 18.0947 36.8679 18.356C36.3826 18.6173 36.0046 18.986 35.7339 19.462C35.4632 19.938 35.3279 20.484 35.3279 21.1C35.3279 21.7067 35.4632 22.248 35.7339 22.724C36.0046 23.2 36.3779 23.5733 36.8539 23.844C37.3392 24.1053 37.8899 24.236 38.5059 24.236C39.1592 24.236 39.7472 24.096 40.2699 23.816V20.946ZM53.2641 26L51.3741 23.27H51.2621H49.2881V26H47.0201V16.2H51.2621C52.1301 16.2 52.8815 16.3447 53.5161 16.634C54.1601 16.9233 54.6548 17.334 55.0001 17.866C55.3455 18.398 55.5181 19.028 55.5181 19.756C55.5181 20.484 55.3408 21.114 54.9861 21.646C54.6408 22.1687 54.1461 22.57 53.5021 22.85L55.7001 26H53.2641ZM53.2221 19.756C53.2221 19.2053 53.0448 18.7853 52.6901 18.496C52.3355 18.1973 51.8175 18.048 51.1361 18.048H49.2881V21.464H51.1361C51.8175 21.464 52.3355 21.3147 52.6901 21.016C53.0448 20.7173 53.2221 20.2973 53.2221 19.756ZM66.3405 23.9H61.7905L60.9225 26H58.5985L62.9665 16.2H65.2065L69.5885 26H67.2085L66.3405 23.9ZM65.6265 22.178L64.0725 18.426L62.5185 22.178H65.6265ZM74.7145 18.048H71.5785V16.2H80.1185V18.048H76.9825V26H74.7145V18.048ZM88.1001 26.168C86.7001 26.168 85.6081 25.7807 84.8241 25.006C84.0495 24.2313 83.6621 23.1253 83.6621 21.688V16.2H85.9301V21.604C85.9301 23.3587 86.6581 24.236 88.1141 24.236C88.8235 24.236 89.3648 24.026 89.7381 23.606C90.1115 23.1767 90.2981 22.5093 90.2981 21.604V16.2H92.5381V21.688C92.5381 23.1253 92.1461 24.2313 91.3621 25.006C90.5875 25.7807 89.5001 26.168 88.1001 26.168ZM97.3508 16.2H99.6188V26H97.3508V16.2ZM106.546 18.048H103.41V16.2H111.95V18.048H108.814V26H106.546V18.048ZM120.351 26.168C119.334 26.168 118.414 25.9487 117.593 25.51C116.781 25.0713 116.142 24.4693 115.675 23.704C115.218 22.9293 114.989 22.0613 114.989 21.1C114.989 20.1387 115.218 19.2753 115.675 18.51C116.142 17.7353 116.781 17.1287 117.593 16.69C118.414 16.2513 119.334 16.032 120.351 16.032C121.368 16.032 122.283 16.2513 123.095 16.69C123.907 17.1287 124.546 17.7353 125.013 18.51C125.48 19.2753 125.713 20.1387 125.713 21.1C125.713 22.0613 125.48 22.9293 125.013 23.704C124.546 24.4693 123.907 25.0713 123.095 25.51C122.283 25.9487 121.368 26.168 120.351 26.168ZM120.351 24.236C120.93 24.236 121.452 24.1053 121.919 23.844C122.386 23.5733 122.75 23.2 123.011 22.724C123.282 22.248 123.417 21.7067 123.417 21.1C123.417 20.4933 123.282 19.952 123.011 19.476C122.75 19 122.386 18.6313 121.919 18.37C121.452 18.0993 120.93 17.964 120.351 17.964C119.772 17.964 119.25 18.0993 118.783 18.37C118.316 18.6313 117.948 19 117.677 19.476C117.416 19.952 117.285 20.4933 117.285 21.1C117.285 21.7067 117.416 22.248 117.677 22.724C117.948 23.2 118.316 23.5733 118.783 23.844C119.25 24.1053 119.772 24.236 120.351 24.236ZM140.767 16.2C141.635 16.2 142.386 16.3447 143.021 16.634C143.665 16.9233 144.16 17.334 144.505 17.866C144.85 18.398 145.023 19.028 145.023 19.756C145.023 20.4747 144.85 21.1047 144.505 21.646C144.16 22.178 143.665 22.5887 143.021 22.878C142.386 23.158 141.635 23.298 140.767 23.298H138.793V26H136.525V16.2H140.767ZM140.641 21.45C141.322 21.45 141.84 21.3053 142.195 21.016C142.55 20.7173 142.727 20.2973 142.727 19.756C142.727 19.2053 142.55 18.7853 142.195 18.496C141.84 18.1973 141.322 18.048 140.641 18.048H138.793V21.45H140.641ZM155.176 23.9H150.626L149.758 26H147.434L151.802 16.2H154.042L158.424 26H156.044L155.176 23.9ZM154.462 22.178L152.908 18.426L151.354 22.178H154.462ZM168.256 26L166.366 23.27H166.254H164.28V26H162.012V16.2H166.254C167.122 16.2 167.873 16.3447 168.508 16.634C169.152 16.9233 169.646 17.334 169.992 17.866C170.337 18.398 170.51 19.028 170.51 19.756C170.51 20.484 170.332 21.114 169.978 21.646C169.632 22.1687 169.138 22.57 168.494 22.85L170.692 26H168.256ZM168.214 19.756C168.214 19.2053 168.036 18.7853 167.682 18.496C167.327 18.1973 166.809 18.048 166.128 18.048H164.28V21.464H166.128C166.809 21.464 167.327 21.3147 167.682 21.016C168.036 20.7173 168.214 20.2973 168.214 19.756ZM181.332 23.9H176.782L175.914 26H173.59L177.958 16.2H180.198L184.58 26H182.2L181.332 23.9ZM180.618 22.178L179.064 18.426L177.51 22.178H180.618ZM197.925 26.168C197.15 26.168 196.399 26.0653 195.671 25.86C194.952 25.6453 194.373 25.37 193.935 25.034L194.705 23.326C195.125 23.634 195.624 23.8813 196.203 24.068C196.781 24.2547 197.36 24.348 197.939 24.348C198.583 24.348 199.059 24.2547 199.367 24.068C199.675 23.872 199.829 23.6153 199.829 23.298C199.829 23.0647 199.735 22.8733 199.549 22.724C199.371 22.5653 199.138 22.4393 198.849 22.346C198.569 22.2527 198.186 22.15 197.701 22.038C196.954 21.8607 196.343 21.6833 195.867 21.506C195.391 21.3287 194.98 21.044 194.635 20.652C194.299 20.26 194.131 19.7373 194.131 19.084C194.131 18.5147 194.285 18.0013 194.593 17.544C194.901 17.0773 195.363 16.7087 195.979 16.438C196.604 16.1673 197.365 16.032 198.261 16.032C198.886 16.032 199.497 16.1067 200.095 16.256C200.692 16.4053 201.215 16.62 201.663 16.9L200.963 18.622C200.057 18.1087 199.152 17.852 198.247 17.852C197.612 17.852 197.141 17.9547 196.833 18.16C196.534 18.3653 196.385 18.636 196.385 18.972C196.385 19.308 196.557 19.56 196.903 19.728C197.257 19.8867 197.794 20.0453 198.513 20.204C199.259 20.3813 199.871 20.5587 200.347 20.736C200.823 20.9133 201.229 21.1933 201.565 21.576C201.91 21.9587 202.083 22.4767 202.083 23.13C202.083 23.69 201.924 24.2033 201.607 24.67C201.299 25.1273 200.832 25.4913 200.207 25.762C199.581 26.0327 198.821 26.168 197.925 26.168ZM213.792 24.18V26H206.204V16.2H213.61V18.02H208.458V20.148H213.008V21.912H208.458V24.18H213.792ZM227.086 26L227.072 20.12L224.188 24.964H223.166L220.296 20.246V26H218.168V16.2H220.044L223.712 22.29L227.324 16.2H229.186L229.214 26H227.086ZM238.352 16.2C239.22 16.2 239.972 16.3447 240.606 16.634C241.25 16.9233 241.745 17.334 242.09 17.866C242.436 18.398 242.608 19.028 242.608 19.756C242.608 20.4747 242.436 21.1047 242.09 21.646C241.745 22.178 241.25 22.5887 240.606 22.878C239.972 23.158 239.22 23.298 238.352 23.298H236.378V26H234.11V16.2H238.352ZM238.226 21.45C238.908 21.45 239.426 21.3053 239.78 21.016C240.135 20.7173 240.312 20.2973 240.312 19.756C240.312 19.2053 240.135 18.7853 239.78 18.496C239.426 18.1973 238.908 18.048 238.226 18.048H236.378V21.45H238.226ZM253.043 26L251.153 23.27H251.041H249.067V26H246.799V16.2H251.041C251.909 16.2 252.66 16.3447 253.295 16.634C253.939 16.9233 254.434 17.334 254.779 17.866C255.124 18.398 255.297 19.028 255.297 19.756C255.297 20.484 255.12 21.114 254.765 21.646C254.42 22.1687 253.925 22.57 253.281 22.85L255.479 26H253.043ZM253.001 19.756C253.001 19.2053 252.824 18.7853 252.469 18.496C252.114 18.1973 251.596 18.048 250.915 18.048H249.067V21.464H250.915C251.596 21.464 252.114 21.3147 252.469 21.016C252.824 20.7173 253.001 20.2973 253.001 19.756ZM267.253 24.18V26H259.665V16.2H267.071V18.02H261.919V20.148H266.469V21.912H261.919V24.18H267.253ZM271.195 16.2H273.799L273.365 22.598H271.629L271.195 16.2ZM272.497 26.112C272.115 26.112 271.793 25.9907 271.531 25.748C271.279 25.496 271.153 25.1927 271.153 24.838C271.153 24.4833 271.279 24.1893 271.531 23.956C271.783 23.7133 272.105 23.592 272.497 23.592C272.889 23.592 273.211 23.7133 273.463 23.956C273.715 24.1893 273.841 24.4833 273.841 24.838C273.841 25.1927 273.711 25.496 273.449 25.748C273.197 25.9907 272.88 26.112 272.497 26.112Z" fill="url(#paint1_linear)"/>
<defs>
<linearGradient id="paint0_linear" x1="0" y1="41" x2="307" y2="41" gradientUnits="userSpaceOnUse">
<stop stop-color="#FFD7A9"/>
<stop offset="1" stop-color="#FFAE70"/>
</linearGradient>
<linearGradient id="paint1_linear" x1="169.019" y1="33.0188" x2="170.575" y2="10.065" gradientUnits="userSpaceOnUse">
<stop stop-color="#CD10FF"/>
<stop offset="1" stop-color="#9F06FF"/>
</linearGradient>
</defs>
</svg>
