<svg width="574" height="510" viewBox="0 0 574 510" fill="none" xmlns="http://www.w3.org/2000/svg">
<path fill-rule="evenodd" clip-rule="evenodd" d="M273.618 501.962C141.284 540.157 -222.277 441.778 -222 216.401C-221.308 70.899 -90.6398 34.4631 44.1073 109.083C83.7581 124.998 115.063 120.065 149.051 104.252C183.04 88.4392 226.753 17.8458 309.14 3.3229C557.069 -40.3812 769.205 358.923 273.618 501.962Z" fill="#335798"/>
<path d="M124.995 294.825L124.673 295.421C123.276 298.075 124.032 290.743 127.149 287.069C129.884 283.846 132.79 280.713 135.962 277.925C138.872 275.366 142.125 273.139 145.433 271.097C149.008 268.891 152.739 266.889 156.555 265.127C160.79 263.173 165.116 261.341 169.55 259.91C175.822 257.885 182.197 256.143 188.599 254.57C190.278 254.158 190.465 253.56 190.519 252.285L190.534 251.835C190.649 247.901 190.958 243.953 191.512 240.057C192.257 234.813 194.56 230.245 198.575 226.686C202.052 223.605 205.812 220.924 210.001 218.822C217.452 215.085 225.276 212.355 233.414 210.741C241.049 209.227 248.797 208.247 256.52 207.217C258.866 206.904 261.298 207.154 263.686 207.245C265.241 207.304 265.908 206.768 266.226 205.174L266.611 203.242C267 201.31 267.412 199.382 267.942 197.488C270.399 188.711 272.334 179.868 271.649 170.672C271.213 164.82 270.863 158.954 270.146 153.134C269.648 149.098 268.734 145.111 267.928 141.113L267.69 139.913C267.51 138.988 267.105 138.957 266.426 139.506L266.332 139.585C263.909 141.657 260.572 140.691 259.69 137.563C259.159 135.68 258.897 133.579 260.393 131.981C261.113 131.213 262.318 130.506 263.331 130.467C267.362 130.308 271.42 130.2 275.438 130.493C280.846 130.886 286.234 131.609 291.616 132.299C296.652 132.945 301.684 133.648 306.689 134.491C309.564 134.976 312.38 135.807 315.23 136.449C317.69 137.004 320.154 137.56 322.639 137.981C322.96 138.036 323.678 137.343 323.774 136.902C324.404 134.013 324.941 131.104 325.536 128.208L325.995 126.039C326.144 125.359 326.108 124.13 327.476 124.47C328.696 124.774 329 125.452 328.675 126.735C327.984 129.47 327.423 132.238 326.832 134.999L326.473 136.654C326.058 138.536 326.707 139.274 329.167 139.729L329.382 139.767C330.633 139.982 331.883 140.22 333.119 140.51L334.042 140.738C334.934 140.969 335.291 140.833 335.454 139.936L335.476 139.803C335.845 137.338 336.351 134.892 336.823 132.443C337.122 130.891 337.499 129.354 337.771 127.798C337.983 126.584 336.873 125.667 334.989 125.354C333.592 125.121 332.142 125.009 330.822 124.544C326.756 123.11 322.471 122.85 318.29 122.696C308.738 122.344 302.647 122.449 293.084 122.523C289.801 122.548 286.524 123.09 283.238 123.281C281.618 123.375 277.54 122.518 278.278 121.138C278.871 120.032 283.308 119.122 284.066 118.098C285.46 116.214 287.033 114.422 288.15 112.385C289.387 110.128 290.488 107.714 291.128 105.235C292.296 100.704 293.092 96.0772 294.019 91.4854C294.589 88.6644 295.333 85.8546 295.598 83.0029C295.891 79.8526 295.838 76.6552 295.693 73.4894C295.65 72.5531 295.087 71.507 293.777 71.1605C292.004 70.6918 291.778 69.4702 291.799 66.7118C291.808 65.5913 293.355 64.377 294.765 64.2586C301.44 63.6982 290.685 64.1046 297.303 64.9402C302.562 65.6041 321.716 66.5155 326.955 67.3311C327.289 67.3831 327.6 67.5686 327.929 67.6726C329.298 68.1069 334.18 68.9367 335.305 69.2173L335.424 69.2486C338.015 69.9697 340.682 70.4177 343.296 71.0631C347.872 72.193 352.432 73.3873 356.998 74.5575C357.164 74.6 357.321 74.6751 357.484 74.7311C363.902 76.9349 370.358 79.0368 376.719 81.3932C379.167 82.3 381.524 83.6055 383.675 85.0858C384.714 85.801 385.199 87.3301 385.903 88.5094C387.632 91.4058 389.561 94.2098 391.012 97.2394C393.371 102.161 394.252 107.329 393.191 112.839L392.787 114.917C391.877 119.528 390.836 124.095 388.867 128.379C387.232 131.937 385.403 135.458 383.217 138.699C381.59 141.112 378.939 142.311 375.792 140.896C371.843 139.121 367.841 137.46 363.833 135.819C357.807 133.353 351.767 130.923 345.709 128.536C344.629 128.111 343.48 127.837 342.333 127.603L341.842 127.504C341.125 127.363 340.529 127.283 340.326 128.53C339.669 132.56 338.774 136.555 337.856 140.538C337.618 141.573 338.027 141.882 338.831 142.08C339.685 142.29 340.578 142.376 341.4 142.665L350.357 145.814C370.081 152.783 407.91 166.487 414.004 172.269C422.765 180.583 430.707 233.968 409.32 259.91C396.281 275.725 395.505 269.579 394.854 269.714C427.259 253.422 365.327 205.257 369.075 205.895C375.798 207.041 378.777 211.8 380.49 217.408C382.628 224.404 384.324 231.561 385.759 238.738C387.26 246.24 391.284 270.41 391.996 274.944C392.521 278.283 392.605 281.688 393.027 285.045C393.582 289.469 394.504 293.858 394.849 298.294C395.231 303.199 395.452 308.141 395.336 313.058L395.299 314.286C395.189 317.4 394.209 325.849 389.554 338.912C385.177 351.185 368.291 372.538 364.174 379.788C363.909 380.254 361.17 381.995 360.467 380.687C360.002 379.823 162.397 415.632 124.995 294.825Z" fill="white"/>
<path fill-rule="evenodd" clip-rule="evenodd" d="M343.798 39.923C342.211 39.3558 340.465 40.1826 339.898 41.7698C339.83 41.9577 339.782 42.1517 339.753 42.3491L336.346 65.3206L336.337 65.4216C336.324 65.8557 336.637 66.2408 337.077 66.306C337.551 66.3763 340.68 41.6638 340.68 41.6638L340.705 41.5372C340.705 41.5372 342.086 40.4005 343.29 40.6926C344.335 40.946 345.415 42.4465 345.198 43.5216C345.198 43.5216 340.772 65.4097 340.215 69.8055C340.079 69.7763 339.943 69.7471 339.807 69.7179L339.806 69.7177C338.28 69.3904 336.754 69.0632 335.254 68.6437L335.135 68.6124C334.708 68.5054 333.739 68.3188 332.627 68.1047L332.626 68.1046C330.816 67.7562 328.628 67.3349 327.783 67.0656C327.658 67.0258 327.535 66.9741 327.413 66.9224C327.215 66.839 327.018 66.7558 326.812 66.7236C325.358 66.4962 323.905 66.2613 322.451 66.0263L322.45 66.0262L322.45 66.0261L322.449 66.026L322.448 66.0259L322.448 66.0258L322.447 66.0257L322.447 66.0256L322.446 66.0256C318.682 65.4172 314.918 64.8089 311.138 64.3294C304.541 63.4926 297.911 63.0857 291.257 63.6469C289.853 63.7654 288.31 64.9814 288.301 66.1034C288.28 68.8657 288.506 70.0889 290.272 70.5583C291.578 70.9053 292.14 71.9528 292.183 72.8904C292.327 76.0606 292.38 79.2625 292.088 82.417C291.894 84.5129 291.443 86.5861 290.992 88.6577L290.991 88.6604L290.991 88.6631L290.99 88.6658L290.99 88.6684L290.989 88.671L290.989 88.6735L290.988 88.6761C290.826 89.4211 290.664 90.1658 290.514 90.9114C290.275 92.1029 290.044 93.2967 289.813 94.4906L289.812 94.4973L289.811 94.5043L289.811 94.5049C289.152 97.9136 288.493 101.323 287.632 104.68C286.995 107.162 285.897 109.58 284.664 111.84C283.861 113.311 282.823 114.654 281.785 115.996L281.785 115.996L281.784 115.996L281.784 115.997L281.783 115.998L281.783 115.998L281.783 115.999L281.782 115.999L281.782 116C281.381 116.518 280.98 117.036 280.594 117.561C280.323 117.928 280.028 118.28 279.733 118.632L279.733 118.632C279.203 119.263 278.674 119.894 278.295 120.605C277.559 121.987 278.153 122.845 279.768 122.75C281.094 122.673 282.417 122.538 283.74 122.403L283.741 122.403L283.741 122.403L283.741 122.403L283.742 122.403L283.742 122.403L283.742 122.403L283.742 122.403C285.689 122.205 287.634 122.007 289.582 121.992L291.421 121.977H291.422C300.341 121.906 309.267 121.836 318.175 122.165C322.343 122.319 326.614 122.58 330.667 124.016C331.645 124.362 332.695 124.513 333.742 124.663C334.103 124.715 334.463 124.767 334.82 124.827C336.698 125.141 337.804 126.058 337.593 127.274C337.437 128.171 337.246 129.061 337.056 129.952C336.915 130.609 336.775 131.266 336.648 131.926C336.559 132.391 336.468 132.857 336.377 133.323L336.376 133.329L336.375 133.336L336.374 133.343C335.988 135.322 335.603 137.303 335.306 139.296L335.284 139.429C335.121 140.327 334.765 140.463 333.876 140.232L332.956 140.004C331.724 139.713 330.478 139.475 329.232 139.26L329.017 139.221C326.565 138.766 325.918 138.027 326.332 136.143L326.69 134.485C326.797 133.983 326.903 133.481 327.009 132.979L327.009 132.979L327.009 132.979L327.009 132.979L327.009 132.978L327.009 132.978L327.009 132.978L327.009 132.978C327.486 130.714 327.963 128.451 328.527 126.21C328.85 124.925 328.547 124.246 327.332 123.942C326.161 123.649 326.022 124.514 325.912 125.196L325.897 125.287L325.892 125.318L325.881 125.379C325.873 125.425 325.865 125.47 325.855 125.512L325.398 127.685C325.171 128.795 324.952 129.907 324.734 131.018C324.382 132.812 324.029 134.605 323.642 136.391C323.546 136.832 322.831 137.526 322.51 137.472C320.05 137.053 317.612 136.5 315.176 135.949L315.125 135.937C314.121 135.71 313.122 135.459 312.122 135.208C310.294 134.749 308.466 134.29 306.612 133.977C301.624 133.132 296.608 132.428 291.589 131.782C291.122 131.721 290.654 131.661 290.186 131.6C285.288 130.967 280.384 130.332 275.464 129.972C271.459 129.679 267.414 129.788 263.396 129.947C262.387 129.986 261.185 130.694 260.468 131.463C258.977 133.064 259.238 135.167 259.767 137.052C260.646 140.185 263.973 141.152 266.388 139.077L266.482 138.999C267.158 138.448 267.562 138.479 267.741 139.406L267.978 140.608C268.143 141.427 268.312 142.245 268.48 143.064L268.481 143.067L268.482 143.071L268.483 143.076L268.484 143.08L268.485 143.086L268.486 143.092C269.141 146.265 269.796 149.44 270.189 152.645C270.768 157.366 271.107 162.117 271.446 166.866L271.448 166.889C271.527 167.996 271.606 169.102 271.688 170.207C272.37 179.417 270.442 188.271 267.993 197.061C267.464 198.957 267.053 200.888 266.665 202.823L266.282 204.757C265.965 206.354 265.3 206.89 263.751 206.831C263.227 206.811 262.702 206.784 262.175 206.756C260.308 206.657 258.432 206.558 256.608 206.803L255.566 206.942L254.568 207.075C247.547 208.012 240.516 208.949 233.577 210.332C225.466 211.948 217.667 214.681 210.241 218.424C206.065 220.529 202.318 223.213 198.853 226.299C194.85 229.863 192.555 234.437 191.812 239.688C191.261 243.59 190.953 247.543 190.838 251.483L190.823 251.934C190.769 253.21 190.582 253.809 188.909 254.222C182.528 255.797 176.174 257.541 169.923 259.569C165.503 261.002 161.191 262.837 156.97 264.794C153.166 266.557 149.448 268.562 145.884 270.772C142.587 272.816 139.345 275.047 136.444 277.609C133.283 280.401 130.386 283.538 127.66 286.765C126.824 287.755 126.159 289.01 125.659 290.264C121.94 290.92 118.289 292.025 114.847 293.513C103.552 298.394 94.2385 306.964 86.2979 316.337C81.9395 321.482 77.9312 326.903 73.9223 332.325C70.6272 336.782 67.3317 341.239 63.8412 345.544C56.1044 355.085 47.2143 364.01 36.258 369.605C28.6091 373.511 20.2042 375.67 11.8789 377.799C28.5535 379.593 44.9598 371.975 58.2763 361.818C65.8438 356.046 72.7001 349.442 79.5595 342.836C84.7704 337.818 89.983 332.798 95.5106 328.139C97.7312 326.268 100.479 324.339 103.299 325.05C101.835 332.611 101.552 340.493 103.394 347.971C105.237 355.449 109.324 362.509 115.484 367.16C109.827 360.37 106.065 352.029 104.726 343.306C103.925 338.091 103.999 332.637 105.834 327.688C107.669 322.739 111.434 318.349 116.414 316.554C115.375 325.202 115.042 334.037 116.817 342.566C118.593 351.094 122.623 359.349 129.216 365.07C120.007 353.553 115.975 338.076 118.402 323.551C118.797 321.182 119.387 318.77 120.802 316.826C122.217 314.883 124.629 313.497 127.004 313.906C120.17 328.705 125.305 347.998 138.602 357.478C130.362 349.304 125.562 337.64 126.256 326.076C126.481 322.334 127.333 318.465 129.731 315.577C132.129 312.689 136.388 311.094 139.808 312.658C135.005 318.813 134.735 327.338 135.796 335.063C136.73 341.866 139.531 349.637 146.161 351.518C137.728 344.598 134.917 331.713 139.707 321.931C141.432 318.409 144.644 315.019 148.572 315.241C151.354 315.398 153.722 317.36 155.39 319.584C156.174 320.629 156.851 321.748 157.528 322.867C158.292 324.129 159.055 325.39 159.971 326.544C163.892 318.019 164.17 307.216 158.32 299.869C156.238 297.255 153.5 295.208 150.545 293.636C146.647 291.562 142.403 290.333 138.042 289.834C138.119 289.776 138.197 289.718 138.275 289.66C138.405 289.562 138.536 289.465 138.667 289.368C145.296 284.458 152.608 280.687 159.976 277.071C164.3 274.949 168.85 273.257 173.382 271.598C177.443 270.112 181.581 268.801 185.751 267.652C193.228 265.592 200.869 264.436 208.606 263.862C210.241 263.741 211.87 263.55 213.499 263.36C215.24 263.156 216.98 262.952 218.727 262.833C221.096 262.671 223.47 262.563 225.844 262.456L225.845 262.456C229.497 262.29 233.148 262.124 236.781 261.763C240.834 261.36 244.862 260.686 248.888 260.012C250.27 259.781 251.652 259.55 253.035 259.33C256.084 258.844 259.123 258.287 262.246 257.713L262.246 257.713L263.234 257.532C263.607 257.469 263.964 257.427 264.309 257.387C264.796 257.33 265.259 257.276 265.71 257.169C266.88 256.893 268.051 256.618 269.221 256.342L269.222 256.342L269.223 256.342L269.223 256.342L269.224 256.342L269.224 256.342L269.225 256.342L269.225 256.341C273.875 255.249 278.526 254.156 283.153 252.975C288.408 251.633 293.638 250.189 298.847 248.678C300.944 248.069 303.026 247.405 305.108 246.741C307.613 245.942 310.117 245.144 312.649 244.441C317.43 243.114 321.499 240.508 325.518 237.769C325.795 237.58 326.091 237.026 326.001 236.777C325.853 236.364 325.434 235.824 325.064 235.767C324.483 235.677 323.695 235.751 323.259 236.093C318.491 239.83 312.935 241.968 307.25 243.646C297.578 246.502 287.852 249.211 278.061 251.624C271.909 253.14 265.683 254.354 259.459 255.569L259.456 255.57C257.738 255.905 256.021 256.24 254.305 256.581C251.267 257.186 248.194 257.626 245.126 258.066L244.687 258.129C243.667 258.275 242.648 258.429 241.629 258.582C238.339 259.078 235.047 259.574 231.738 259.825C228.473 260.073 225.2 260.219 221.928 260.364H221.927C217.853 260.546 213.779 260.727 209.723 261.106C201.393 261.883 193.032 262.797 184.976 265.191C178.542 267.104 172.097 269.105 165.906 271.667C160.805 273.779 155.889 276.348 150.98 278.914L150.98 278.914L150.98 278.914L150.98 278.915L150.979 278.915L150.979 278.915L150.979 278.915L150.978 278.915L150.978 278.915L150.978 278.915C149.953 279.451 148.927 279.987 147.901 280.519C143.012 283.05 138.37 286.009 134.174 289.581C132.319 289.548 130.456 289.638 128.6 289.843C130.31 287.596 132.219 285.501 134.163 283.443L135.088 282.469C140.749 276.526 147.693 272.388 154.919 268.735L156.236 268.076C158.731 266.838 161.323 265.797 163.916 264.757C165.2 264.241 166.485 263.726 167.758 263.186L168.681 262.802C175.773 259.906 183.177 258.129 190.648 256.482C199.669 254.493 208.779 253.112 217.906 251.828L223.776 251.011C226.601 250.62 229.436 250.302 232.271 249.984C239.117 249.216 245.963 248.449 252.655 246.649C255.433 245.903 258.216 245.175 260.999 244.447L261 244.447L261.002 244.447L261.003 244.446L261.005 244.446L261.007 244.445L261.008 244.445L261.01 244.444L261.013 244.444L261.016 244.443L261.019 244.442L261.022 244.441L261.029 244.439C264.416 243.554 267.802 242.669 271.18 241.748C274.443 240.859 277.703 239.925 280.894 238.809C283.403 237.932 285.873 236.943 288.344 235.954C289.403 235.53 290.462 235.106 291.525 234.69C293.348 233.977 295.18 233.282 297.012 232.587L297.013 232.587L297.014 232.586C301.142 231.02 305.27 229.453 309.309 227.682C314.565 225.378 319.757 222.928 324.949 220.478L324.954 220.475C327.632 219.212 330.31 217.948 332.996 216.705C334.629 215.949 336.288 215.226 337.99 214.652C341.53 213.458 345.084 212.304 348.637 211.15C350.203 210.641 351.768 210.133 353.332 209.621L354.282 209.311C357.611 208.235 360.98 207.26 364.51 207.398C368.146 207.54 371.712 207.96 374.305 211.182C376.466 213.868 377.596 216.972 378.511 220.149L378.755 221.017C379.901 225.158 380.785 229.377 381.643 233.591L382.574 238.168C383.658 243.509 384.717 248.856 385.604 254.23C386.012 256.698 386.249 259.195 386.487 261.691L386.487 261.692L386.487 261.693L386.487 261.693L386.487 261.694L386.487 261.695L386.487 261.696L386.487 261.696C386.697 263.898 386.906 266.1 387.232 268.284C387.45 269.739 387.858 271.165 388.267 272.591L388.267 272.591L388.267 272.592L388.267 272.592L388.267 272.592L388.268 272.593L388.268 272.593L388.268 272.593C388.621 273.825 388.974 275.057 389.205 276.311C389.461 277.705 389.558 279.126 389.656 280.549C389.722 281.509 389.788 282.469 389.902 283.421C390.104 285.1 390.337 286.775 390.571 288.45L390.571 288.451C390.939 291.09 391.306 293.727 391.55 296.377L391.619 297.116C392.148 302.832 392.672 308.497 391.871 314.342C391.293 318.562 390.35 322.666 389.405 326.772L389.405 326.776C389.071 328.227 388.737 329.679 388.419 331.136C388.373 331.348 388.225 331.537 388.076 331.727C388.049 331.761 388.022 331.796 387.996 331.83C387.955 331.884 387.915 331.938 387.88 331.993C387.876 331.94 387.87 331.887 387.863 331.834C387.856 331.769 387.847 331.704 387.837 331.639C387.802 331.384 387.766 331.129 387.807 330.887C388.859 324.696 388.016 318.605 386.302 312.702C385.318 309.318 384.019 306.026 382.719 302.734L382.719 302.733L382.719 302.733L382.719 302.733L382.719 302.733L382.719 302.732L382.719 302.732L382.718 302.732L382.718 302.731C382.116 301.205 381.514 299.679 380.943 298.144C380.388 296.653 379.83 295.164 379.271 293.675L379.27 293.672L379.269 293.668L379.267 293.665L379.266 293.662L379.265 293.659C377.737 289.587 376.21 285.515 374.77 281.412C372.733 275.606 371.77 269.59 372.017 263.432L372.024 263.265C372.139 260.182 372.172 253.057 371.537 253.07C371.057 253.079 370.249 253.777 370.178 254.256C369.826 256.629 369.586 259.028 369.463 261.425C369.133 267.821 369.781 274.066 371.718 280.244L371.943 280.961C373.975 287.449 376.004 293.924 378.949 300.197C379.01 300.359 379.069 300.518 379.126 300.674L379.935 302.885C380.306 303.889 380.691 304.887 381.075 305.884L381.076 305.886L381.076 305.887L381.077 305.888L381.077 305.89L381.077 305.891L381.078 305.892L381.078 305.893C382.641 309.949 384.2 313.997 384.818 318.391C385.585 323.843 386.087 329.205 384.658 334.62C384.478 335.305 384.565 336.06 384.652 336.816V336.816C384.696 337.192 384.739 337.569 384.75 337.938L384.758 338.119L384.763 338.189L384.768 338.276C384.794 338.656 384.82 339.045 384.686 339.36C383.336 342.534 364.076 372.595 360.825 377.104L360.523 377.517C360.171 378.016 359.974 378.441 359.89 378.822C354.113 381.63 347.82 383.243 341.584 384.834C354.642 386.235 367.489 380.284 377.917 372.347C383.842 367.837 389.211 362.678 394.582 357.517L394.583 357.517C398.663 353.596 402.745 349.674 407.073 346.033C408.812 344.571 410.964 343.064 413.172 343.62C412.026 349.527 411.804 355.686 413.247 361.529C414.69 367.372 417.89 372.888 422.714 376.522C418.284 371.216 415.338 364.699 414.289 357.884C413.662 353.809 413.72 349.547 415.157 345.681C416.594 341.814 419.542 338.384 423.442 336.982C422.629 343.739 422.368 350.641 423.758 357.305C425.148 363.969 428.304 370.419 433.467 374.888C426.255 365.89 423.099 353.797 424.999 342.448C425.308 340.598 425.77 338.713 426.878 337.194C427.986 335.676 429.875 334.593 431.735 334.913C426.383 346.475 430.405 361.549 440.817 368.957C434.364 362.57 430.606 353.457 431.149 344.421C431.325 341.498 431.992 338.475 433.87 336.218C435.748 333.961 439.083 332.716 441.761 333.937C438 338.746 437.788 345.408 438.619 351.443C439.351 356.758 441.545 362.83 446.736 364.3C440.132 358.893 437.931 348.826 441.682 341.183C443.033 338.431 445.548 335.782 448.624 335.956C450.802 336.079 452.657 337.611 453.963 339.349C454.577 340.165 455.107 341.04 455.637 341.914C456.235 342.9 456.833 343.885 457.55 344.787C460.62 338.126 460.838 329.685 456.257 323.946C454.627 321.903 452.483 320.303 450.169 319.075C441.664 314.562 431.06 315.165 422.215 318.979C413.37 322.793 406.077 329.488 399.859 336.812C396.447 340.831 393.308 345.067 390.17 349.303L390.169 349.303L390.169 349.303L390.169 349.304L390.168 349.304L390.168 349.305L390.167 349.306L390.167 349.306L390.167 349.306C387.587 352.788 385.007 356.27 382.274 359.632C377.848 365.078 372.94 370.267 367.271 374.373C368.374 372.751 369.634 370.937 370.983 368.993L370.984 368.992L370.984 368.992C377.553 359.534 386.248 347.016 389.206 338.68C393.846 325.599 394.823 317.138 394.933 314.02L394.969 312.79C395.086 307.867 394.865 302.918 394.484 298.006C394.274 295.294 393.85 292.599 393.425 289.903L393.425 289.902C393.154 288.183 392.883 286.464 392.668 284.739C392.486 283.282 392.367 281.816 392.248 280.35C392.092 278.434 391.937 276.518 391.641 274.624C391.26 272.186 390.774 269.765 390.288 267.344C389.869 265.256 389.449 263.167 389.097 261.068C388.617 258.205 388.189 255.332 387.76 252.46L387.76 252.459L387.76 252.458L387.76 252.457L387.759 252.456L387.759 252.455L387.759 252.454L387.759 252.453L387.759 252.452C387.056 247.742 386.353 243.032 385.424 238.367C383.993 231.18 382.303 224.014 380.172 217.008C378.465 211.392 375.496 206.627 368.795 205.48C365.059 204.84 361.428 204.782 357.834 205.685C348.851 207.94 340.02 210.782 331.551 214.496C327.133 216.434 322.758 218.47 318.382 220.506C309.532 224.625 300.682 228.744 291.472 232.048C289.764 232.661 288.073 233.321 286.381 233.981L286.381 233.982L286.381 233.982L286.38 233.982L286.38 233.982L286.38 233.982L286.379 233.982L286.379 233.982C284.796 234.6 283.214 235.218 281.617 235.797C280.678 236.138 279.559 236.501 278.644 236.3C277.003 235.941 275.38 235.5 273.756 235.06L273.756 235.06L273.755 235.06L273.755 235.06L273.755 235.06L273.754 235.06L273.754 235.059L273.753 235.059C271.85 234.543 269.947 234.027 268.018 233.642C265.655 233.169 263.25 232.901 260.847 232.634C259.938 232.532 259.028 232.431 258.122 232.319C257.81 232.28 257.489 232.307 257.169 232.334L257.168 232.334C257.02 232.347 256.872 232.359 256.725 232.365C256.781 232.204 256.825 232.032 256.868 231.861C256.962 231.492 257.057 231.123 257.273 230.852C260.568 226.718 262.772 221.976 264.872 217.203L265.418 215.958C266.347 213.833 267.008 211.591 267.669 209.349L267.67 209.346L267.671 209.343L267.674 209.334L267.677 209.323L267.677 209.322C267.926 208.477 268.175 207.632 268.439 206.794C268.855 205.47 269.22 204.127 269.537 202.776C269.817 201.583 270.092 200.389 270.365 199.195L271.996 192.028C272.202 191.133 272.437 190.241 272.671 189.349C273.166 187.469 273.661 185.589 273.884 183.677C274.745 176.283 274.661 168.842 273.944 161.447C273.193 153.705 272.39 145.936 270.198 138.435L270.156 138.281C269.837 137.039 270.383 136.887 271.249 136.793L271.688 136.747C275.098 136.193 293.119 135.224 347.85 150.044C390.364 162.361 403.339 168.243 409.713 174.834C424.161 193.373 426.788 253.072 394.49 269.387C394.584 269.367 394.68 269.48 394.816 269.638C395.619 270.574 397.796 273.11 408.908 259.569C430.225 233.591 422.309 180.132 413.576 171.807C407.502 166.016 369.797 152.294 350.137 145.315L341.211 142.162C340.7 141.982 340.162 141.88 339.623 141.778C339.297 141.717 338.971 141.655 338.65 141.576C337.848 141.378 337.44 141.068 337.678 140.032C338.593 136.044 339.485 132.043 340.139 128.007C340.342 126.758 340.936 126.839 341.651 126.98L342.14 127.078C343.283 127.313 344.429 127.588 345.505 128.014C351.543 130.404 357.564 132.837 363.569 135.307C367.564 136.95 371.553 138.613 375.49 140.39C378.627 141.807 381.268 140.607 382.89 138.19C385.069 134.944 386.892 131.419 388.522 127.856C390.484 123.566 391.522 118.993 392.429 114.375L392.832 112.295C393.889 106.777 393.011 101.602 390.66 96.6733C389.638 94.5304 388.379 92.5003 387.12 90.4706C386.597 89.6267 386.073 88.7829 385.567 87.9312C385.363 87.5877 385.177 87.2147 384.991 86.8407L384.991 86.8403C384.538 85.9284 384.081 85.0107 383.347 84.5029C381.203 83.0205 378.854 81.7132 376.414 80.8051C371.888 79.1207 367.313 77.566 362.739 76.0114L362.738 76.0112C360.905 75.3882 359.072 74.7652 357.242 74.1338C357.181 74.113 357.122 74.0895 357.062 74.066C356.961 74.0263 356.861 73.9867 356.757 73.96C355.516 73.6406 354.276 73.3194 353.036 72.9982L353.034 72.9976C349.725 72.1406 346.417 71.2836 343.1 70.4608C342.459 70.3019 341.815 70.1549 341.17 70.0129C341.184 69.9733 341.196 69.9321 341.204 69.8897L346.337 44.4147L346.37 44.2289C346.653 42.3727 345.583 40.5607 343.798 39.923ZM125 295.454C124.786 295.762 124.643 295.762 124.572 295.536C114.753 297.474 105.771 302.83 98.2871 309.484C90.0737 316.787 83.4441 325.636 76.8669 334.414L76.8666 334.415L76.8051 334.497C70.2076 343.303 63.535 352.168 55.2546 359.447C55.5525 360.152 56.628 359.793 57.2387 359.326C64.2903 353.937 70.5694 347.672 76.8525 341.404C81.0513 337.215 85.2519 333.024 89.686 329.091C100.755 319.274 114.038 310.814 128.863 309.785C133.463 309.466 138.083 309.874 142.656 310.456C145.414 310.807 148.197 311.231 150.764 312.288C154.733 313.922 158.035 317.088 159.811 320.963C160.85 318.269 161.438 315.32 160.873 312.491C160.382 310.026 159.045 307.798 157.452 305.843C151.704 298.789 142.547 295.102 133.338 294.8C133.232 295.001 133.133 295.209 133.04 295.422C132.894 295.759 132.455 295.968 132.016 296.177C131.813 296.274 131.611 296.37 131.437 296.479C131.365 296.205 131.253 295.913 131.14 295.622L131.14 295.621C131.032 295.342 130.924 295.064 130.852 294.8C129.752 294.837 128.656 294.922 127.568 295.056C126.706 295.162 125.85 295.295 125 295.454ZM262.831 138.762C264.568 139.394 265.955 137.466 266.587 135.73C267.219 133.994 266.075 131.864 264.339 131.232C262.602 130.601 261.081 131.912 260.449 133.649C259.817 135.385 261.095 138.13 262.831 138.762ZM282.387 119.422C282.243 119.581 282.145 119.781 282.046 119.982L282.018 120.039C282.003 120.07 281.988 120.1 281.973 120.13C281.952 120.172 281.93 120.214 281.907 120.254C282 120.258 282.094 120.266 282.187 120.274C282.392 120.291 282.597 120.308 282.797 120.283C283.119 120.242 283.439 120.185 283.758 120.128C284.226 120.045 284.693 119.962 285.164 119.929C294.89 119.257 304.613 118.979 314.366 119.461C320.514 119.764 326.604 120.414 332.553 121.877C338.143 123.252 343.654 124.99 349.125 126.795C352.16 127.797 355.117 129.042 358.069 130.285C358.664 130.536 359.259 130.786 359.854 131.035C363.048 132.368 366.209 133.782 369.356 135.224C370.685 135.834 371.977 136.524 373.269 137.214L373.275 137.218L373.277 137.218L373.376 137.271C373.645 137.415 373.913 137.558 374.182 137.701C376.719 139.045 379.615 138.628 380.993 136.374C382.727 133.538 384.344 130.604 385.709 127.575C388.104 122.263 389.429 116.613 390.364 110.875C390.844 107.934 390.869 104.958 389.756 102.184C388.443 98.9136 386.918 95.7162 385.28 92.5946C384.465 91.0425 383.413 89.4521 382.066 88.3881C380.89 87.4588 379.37 86.9108 377.888 86.4077L377.208 86.1775C369.167 83.4419 361.113 80.7428 353.038 78.1092C350.129 77.1607 347.176 76.315 344.195 75.63C339.572 74.5673 334.921 73.6144 330.257 72.7424C326.01 71.9482 321.745 71.2159 317.462 70.6519C312.212 69.9605 306.94 69.4244 301.667 68.9197C299.796 68.7406 297.907 68.7321 296.022 68.7236C295.731 68.7222 295.44 68.7209 295.15 68.719L295.029 68.7143C294.975 68.711 294.919 68.7063 294.861 68.7014C294.319 68.6561 293.642 68.5994 293.939 69.5619L293.983 69.6904C295.764 74.5901 295.25 79.6229 294.588 84.5817C294.221 87.3274 293.64 90.0434 293.059 92.7605L293.059 92.7608L293.059 92.7625L293.058 92.7641L293.058 92.7658L293.058 92.7675L293.057 92.7692L293.057 92.7707C292.779 94.0714 292.501 95.3723 292.246 96.6768L292.017 97.8879C291.078 103.048 289.547 108.014 287.295 112.74C286.899 113.569 286.388 114.343 285.836 115.177C285.461 115.745 285.067 116.341 284.679 117.002L283.142 118.607C282.888 118.876 282.636 119.147 282.387 119.422ZM264.281 211.178C264.872 209.672 264.444 209.04 262.831 209.05C262.396 209.053 261.96 209.053 261.524 209.054C259.628 209.054 257.727 209.055 255.857 209.283C253.766 209.538 251.687 209.887 249.608 210.237L249.608 210.237L249.608 210.237L249.608 210.237L249.607 210.237L249.607 210.237L249.607 210.237L249.607 210.237C247.853 210.532 246.098 210.826 244.337 211.064C236.222 212.161 228.266 213.878 220.61 216.836L219.449 217.29C212.308 220.115 205.516 223.459 199.942 229.058C196.894 232.12 195.2 235.761 194.433 239.719C193.954 242.189 193.838 244.726 193.722 247.266V247.267V247.267C193.648 248.888 193.574 250.51 193.405 252.118C193.276 253.348 193.755 253.248 194.363 253.121C194.422 253.109 194.481 253.097 194.541 253.086L194.618 253.072C196.637 252.722 198.655 252.366 200.672 252.009C204.852 251.271 209.031 250.532 213.221 249.86C216.028 249.41 218.85 249.058 221.675 248.721L225.064 248.319C225.098 248.314 225.131 248.311 225.163 248.307L225.232 248.301L225.271 248.297L225.271 248.297L225.272 248.297C225.764 248.249 226.06 248.22 225.765 247.564L225.715 247.457C223.971 243.92 224.468 240.248 225.453 236.691C226.326 233.537 227.533 230.46 228.804 227.437C229.851 224.949 231.291 222.54 233.727 221.231C237.133 219.4 240.639 217.691 244.251 216.323C249.132 214.476 254.326 213.974 259.486 213.476L259.901 213.436L260.308 213.396C260.742 213.354 261.216 213.711 261.689 214.067C261.908 214.233 262.127 214.398 262.343 214.524C262.184 214.65 262.029 214.781 261.873 214.912L261.873 214.912C261.494 215.231 261.116 215.55 260.696 215.799C260.51 215.909 260.259 215.904 260.004 215.898C259.868 215.895 259.731 215.892 259.602 215.906L258.29 216.061C251.299 216.909 244.413 218.189 238.108 221.579C236.555 222.413 234.873 223.392 233.859 224.757C232.188 227.006 230.889 229.565 229.677 232.108C229.24 233.024 228.99 234.026 228.739 235.031L228.739 235.031L228.739 235.031L228.739 235.031L228.739 235.032L228.739 235.032L228.739 235.032C228.606 235.564 228.473 236.097 228.312 236.619L228.165 237.067C227.268 239.63 227.129 242.239 227.546 244.881C227.879 246.993 229.116 248.056 230.681 247.79C231.951 247.574 233.222 247.367 234.494 247.161L234.495 247.161L234.496 247.161L234.498 247.161L234.499 247.16L234.501 247.16L234.503 247.16L234.504 247.16L234.506 247.159C236.228 246.88 237.949 246.601 239.667 246.298C240.973 246.066 242.282 245.844 243.591 245.622L243.592 245.622L243.593 245.621L243.594 245.621L243.595 245.621L243.596 245.621L243.597 245.621L243.598 245.621L243.598 245.621C247.289 244.994 250.981 244.367 254.627 243.541C259.444 242.451 264.227 241.21 269.009 239.969C270.867 239.487 272.724 239.005 274.583 238.532C274.744 238.491 274.89 238.392 275.035 238.293C275.103 238.247 275.171 238.2 275.241 238.16C275.191 238.092 275.144 238.01 275.098 237.928C274.997 237.75 274.896 237.573 274.756 237.531C274.052 237.325 273.332 237.176 272.612 237.028L272.604 237.026L272.402 236.984L272.196 236.941C271.406 236.775 270.619 236.595 269.831 236.414L269.83 236.414L269.829 236.413L269.827 236.413L269.826 236.413L269.825 236.413L269.824 236.412L269.823 236.412L269.823 236.412C268.002 235.995 266.182 235.577 264.338 235.343C259.998 234.79 255.632 234.396 251.265 234.096L249.565 233.983C243.899 233.627 238.244 233.53 232.729 235.503L232.123 235.737C231.411 235.997 230.533 236.18 230.207 235.129C229.854 233.994 230.944 233.436 231.878 233.026C232.064 232.945 232.262 232.89 232.461 232.838L232.66 232.787C238.502 231.247 244.401 230.902 250.379 231.677L251.043 231.768C252.279 231.945 253.561 231.859 254.36 230.485C255.347 228.785 256.35 227.095 257.37 225.375L257.372 225.371L257.375 225.366L257.376 225.365C258.567 223.357 259.781 221.309 261.022 219.163C261.343 218.378 261.667 217.594 261.991 216.811C262.766 214.938 263.54 213.065 264.281 211.178ZM343.44 72.4211C340.162 71.6537 336.869 70.9505 333.574 70.261L331.102 69.7457C330.321 69.5832 329.54 69.4173 328.76 69.2513C325.865 68.6359 322.969 68.0201 320.048 67.5802C315.656 66.9187 311.235 66.3712 306.806 66.0584C303.646 65.8352 300.472 65.8051 297.299 65.775C296.178 65.7644 295.057 65.7537 293.936 65.7346C293.752 65.7314 293.565 65.8512 293.379 65.9709C293.292 66.0266 293.205 66.0823 293.119 66.1257C293.208 66.1724 293.298 66.2309 293.387 66.2894C293.58 66.4159 293.772 66.5425 293.97 66.5495C294.682 66.575 295.395 66.5744 296.109 66.5738C297.252 66.5727 298.394 66.5717 299.527 66.6781C304.744 67.1684 309.956 67.7202 315.159 68.3398C318.525 68.7407 321.886 69.2214 325.223 69.8149C327.761 70.2663 330.288 70.7823 332.813 71.312L336.598 72.1107C339.97 72.8201 343.344 73.5309 346.694 74.3337C349.337 74.9669 351.96 75.6933 354.567 76.4629C358.763 77.7016 362.956 78.9527 367.115 80.3085C369.005 80.9247 370.87 81.6173 372.735 82.31L372.737 82.3106C373.787 82.7007 374.838 83.0908 375.893 83.4673C376.032 83.517 376.201 83.4827 376.37 83.4484C376.449 83.4325 376.528 83.4165 376.603 83.409C376.559 83.3506 376.518 83.2828 376.478 83.2151C376.391 83.0694 376.304 82.9237 376.178 82.8703C375.551 82.6045 374.926 82.3323 374.301 82.06L374.301 82.0598C372.499 81.2745 370.696 80.4888 368.841 79.8583C367.447 79.3848 366.016 79.0258 364.583 78.6666C363.486 78.3915 362.389 78.1163 361.308 77.7895C358.951 77.0769 356.614 76.2999 354.146 75.4792L354.145 75.4791C353.275 75.1897 352.388 74.8949 351.478 74.5955C350.65 74.3694 349.823 74.1356 348.997 73.9019C347.151 73.3799 345.305 72.8579 343.44 72.4211ZM356.574 257.113L356.572 257.118C355.616 259.028 354.649 260.959 353.668 262.937C353.49 263.292 353.313 263.617 353.144 263.927C352.892 264.391 352.657 264.823 352.463 265.273C351.69 267.063 350.927 268.857 350.164 270.652C349.26 272.779 348.357 274.906 347.435 277.026C346.192 279.886 344.923 282.736 343.596 285.558C341.621 289.758 339.609 293.94 337.568 298.108C335.828 301.662 334.048 305.198 332.244 308.721C330.248 312.618 328.235 316.508 326.174 320.372C323.609 325.181 321.034 329.987 318.376 334.745C316.595 337.936 314.761 341.097 312.928 344.259L312.916 344.279C312.089 345.704 311.263 347.128 310.441 348.556C309.713 349.822 308.987 351.09 308.261 352.358C306.672 355.134 305.082 357.91 303.463 360.668C303.106 361.276 302.751 361.887 302.397 362.497C300.908 365.06 299.417 367.626 297.725 370.049C296.659 371.575 295.432 372.988 294.204 374.401L294.203 374.402C293.415 375.31 292.625 376.219 291.878 377.158C291.556 377.563 291.427 378.718 291.599 378.812C291.674 378.853 291.751 378.899 291.828 378.945C292.355 379.261 292.942 379.611 293.635 378.773C294.335 377.927 295.108 377.134 295.879 376.343L295.879 376.342L295.88 376.342C297 375.192 298.118 374.045 299.008 372.739C301.191 369.54 303.157 366.191 305.121 362.845C305.533 362.144 305.944 361.444 306.358 360.744C307.655 358.55 308.92 356.336 310.185 354.123L310.186 354.121L310.187 354.119L310.189 354.117L310.19 354.115L310.191 354.113L310.192 354.111C311.237 352.283 312.282 350.455 313.345 348.637C314.181 347.207 315.042 345.792 315.902 344.376L315.903 344.375L315.904 344.373L315.905 344.372L315.906 344.37L315.907 344.369L315.908 344.367C316.783 342.927 317.658 341.487 318.508 340.033C320.368 336.848 322.206 333.649 323.974 330.413C324.695 329.095 325.368 327.752 326.042 326.409L326.042 326.408L326.043 326.406L326.043 326.405L326.044 326.404L326.045 326.403L326.045 326.402L326.047 326.398C326.627 325.243 327.206 324.089 327.815 322.95C328.579 321.52 329.366 320.103 330.153 318.686L330.154 318.685L330.154 318.684L330.154 318.684L330.155 318.684L330.155 318.683L330.155 318.683C331.191 316.817 332.228 314.952 333.211 313.058C334.061 311.423 334.853 309.759 335.646 308.094L335.647 308.093L335.647 308.091L335.648 308.09L335.649 308.089L335.649 308.087L335.65 308.086C336.304 306.713 336.958 305.34 337.644 303.984C338.479 302.332 339.34 300.693 340.202 299.054C341.405 296.765 342.608 294.477 343.739 292.154C345.467 288.605 347.071 284.993 348.674 281.384C348.855 280.979 349.035 280.573 349.215 280.168C349.999 278.406 350.757 276.632 351.516 274.859C352.299 273.03 353.081 271.2 353.891 269.383C355.633 265.476 357.394 261.575 359.242 257.716C360.222 255.67 361.252 253.649 362.283 251.627L362.283 251.626L362.283 251.625L362.284 251.625L362.284 251.624L362.284 251.623L362.285 251.622C363.025 250.169 363.766 248.717 364.488 247.255C365.331 245.546 366.157 243.828 366.983 242.109C368.522 238.906 370.061 235.702 371.717 232.56C372.066 231.899 372.398 231.224 372.73 230.549L372.73 230.549C373.968 228.035 375.211 225.508 377.373 223.55C377.804 223.159 377.89 222.234 377.862 221.567C377.852 221.312 377.039 220.85 376.657 220.909C376.145 220.988 375.541 221.376 375.249 221.814C374.363 223.139 373.514 224.49 372.665 225.841L372.665 225.841L372.665 225.841L372.665 225.842L372.665 225.842L372.665 225.842L372.664 225.843C372.084 226.766 371.504 227.69 370.912 228.605C367.346 234.117 364.607 240.045 361.995 246.045C361.253 247.749 360.42 249.414 359.588 251.079C359.408 251.44 359.227 251.8 359.048 252.161C358.229 253.809 357.406 255.453 356.574 257.113ZM344.025 241.971C343.24 245.717 342.434 249.359 341.556 252.985C341.22 254.369 340.802 255.734 340.383 257.098C340.294 257.39 340.204 257.681 340.116 257.973C339.961 258.482 339.808 258.991 339.655 259.501L339.65 259.518C339.11 261.318 338.57 263.118 337.955 264.892C334.895 273.717 331.799 282.529 328.702 291.34C328.099 293.053 327.473 294.758 326.847 296.463L326.845 296.469C326.557 297.252 326.27 298.035 325.984 298.819C325.502 300.145 325.034 301.478 324.567 302.811C323.505 305.839 322.443 308.867 321.201 311.819C319.772 315.216 318.16 318.536 316.547 321.856C315.982 323.02 315.416 324.185 314.859 325.352C313.457 328.287 312.026 331.209 310.572 334.119C309.709 335.845 308.834 337.565 307.96 339.286L307.957 339.291C306.642 341.878 305.328 344.465 304.052 347.071C303.448 348.307 302.894 349.568 302.341 350.829L302.34 350.83L302.34 350.831L302.339 350.832L302.339 350.833L302.338 350.835C301.684 352.325 301.03 353.814 300.292 355.262C298.887 358.019 297.345 360.709 295.804 363.396L295.768 363.46L295.315 364.249C293.677 367.11 292.015 369.959 290.275 372.758C289.464 374.062 288.494 375.277 287.494 376.446C287.261 376.719 286.881 376.866 286.501 377.014C286.327 377.081 286.153 377.148 285.993 377.228C285.962 377.032 285.903 376.824 285.844 376.615C285.716 376.161 285.587 375.707 285.742 375.391C286.645 373.543 287.703 371.768 288.762 370.001C289.415 368.911 290.089 367.833 290.764 366.755L290.764 366.755L290.764 366.755L290.765 366.754L290.765 366.754L290.766 366.752C291.921 364.906 293.075 363.06 294.123 361.155C296.316 357.171 298.357 353.101 300.38 349.026C301.046 347.685 301.656 346.317 302.266 344.948L302.266 344.947C302.833 343.675 303.4 342.403 304.012 341.153C304.938 339.261 305.902 337.389 306.867 335.516L306.868 335.515L306.869 335.513L306.87 335.511L306.871 335.509L306.873 335.505L306.874 335.503L306.876 335.5C307.617 334.061 308.358 332.623 309.082 331.176C309.344 330.65 309.609 330.125 309.873 329.6C311.096 327.167 312.321 324.733 313.413 322.242C316.049 316.232 318.602 310.184 321.109 304.119C321.713 302.658 322.239 301.166 322.765 299.673L322.765 299.672L322.765 299.672L322.765 299.672L322.765 299.671L322.765 299.671C323.166 298.535 323.566 297.399 324 296.276C324.355 295.361 324.755 294.463 325.154 293.564L325.155 293.564C325.56 292.654 325.965 291.743 326.323 290.814C327.387 288.055 328.397 285.273 329.358 282.475C329.644 281.64 329.878 280.788 330.112 279.935C330.326 279.154 330.541 278.372 330.795 277.605C331.128 276.603 331.496 275.614 331.865 274.625L331.865 274.624L331.866 274.623L331.866 274.622L331.866 274.621L331.867 274.62L331.867 274.618C332.204 273.714 332.541 272.809 332.851 271.895C333.069 271.249 333.289 270.603 333.509 269.957C334.53 266.961 335.55 263.965 336.458 260.935C337.67 256.893 338.882 252.836 339.788 248.719C340.419 245.85 340.943 242.958 341.466 240.065L341.467 240.064L341.467 240.063L341.467 240.063L341.467 240.062L341.467 240.061L341.468 240.059C341.95 237.395 342.433 234.731 342.999 232.084C343.849 228.116 344.475 224.191 343.832 220.121C343.784 219.816 344.208 219.436 344.632 219.056C344.829 218.88 345.026 218.704 345.175 218.535C345.317 218.722 345.487 218.904 345.657 219.086C346.025 219.48 346.393 219.874 346.475 220.321C347.076 223.606 346.809 226.904 346.21 230.169C345.939 231.649 345.659 233.127 345.379 234.611C344.919 237.04 344.457 239.483 344.025 241.971ZM457.975 333.417C458.415 335.629 457.957 337.935 457.148 340.042C455.764 337.012 453.193 334.536 450.102 333.259C448.102 332.432 445.935 332.101 443.787 331.827C440.225 331.371 436.626 331.052 433.043 331.302C421.497 332.107 411.151 338.721 402.53 346.398C399.076 349.473 395.804 352.75 392.534 356.025C387.64 360.926 382.749 365.825 377.257 370.039C376.782 370.404 375.944 370.685 375.712 370.134C382.161 364.441 387.358 357.51 392.497 350.624L392.545 350.56C397.668 343.695 402.832 336.777 409.229 331.067C415.646 325.339 423.476 320.841 432.035 319.785C440.594 318.728 449.894 321.547 455.311 328.219C456.551 329.748 457.592 331.49 457.975 333.417ZM260.429 346.468C259.804 356.864 264.129 367.349 271.556 374.697C259.572 366.175 254.943 348.831 261.103 335.528C258.963 335.16 256.789 336.406 255.513 338.153C254.238 339.9 253.706 342.069 253.35 344.198C251.163 357.255 254.797 371.168 263.097 381.521C257.155 376.379 253.522 368.958 251.922 361.291C250.322 353.625 250.622 345.683 251.558 337.908C247.07 339.522 243.677 343.468 242.023 347.917C240.369 352.366 240.303 357.269 241.024 361.957C242.231 369.799 245.622 377.297 250.721 383.401C245.168 379.22 241.485 372.873 239.824 366.151C238.163 359.428 238.419 352.342 239.739 345.546C237.197 344.906 234.72 346.64 232.719 348.323C227.737 352.511 223.04 357.023 218.344 361.534L218.343 361.535C212.209 367.427 206.079 373.316 199.322 378.475C200.314 378.304 201.315 378.289 202.298 378.539C203.292 378.791 204.13 379.292 204.951 379.783L205.074 379.857C219.14 388.256 237.381 392.673 255.382 392.039C260.174 391.87 265.035 391.336 269.341 389.759C270.434 389.358 272.232 389.128 272.443 390.022C272.475 390.158 272.294 390.315 271.929 390.488C282.526 388.318 292.725 385.067 302.128 380.826C304.447 379.78 307.141 378.63 309.707 379.282C310.701 379.535 311.538 380.036 312.36 380.527L312.483 380.601C324.932 388.034 340.651 392.348 356.58 392.802C356.623 392.792 356.669 392.786 356.717 392.784C363.167 392.515 369.585 391.848 375.889 390.801C376.178 390.706 376.465 390.607 376.749 390.502C377.482 390.234 378.532 390.042 379.208 390.214C390.66 388.056 401.688 384.641 411.795 380.082C414.114 379.036 416.809 377.887 419.374 378.539C420.369 378.791 421.206 379.292 422.027 379.783L422.151 379.857C436.216 388.256 454.457 392.673 472.458 392.039C477.25 391.87 482.111 391.336 486.417 389.759C487.511 389.358 489.309 389.128 489.52 390.022C489.844 391.401 467.988 395.11 455.099 393.396C446.827 392.295 440.946 391.052 435.145 389.826L435.144 389.826C431.907 389.141 428.694 388.462 425.104 387.816C422.713 387.386 420.291 386.989 417.831 386.959C414.588 386.919 411.399 387.518 408.255 388.113L390.544 391.465C383.527 392.793 376.366 394.128 369.185 394.56C361.395 395.576 353.258 395.187 345.431 394.139C339.016 393.281 332.727 391.998 326.436 390.715L326.434 390.714L326.433 390.714L326.433 390.714C322.776 389.968 319.12 389.223 315.437 388.56C313.046 388.129 310.623 387.732 308.164 387.702C304.921 387.663 301.732 388.262 298.588 388.857L280.877 392.209C270.195 394.23 259.18 396.268 248.27 395.111C247.664 395.046 247.002 394.948 246.621 394.591C246.401 394.385 246.375 394.07 246.509 393.836C243.49 393.863 240.58 393.736 238.022 393.396C229.751 392.295 223.87 391.052 218.069 389.826L218.069 389.826L218.068 389.826C214.83 389.141 211.618 388.462 208.028 387.816C205.637 387.386 203.214 386.989 200.755 386.959C197.512 386.919 194.323 387.518 191.179 388.113L175.822 391.02C172.025 392.172 168.137 392.914 164.205 393.133C160.193 393.787 156.154 394.317 152.108 394.56C144.318 395.576 136.181 395.187 128.354 394.139C121.939 393.281 115.649 391.998 109.358 390.715L109.358 390.715L109.357 390.714L109.356 390.714L109.356 390.714L109.356 390.714L109.355 390.714C105.699 389.968 102.043 389.223 98.3602 388.56C95.9691 388.129 93.5463 387.732 91.0868 387.702C87.8438 387.663 84.655 388.262 81.5112 388.857L63.7997 392.209C53.1181 394.23 42.1035 396.268 31.1929 395.111C30.5872 395.046 29.9255 394.948 29.5447 394.591C29.1639 394.234 29.3622 393.553 29.9731 393.528C49.3525 392.719 68.4439 388.316 85.0509 380.826C87.3699 379.78 90.0644 378.63 92.63 379.282C93.6244 379.535 94.4616 380.036 95.2829 380.527L95.4065 380.601C107.855 388.034 123.575 392.348 139.503 392.802C139.547 392.792 139.592 392.786 139.641 392.784C146.09 392.515 152.508 391.848 158.812 390.802C159.101 390.706 159.388 390.607 159.673 390.502C160.406 390.234 161.455 390.042 162.131 390.214C167.352 389.23 172.484 387.986 177.481 386.49C178.098 386.205 178.71 385.908 179.317 385.598C189.191 380.569 197.204 372.546 204.177 363.969C207.322 360.099 210.292 356.093 213.262 352.086L213.262 352.086C216.875 347.212 220.488 342.338 224.416 337.713C231.573 329.287 239.966 321.583 250.146 317.196C260.326 312.808 272.531 312.113 282.319 317.306C284.983 318.719 287.45 320.559 289.327 322.91C294.599 329.514 294.349 339.226 290.815 346.889C289.989 345.851 289.301 344.717 288.613 343.583C288.003 342.577 287.393 341.571 286.686 340.632C285.183 338.633 283.049 336.87 280.541 336.728C277.002 336.528 274.106 339.576 272.552 342.742C268.235 351.535 270.768 363.119 278.368 369.339C272.393 367.648 269.869 360.662 269.026 354.547C268.07 347.603 268.314 339.939 272.642 334.406C269.561 333.001 265.722 334.434 263.561 337.03C261.399 339.626 260.631 343.105 260.429 346.468ZM290.352 341.43C291.283 339.006 291.81 336.353 291.304 333.808C290.863 331.591 289.665 329.586 288.237 327.827C282.003 320.151 271.299 316.907 261.448 318.123C251.597 319.339 242.585 324.513 235.199 331.103C227.836 337.673 221.893 345.634 215.997 353.531L215.997 353.532L215.942 353.605C210.028 361.527 204.046 369.502 196.623 376.051C196.89 376.685 197.855 376.362 198.402 375.942C204.723 371.094 210.352 365.458 215.984 359.819C219.748 356.05 223.514 352.28 227.489 348.742C237.412 339.91 249.319 332.3 262.609 331.374C266.732 331.086 270.874 331.454 274.974 331.978C277.446 332.293 279.94 332.674 282.242 333.625C285.8 335.095 288.759 337.943 290.352 341.43Z" fill="#00160A"/>
<path fill-rule="evenodd" clip-rule="evenodd" d="M301.438 285.842C299.799 289.834 297.25 292.939 294.103 295.487C289.383 299.307 284.021 300.765 278.096 298.807C274.421 297.592 270.802 296.323 267.85 293.489C264.231 290.013 262.962 285.84 263.173 281.059C263.254 279.21 263.238 277.191 263.973 275.569C265.733 271.681 267.618 267.814 271.392 265.277C275.899 262.248 280.679 260.203 286.208 260.352C293.48 260.548 298.864 263.937 302.318 270.257C304.156 273.621 303.6 277.271 302.823 280.834C302.469 282.459 301.95 284.049 301.438 285.842ZM266.457 280.063C266.665 282.495 266.308 285.157 267.186 287.315C269.668 293.412 275.153 295.814 281.152 296.605C287.593 297.454 292.283 293.961 296.046 289.071C298.362 286.059 299.489 282.523 300.138 278.873C300.765 275.344 300.492 271.896 298.046 268.927C296.073 266.531 293.669 264.836 290.619 264.228C288.431 263.792 286.094 262.964 284.009 263.341C275.698 264.842 268.15 269.021 266.457 280.063Z" fill="#FFB61D"/>
<path fill-rule="evenodd" clip-rule="evenodd" d="M359.774 315.936C360.125 308.443 363.216 302.502 368.874 297.99C372.384 295.19 376.463 296.45 378.765 300.647C381.669 305.941 381.974 311.446 379.582 316.871C377.728 321.076 374.85 324.546 370.461 326.609C367.192 328.146 363.047 326.628 361.694 323.51C360.689 321.196 360.345 318.595 359.774 315.936ZM363.192 312.334C363.132 312.885 363.05 313.435 363.016 313.987C362.833 316.952 362.922 319.852 364.525 322.525C365.521 324.186 367.967 324.96 369.507 323.903C373.379 321.246 376.424 317.885 377.571 313.233C378.45 309.665 378.454 306.047 376.603 302.685C375.237 300.206 372.698 299.23 370.794 300.476C369.932 301.039 369.208 301.819 368.45 302.532C365.707 305.11 364.463 308.507 363.192 312.334Z" fill="#FFB61D"/>
<path fill-rule="evenodd" clip-rule="evenodd" d="M278.483 268.002C280.748 266.083 285.516 266.001 288.046 267.602C296.271 272.809 292.981 283.444 287.226 287.278C281.608 291.022 274.144 287.206 272.344 282.337C271.429 279.859 271.795 277.555 272.769 275.104C273.951 272.128 275.654 269.744 278.483 268.002ZM277.777 280.072C277.473 279.365 276.902 278.649 276.925 277.952C276.96 276.837 277.422 275.741 277.639 274.624C277.756 274.027 277.739 273.405 277.782 272.794C277.35 273.314 276.736 273.77 276.523 274.368C276.013 275.807 275.648 277.304 275.302 278.795C274.515 282.182 278.064 286.31 281.612 285.979C285.778 285.59 288.207 283.079 289.501 279.191C290.819 275.231 289.626 271.806 286.023 269.798C284.783 269.108 282.525 269.482 282.092 270.653C281.289 272.825 280.764 275.098 280.03 277.298C279.632 278.493 280.387 280.583 277.777 280.072Z" fill="#FFB61D"/>
<path fill-rule="evenodd" clip-rule="evenodd" d="M369.885 317.865C365.538 317.09 363.696 313.862 365.123 309.815C365.904 307.598 366.564 305.34 368.565 303.794C370.267 302.478 371.994 302.407 373.933 303.195C375.606 303.874 376.147 305.266 376.277 306.792C376.678 311.494 374.547 316.523 370.74 317.766C370.517 317.839 370.255 317.795 369.885 317.865ZM372.162 312.478C372.545 311.425 373.012 310.394 373.28 309.312C373.445 308.648 373.304 307.909 373.301 307.203C372.972 307.665 372.648 308.13 372.312 308.586C372.058 308.93 371.853 309.409 371.508 309.562C371.048 309.767 370.364 309.92 369.981 309.713C369.654 309.537 369.479 308.819 369.495 308.349C369.508 307.973 369.96 307.632 370.122 307.236C370.262 306.894 370.268 306.496 370.334 306.123C369.987 306.318 369.429 306.44 369.33 306.721C368.853 308.091 368.502 309.504 368.099 310.9C367.675 312.373 367.516 314.096 368.967 314.781C370.362 315.44 371.222 313.88 372.162 312.478Z" fill="#FFB61D"/>
<path fill-rule="evenodd" clip-rule="evenodd" d="M536.597 119.111C534.453 119.049 534.237 118.818 534.22 116.359C534.173 116.142 534.105 115.953 534.045 115.781L534.044 115.781L534.044 115.781C533.959 115.54 533.885 115.334 533.897 115.133C533.975 113.744 532.941 113.75 532.214 114.031C531.772 114.202 531.409 115.118 531.389 115.713C531.372 116.194 531.475 116.677 531.578 117.162L531.578 117.162C531.668 117.582 531.758 118.004 531.77 118.425C531.78 118.759 531.336 119.274 530.984 119.409C530.627 119.546 530.196 119.508 529.776 119.471C529.669 119.461 529.564 119.452 529.46 119.445C528.511 119.386 527.412 119.464 527.464 120.578C527.485 121.034 528.805 121.829 529.484 121.781C531.466 121.639 532.601 122.221 533.094 124.249C533.188 124.638 533.684 124.931 534.179 125.223C534.407 125.357 534.634 125.491 534.822 125.635C534.903 125.433 535.018 125.222 535.132 125.011C535.382 124.551 535.631 124.091 535.532 123.725C535.057 121.966 535.834 121.574 537.35 121.471C537.746 121.444 538.127 121.197 538.508 120.949C538.681 120.837 538.855 120.724 539.03 120.632C538.891 120.495 538.755 120.355 538.62 120.214C538.284 119.866 537.948 119.518 537.566 119.23C537.393 119.099 537.108 119.105 536.836 119.11C536.755 119.111 536.674 119.113 536.597 119.111ZM98.799 119.056C98.7919 119.011 98.7821 118.95 98.7221 118.85C96.8842 118.063 96.1184 118.449 96.0764 120.146C96.0521 121.13 95.7088 121.59 94.7186 121.922C94.028 122.153 93.0817 122.994 93.0731 123.575C93.0593 124.513 94.0908 124.738 95.0098 124.603C96.1846 124.432 96.4305 125.038 96.4291 126.083C96.4277 127.178 96.4778 128.324 96.814 129.346C96.9243 129.681 97.3732 129.905 97.8221 130.129C98.0254 130.231 98.2287 130.333 98.4006 130.444C98.4756 130.301 98.5566 130.16 98.6376 130.018C98.8269 129.687 99.0161 129.357 99.129 129.002C99.2089 128.75 99.189 128.468 99.1692 128.185C99.1603 128.059 99.1515 127.933 99.1515 127.809C99.1515 124.63 99.159 124.627 101.922 123.654L101.985 123.632C102.313 123.516 102.596 123.272 102.878 123.027C103.008 122.914 103.139 122.801 103.274 122.701C103.132 122.578 102.996 122.438 102.859 122.298L102.859 122.298C102.557 121.989 102.256 121.679 101.89 121.549C100.894 121.197 99.1463 119.956 98.8105 119.106C98.8046 119.091 98.802 119.075 98.799 119.056ZM480.14 181.022C481.021 181.022 481.401 184.065 481.565 185.377C481.594 185.609 481.617 185.787 481.634 185.884C481.68 186.15 482.519 186.16 483.359 186.17C484.197 186.18 485.036 186.19 485.089 186.455C485.14 186.713 484.306 187.162 483.52 187.585C482.856 187.942 482.228 188.28 482.195 188.47C482.168 188.624 482.146 188.845 482.12 189.104C482.004 190.271 481.812 192.202 480.757 192.202C480.577 192.202 480.381 191.715 480.131 191.094C479.688 189.993 479.076 188.47 478.08 188.47C477.794 188.47 473.547 188.318 473.489 187.974C473.431 187.634 477.465 186.361 478.08 186.181C478.625 186.021 478.978 184.542 479.296 183.209C479.57 182.061 479.818 181.022 480.14 181.022ZM50.4096 195.865C50.6055 196.759 50.8072 197.679 52.4304 197.434C52.7739 196.992 53.0978 196.548 53.0899 196.109C53.082 195.669 52.9987 195.225 52.9154 194.781C52.7095 193.682 52.5037 192.585 53.4377 191.556C53.5042 191.483 53.2863 191.046 53.1086 190.874C52.0022 189.799 51.6343 188.527 51.6589 186.987C51.6653 186.584 50.6784 186.028 50.0563 185.831C49.8496 185.765 49.1748 186.549 49.0405 187.034C48.8671 187.661 48.8146 188.475 49.0771 189.037C49.5749 190.103 48.9614 190.285 48.3403 190.468C48.2493 190.495 48.1581 190.522 48.0702 190.552C47.8625 190.623 47.6371 190.656 47.4133 190.689C47.0945 190.736 46.779 190.782 46.5233 190.935C45.9117 191.301 44.8796 192.098 44.9677 192.299C45.3084 193.079 45.9556 193.553 47.0522 193.098C47.7728 192.799 48.7733 192.831 49.5181 193.09C49.6926 193.151 49.7404 193.489 49.7942 193.869C49.8434 194.216 49.8975 194.599 50.0581 194.837C50.2453 195.115 50.3269 195.488 50.4096 195.865Z" fill="#00160A"/>
<path d="M357.197 275.855L538.59 275.867L357.197 275.855Z" fill="#4A0DBF"/>
<path fill-rule="evenodd" clip-rule="evenodd" d="M332.212 60.8168C332.212 60.8168 332.498 48.9358 335.004 46.7811C336.39 45.5898 336.638 52.1232 341.616 53.4739C345.04 54.4029 348.972 52.4692 352.708 53.3752C354.311 53.7638 358.121 56.8004 357.199 57.6645C356.22 58.5822 354.688 56.2366 348.905 56.9388C346.632 57.2148 342.967 60.4721 339.67 60.6767C335.023 60.9649 332.212 60.8168 332.212 60.8168Z" fill="#FFB61D"/>
</svg>
