<svg width="24" height="24" viewBox="0 0 24 24" fill="none" xmlns="http://www.w3.org/2000/svg">
<path d="M5.33333 8H18.6667V16H5.33333V8ZM22 12C22 13.1046 22.8954 14 24 14V18C24 19.1046 23.1046 20 22 20H2C0.895417 20 0 19.1046 0 18V14C1.10458 14 2 13.1046 2 12C2 10.8954 1.10458 10 0 10V6C0 4.89542 0.895417 4 2 4H22C23.1046 4 24 4.89542 24 6V10C22.8954 10 22 10.8954 22 12ZM20 7.66667C20 7.11438 19.5523 6.66667 19 6.66667H5C4.44771 6.66667 4 7.11438 4 7.66667V16.3333C4 16.8856 4.44771 17.3333 5 17.3333H19C19.5523 17.3333 20 16.8856 20 16.3333V7.66667Z" fill="#F2F2F2"/>
</svg>
