<svg width="24" height="23" viewBox="0 0 24 23" fill="none" xmlns="http://www.w3.org/2000/svg">
<path d="M14.9998 12.4583C14.4468 12.4583 13.9999 12.8877 13.9999 13.4167V17.25C13.9999 17.778 13.5519 18.2083 12.9999 18.2083H9.9999V3.83333C9.9999 3.01492 9.4559 2.28371 8.63791 2.01154L8.34191 1.91667H12.9999C13.5519 1.91667 13.9999 2.34696 13.9999 2.875V5.75C13.9999 6.279 14.4468 6.70833 14.9998 6.70833C15.5528 6.70833 15.9998 6.279 15.9998 5.75V2.875C15.9998 1.28992 14.6538 0 12.9999 0H2.24998C2.21198 0 2.17998 0.0162917 2.14298 0.0210833C2.09498 0.01725 2.04898 0 1.99998 0C0.896991 0 0 0.859625 0 1.91667V19.1667C0 19.9851 0.543994 20.7163 1.36199 20.9885L7.37992 22.9109C7.58392 22.9712 7.78692 23 7.99992 23C9.10291 23 9.9999 22.1404 9.9999 21.0833V20.125H12.9999C14.6538 20.125 15.9998 18.8351 15.9998 17.25V13.4167C15.9998 12.8877 15.5528 12.4583 14.9998 12.4583Z" fill="#F2F2F2"/>
<path d="M23.7069 8.90532L19.7069 5.07199C19.4209 4.79791 18.9909 4.71549 18.6169 4.86403C18.2439 5.01257 17.9999 5.36236 17.9999 5.74953V8.62453H14C13.448 8.62453 13 9.05386 13 9.58286C13 10.1119 13.448 10.5412 14 10.5412H17.9999V13.4162C17.9999 13.8034 18.2439 14.1532 18.6169 14.3017C18.9909 14.4502 19.4209 14.3678 19.7069 14.0937L23.7069 10.2604C24.0979 9.8857 24.0979 9.28003 23.7069 8.90532Z" fill="#F2F2F2"/>
</svg>
