<svg width="24" height="24" viewBox="0 0 24 24" fill="none" xmlns="http://www.w3.org/2000/svg">
<path d="M22.847 14.7982L20.8501 13.6451C21.0516 12.5576 21.0516 11.4419 20.8501 10.3544L22.847 9.20131C23.0766 9.07006 23.1798 8.79819 23.1048 8.54506C22.5845 6.87631 21.6985 5.36694 20.5407 4.11069C20.3626 3.9185 20.072 3.87163 19.847 4.00288L17.8501 5.156C17.011 4.43413 16.0454 3.87631 15.0001 3.51069V1.20913C15.0001 0.946626 14.8173 0.716938 14.5595 0.660688C12.8391 0.276313 11.0766 0.295063 9.44071 0.660688C9.1829 0.716938 9.00009 0.946626 9.00009 1.20913V3.51538C7.95946 3.88569 6.99384 4.4435 6.15009 5.16069L4.1579 4.00756C3.92821 3.87631 3.64228 3.9185 3.46415 4.11538C2.30634 5.36694 1.4204 6.87631 0.900092 8.54975C0.820404 8.80288 0.928217 9.07475 1.1579 9.206L3.15478 10.3591C2.95322 11.4466 2.95322 12.5623 3.15478 13.6498L1.1579 14.8029C0.928217 14.9341 0.825092 15.206 0.900092 15.4591C1.4204 17.1279 2.30634 18.6372 3.46415 19.8935C3.64228 20.0857 3.9329 20.1326 4.1579 20.0013L6.15478 18.8482C6.99384 19.5701 7.95946 20.1279 9.00478 20.4935V22.7997C9.00478 23.0622 9.18759 23.2919 9.4454 23.3482C11.1657 23.7326 12.9282 23.7138 14.5641 23.3482C14.822 23.2919 15.0048 23.0622 15.0048 22.7997V20.4935C16.0454 20.1232 17.011 19.5654 17.8548 18.8482L19.8516 20.0013C20.0813 20.1326 20.3673 20.0904 20.5454 19.8935C21.7032 18.6419 22.5891 17.1326 23.1095 15.4591C23.1798 15.2013 23.0766 14.9294 22.847 14.7982V14.7982ZM12.0001 15.7497C9.9329 15.7497 8.25009 14.0669 8.25009 11.9998C8.25009 9.93256 9.9329 8.24975 12.0001 8.24975C14.0673 8.24975 15.7501 9.93256 15.7501 11.9998C15.7501 14.0669 14.0673 15.7497 12.0001 15.7497Z" fill="#F2F2F2"/>
</svg>
