<svg width="24" height="24" viewBox="0 0 24 24" fill="none" xmlns="http://www.w3.org/2000/svg">
<g clip-path="url(#clip0)">
<path d="M7.55259 16.9982C7.14525 16.5908 7.35759 16.7057 6.37509 16.4427C5.92931 16.3232 5.53744 16.0935 5.18306 15.8183L3.05634 21.0327C2.85056 21.5375 3.23494 22.086 3.77962 22.0654L6.24947 21.9711L7.94822 23.7655C8.32322 24.1611 8.98134 24.0379 9.18712 23.533L11.627 17.5508C11.1188 17.834 10.5549 17.9999 9.97181 17.9999C9.05775 17.9999 8.199 17.6441 7.55259 16.9982V16.9982ZM20.9438 21.0327L18.8171 15.8183C18.4627 16.094 18.0709 16.3232 17.6251 16.4427C16.6374 16.7071 16.854 16.5918 16.4476 16.9982C15.8012 17.6441 14.942 17.9999 14.0279 17.9999C13.4448 17.9999 12.8809 17.8335 12.3727 17.5508L14.8126 23.533C15.0184 24.0379 15.677 24.1611 16.0515 23.7655L17.7507 21.9711L20.2206 22.0654C20.7652 22.086 21.1496 21.5371 20.9438 21.0327V21.0327ZM15.3282 15.9374C16.0445 15.2085 16.1265 15.2713 17.1465 14.9933C17.7976 14.8157 18.3067 14.2977 18.481 13.6349C18.8317 12.3036 18.7407 12.4644 19.6974 11.4904C20.1742 11.0052 20.3602 10.2979 20.1859 9.63505C19.8357 8.30473 19.8352 8.49036 20.1859 7.15864C20.3602 6.49583 20.1742 5.78848 19.6974 5.30333C18.7407 4.32926 18.8317 4.48958 18.481 3.1588C18.3067 2.49598 17.7976 1.97801 17.1465 1.80036C15.8396 1.44364 15.9971 1.53692 15.0395 0.56239C14.5627 0.0772334 13.8676 -0.11261 13.2165 0.0650459C11.9101 0.421296 12.0924 0.421765 10.7837 0.0650459C10.1326 -0.11261 9.43744 0.0767647 8.96072 0.56239C8.004 1.53645 8.1615 1.44364 6.85416 1.80036C6.20306 1.97801 5.694 2.49598 5.51962 3.1588C5.16947 4.48958 5.25994 4.32926 4.30322 5.30333C3.8265 5.78848 3.63994 6.49583 3.81478 7.15864C4.16494 8.48801 4.16541 8.30239 3.81478 9.63458C3.64041 10.2974 3.8265 11.0047 4.30322 11.4904C5.25994 12.4644 5.169 12.3036 5.51962 13.6349C5.694 14.2977 6.20306 14.8157 6.85416 14.9933C7.90322 15.2793 7.9815 15.2343 8.67197 15.9374C9.29212 16.5688 10.2582 16.6818 11.0035 16.2102C11.3016 16.021 11.6473 15.9205 12.0003 15.9205C12.3534 15.9205 12.6991 16.021 12.9971 16.2102C13.742 16.6818 14.7081 16.5688 15.3282 15.9374ZM7.57791 8.24801C7.57791 5.76223 9.5579 3.74708 12.0001 3.74708C14.4423 3.74708 16.4223 5.76223 16.4223 8.24801C16.4223 10.7338 14.4423 12.749 12.0001 12.749C9.5579 12.749 7.57791 10.7338 7.57791 8.24801V8.24801Z" fill="#F2F2F2"/>
</g>
<defs>
<clipPath id="clip0">
<rect width="24" height="24" fill="white"/>
</clipPath>
</defs>
</svg>
