<svg width="24" height="24" viewBox="0 0 24 24" fill="none" xmlns="http://www.w3.org/2000/svg">
<g clip-path="url(#clip0)">
<path d="M23.2849 13.4117H12.8163L19.7882 20.3836C20.0547 20.6501 20.4932 20.6717 20.7672 20.4136C22.4745 18.8051 23.6489 16.6367 23.9935 14.1992C24.0526 13.7819 23.7063 13.4117 23.2849 13.4117V13.4117ZM22.5866 10.5529C22.223 5.28264 18.0116 1.07118 12.7413 0.70765C12.3389 0.679856 12.0001 1.01912 12.0001 1.42235V11.2941H21.8723C22.2755 11.2941 22.6144 10.9553 22.5866 10.5529ZM9.88245 13.4117V2.94309C9.88245 2.52176 9.5123 2.17544 9.09539 2.23456C3.83789 2.9775 -0.180786 7.57058 0.00627289 13.0751C0.198626 18.7283 5.06613 23.3642 10.722 23.2932C12.9455 23.2654 15.0001 22.5489 16.6894 21.3507C17.0379 21.1036 17.0608 20.5906 16.7586 20.2883L9.88245 13.4117Z" fill="#BFD1FF"/>
</g>
<defs>
<clipPath id="clip0">
<rect width="24" height="24" fill="white"/>
</clipPath>
</defs>
</svg>
