<svg width="24" height="24" viewBox="0 0 24 24" fill="none" xmlns="http://www.w3.org/2000/svg">
<g clip-path="url(#clip0)">
<path d="M8.25281 21.2977C8.25328 21.5925 8.34047 21.8813 8.50406 22.1269L9.30516 23.3311C9.44201 23.537 9.62762 23.7058 9.84549 23.8226C10.0634 23.9394 10.3067 24.0005 10.5539 24.0005H13.4466C13.6938 24.0005 13.9371 23.9394 14.155 23.8226C14.3728 23.7058 14.5585 23.537 14.6953 23.3311L15.4964 22.1269C15.6599 21.8813 15.7473 21.5928 15.7477 21.2977L15.7495 19.5H8.25047L8.25281 21.2977ZM3.75 8.25004C3.75 10.3299 4.52109 12.2274 5.79188 13.6772C6.56625 14.5608 7.7775 16.4068 8.23922 17.9639C8.24109 17.9761 8.2425 17.9883 8.24437 18.0005H15.7556C15.7575 17.9883 15.7589 17.9766 15.7608 17.9639C16.2225 16.4068 17.4338 14.5608 18.2081 13.6772C19.4789 12.2274 20.25 10.3299 20.25 8.25004C20.25 3.68488 16.5427 -0.0140225 11.9742 3.99646e-05C7.1925 0.0145712 3.75 3.88926 3.75 8.25004ZM12 4.50004C9.93234 4.50004 8.25 6.18238 8.25 8.25004C8.25 8.66442 7.91438 9.00004 7.5 9.00004C7.08562 9.00004 6.75 8.66442 6.75 8.25004C6.75 5.35504 9.105 3.00004 12 3.00004C12.4144 3.00004 12.75 3.33567 12.75 3.75004C12.75 4.16442 12.4144 4.50004 12 4.50004Z" fill="#F2F2F2"/>
</g>
<defs>
<clipPath id="clip0">
<rect width="24" height="24" fill="white"/>
</clipPath>
</defs>
</svg>
