<svg width="263" height="56" viewBox="0 0 263 56" fill="none" xmlns="http://www.w3.org/2000/svg">
<path d="M24.075 8.33376L38.4329 37.2533C39.888 40.1839 37.212 43.1232 33.8335 42.2906L5.41077 35.3021C4.13659 35.0967 3.03982 34.2891 2.46539 33.1333C1.89097 31.9776 1.90948 30.6157 2.51511 29.476L16.5831 7.54849C18.2528 4.94569 22.62 5.40319 24.075 8.33376Z" fill="url(#paint0_linear)"/>
<path d="M88.4606 39.5115L54.2745 43.2667C52.6801 43.4413 51.1223 42.7079 50.2409 41.3679C49.3596 40.0278 49.3034 38.3069 50.0953 36.9121L64.5926 11.3795C65.2698 10.187 66.4783 9.39218 67.8414 9.24276C69.2045 9.09335 70.5565 9.60754 71.4759 10.625L91.1621 32.4094C92.2332 33.5995 92.5487 35.2886 91.9795 36.7851C91.4103 38.2816 90.0519 39.3341 88.4606 39.5115Z" fill="url(#paint1_linear)"/>
<path d="M40.1826 37.288L25.4206 6.22548C24.7326 4.77661 24.9144 3.06444 25.8912 1.79228C26.868 0.520117 28.4752 -0.0975531 30.0525 0.192989L58.928 5.51221C60.2767 5.76067 61.424 6.64155 62.0123 7.88024C62.6006 9.11894 62.5584 10.5648 61.8988 11.767L47.7779 37.5101C47.0051 38.9123 45.5129 39.7645 43.9125 39.7177C42.312 39.6709 40.8722 38.733 40.1826 37.288Z" fill="#001A49"/>
<path d="M111.701 37.288C110.725 37.288 109.845 37.144 109.061 36.856C108.293 36.552 107.637 36.12 107.093 35.56C106.565 35 106.157 34.32 105.869 33.52C105.581 32.72 105.437 31.816 105.437 30.808C105.437 29.8 105.581 28.896 105.869 28.096C106.157 27.296 106.565 26.616 107.093 26.056C107.637 25.496 108.293 25.072 109.061 24.784C109.845 24.48 110.717 24.328 111.677 24.328C113.037 24.328 114.125 24.608 114.941 25.168C115.773 25.712 116.405 26.44 116.837 27.352L114.101 28.84C113.877 28.36 113.581 27.96 113.213 27.64C112.861 27.32 112.349 27.16 111.677 27.16C110.861 27.16 110.229 27.4 109.781 27.88C109.349 28.344 109.133 28.984 109.133 29.8V31.816C109.133 32.632 109.349 33.28 109.781 33.76C110.229 34.224 110.877 34.456 111.725 34.456C112.413 34.456 112.949 34.296 113.333 33.976C113.733 33.656 114.069 33.24 114.341 32.728L117.029 34.264C116.581 35.176 115.925 35.912 115.061 36.472C114.213 37.016 113.093 37.288 111.701 37.288ZM125.587 37.288C124.627 37.288 123.763 37.144 122.995 36.856C122.227 36.552 121.571 36.12 121.027 35.56C120.499 35 120.091 34.32 119.803 33.52C119.515 32.72 119.371 31.816 119.371 30.808C119.371 29.8 119.515 28.896 119.803 28.096C120.091 27.296 120.499 26.616 121.027 26.056C121.571 25.496 122.227 25.072 122.995 24.784C123.763 24.48 124.627 24.328 125.587 24.328C126.547 24.328 127.411 24.48 128.179 24.784C128.947 25.072 129.595 25.496 130.123 26.056C130.667 26.616 131.083 27.296 131.371 28.096C131.659 28.896 131.803 29.8 131.803 30.808C131.803 31.816 131.659 32.72 131.371 33.52C131.083 34.32 130.667 35 130.123 35.56C129.595 36.12 128.947 36.552 128.179 36.856C127.411 37.144 126.547 37.288 125.587 37.288ZM125.587 34.648C126.387 34.648 127.011 34.4 127.459 33.904C127.907 33.408 128.131 32.704 128.131 31.792V29.824C128.131 28.912 127.907 28.208 127.459 27.712C127.011 27.216 126.387 26.968 125.587 26.968C124.787 26.968 124.163 27.216 123.715 27.712C123.267 28.208 123.043 28.912 123.043 29.824V31.792C123.043 32.704 123.267 33.408 123.715 33.904C124.163 34.4 124.787 34.648 125.587 34.648ZM134.338 37V24.616H137.89V26.872H138.034C138.178 26.52 138.354 26.192 138.562 25.888C138.77 25.584 139.018 25.32 139.306 25.096C139.61 24.856 139.954 24.672 140.338 24.544C140.738 24.4 141.186 24.328 141.682 24.328C142.274 24.328 142.818 24.432 143.314 24.64C143.81 24.832 144.234 25.128 144.586 25.528C144.938 25.928 145.21 26.416 145.402 26.992C145.61 27.568 145.714 28.232 145.714 28.984V37H142.162V29.464C142.162 27.864 141.466 27.064 140.074 27.064C139.802 27.064 139.53 27.104 139.258 27.184C139.002 27.248 138.77 27.36 138.562 27.52C138.354 27.664 138.186 27.848 138.058 28.072C137.946 28.296 137.89 28.56 137.89 28.864V37H134.338ZM155.328 37C154.048 37 153.096 36.664 152.472 35.992C151.848 35.32 151.536 34.464 151.536 33.424V27.376H148.176V24.616H150.36C150.888 24.616 151.264 24.512 151.488 24.304C151.712 24.096 151.824 23.712 151.824 23.152V20.248H155.088V24.616H159.912V27.376H155.088V34.24H159.912V37H155.328ZM163.335 34.24H166.191V27.376H163.335V24.616H169.743V28.12H169.911C170.023 27.672 170.175 27.24 170.367 26.824C170.575 26.392 170.831 26.016 171.135 25.696C171.455 25.36 171.839 25.096 172.287 24.904C172.735 24.712 173.263 24.616 173.871 24.616H175.047V27.88H172.407C171.527 27.88 170.863 28.144 170.415 28.672C169.967 29.184 169.743 29.816 169.743 30.568V34.24H173.823V37H163.335V34.24ZM187.638 37C186.902 37 186.31 36.816 185.862 36.448C185.414 36.064 185.15 35.52 185.07 34.816H184.95C184.726 35.632 184.278 36.248 183.606 36.664C182.95 37.08 182.142 37.288 181.182 37.288C179.982 37.288 179.014 36.968 178.278 36.328C177.558 35.672 177.198 34.76 177.198 33.592C177.198 32.296 177.67 31.336 178.614 30.712C179.558 30.088 180.942 29.776 182.766 29.776H184.758V29.152C184.758 28.416 184.582 27.864 184.23 27.496C183.894 27.112 183.318 26.92 182.502 26.92C181.75 26.92 181.142 27.064 180.678 27.352C180.214 27.64 179.814 28.016 179.478 28.48L177.534 26.752C177.95 26.048 178.598 25.472 179.478 25.024C180.374 24.56 181.518 24.328 182.91 24.328C184.606 24.328 185.926 24.72 186.87 25.504C187.83 26.272 188.31 27.44 188.31 29.008V34.432H189.678V37H187.638ZM182.526 34.96C183.15 34.96 183.678 34.808 184.11 34.504C184.542 34.2 184.758 33.76 184.758 33.184V31.696H182.862C181.406 31.696 180.678 32.184 180.678 33.16V33.64C180.678 34.072 180.846 34.4 181.182 34.624C181.518 34.848 181.966 34.96 182.526 34.96ZM198.5 37C197.22 37 196.268 36.664 195.644 35.992C195.02 35.32 194.708 34.464 194.708 33.424V27.376H191.348V24.616H193.532C194.06 24.616 194.436 24.512 194.66 24.304C194.884 24.096 194.996 23.712 194.996 23.152V20.248H198.26V24.616H203.084V27.376H198.26V34.24H203.084V37H198.5ZM212.267 37.288C210.187 37.288 208.611 36.712 207.539 35.56C206.467 34.408 205.931 32.84 205.931 30.856C205.931 29.848 206.067 28.944 206.339 28.144C206.627 27.328 207.027 26.64 207.539 26.08C208.067 25.504 208.699 25.072 209.435 24.784C210.187 24.48 211.027 24.328 211.955 24.328C212.883 24.328 213.715 24.48 214.451 24.784C215.187 25.072 215.811 25.488 216.323 26.032C216.835 26.576 217.227 27.24 217.499 28.024C217.787 28.792 217.931 29.656 217.931 30.616V31.672H209.459V31.888C209.459 32.688 209.707 33.336 210.203 33.832C210.699 34.312 211.427 34.552 212.387 34.552C213.123 34.552 213.755 34.416 214.283 34.144C214.811 33.856 215.267 33.48 215.651 33.016L217.571 35.104C217.091 35.696 216.419 36.208 215.555 36.64C214.691 37.072 213.595 37.288 212.267 37.288ZM211.979 26.872C211.211 26.872 210.595 27.112 210.131 27.592C209.683 28.056 209.459 28.688 209.459 29.488V29.68H214.451V29.488C214.451 28.672 214.227 28.032 213.779 27.568C213.347 27.104 212.747 26.872 211.979 26.872ZM226.322 37.288C225.426 37.288 224.778 37.096 224.378 36.712C223.994 36.312 223.802 35.84 223.802 35.296V34.456C223.802 33.912 223.994 33.448 224.378 33.064C224.778 32.664 225.426 32.464 226.322 32.464C227.218 32.464 227.858 32.664 228.242 33.064C228.642 33.448 228.842 33.912 228.842 34.456V35.296C228.842 35.84 228.642 36.312 228.242 36.712C227.858 37.096 227.218 37.288 226.322 37.288ZM234.232 37V24.616H237.088V26.44H237.256C237.448 25.864 237.72 25.368 238.072 24.952C238.44 24.536 238.952 24.328 239.608 24.328C240.808 24.328 241.544 25.032 241.816 26.44H241.96C242.056 26.152 242.176 25.88 242.32 25.624C242.464 25.368 242.64 25.144 242.848 24.952C243.056 24.76 243.304 24.608 243.592 24.496C243.88 24.384 244.216 24.328 244.6 24.328C246.328 24.328 247.192 25.6 247.192 28.144V37H244.336V28.504C244.336 27.928 244.232 27.528 244.024 27.304C243.832 27.064 243.576 26.944 243.256 26.944C242.952 26.944 242.688 27.048 242.464 27.256C242.256 27.448 242.152 27.752 242.152 28.168V37H239.272V28.504C239.272 27.928 239.176 27.528 238.984 27.304C238.808 27.064 238.56 26.944 238.24 26.944C237.92 26.944 237.648 27.048 237.424 27.256C237.2 27.448 237.088 27.752 237.088 28.168V37H234.232ZM255.439 37.288C253.359 37.288 251.783 36.712 250.711 35.56C249.639 34.408 249.103 32.84 249.103 30.856C249.103 29.848 249.239 28.944 249.511 28.144C249.799 27.328 250.199 26.64 250.711 26.08C251.239 25.504 251.871 25.072 252.607 24.784C253.359 24.48 254.199 24.328 255.127 24.328C256.055 24.328 256.887 24.48 257.623 24.784C258.359 25.072 258.983 25.488 259.495 26.032C260.007 26.576 260.399 27.24 260.671 28.024C260.959 28.792 261.103 29.656 261.103 30.616V31.672H252.631V31.888C252.631 32.688 252.879 33.336 253.375 33.832C253.871 34.312 254.599 34.552 255.559 34.552C256.295 34.552 256.927 34.416 257.455 34.144C257.983 33.856 258.439 33.48 258.823 33.016L260.743 35.104C260.263 35.696 259.591 36.208 258.727 36.64C257.863 37.072 256.767 37.288 255.439 37.288ZM255.151 26.872C254.383 26.872 253.767 27.112 253.303 27.592C252.855 28.056 252.631 28.688 252.631 29.488V29.68H257.623V29.488C257.623 28.672 257.399 28.032 256.951 27.568C256.519 27.104 255.919 26.872 255.151 26.872Z" fill="black"/>
<defs>
<linearGradient id="paint0_linear" x1="35.9443" y1="5.7476" x2="9.18952" y2="19.7701" gradientUnits="userSpaceOnUse">
<stop stop-color="#FFD7A9"/>
<stop offset="1" stop-color="#FFAE70"/>
</linearGradient>
<linearGradient id="paint1_linear" x1="101.078" y1="38.9018" x2="85.95" y2="4.74254" gradientUnits="userSpaceOnUse">
<stop stop-color="#CD10FF"/>
<stop offset="1" stop-color="#9F06FF"/>
</linearGradient>
</defs>
</svg>
