<svg width="190" height="38" viewBox="0 0 190 38" fill="none" xmlns="http://www.w3.org/2000/svg">
<path d="M15.8617 5.63353L25.5674 25.1826C26.551 27.1636 24.742 29.1506 22.4583 28.5878L3.24498 23.8636C2.38366 23.7248 1.64226 23.1789 1.25396 22.3976C0.865655 21.6163 0.87817 20.6957 1.28757 19.9253L10.7973 5.1027C11.926 3.34325 14.8781 3.65252 15.8617 5.63353Z" fill="url(#paint0_linear)"/>
<path d="M59.3851 26.7095L36.2759 29.248C35.1981 29.366 34.1451 28.8703 33.5493 27.9644C32.9536 27.0586 32.9155 25.8953 33.4509 24.9524L43.2508 7.69284C43.7085 6.88674 44.5255 6.34944 45.4469 6.24844C46.3684 6.14744 47.2823 6.49502 47.9038 7.18283L61.2113 21.9087C61.9353 22.7131 62.1486 23.855 61.7638 24.8666C61.379 25.8782 60.4608 26.5896 59.3851 26.7095V26.7095Z" fill="url(#paint1_linear)"/>
<path d="M26.7506 25.206L16.7717 4.20831C16.3066 3.2289 16.4295 2.0715 17.0898 1.21155C17.7501 0.35159 18.8365 -0.0659441 19.9028 0.130457L39.4221 3.72616C40.3337 3.89411 41.1093 4.48957 41.507 5.3269C41.9047 6.16424 41.8761 7.1416 41.4303 7.95431L31.8848 25.3561C31.3624 26.304 30.3537 26.8801 29.2719 26.8485C28.19 26.8168 27.2167 26.1828 26.7506 25.206V25.206Z" fill="#001A49"/>
<path d="M76.778 22.216C76.046 22.216 75.386 22.108 74.798 21.892C74.222 21.664 73.73 21.34 73.322 20.92C72.926 20.5 72.62 19.99 72.404 19.39C72.188 18.79 72.08 18.112 72.08 17.356C72.08 16.6 72.188 15.922 72.404 15.322C72.62 14.722 72.926 14.212 73.322 13.792C73.73 13.372 74.222 13.054 74.798 12.838C75.386 12.61 76.04 12.496 76.76 12.496C77.78 12.496 78.596 12.706 79.208 13.126C79.832 13.534 80.306 14.08 80.63 14.764L78.578 15.88C78.41 15.52 78.188 15.22 77.912 14.98C77.648 14.74 77.264 14.62 76.76 14.62C76.148 14.62 75.674 14.8 75.338 15.16C75.014 15.508 74.852 15.988 74.852 16.6V18.112C74.852 18.724 75.014 19.21 75.338 19.57C75.674 19.918 76.16 20.092 76.796 20.092C77.312 20.092 77.714 19.972 78.002 19.732C78.302 19.492 78.554 19.18 78.758 18.796L80.774 19.948C80.438 20.632 79.946 21.184 79.298 21.604C78.662 22.012 77.822 22.216 76.778 22.216ZM87.193 22.216C86.473 22.216 85.825 22.108 85.249 21.892C84.673 21.664 84.181 21.34 83.773 20.92C83.377 20.5 83.071 19.99 82.855 19.39C82.639 18.79 82.531 18.112 82.531 17.356C82.531 16.6 82.639 15.922 82.855 15.322C83.071 14.722 83.377 14.212 83.773 13.792C84.181 13.372 84.673 13.054 85.249 12.838C85.825 12.61 86.473 12.496 87.193 12.496C87.913 12.496 88.561 12.61 89.137 12.838C89.713 13.054 90.199 13.372 90.595 13.792C91.003 14.212 91.315 14.722 91.531 15.322C91.747 15.922 91.855 16.6 91.855 17.356C91.855 18.112 91.747 18.79 91.531 19.39C91.315 19.99 91.003 20.5 90.595 20.92C90.199 21.34 89.713 21.664 89.137 21.892C88.561 22.108 87.913 22.216 87.193 22.216ZM87.193 20.236C87.793 20.236 88.261 20.05 88.597 19.678C88.933 19.306 89.101 18.778 89.101 18.094V16.618C89.101 15.934 88.933 15.406 88.597 15.034C88.261 14.662 87.793 14.476 87.193 14.476C86.593 14.476 86.125 14.662 85.789 15.034C85.453 15.406 85.285 15.934 85.285 16.618V18.094C85.285 18.778 85.453 19.306 85.789 19.678C86.125 20.05 86.593 20.236 87.193 20.236ZM93.7559 22V12.712H96.4199V14.404H96.5279C96.6359 14.14 96.7679 13.894 96.9239 13.666C97.0799 13.438 97.2659 13.24 97.4819 13.072C97.7099 12.892 97.9679 12.754 98.2559 12.658C98.5559 12.55 98.8919 12.496 99.2639 12.496C99.7079 12.496 100.116 12.574 100.488 12.73C100.86 12.874 101.178 13.096 101.442 13.396C101.706 13.696 101.91 14.062 102.054 14.494C102.21 14.926 102.288 15.424 102.288 15.988V22H99.6239V16.348C99.6239 15.148 99.1019 14.548 98.0579 14.548C97.8539 14.548 97.6499 14.578 97.4459 14.638C97.2539 14.686 97.0799 14.77 96.9239 14.89C96.7679 14.998 96.6419 15.136 96.5459 15.304C96.4619 15.472 96.4199 15.67 96.4199 15.898V22H93.7559ZM109.499 22C108.539 22 107.825 21.748 107.357 21.244C106.889 20.74 106.655 20.098 106.655 19.318V14.782H104.135V12.712H105.773C106.169 12.712 106.451 12.634 106.619 12.478C106.787 12.322 106.871 12.034 106.871 11.614V9.436H109.319V12.712H112.937V14.782H109.319V19.93H112.937V22H109.499ZM115.504 19.93H117.646V14.782H115.504V12.712H120.31V15.34H120.436C120.52 15.004 120.634 14.68 120.778 14.368C120.934 14.044 121.126 13.762 121.354 13.522C121.594 13.27 121.882 13.072 122.218 12.928C122.554 12.784 122.95 12.712 123.406 12.712H124.288V15.16H122.308C121.648 15.16 121.15 15.358 120.814 15.754C120.478 16.138 120.31 16.612 120.31 17.176V19.93H123.37V22H115.504V19.93ZM133.731 22C133.179 22 132.735 21.862 132.399 21.586C132.063 21.298 131.865 20.89 131.805 20.362H131.715C131.547 20.974 131.211 21.436 130.707 21.748C130.215 22.06 129.609 22.216 128.889 22.216C127.989 22.216 127.263 21.976 126.711 21.496C126.171 21.004 125.901 20.32 125.901 19.444C125.901 18.472 126.255 17.752 126.963 17.284C127.671 16.816 128.709 16.582 130.077 16.582H131.571V16.114C131.571 15.562 131.439 15.148 131.175 14.872C130.923 14.584 130.491 14.44 129.879 14.44C129.315 14.44 128.859 14.548 128.511 14.764C128.163 14.98 127.863 15.262 127.611 15.61L126.153 14.314C126.465 13.786 126.951 13.354 127.611 13.018C128.283 12.67 129.141 12.496 130.185 12.496C131.457 12.496 132.447 12.79 133.155 13.378C133.875 13.954 134.235 14.83 134.235 16.006V20.074H135.261V22H133.731ZM129.897 20.47C130.365 20.47 130.761 20.356 131.085 20.128C131.409 19.9 131.571 19.57 131.571 19.138V18.022H130.149C129.057 18.022 128.511 18.388 128.511 19.12V19.48C128.511 19.804 128.637 20.05 128.889 20.218C129.141 20.386 129.477 20.47 129.897 20.47ZM141.878 22C140.918 22 140.204 21.748 139.736 21.244C139.268 20.74 139.034 20.098 139.034 19.318V14.782H136.514V12.712H138.152C138.548 12.712 138.83 12.634 138.998 12.478C139.166 12.322 139.25 12.034 139.25 11.614V9.436H141.698V12.712H145.316V14.782H141.698V19.93H145.316V22H141.878ZM152.203 22.216C150.643 22.216 149.461 21.784 148.657 20.92C147.853 20.056 147.451 18.88 147.451 17.392C147.451 16.636 147.553 15.958 147.757 15.358C147.973 14.746 148.273 14.23 148.657 13.81C149.053 13.378 149.527 13.054 150.079 12.838C150.643 12.61 151.273 12.496 151.969 12.496C152.665 12.496 153.289 12.61 153.841 12.838C154.393 13.054 154.861 13.366 155.245 13.774C155.629 14.182 155.923 14.68 156.127 15.268C156.343 15.844 156.451 16.492 156.451 17.212V18.004H150.097V18.166C150.097 18.766 150.283 19.252 150.655 19.624C151.027 19.984 151.573 20.164 152.293 20.164C152.845 20.164 153.319 20.062 153.715 19.858C154.111 19.642 154.453 19.36 154.741 19.012L156.181 20.578C155.821 21.022 155.317 21.406 154.669 21.73C154.021 22.054 153.199 22.216 152.203 22.216ZM151.987 14.404C151.411 14.404 150.949 14.584 150.601 14.944C150.265 15.292 150.097 15.766 150.097 16.366V16.51H153.841V16.366C153.841 15.754 153.673 15.274 153.337 14.926C153.013 14.578 152.563 14.404 151.987 14.404ZM162.744 22.216C162.072 22.216 161.586 22.072 161.286 21.784C160.998 21.484 160.854 21.13 160.854 20.722V20.092C160.854 19.684 160.998 19.336 161.286 19.048C161.586 18.748 162.072 18.598 162.744 18.598C163.416 18.598 163.896 18.748 164.184 19.048C164.484 19.336 164.634 19.684 164.634 20.092V20.722C164.634 21.13 164.484 21.484 164.184 21.784C163.896 22.072 163.416 22.216 162.744 22.216ZM168.677 22V12.712H170.819V14.08H170.945C171.089 13.648 171.293 13.276 171.557 12.964C171.833 12.652 172.217 12.496 172.709 12.496C173.609 12.496 174.161 13.024 174.365 14.08H174.473C174.545 13.864 174.635 13.66 174.743 13.468C174.851 13.276 174.983 13.108 175.139 12.964C175.295 12.82 175.481 12.706 175.697 12.622C175.913 12.538 176.165 12.496 176.453 12.496C177.749 12.496 178.397 13.45 178.397 15.358V22H176.255V15.628C176.255 15.196 176.177 14.896 176.021 14.728C175.877 14.548 175.685 14.458 175.445 14.458C175.217 14.458 175.019 14.536 174.851 14.692C174.695 14.836 174.617 15.064 174.617 15.376V22H172.457V15.628C172.457 15.196 172.385 14.896 172.241 14.728C172.109 14.548 171.923 14.458 171.683 14.458C171.443 14.458 171.239 14.536 171.071 14.692C170.903 14.836 170.819 15.064 170.819 15.376V22H168.677ZM184.582 22.216C183.022 22.216 181.84 21.784 181.036 20.92C180.232 20.056 179.83 18.88 179.83 17.392C179.83 16.636 179.932 15.958 180.136 15.358C180.352 14.746 180.652 14.23 181.036 13.81C181.432 13.378 181.906 13.054 182.458 12.838C183.022 12.61 183.652 12.496 184.348 12.496C185.044 12.496 185.668 12.61 186.22 12.838C186.772 13.054 187.24 13.366 187.624 13.774C188.008 14.182 188.302 14.68 188.506 15.268C188.722 15.844 188.83 16.492 188.83 17.212V18.004H182.476V18.166C182.476 18.766 182.662 19.252 183.034 19.624C183.406 19.984 183.952 20.164 184.672 20.164C185.224 20.164 185.698 20.062 186.094 19.858C186.49 19.642 186.832 19.36 187.12 19.012L188.56 20.578C188.2 21.022 187.696 21.406 187.048 21.73C186.4 22.054 185.578 22.216 184.582 22.216ZM184.366 14.404C183.79 14.404 183.328 14.584 182.98 14.944C182.644 15.292 182.476 15.766 182.476 16.366V16.51H186.22V16.366C186.22 15.754 186.052 15.274 185.716 14.926C185.392 14.578 184.942 14.404 184.366 14.404Z" fill="white"/>
<defs>
<linearGradient id="paint0_linear" x1="23.8851" y1="3.88533" x2="5.79935" y2="13.3643" gradientUnits="userSpaceOnUse">
<stop stop-color="#FFD7A9"/>
<stop offset="1" stop-color="#FFAE70"/>
</linearGradient>
<linearGradient id="paint1_linear" x1="67.914" y1="26.2974" x2="57.688" y2="3.20637" gradientUnits="userSpaceOnUse">
<stop stop-color="#CD10FF"/>
<stop offset="1" stop-color="#9F06FF"/>
</linearGradient>
</defs>
</svg>
