<svg width="538" height="527" viewBox="0 0 538 527" fill="none" xmlns="http://www.w3.org/2000/svg">
<rect width="500" height="500" transform="translate(0 27)" fill="white"/>
<path fill-rule="evenodd" clip-rule="evenodd" d="M27.1112 421.862C25.8569 416.099 24.4814 410.362 23.2802 404.589C22.6993 401.797 22.3673 398.951 21.9722 396.122C21.2355 390.848 20.5074 385.571 19.8345 380.288C19.5978 378.43 19.4282 376.551 19.4068 374.68C19.2341 359.519 18.8214 344.352 19.0865 329.198C19.2093 322.18 20.6662 315.185 21.5398 308.182C22.6888 298.97 25.1026 290.05 27.8876 281.224C31.8957 268.522 35.9541 255.836 39.9992 243.146C42.1723 236.329 44.5061 229.558 46.4812 222.684C47.3926 219.512 47.7611 216.159 48.1133 212.859C48.4481 209.723 48.8061 206.516 48.505 203.402C47.9417 197.577 46.9727 191.787 46.0522 186.001C45.2664 181.062 44.3478 176.143 43.4238 171.228C41.9887 163.593 41.565 155.889 41.7191 148.141C41.8407 142.03 41.6521 135.887 42.2271 129.817C43.0584 121.043 44.3229 112.252 47.7911 104.063C50.4448 97.7979 53.3857 91.6078 56.7673 85.7094C60.1079 79.8823 64.0742 74.4019 67.9358 68.8879C70.2912 65.5246 72.7869 62.2223 75.5408 59.183C79.7835 54.5006 84.1695 49.9295 88.7338 45.5604C95.8619 38.737 103.847 32.9852 112.333 27.9691C120.342 23.2353 128.818 19.4833 137.719 16.7362C143.812 14.8559 149.957 13.14 156.02 11.1719C160.358 9.76379 164.516 7.75061 168.906 6.56553C174.353 5.09488 179.92 3.96545 185.502 3.12201C191.23 2.25632 197.033 1.86345 202.812 1.35826C207.05 0.98773 211.298 0.680443 215.548 0.50613C221.209 0.273954 226.876 0.135509 232.541 0.0719263C238.957 -8.32343e-05 245.376 -0.0527001 251.79 0.0904032C256.684 0.199602 261.576 0.556667 266.459 0.930141C273.024 1.43227 279.585 2.00065 286.137 2.64641C290.989 3.12458 295.846 3.63485 300.662 4.37649C307.22 5.3863 313.759 6.53921 320.275 7.79531C329.466 9.56715 338.695 11.2129 347.784 13.4234C357.385 15.7588 366.988 18.2774 376.004 22.4576C384.111 26.2163 392.232 29.9779 400.116 34.1698C407.299 37.9887 414.162 42.4072 421.19 46.5204C423.887 48.099 426.694 49.4933 429.37 51.1057C431.164 52.1869 432.971 53.3354 434.505 54.7446C441.47 61.1462 448.373 67.6177 455.232 74.1328C458.541 77.2748 461.704 80.5687 464.933 83.7939C468.559 87.4146 472.356 90.8813 475.765 94.6946C480.093 99.5355 484.062 104.694 488.265 109.649C493.916 116.313 497.707 124.086 501.806 131.7C504.589 136.87 506.32 142.419 508.354 147.861C509.743 151.58 511.334 155.326 511.968 159.201C512.935 165.117 516.442 169.815 518.547 175.157C520.703 180.63 522.425 186.277 524.255 191.875C525.821 196.663 527.448 201.443 528.722 206.312C529.895 210.794 530.647 215.387 531.563 219.936C532.269 223.435 533.006 226.93 533.607 230.447C534.034 232.942 534.251 235.472 534.574 237.985C535.141 242.394 535.752 246.797 536.277 251.211C536.628 254.157 536.945 257.113 537.127 260.073C537.357 263.796 537.441 267.528 537.576 271.256C537.726 275.413 538.141 279.582 537.951 283.724C537.505 293.484 521.418 332.722 514.923 342.349C511.157 347.931 507.528 353.607 503.664 359.12C498.602 366.343 493.424 373.488 488.194 380.591C481.931 389.095 475.638 397.58 469.203 405.955C466.163 409.912 462.83 413.652 459.502 417.378C456.721 420.493 453.931 423.636 450.835 426.425C444.791 431.871 438.56 437.111 432.354 442.374C424.173 449.311 415.199 455.178 405.925 460.456C398.356 464.764 390.345 468.39 382.278 471.709C370.115 476.713 357.755 481.245 345.436 485.865C336.022 489.397 326.606 492.943 317.074 496.134C309.013 498.832 300.845 501.27 292.611 503.377C285.64 505.162 278.524 506.415 271.435 507.702C266.471 508.604 261.458 509.272 256.444 509.853C251.558 510.418 246.646 510.767 241.741 511.158C239.158 511.363 236.567 511.53 233.978 511.584C225.381 511.763 216.783 511.951 208.184 511.998C203.952 512.021 199.707 511.878 195.486 511.564C189.561 511.124 183.626 510.644 177.743 509.832C171.033 508.906 164.381 507.564 157.693 506.462C152.19 505.556 146.648 504.87 141.167 503.85C131.758 502.099 122.339 500.36 113.009 498.243C105.541 496.549 98.1055 494.591 90.8221 492.236C79.2349 488.491 68.3776 483.128 58.5742 475.845C55.2876 473.403 52.037 470.791 49.2721 467.795C42.6841 460.656 37.3868 452.603 33.5577 443.421C30.6273 436.327 28.6971 429.148 27.1112 421.862Z" fill="#AD09FF" fill-opacity="0.75"/>
<path d="M271.341 424.956C270.643 428.62 270.365 432.267 269.141 435.561C267.552 439.836 263.874 442.42 259.628 443.734C254.964 445.178 250.16 446.19 245.386 447.25C243.8 447.602 242.119 447.535 240.48 447.633C234.578 447.989 228.674 448.32 222.773 448.689C219.553 448.89 216.339 449.19 213.118 449.369C210.029 449.54 206.933 449.738 203.844 449.69C203.158 449.68 198.873 450.299 192.877 450.721C191.713 450.803 193.525 457.092 191.432 457.752C186.768 459.222 175.344 458.809 173.351 455.69C171.358 452.571 172.064 451.257 169.855 450.355C159.049 445.945 147.919 444.915 144.658 435.561C142.487 429.335 146.619 414.585 145.417 403.262C142.336 374.226 136.208 341.827 136.008 341.661C136.029 341.639 129.483 342.199 128.995 339.799C122.947 310.03 120.189 270.796 136.008 260.903C145.534 254.945 163.679 248.827 183.796 243.829C186.719 243.102 188.445 238.807 191.432 238.132C192.1 237.981 194.144 234.099 195.897 230.2C197.662 226.274 199.147 222.33 202.77 222.158C210.22 221.803 223.07 212.262 231.788 215.239C239.771 217.966 243.818 233.312 246.901 231.454C250.008 229.581 252.758 232.833 257.014 232.833C287.476 232.833 310.417 290.701 313.607 304.939C308.276 312.633 292.486 312.633 277.565 317.191C275.097 314.146 270.136 305.013 268.534 299.876C266.885 294.589 266.316 306.578 266.201 310.826C266.051 316.322 266.544 321.836 266.815 327.34C266.994 330.968 267.291 334.589 267.499 338.216C267.864 344.583 268.249 350.949 268.534 357.32C268.734 361.803 268.647 366.302 268.936 370.778C269.232 375.364 269.843 379.929 270.289 384.507C270.551 387.198 270.79 389.893 270.983 392.591C271.145 394.865 271.374 397.149 271.31 399.422C271.185 403.826 270.725 408.224 270.706 412.625C270.696 414.924 271.465 417.217 271.624 419.53C271.744 421.265 271.451 423.03 271.341 424.956Z" fill="white"/>
<path d="M320.049 150.376C318.085 148.515 316.884 146.191 315.339 144.122C315.294 144.061 315.25 143.997 315.218 143.929C314.01 141.307 312.829 138.685 312.255 135.818C311.92 134.145 311.934 132.513 312.188 130.853C312.315 130.027 312.368 129.189 312.532 128.371C313.035 125.863 314.258 123.679 315.693 121.602C316.125 120.977 316.621 120.395 317.041 119.763C318.616 117.394 320.837 115.869 323.424 114.806C325.107 114.114 326.836 113.531 328.483 112.749C328.685 112.653 328.909 112.567 329.129 112.546C331.854 112.288 334.578 112.021 337.307 111.803C339.968 111.59 342.633 111.649 345.295 111.821C346.738 111.914 348.187 111.954 349.624 112.1C352.741 112.416 355.755 113.12 358.648 114.385C360.67 115.269 362.708 116.096 364.646 117.165C366.872 118.393 368.761 120.025 370.55 121.797C371.368 122.608 371.995 123.559 372.555 124.559C372.89 125.155 373.186 125.78 373.577 126.337C375.854 129.578 376.345 133.186 375.793 137.001C375.663 137.901 375.374 138.778 375.449 139.705C375 141.553 374.563 143.408 373.462 145.009C372.597 146.264 371.661 147.46 370.495 148.461C370.092 148.807 369.685 149.156 369.32 149.543C368.529 150.381 367.564 150.981 366.649 151.661C364.679 153.126 362.484 154.16 360.313 155.248C360.043 155.383 359.757 155.49 359.468 155.578C358.306 155.932 357.139 156.274 355.972 156.618C354.659 157.005 353.352 157.415 352.03 157.767C349.959 158.319 347.811 158.327 345.701 158.607C345.404 158.646 345.088 158.625 344.791 158.574C342.539 158.192 340.258 158.075 337.996 157.793C337.62 157.746 337.251 157.649 336.879 157.571C334.346 157.044 331.798 156.576 329.341 155.738C328.725 155.528 328.169 155.576 327.596 155.913C326.941 156.297 326.246 156.611 325.562 156.944C324.114 157.646 322.856 158.634 321.553 159.555C321.183 159.817 320.795 160.054 320.401 160.278C320.096 160.451 319.574 160.191 319.495 159.83C319.396 159.387 319.299 158.948 319.43 158.482C320.162 155.884 320.136 153.226 320.049 150.376Z" fill="white"/>
<path fill-rule="evenodd" clip-rule="evenodd" d="M192.422 235.971C192.422 235.971 195.738 231.431 196.883 229.064C198.027 226.698 199.104 222.158 199.104 222.158C199.104 222.158 222.766 255.66 219.022 256.097C211.538 256.968 192.422 235.971 192.422 235.971Z" fill="#E7EAEE"/>
<path d="M294.458 343.218C290.712 337.262 282.752 323.379 279.086 317.514C279.001 317.379 296.071 301.682 311.266 305.656C312.775 306.05 315.676 311.932 317.098 312.633C319.746 313.938 319.273 307.559 324.341 298.572C332.321 284.421 347.019 263.287 352.79 250.67C355.135 245.543 353.477 241.546 353.229 240.426C352.314 236.285 350.165 232.906 347.062 230.068C345.049 228.227 344.969 224.119 347.261 222.987C348.953 222.152 350.86 221.887 352.79 222.851C354.993 223.952 357.187 224.993 358.703 227.045C358.908 227.322 359.267 227.485 359.555 227.701C359.693 227.351 359.846 227.007 359.968 226.651C361.19 223.087 362.313 219.486 363.652 215.966C364.835 212.855 366.145 209.78 367.633 206.806C368.123 205.826 369.36 204.564 370.229 204.584C371.508 204.613 372.342 205.994 372.534 207.442C372.636 208.21 372.745 208.978 372.89 209.738C372.953 210.072 373.115 210.387 373.232 210.711C373.464 210.434 373.679 210.14 373.931 209.882C374.69 209.104 375.364 208.186 376.257 207.608C377.482 206.814 378.878 207.697 378.78 209.223C378.644 211.33 378.479 213.473 377.971 215.512C377.056 219.178 375.873 222.776 374.817 226.407C374.754 226.624 374.815 226.876 374.818 227.111C375.056 226.984 375.411 226.916 375.512 226.719C376.178 225.428 376.889 224.147 377.394 222.791C378.208 220.6 379.441 218.723 381.225 217.242C381.64 216.897 382.314 216.863 382.868 216.686C383.028 217.201 383.429 217.781 383.31 218.221C382.451 221.402 381.709 224.641 380.514 227.699C377.502 235.402 374.285 243.026 371.122 250.67C369.294 255.088 367.171 259.401 365.62 263.911C364.038 268.51 363.117 273.332 361.681 277.987C360.159 282.923 358.404 287.788 356.692 292.663C354.09 300.073 351.748 307.595 348.704 314.821C346.326 320.468 343.23 325.842 340.116 331.139C337.782 335.109 335.11 338.924 332.205 342.495C330.499 344.593 328.076 346.123 325.915 347.832C322.456 350.568 318.527 352.314 314.226 353.3C309.276 354.435 304.883 353.551 301.189 349.94C298.951 347.752 296.758 345.518 294.458 343.218Z" fill="white"/>
<path fill-rule="evenodd" clip-rule="evenodd" d="M178.008 196.37C177.531 197.335 177.562 198.179 178.184 198.998C178.462 199.365 178.763 199.715 179.065 200.065C179.388 200.44 179.711 200.816 180.006 201.213C180.452 201.812 180.913 202.404 181.374 202.996L181.374 202.996C182.583 204.55 183.794 206.105 184.744 207.805C186.086 210.207 187.64 211.978 190.46 212.487C191.604 212.694 192.036 213.608 192.173 214.813C192.364 216.489 192.676 218.188 193.233 219.773C193.631 220.907 194.684 221.659 196.025 221.514C196.654 221.446 197.28 221.34 197.906 221.234L197.906 221.234C198.869 221.07 199.831 220.907 200.798 220.884C201.724 220.862 202.926 221.104 203.548 221.701C205.212 223.297 206.744 225.033 208.275 226.767C208.591 227.125 208.907 227.483 209.225 227.84C209.342 227.972 209.457 228.105 209.571 228.237C210.689 229.529 211.728 230.729 213.949 229.958C216.586 229.043 219.359 228.633 222.22 228.82C224.844 228.99 225.869 228.101 226.676 225.532C226.759 225.269 226.829 224.999 226.899 224.73C227.035 224.211 227.17 223.691 227.396 223.215C227.482 223.034 227.567 222.851 227.652 222.668L227.652 222.667C228.119 221.661 228.595 220.633 229.315 219.842C230.615 218.415 232.299 218.634 234.026 219.246C235.97 219.936 236.978 219.513 237.817 217.746C238.172 216.998 238.289 217.008 238.938 217.486C239.463 217.873 240.29 218.052 240.96 218.003C242.616 217.88 244.274 217.648 245.898 217.301C246.485 217.176 247.262 216.712 247.463 216.208C247.708 215.591 247.955 214.974 248.202 214.357L248.202 214.357C249.594 210.88 250.989 207.397 252.104 203.83C253.919 198.027 255.27 192.086 255.267 185.956C255.265 181.85 255.144 177.744 255.024 173.638L255.024 173.638C254.993 172.597 254.963 171.557 254.934 170.516C254.921 170.023 254.909 169.53 254.897 169.036L254.897 169.033C254.843 166.781 254.79 164.526 254.564 162.29C254.155 158.256 253.63 154.233 253.104 150.211L253.103 150.2C253.015 149.528 252.927 148.856 252.84 148.183C252.583 146.202 252.283 144.226 251.983 142.251L251.983 142.25C251.884 141.597 251.785 140.943 251.688 140.289L251.476 138.871C251.008 135.731 250.54 132.59 250.045 129.454C250.026 129.331 250.008 129.205 249.99 129.076C249.9 128.423 249.803 127.724 249.435 127.282C249.105 126.888 248.777 126.492 248.449 126.097L248.449 126.097C246.346 123.565 244.239 121.026 241.894 118.735C240.054 116.937 237.837 115.494 235.66 114.077L235.66 114.077L235.377 113.892C229.427 110.016 222.763 108.271 215.759 107.81C213.839 107.684 211.91 107.713 209.98 107.742C208.825 107.76 207.67 107.777 206.516 107.761C205.462 107.747 204.892 108.082 204.208 109.001C203.301 110.22 201.946 111.201 200.608 111.985C197.265 113.944 194.324 116.244 192.065 119.477C189.098 123.725 186.38 128.094 184.603 132.966C183.232 136.724 182.284 140.583 181.957 144.625C181.852 145.93 181.589 147.218 181.325 148.507C180.816 151 180.306 153.497 180.935 156.126C181.207 157.259 181.364 158.421 181.522 159.582C181.707 160.943 181.892 162.303 182.259 163.614C182.326 163.855 182.394 164.096 182.462 164.337C183.632 168.5 184.781 172.586 184.553 177.066C184.307 181.882 182.598 186.089 180.619 190.648C180.366 191.207 180.117 191.769 179.868 192.33L179.868 192.33C179.267 193.686 178.665 195.042 178.008 196.37ZM256.336 164.661C256.339 164.702 256.334 164.747 256.329 164.792C256.321 164.871 256.313 164.949 256.346 165.004C256.447 165.173 256.569 165.33 256.691 165.486C256.739 165.548 256.787 165.61 256.834 165.672C256.886 165.626 256.94 165.582 256.994 165.537C257.111 165.441 257.228 165.346 257.322 165.231C257.59 164.906 257.86 164.582 258.131 164.258C258.899 163.336 259.668 162.415 260.389 161.457C261.979 159.345 263.534 157.206 265.057 155.045C265.955 153.771 265.062 153.243 263.997 153.168C261.779 153.01 259.902 153.947 257.996 155.043C256.635 155.825 255.632 156.48 255.988 158.546L256.042 159.495L256.043 159.497C256.141 161.218 256.239 162.94 256.336 164.661ZM180.401 165.641C180.353 165.72 180.305 165.798 180.27 165.874C179.322 165.422 178.442 164.882 177.572 164.347C176.81 163.879 176.054 163.415 175.265 163.018C173.482 162.121 172.855 160.49 172.284 158.87C171.627 157.006 173.089 155.225 175.072 155.238C175.16 155.239 175.249 155.239 175.338 155.239C176.044 155.242 176.762 155.244 177.442 155.393C178.777 155.686 178.909 156.721 179.037 157.718C179.076 158.027 179.116 158.333 179.19 158.612C179.667 160.396 180.015 162.216 180.363 164.033C180.435 164.409 180.507 164.785 180.58 165.161C180.608 165.304 180.504 165.473 180.401 165.641Z" fill="white"/>
<ellipse cx="244" cy="186.333" rx="4.66666" ry="4.66666" fill="#FFB61D"/>
<ellipse cx="195.333" cy="182.333" rx="4.66667" ry="4.66666" fill="#FFB61D"/>
<path fill-rule="evenodd" clip-rule="evenodd" d="M217.395 126.103C220.054 126.674 222.938 127.367 225.625 125.908C226.536 125.414 227.391 124.805 228.22 124.181C228.726 123.8 229.181 123.328 229.579 122.832C232.736 118.897 235.065 119.485 239.411 122.054C244.972 125.341 251.412 134.915 234.171 134.915C225.487 134.915 190.802 130.187 195.645 125.486C197.624 123.565 200.217 122.279 202.515 120.681C203.38 120.079 204.261 119.477 205.024 118.757C206.131 117.716 206.802 118.266 207.492 119.223C208.4 120.482 209.348 121.712 210.366 123.042C212.759 124.156 214.98 125.584 217.395 126.103Z" fill="#E7EAEE"/>
<path fill-rule="evenodd" clip-rule="evenodd" d="M310.318 306.111C309.417 306.654 308.517 307.195 307.549 307.563C305.21 308.45 302.838 309.252 300.443 310.062L300.442 310.063L300.442 310.063L300.441 310.063L300.441 310.063L300.441 310.063L300.44 310.063L300.44 310.063L300.439 310.064L300.439 310.064L300.437 310.064L300.437 310.064L300.437 310.064L300.436 310.065C298.918 310.578 297.39 311.095 295.854 311.639C295.391 311.82 294.984 311.938 294.59 312.053L294.59 312.053L294.463 312.09C294.413 312.104 294.363 312.119 294.313 312.134C292.942 312.542 291.571 312.954 290.201 313.367L290.198 313.368C286.759 314.402 283.32 315.437 279.863 316.407C278.463 316.799 277.305 316.359 276.545 314.846C274.654 311.085 272.632 307.39 270.596 303.704C270.455 303.448 270.106 303.307 269.757 303.166C269.596 303.101 269.434 303.035 269.293 302.958C269.24 303.136 269.156 303.33 269.071 303.525L269.071 303.525L269.071 303.525C268.89 303.944 268.708 304.363 268.841 304.618C271.111 308.978 273.44 313.309 275.878 317.576C276.179 318.104 277.27 318.588 277.872 318.47C281.072 317.839 284.248 317.067 287.402 316.231C288.621 315.908 289.828 315.53 291.034 315.152C292.771 314.608 294.508 314.064 296.281 313.685C302.368 312.381 308.192 310.499 313.417 307.019C315.293 305.769 315.808 303.857 314.895 301.877C314.577 301.185 314.252 300.496 313.928 299.806L313.928 299.806L313.927 299.806L313.927 299.805L313.927 299.805L313.927 299.805L313.927 299.805L313.927 299.804L313.927 299.804L313.927 299.804L313.927 299.804L313.927 299.804L313.927 299.803L313.926 299.803L313.926 299.803C312.807 297.426 311.687 295.046 310.81 292.581C308.122 285.022 305.097 277.609 301.534 270.428C299.28 265.884 296.886 261.399 294.341 257.011C290.942 251.148 287.383 245.291 281.917 241.119C278.121 238.222 274.056 235.493 269.733 233.513C263.416 230.618 256.478 229.984 249.574 229.503C248.164 229.405 246.681 228.876 245.435 228.18C242.937 226.787 241.922 224.318 240.9 221.831L240.9 221.831L240.9 221.831L240.9 221.831L240.9 221.83C240.788 221.558 240.676 221.286 240.562 221.016C240.058 219.816 240.869 219.592 241.38 219.486C242.696 219.214 244.085 218.998 245.407 219.132C247.467 219.34 248.601 218.381 249.357 216.673C251.212 212.483 252.835 208.222 254.062 203.787C255.759 197.648 257.209 191.509 257.054 185.075C256.987 182.287 257.003 179.496 257.018 176.706C257.026 175.251 257.034 173.795 257.031 172.34C257.03 171.943 256.982 171.528 256.934 171.114C256.837 170.282 256.741 169.455 257.031 168.792C257.743 167.16 258.913 165.697 260.049 164.29C260.947 163.177 261.885 162.097 262.823 161.016C263.96 159.707 265.097 158.398 266.162 157.032C267.019 155.932 267.659 154.531 266.795 153.07C265.952 151.644 264.599 151.065 263.027 151.419C262.758 151.48 262.487 151.537 262.215 151.595C260.239 152.013 258.242 152.435 256.848 154.187C256.178 155.028 255.79 155.031 255.617 153.811C255.488 152.904 255.304 152.005 255.121 151.107C254.931 150.176 254.741 149.246 254.612 148.307C254.452 147.151 254.345 145.988 254.238 144.825L254.238 144.824L254.238 144.824L254.238 144.823L254.238 144.822L254.238 144.821V144.821C254.134 143.695 254.031 142.568 253.88 141.448C253.668 139.876 253.428 138.307 253.189 136.739L253.189 136.737C252.827 134.362 252.465 131.987 252.198 129.602C252.039 128.185 251.646 127.05 250.695 126.018C250.202 125.482 249.701 124.951 249.2 124.421L249.2 124.42C247.664 122.793 246.127 121.164 244.802 119.38C241.146 114.454 235.955 111.871 230.568 109.528C227.097 108.019 223.507 106.939 219.69 106.721C218.011 106.625 216.332 106.505 214.654 106.386L214.654 106.386C212.94 106.263 211.226 106.141 209.511 106.044C208.1 105.965 206.665 105.908 205.271 106.083C204.578 106.171 203.885 106.725 203.313 107.21C202.749 107.69 202.212 108.203 201.675 108.715L201.675 108.715C200.983 109.376 200.292 110.036 199.543 110.624C198.754 111.244 197.918 111.813 197.083 112.381C195.712 113.314 194.344 114.245 193.19 115.395C191.864 116.718 190.805 118.312 189.747 119.902L189.747 119.902L189.747 119.902C189.358 120.488 188.969 121.073 188.567 121.644C185.584 125.882 183.292 130.463 182.03 135.506C181.249 138.627 180.587 141.779 179.931 144.93L179.827 145.429C179.345 147.735 178.863 150.047 178.559 152.379L178.546 152.483C178.306 154.33 178.288 154.47 176.515 153.815C174.685 153.138 173.108 153.596 171.819 154.837C170.553 156.057 170.414 157.703 170.854 159.362C172.143 164.221 175.857 166.255 180.296 167.467C180.684 167.573 181.112 167.951 181.296 168.316C183.21 172.102 183.293 176.129 182.082 180.034C180.966 183.63 179.645 187.161 178.323 190.693C177.74 192.252 177.157 193.81 176.592 195.374C176.009 196.984 175.69 198.461 177.024 200.021C179.893 203.376 182.632 206.848 184.702 210.784C185.522 212.344 186.782 213.468 188.471 213.807C190.08 214.13 190.299 214.926 190.488 216.435C190.738 218.425 191.4 220.517 192.475 222.184C192.817 222.713 193.737 222.856 194.679 223.003C195.178 223.08 195.683 223.159 196.111 223.296C196.461 223.408 197.016 223.874 196.973 224.064C196.896 224.401 196.822 224.74 196.747 225.079C196.39 226.704 196.031 228.337 195.428 229.871C194.108 233.23 191.298 235.331 188.572 237.371L188.571 237.371L188.571 237.371C188.199 237.65 187.828 237.927 187.462 238.207C182.702 241.846 177.039 243.845 171.35 245.569C168.676 246.38 165.963 247.062 163.25 247.744C161.49 248.187 159.73 248.629 157.98 249.107C156.89 249.405 155.813 249.757 154.736 250.109C153.139 250.631 151.543 251.152 149.908 251.495C143.628 252.813 138.089 255.523 133.223 259.673C129.953 262.463 128.198 266.214 126.433 269.986C126.347 270.169 126.261 270.353 126.175 270.536C123.789 275.621 121.698 281.042 121.403 286.544C121.32 288.087 121.438 289.64 121.556 291.194C121.616 291.98 121.675 292.766 121.709 293.55C121.785 295.315 121.85 297.08 121.915 298.845C122.056 302.684 122.197 306.524 122.45 310.355C122.592 312.492 122.972 314.615 123.351 316.735L123.351 316.736L123.351 316.736L123.351 316.736C123.46 317.345 123.569 317.953 123.672 318.561C123.953 320.217 124.266 321.867 124.58 323.517L124.58 323.517L124.58 323.518C124.789 324.619 124.998 325.72 125.198 326.823C125.328 327.542 125.467 328.26 125.607 328.979C125.983 330.912 126.359 332.846 126.549 334.797C126.725 336.59 126.674 338.407 126.623 340.221C126.608 340.758 126.593 341.295 126.583 341.831C126.567 342.774 126.732 343.539 127.867 343.283C128.988 343.03 130.089 342.689 131.19 342.349L131.191 342.348L131.192 342.348L131.192 342.348L131.193 342.348L131.193 342.348L131.194 342.347L131.194 342.347L131.195 342.347L131.195 342.347L131.195 342.347L131.195 342.347L131.196 342.347L131.196 342.347C131.54 342.24 131.884 342.134 132.229 342.03C133.398 341.679 134.114 342.091 134.264 343.292C134.414 344.481 134.545 345.672 134.676 346.863L134.676 346.863C134.876 348.67 135.075 350.478 135.336 352.276C135.971 356.648 136.67 361.013 137.424 365.366C138.807 373.358 140.801 381.207 143.42 388.877C145.749 395.694 148.268 402.449 150.812 409.191C152.277 413.074 153.844 416.919 155.41 420.763L155.41 420.763L155.411 420.765L155.412 420.766L155.412 420.768L155.413 420.769L155.413 420.771C155.813 421.751 156.212 422.731 156.61 423.711C158.225 427.694 159.875 431.663 161.528 435.631C161.91 436.55 162.288 437.471 162.667 438.392L162.667 438.393L162.668 438.395L162.668 438.396L162.669 438.398L162.669 438.398C163.78 441.105 164.891 443.811 166.118 446.464C167.183 448.767 168.394 451.004 169.603 453.239C169.96 453.899 170.317 454.558 170.67 455.22C170.78 455.425 171 455.571 171.221 455.718C171.323 455.786 171.426 455.854 171.517 455.928C171.561 455.807 171.612 455.686 171.663 455.566C171.783 455.284 171.903 455.002 171.93 454.712C171.952 454.485 171.823 454.236 171.699 453.999C171.667 453.936 171.635 453.874 171.606 453.814C171.194 452.951 170.769 452.095 170.343 451.238C169.451 449.442 168.558 447.646 167.796 445.796C165.157 439.388 162.625 432.934 160.102 426.478C158.969 423.577 157.861 420.666 156.753 417.756L156.752 417.755C155.661 414.889 154.571 412.024 153.456 409.168C152.762 407.392 152.029 405.631 151.297 403.869L151.296 403.868L151.296 403.868C149.984 400.714 148.673 397.561 147.589 394.331C145.289 387.474 143.231 380.524 141.368 373.534C140.318 369.596 139.596 365.565 138.876 361.542L138.875 361.54C138.746 360.818 138.617 360.095 138.485 359.373C138.122 357.376 137.891 355.353 137.659 353.331L137.659 353.331C137.58 352.641 137.502 351.951 137.417 351.263C137.052 348.269 136.707 345.273 136.372 342.275C136.26 341.276 136.702 340.803 137.722 340.481C141.623 339.246 145.505 337.952 149.387 336.659L149.387 336.658L149.388 336.658L149.389 336.658L149.39 336.658L149.391 336.657L149.391 336.657L149.392 336.657L149.393 336.657L149.394 336.656L149.395 336.656L149.395 336.656L149.396 336.655L149.397 336.655L149.398 336.655C150.776 336.196 152.154 335.736 153.534 335.28C154.559 334.94 155.65 334.615 156.772 334.28L156.773 334.28L156.774 334.28L156.774 334.28L156.775 334.279L156.775 334.279C160.934 333.04 165.511 331.675 168.676 329.012C168.859 328.858 169.339 328.77 169.454 328.882C169.661 329.085 169.807 329.471 169.785 329.767C169.676 331.245 169.543 332.722 169.411 334.199L169.411 334.2C169.149 337.113 168.887 340.026 168.806 342.944C168.702 346.645 168.879 350.358 169.057 354.064L169.057 354.064L169.057 354.069L169.057 354.073L169.085 354.653C169.099 354.946 169.113 355.239 169.126 355.532C169.236 357.884 169.411 360.254 169.833 362.566C170.906 368.448 173.134 373.952 175.749 379.298C176.129 380.075 176.581 380.823 177.032 381.569L177.033 381.57C177.708 382.687 178.381 383.801 178.81 385.006C179.465 386.849 180.158 388.679 180.85 390.509C182.752 395.535 184.655 400.562 185.784 405.85C186.139 407.513 186.554 409.164 186.969 410.814L186.969 410.815C187.429 412.646 187.89 414.478 188.268 416.327C188.853 419.177 189.308 422.055 189.763 424.932C189.867 425.595 189.972 426.258 190.079 426.921C190.209 427.73 190.354 428.54 190.499 429.349L190.499 429.35C190.892 431.547 191.287 433.747 191.381 435.958C191.57 440.357 191.63 444.762 191.69 449.167V449.168V449.168V449.168V449.169V449.169V449.169V449.169V449.17V449.17V449.17V449.17V449.171V449.171V449.171C191.722 451.522 191.754 453.872 191.806 456.222C191.814 456.573 191.963 456.92 192.112 457.267C192.181 457.428 192.25 457.59 192.305 457.752C192.397 457.588 192.512 457.426 192.627 457.264C192.875 456.913 193.123 456.563 193.144 456.199C193.259 454.218 193.326 452.234 193.394 450.25L193.394 450.25L193.394 450.25L193.394 450.249L193.394 450.249L193.394 450.248L193.394 450.248L193.394 450.247L193.394 450.247L193.394 450.246L193.394 450.246L193.394 450.245L193.394 450.245L193.394 450.245L193.394 450.244C193.438 448.963 193.481 447.682 193.538 446.402C193.564 445.793 193.628 445.185 193.691 444.576L193.691 444.576L193.691 444.576L193.691 444.576L193.691 444.575L193.691 444.575L193.691 444.575L193.691 444.574L193.691 444.574L193.691 444.574L193.691 444.574L193.692 444.573L193.692 444.573L193.692 444.573L193.692 444.572C193.787 443.659 193.882 442.746 193.853 441.836C193.823 440.89 193.796 439.943 193.769 438.996L193.769 438.993L193.769 438.99L193.769 438.987L193.769 438.984L193.769 438.981L193.769 438.978L193.769 438.975C193.645 434.611 193.52 430.244 193.11 425.906C192.836 422.997 192.146 420.119 191.46 417.254C191.329 416.704 191.197 416.155 191.069 415.606C190.761 414.291 190.461 412.974 190.16 411.657L190.16 411.654C189.094 406.979 188.028 402.301 186.628 397.727C184.328 390.216 181.206 383.006 177.62 375.989C175.99 372.799 174.624 369.395 173.708 365.936C171.911 359.146 171.755 352.126 171.6 345.146L171.586 344.49C171.514 341.278 171.646 338.06 171.778 334.844L171.778 334.844C171.823 333.746 171.868 332.648 171.905 331.551C171.953 330.11 172.064 328.671 172.175 327.233L172.175 327.232C172.199 326.917 172.223 326.602 172.247 326.287C172.354 324.855 172.485 323.422 172.616 321.99L172.616 321.99L172.616 321.99L172.616 321.989L172.616 321.989L172.616 321.989L172.616 321.989L172.616 321.989L172.616 321.988L172.616 321.988L172.616 321.988L172.616 321.988L172.616 321.988L172.616 321.988L172.616 321.987C172.902 318.855 173.188 315.724 173.227 312.589C173.259 310.067 173.095 307.544 172.931 305.02L172.931 305.02C172.796 302.929 172.66 300.838 172.635 298.747C172.6 295.795 171.748 293.067 170.896 290.338C170.626 289.472 170.355 288.606 170.111 287.733C170.017 287.397 169.67 287.132 169.322 286.868C169.162 286.745 169.001 286.623 168.865 286.493C168.812 286.683 168.736 286.877 168.66 287.071C168.493 287.494 168.327 287.918 168.403 288.293C168.555 289.043 168.783 289.783 169.01 290.521C169.328 291.555 169.645 292.586 169.754 293.64C170.245 298.366 170.71 303.113 170.786 307.857C170.818 309.843 170.663 311.834 170.508 313.824C170.335 316.044 170.162 318.263 170.249 320.474C170.373 323.627 168.764 325.303 166.61 326.903C163.777 329.008 159.73 330.224 156.096 331.316C155.134 331.605 154.2 331.886 153.326 332.172C147.895 333.949 142.497 335.824 137.099 337.7C134.87 338.474 132.64 339.249 130.409 340.017L130.371 340.029C129.626 340.286 129.01 340.498 129.011 339.225C129.012 337.673 128.852 336.117 128.691 334.569L128.683 334.486C128.592 333.604 128.502 332.723 128.413 331.841L128.413 331.841C128.068 328.434 127.722 325.026 127.273 321.633C126.999 319.56 126.665 317.494 126.332 315.429C125.934 312.961 125.536 310.493 125.238 308.012C124.819 304.526 124.571 301 124.543 297.489C124.514 293.933 124.623 290.376 124.733 286.819C124.776 285.423 124.819 284.026 124.853 282.63C124.946 278.885 126.786 275.448 128.579 272.097C129.25 270.843 129.915 269.601 130.479 268.359C133.342 262.061 138.733 258.588 144.801 256.135C147.718 254.956 150.76 254.085 153.8 253.214L153.801 253.214C154.918 252.894 156.034 252.574 157.145 252.24C159.632 251.489 162.125 250.758 164.619 250.027L164.619 250.027C169.538 248.586 174.457 247.144 179.327 245.552C183.671 244.133 187.808 242.099 191.229 238.951C192.166 238.089 192.627 238.242 193.453 239.032C196.152 241.612 198.915 244.124 201.678 246.637L202.153 247.068C206.862 251.352 212.104 254.854 217.932 257.409C218.796 257.787 220.21 257.735 221.012 257.268C222.822 256.215 224.514 254.956 226.203 253.7L226.204 253.7L226.204 253.699L226.204 253.699L226.205 253.699C226.552 253.44 226.9 253.182 227.248 252.925C227.945 252.412 228.642 251.901 229.34 251.389L229.342 251.387L229.344 251.386L229.347 251.384L229.349 251.382L229.352 251.38L229.354 251.379C232.273 249.238 235.192 247.098 238.031 244.855C241.046 242.473 243.204 239.335 245.354 236.207L245.354 236.207L245.355 236.206L245.355 236.206L245.356 236.205L245.356 236.205L245.356 236.204L245.357 236.204L245.357 236.203L245.357 236.203L245.358 236.202L245.358 236.202C245.701 235.703 246.043 235.205 246.389 234.71C246.525 234.515 246.044 233.51 245.736 233.448C244.527 233.203 243.973 233.991 243.391 234.816C243.28 234.973 243.169 235.132 243.051 235.285C242.569 235.914 242.098 236.561 241.626 237.209C240.164 239.215 238.694 241.233 236.846 242.79C233.898 245.276 230.801 247.585 227.703 249.894C225.5 251.536 223.298 253.178 221.147 254.884C219.809 255.946 218.824 255.868 217.531 255.138C217.393 255.06 217.255 254.983 217.117 254.905L216.68 254.66C213.663 252.965 210.67 251.284 208.06 248.885C204.705 245.802 201.184 242.899 197.664 239.997C196.657 239.167 195.651 238.338 194.649 237.504C193.719 236.73 193.886 236.252 194.685 235.521C197.364 233.071 198.801 230.039 199.191 226.382C199.215 226.158 199.223 225.913 199.231 225.658C199.268 224.505 199.312 223.157 200.855 222.798C202.337 222.452 203.443 223.421 204.328 224.495C204.896 225.185 205.438 225.896 205.98 226.607L205.981 226.607L205.981 226.607L205.981 226.607L205.981 226.607L205.981 226.607L205.981 226.607L205.981 226.607L205.981 226.608L205.981 226.608L205.981 226.608L205.981 226.608L205.981 226.608L205.981 226.608L205.981 226.608C206.656 227.493 207.331 228.378 208.055 229.22L208.191 229.379C209.575 230.994 211.1 232.772 213.506 231.94C216.87 230.777 220.266 230.56 223.762 230.519C224.756 230.507 226.137 229.764 226.646 228.932C227.489 227.556 228.111 226.044 228.733 224.534C228.974 223.95 229.215 223.365 229.468 222.789C230.36 220.759 231.288 220.001 233.523 220.814C234.493 221.168 235.779 221.449 236.657 221.1C238.397 220.408 238.726 221.247 239.214 222.491L239.274 222.644C240.413 225.53 241.573 228.424 244.322 230.306C246.135 231.547 248.187 231.89 250.24 232.234C250.431 232.266 250.622 232.298 250.813 232.33C252.599 232.636 254.391 232.911 256.183 233.185C258.76 233.58 261.336 233.974 263.895 234.463C270.56 235.735 276.273 239.158 281.169 243.588C284.589 246.683 287.351 250.579 290.044 254.379L290.044 254.379L290.122 254.489C292.078 257.248 293.669 260.28 295.25 263.293L295.251 263.295L295.251 263.296L295.252 263.298C295.434 263.644 295.615 263.99 295.797 264.334C296.289 265.268 296.784 266.199 297.28 267.131L297.28 267.131C299.544 271.39 301.81 275.653 303.73 280.063C305.952 285.168 307.977 290.357 310.003 295.547L310.003 295.547L310.003 295.547L310.003 295.547L310.003 295.547L310.003 295.547L310.003 295.547L310.003 295.548L310.003 295.548L310.003 295.548L310.003 295.548L310.003 295.548L310.004 295.548L310.004 295.548L310.004 295.549C310.987 298.069 311.971 300.589 312.977 303.099C313.313 303.938 313.421 304.471 312.399 304.953C311.685 305.289 311.002 305.7 310.32 306.111L310.319 306.111L310.319 306.111L310.318 306.111L310.318 306.111ZM179.868 192.33L179.869 192.329C180.117 191.768 180.366 191.207 180.619 190.648C182.598 186.089 184.307 181.882 184.553 177.066C184.781 172.586 183.633 168.5 182.462 164.337L182.462 164.337C182.394 164.096 182.326 163.855 182.259 163.614C181.892 162.303 181.707 160.943 181.522 159.582L181.522 159.582C181.364 158.421 181.207 157.259 180.935 156.126C180.306 153.497 180.816 151 181.325 148.507C181.589 147.218 181.852 145.93 181.957 144.625C182.284 140.583 183.232 136.724 184.603 132.966C186.38 128.094 189.098 123.725 192.065 119.477C194.324 116.244 197.266 113.944 200.608 111.985C201.946 111.201 203.301 110.22 204.208 109.001C204.892 108.082 205.462 107.747 206.516 107.761C207.67 107.777 208.825 107.76 209.98 107.742C211.91 107.713 213.839 107.684 215.759 107.81C222.763 108.271 229.427 110.016 235.377 113.892L235.66 114.076C237.837 115.494 240.054 116.937 241.894 118.735C244.239 121.026 246.346 123.565 248.448 126.096L248.448 126.097L248.449 126.097L248.452 126.101L248.453 126.102L248.454 126.103C248.781 126.497 249.107 126.89 249.435 127.282C249.803 127.724 249.9 128.423 249.99 129.076C250.008 129.204 250.026 129.331 250.045 129.454C250.54 132.591 251.008 135.733 251.477 138.874L251.477 138.876L251.477 138.878L251.688 140.289C251.785 140.942 251.884 141.594 251.983 142.246L251.983 142.247L251.983 142.248L251.983 142.25L251.983 142.25L251.983 142.251L251.983 142.251L251.984 142.251L251.984 142.252L251.984 142.252L251.984 142.252L251.984 142.253L251.984 142.253L251.984 142.253L251.984 142.254L251.984 142.254L251.984 142.254L251.984 142.255C252.283 144.229 252.583 146.203 252.84 148.183C252.927 148.852 253.014 149.521 253.102 150.19L253.103 150.201L253.104 150.212L253.105 150.213L253.105 150.213C253.63 154.235 254.155 158.257 254.564 162.29C254.79 164.526 254.843 166.78 254.897 169.032C254.909 169.527 254.921 170.022 254.934 170.516C254.963 171.556 254.993 172.596 255.024 173.636L255.024 173.638L255.024 173.64C255.144 177.745 255.265 181.851 255.267 185.956C255.27 192.086 253.919 198.027 252.104 203.83C250.989 207.397 249.594 210.88 248.202 214.357C247.955 214.974 247.708 215.591 247.463 216.208C247.262 216.712 246.485 217.176 245.898 217.301C244.274 217.648 242.616 217.88 240.96 218.003C240.29 218.052 239.463 217.873 238.938 217.486C238.289 217.007 238.172 216.998 237.817 217.746C236.978 219.513 235.97 219.936 234.026 219.246C232.299 218.634 230.615 218.414 229.315 219.842C228.595 220.633 228.119 221.661 227.652 222.667L227.652 222.668C227.567 222.851 227.482 223.034 227.396 223.215C227.17 223.691 227.035 224.21 226.899 224.73C226.829 224.999 226.759 225.269 226.676 225.532C225.869 228.101 224.844 228.99 222.22 228.819C219.359 228.633 216.586 229.043 213.949 229.958C211.728 230.728 210.689 229.528 209.571 228.237C209.457 228.105 209.342 227.972 209.225 227.84C208.907 227.483 208.591 227.125 208.275 226.767L208.275 226.767C206.744 225.033 205.212 223.297 203.548 221.701C202.926 221.104 201.724 220.862 200.798 220.884C199.831 220.907 198.869 221.07 197.906 221.234L197.906 221.234C197.28 221.34 196.654 221.446 196.025 221.514C194.684 221.659 193.631 220.907 193.233 219.773C192.676 218.188 192.364 216.489 192.173 214.813C192.036 213.608 191.604 212.694 190.46 212.487C187.64 211.978 186.086 210.207 184.744 207.805C183.794 206.105 182.583 204.55 181.374 202.996L181.373 202.995L181.373 202.995C180.913 202.403 180.452 201.812 180.007 201.213C179.711 200.816 179.388 200.44 179.065 200.064C178.763 199.715 178.462 199.365 178.184 198.998C177.562 198.178 177.531 197.334 178.008 196.37C178.665 195.042 179.267 193.686 179.868 192.33ZM256.038 159.43L255.988 158.546C255.632 156.48 256.635 155.825 257.996 155.043C259.901 153.947 261.779 153.01 263.996 153.167C265.061 153.243 265.954 153.771 265.056 155.045C263.534 157.206 261.978 159.345 260.388 161.457C259.667 162.415 258.899 163.336 258.13 164.258L258.13 164.258L258.13 164.258C257.86 164.582 257.59 164.906 257.322 165.231C257.228 165.346 257.111 165.441 256.994 165.537C256.94 165.582 256.886 165.626 256.834 165.672C256.787 165.61 256.739 165.548 256.691 165.486C256.569 165.329 256.447 165.173 256.345 165.004C256.312 164.949 256.321 164.871 256.329 164.792C256.334 164.747 256.338 164.702 256.336 164.661C256.238 162.932 256.14 161.203 256.041 159.475L256.041 159.471L256.041 159.468L256.041 159.465L256.04 159.462L256.04 159.459L256.04 159.455L256.04 159.452L256.04 159.449L256.039 159.446L256.039 159.442L256.039 159.439L256.039 159.436L256.039 159.433L256.038 159.43ZM180.401 165.641L180.401 165.641C180.353 165.72 180.305 165.798 180.27 165.874C179.322 165.422 178.442 164.882 177.572 164.347L177.572 164.347C176.81 163.879 176.054 163.415 175.265 163.018C173.482 162.121 172.855 160.49 172.284 158.87C171.627 157.006 173.089 155.225 175.072 155.238C175.159 155.239 175.247 155.239 175.335 155.239L175.338 155.239C176.044 155.242 176.762 155.244 177.442 155.393C178.777 155.686 178.909 156.721 179.037 157.718V157.718C179.076 158.027 179.116 158.333 179.19 158.612C179.667 160.396 180.015 162.216 180.363 164.033L180.363 164.035L180.364 164.036L180.364 164.037L180.364 164.039L180.364 164.039L180.364 164.04L180.364 164.04L180.365 164.041C180.436 164.415 180.508 164.788 180.58 165.161C180.608 165.304 180.504 165.473 180.401 165.641ZM286.114 329.891C288.873 334.308 291.64 338.739 294.458 343.218C295.174 343.934 295.88 344.644 296.58 345.348L296.587 345.355L296.589 345.357L296.59 345.358L296.59 345.359L296.591 345.359L296.595 345.363L296.6 345.368L296.602 345.37L296.602 345.371L296.603 345.371L296.603 345.371L296.603 345.372L296.604 345.372L296.604 345.372L296.604 345.373C298.144 346.921 299.656 348.441 301.188 349.94C304.882 353.551 309.276 354.435 314.226 353.299C318.527 352.314 322.455 350.568 325.915 347.832C326.462 347.399 327.026 346.977 327.591 346.555L327.592 346.555L327.593 346.554L327.594 346.554L327.594 346.553L327.595 346.553C329.259 345.31 330.932 344.061 332.205 342.495C335.11 338.924 337.782 335.108 340.116 331.139C343.23 325.842 346.326 320.468 348.704 314.821C350.921 309.557 352.766 304.136 354.61 298.716L354.61 298.715C355.298 296.695 355.985 294.675 356.692 292.663C356.949 291.93 357.208 291.196 357.467 290.463L357.467 290.461L357.468 290.459L357.469 290.457C358.928 286.319 360.388 282.178 361.681 277.987C362.309 275.952 362.838 273.885 363.367 271.819C364.048 269.159 364.729 266.5 365.62 263.911C366.642 260.939 367.912 258.053 369.182 255.167C369.84 253.672 370.498 252.177 371.122 250.67C371.778 249.084 372.436 247.499 373.095 245.914L373.096 245.913C375.611 239.858 378.127 233.803 380.513 227.698C381.46 225.278 382.122 222.744 382.783 220.215C382.957 219.549 383.131 218.884 383.31 218.221C383.391 217.92 383.23 217.554 383.068 217.188C382.993 217.018 382.919 216.849 382.868 216.686C382.693 216.742 382.507 216.783 382.32 216.825C381.915 216.915 381.509 217.005 381.225 217.242C379.441 218.723 378.208 220.6 377.394 222.791C376.976 223.913 376.416 224.985 375.859 226.053C375.743 226.275 375.627 226.497 375.512 226.719C375.443 226.854 375.255 226.928 375.067 227.002C374.98 227.036 374.893 227.071 374.818 227.111C374.817 227.036 374.81 226.96 374.803 226.883C374.788 226.719 374.774 226.555 374.817 226.407C375.155 225.245 375.506 224.086 375.857 222.927C376.603 220.465 377.349 218.004 377.97 215.512C378.479 213.473 378.643 211.33 378.78 209.222C378.878 207.697 377.482 206.814 376.256 207.608C375.621 208.02 375.096 208.604 374.571 209.188C374.36 209.423 374.149 209.658 373.93 209.882C373.758 210.059 373.602 210.253 373.447 210.447C373.376 210.536 373.305 210.624 373.232 210.711C373.195 210.61 373.154 210.51 373.113 210.409C373.023 210.188 372.933 209.968 372.889 209.738C372.745 208.977 372.636 208.209 372.534 207.442C372.342 205.994 371.508 204.613 370.229 204.584C369.36 204.564 368.123 205.826 367.633 206.806C366.145 209.78 364.835 212.855 363.652 215.966C362.732 218.383 361.914 220.84 361.096 223.296L361.096 223.297L361.095 223.298L361.095 223.299L361.095 223.299L361.095 223.3L361.094 223.301L361.094 223.302L361.094 223.302L361.093 223.303L361.093 223.304L361.093 223.305L361.093 223.306L361.092 223.306L361.092 223.307C360.721 224.423 360.349 225.539 359.968 226.651C359.884 226.894 359.787 227.132 359.689 227.37C359.644 227.48 359.598 227.59 359.555 227.701C359.463 227.633 359.365 227.57 359.267 227.507C359.055 227.371 358.843 227.234 358.703 227.045C357.245 225.073 355.163 224.034 353.046 222.979L352.789 222.851C350.86 221.887 348.952 222.152 347.261 222.987C344.969 224.119 345.049 228.227 347.062 230.068C350.165 232.906 352.313 236.285 353.229 240.426C354.473 246.051 353.295 251.134 349.97 255.791C349.81 256.014 349.651 256.238 349.491 256.461L349.476 256.482C347.818 258.8 346.159 261.121 344.635 263.525C340.729 269.687 336.861 275.874 333.082 282.113L332.857 282.484C329.363 288.253 325.866 294.027 322.636 299.944C321.176 302.619 319.992 305.447 318.808 308.273L318.808 308.274C318.39 309.271 317.973 310.269 317.543 311.259C317.159 312.144 316.888 312.455 316.156 311.555C315.609 310.881 314.983 310.25 314.298 309.721C314.088 309.558 313.769 309.536 313.45 309.514C313.392 309.51 313.333 309.506 313.275 309.501C313.238 309.498 313.202 309.495 313.166 309.491C313.118 309.485 313.072 309.479 313.026 309.471C313.023 309.509 313.018 309.548 313.012 309.588L313.007 309.614C313.002 309.643 312.997 309.672 312.991 309.701C312.985 309.732 312.979 309.764 312.972 309.796C312.923 310.039 312.874 310.283 312.973 310.394C313.103 310.54 313.232 310.687 313.362 310.835C314.036 311.602 314.719 312.38 315.537 312.957C318.088 314.759 318.39 314.551 319.517 311.578C319.653 311.219 319.789 310.859 319.924 310.498L319.93 310.482L319.938 310.462L319.939 310.458L319.939 310.457C320.915 307.859 321.898 305.243 323.231 302.832C326.85 296.286 330.669 289.848 334.514 283.43C338.315 277.084 342.184 270.775 346.147 264.528C347.042 263.118 348.037 261.766 349.031 260.415C350.423 258.523 351.814 256.633 352.926 254.588C357.057 246.989 356.453 239.428 351.642 232.271C351.164 231.561 350.545 230.943 349.927 230.327C349.246 229.648 348.565 228.969 348.078 228.17C347.554 227.309 347.496 225.749 347.939 224.857C348.238 224.256 349.917 223.83 350.741 224.087C354.705 225.323 358.473 226.928 359.306 231.756C359.345 231.982 359.608 232.169 359.871 232.357C359.994 232.444 360.116 232.531 360.216 232.622C360.233 232.596 360.251 232.571 360.269 232.545C360.303 232.499 360.337 232.454 360.372 232.409C360.489 232.257 360.605 232.105 360.658 231.934C361.149 230.323 361.62 228.707 362.092 227.091L362.312 226.338C362.669 225.118 363.014 223.893 363.359 222.668L363.36 222.667L363.36 222.667L363.36 222.666L363.36 222.665L363.36 222.665L363.361 222.664L363.361 222.664L363.361 222.663L363.361 222.662L363.361 222.662L363.361 222.661L363.362 222.661L363.362 222.66L363.362 222.659C364.175 219.776 364.987 216.893 365.951 214.062C366.555 212.287 367.434 210.603 368.311 208.923L368.311 208.923L368.311 208.922L368.311 208.922L368.311 208.922C368.583 208.401 368.855 207.879 369.119 207.356C369.3 206.996 369.775 206.747 370.167 206.559C370.27 206.51 370.735 206.866 370.761 207.07C370.805 207.424 370.867 207.784 370.929 208.145C371.103 209.152 371.278 210.169 371.069 211.094C370.644 212.97 370.064 214.811 369.482 216.652C369.153 217.697 368.823 218.742 368.522 219.793C367.835 222.19 367.203 224.604 366.643 227.032C366.595 227.241 366.823 227.513 367.051 227.786L367.051 227.786C367.157 227.912 367.262 228.038 367.341 228.158C367.446 228.066 367.57 227.98 367.694 227.894C367.961 227.709 368.229 227.523 368.315 227.275C368.878 225.646 369.391 224.001 369.904 222.355C370.082 221.787 370.259 221.219 370.438 220.652C371.638 216.853 372.913 213.09 375.753 210.125C375.93 209.94 376.168 209.812 376.406 209.685L376.406 209.685L376.406 209.685L376.407 209.685L376.407 209.684L376.407 209.684C376.517 209.625 376.627 209.567 376.731 209.502C376.766 209.635 376.819 209.772 376.872 209.909C376.987 210.203 377.101 210.498 377.041 210.752C376.044 214.983 375.005 219.204 373.945 223.42C373.79 224.039 373.607 224.653 373.424 225.266L373.424 225.267L373.424 225.267L373.423 225.268L373.423 225.269L373.423 225.27L373.423 225.271L373.423 225.272L373.422 225.272L373.422 225.273L373.422 225.274L373.422 225.275L373.421 225.276L373.421 225.276L373.421 225.277C373.125 226.271 372.829 227.263 372.649 228.277C372.568 228.727 372.766 229.227 372.963 229.726C373.053 229.953 373.143 230.181 373.207 230.403C373.384 230.341 373.582 230.296 373.78 230.25C374.212 230.151 374.644 230.051 374.852 229.78C375.912 228.395 376.892 226.93 377.743 225.406C378.242 224.51 378.677 223.578 379.112 222.646C379.474 221.871 379.836 221.095 380.236 220.34C380.379 220.069 380.685 219.884 380.991 219.699C381.132 219.613 381.273 219.528 381.398 219.435C381.383 219.574 381.377 219.717 381.371 219.86C381.357 220.168 381.344 220.477 381.241 220.751C381.114 221.087 380.987 221.422 380.86 221.758L380.822 221.86L380.781 221.968L380.781 221.969C379.681 224.881 378.582 227.793 377.4 230.672C376.913 231.856 376.369 233.016 375.824 234.176L375.824 234.177C375.295 235.305 374.765 236.432 374.29 237.582C373.404 239.723 372.549 241.878 371.695 244.033L371.694 244.034L371.694 244.035L371.694 244.035L371.694 244.035L371.693 244.036L371.693 244.036L371.693 244.037L371.693 244.037L371.693 244.037L371.693 244.038L371.692 244.038L371.692 244.039L371.692 244.039L371.692 244.039L371.692 244.04C370.17 247.877 368.648 251.715 366.95 255.472C364.543 260.796 362.619 266.257 361.011 271.854C360.37 274.084 359.713 276.312 358.977 278.512C358.191 280.862 357.378 283.205 356.565 285.547C354.976 290.124 353.387 294.701 352 299.338C349.959 306.164 347.687 312.881 344.675 319.335C341.465 326.215 337.502 332.679 332.885 338.67C330.716 341.485 327.977 344.095 324.982 345.977C321.563 348.125 317.898 350.108 313.8 350.931C311.074 351.478 308.328 351.799 305.828 350.358C301.228 347.706 297.792 343.752 294.759 339.517C292.473 336.325 290.31 333.045 288.148 329.765C286.903 327.877 285.659 325.989 284.391 324.118C284.184 323.813 283.824 323.612 283.463 323.411C283.296 323.318 283.129 323.225 282.977 323.121C282.97 323.295 282.96 323.469 282.95 323.643C282.925 324.106 282.899 324.569 282.924 325.03C282.929 325.127 283.038 325.212 283.154 325.302C283.243 325.372 283.336 325.444 283.388 325.528C284.297 326.982 285.205 328.436 286.114 329.891ZM271.341 424.955C271.135 426.034 270.966 427.112 270.798 428.179C270.397 430.737 270.004 433.237 269.14 435.561C267.551 439.836 263.874 442.419 259.628 443.734C255.453 445.026 251.167 445.973 246.89 446.917C246.388 447.028 245.887 447.139 245.385 447.25C244.25 447.502 243.066 447.539 241.883 447.576H241.882C241.413 447.591 240.945 447.605 240.479 447.633C238.131 447.775 235.782 447.912 233.434 448.05C229.88 448.258 226.325 448.466 222.772 448.688C221.324 448.779 219.877 448.889 218.431 449C216.66 449.135 214.89 449.27 213.117 449.369C212.83 449.385 212.542 449.401 212.254 449.417C209.452 449.575 206.645 449.733 203.844 449.69C201.89 449.66 199.938 449.424 197.99 449.187L197.989 449.187C197.479 449.125 196.97 449.063 196.46 449.005C196.255 448.982 196.069 448.787 195.883 448.592C195.797 448.502 195.711 448.411 195.623 448.338C195.691 448.265 195.756 448.175 195.822 448.086C195.964 447.891 196.106 447.697 196.279 447.664C196.379 447.645 196.481 447.625 196.582 447.605C196.662 447.589 196.743 447.572 196.824 447.556C197.64 447.389 198.474 447.219 199.265 447.321C204.73 448.027 210.151 447.566 215.583 446.954C218.238 446.655 220.907 446.472 223.575 446.289L223.576 446.289L224.189 446.246C226.042 446.119 227.897 446.014 229.752 445.909L229.753 445.909L229.754 445.909L229.755 445.909L229.755 445.909L229.756 445.909L229.757 445.909L229.758 445.909L229.759 445.909L229.76 445.909L229.761 445.908L229.761 445.908L229.762 445.908L229.763 445.908L229.764 445.908L229.765 445.908L229.766 445.908L229.768 445.908L229.769 445.908L229.77 445.908L229.771 445.908L229.772 445.907L229.773 445.907L229.774 445.907L229.775 445.907L229.776 445.907L229.777 445.907C233.298 445.708 236.818 445.509 240.322 445.155C247.132 444.468 253.868 443.246 260.241 440.63C263.924 439.118 266.459 436.241 267.421 432.447L267.519 432.063L267.519 432.062C268.58 427.882 269.658 423.635 269.23 419.239C269.13 418.213 268.96 417.191 268.791 416.169C268.531 414.603 268.271 413.039 268.265 411.472C268.256 409.411 268.408 407.35 268.56 405.289C268.692 403.493 268.824 401.696 268.85 399.899C268.874 398.296 268.664 396.69 268.454 395.084C268.365 394.401 268.276 393.717 268.205 393.034C268.143 392.441 268.085 391.847 268.027 391.254C267.874 389.674 267.72 388.093 267.489 386.525C266.657 380.881 266.335 375.216 266.429 369.512C266.454 368.018 266.361 366.522 266.268 365.026L266.268 365.024C266.205 364.01 266.142 362.996 266.115 361.982C266.056 359.7 266.014 357.419 265.971 355.137C265.911 351.884 265.851 348.632 265.741 345.381C265.651 342.711 265.498 340.043 265.344 337.374L265.344 337.374C265.246 335.662 265.148 333.95 265.066 332.238C264.999 330.834 264.952 329.43 264.905 328.026C264.848 326.338 264.792 324.65 264.701 322.964C264.636 321.765 264.525 320.565 264.414 319.366C264.206 317.11 263.998 314.857 264.097 312.615C264.204 310.183 264.632 307.765 265.061 305.347L265.061 305.346L265.061 305.344L265.061 305.343L265.062 305.342L265.062 305.341L265.062 305.34L265.062 305.339L265.062 305.338L265.063 305.337L265.063 305.336L265.063 305.335L265.063 305.333L265.063 305.332C265.254 304.258 265.444 303.183 265.606 302.108C265.715 301.387 265.826 300.668 265.937 299.948L265.937 299.946L265.938 299.944L265.938 299.943L265.938 299.94L265.938 299.94L265.938 299.939L265.939 299.938L265.939 299.938L265.939 299.937L265.939 299.937L265.939 299.936L265.939 299.936L265.939 299.935L265.939 299.934L265.939 299.934L265.939 299.933C266.242 297.976 266.544 296.019 266.791 294.055C266.929 292.947 267.032 291.836 267.134 290.724L267.134 290.723L267.134 290.722L267.134 290.721L267.135 290.721L267.135 290.72L267.135 290.719L267.135 290.718L267.135 290.718L267.135 290.717L267.135 290.716L267.135 290.715L267.135 290.714L267.135 290.714L267.135 290.713L267.135 290.713L267.136 290.713L267.136 290.713L267.136 290.712L267.136 290.712L267.136 290.712L267.136 290.711L267.136 290.711L267.136 290.711L267.136 290.711L267.136 290.71L267.136 290.71C267.255 289.421 267.373 288.132 267.548 286.851C267.587 286.567 267.908 286.321 268.228 286.076C268.377 285.962 268.525 285.849 268.645 285.732C268.709 285.866 268.793 286.003 268.878 286.14C269.061 286.435 269.244 286.73 269.214 287.002C268.806 290.712 268.338 294.415 267.849 298.115C267.667 299.494 267.441 300.871 267.215 302.248L267.215 302.249L267.215 302.249C266.746 305.105 266.278 307.96 266.2 310.826C266.089 314.915 266.333 319.014 266.577 323.112C266.661 324.522 266.745 325.931 266.815 327.34C266.917 329.406 267.057 331.47 267.197 333.535L267.197 333.535L267.197 333.536L267.197 333.536L267.197 333.537L267.197 333.537L267.197 333.538L267.197 333.538L267.197 333.539L267.197 333.539L267.197 333.54L267.197 333.54L267.197 333.541L267.197 333.541C267.303 335.099 267.409 336.657 267.498 338.216C267.559 339.277 267.62 340.339 267.682 341.4L267.682 341.405L267.682 341.41L267.683 341.415L267.683 341.42L267.683 341.424L267.683 341.425C267.99 346.722 268.296 352.019 268.533 357.319C268.62 359.262 268.653 361.208 268.686 363.153V363.153C268.729 365.698 268.772 368.241 268.936 370.778C269.13 373.785 269.459 376.783 269.789 379.781C269.962 381.355 270.135 382.93 270.289 384.506C270.551 387.198 270.79 389.893 270.982 392.59C271.012 393.008 271.044 393.425 271.076 393.842C271.219 395.702 271.361 397.566 271.309 399.422C271.256 401.323 271.139 403.223 271.023 405.123L271.023 405.124L271.022 405.125L271.022 405.126L271.022 405.127L271.022 405.128L271.022 405.129L271.022 405.13L271.022 405.131L271.022 405.132L271.022 405.132L271.022 405.133L271.022 405.134L271.022 405.135C270.869 407.632 270.716 410.128 270.705 412.625C270.7 413.912 270.938 415.196 271.177 416.484C271.365 417.496 271.554 418.511 271.624 419.529C271.704 420.699 271.598 421.882 271.486 423.119C271.432 423.717 271.377 424.328 271.341 424.955ZM143.035 431.334C144.501 437.548 148.516 442.155 153.664 445.979L154.093 446.15C156.337 447.049 158.496 447.913 160.699 448.645C161.121 448.786 161.615 448.71 162.109 448.633C162.336 448.598 162.563 448.563 162.783 448.549C162.655 448.415 162.529 448.28 162.402 448.145C162.032 447.75 161.661 447.355 161.272 446.979C161.222 446.931 161.125 446.938 161.023 446.946C160.936 446.953 160.844 446.96 160.775 446.932C160.199 446.701 159.596 446.503 158.992 446.306L158.991 446.306L158.991 446.306C157.609 445.854 156.225 445.402 155.174 444.543C152.61 442.449 150.272 439.986 148.227 437.374C146.206 434.793 145.176 431.693 145.366 428.291C145.435 427.06 145.472 425.826 145.509 424.593C145.561 422.851 145.613 421.108 145.756 419.373C145.864 418.054 146.069 416.744 146.274 415.433C146.456 414.277 146.637 413.12 146.751 411.957C147.002 409.413 147.159 406.859 147.315 404.305C147.352 403.695 147.39 403.085 147.428 402.475C147.443 402.243 147.291 401.919 147.109 401.781C146.958 401.667 146.534 401.664 146.429 401.785C146.356 401.867 146.279 401.951 146.201 402.037L146.198 402.039L146.197 402.04L146.196 402.042C145.845 402.422 145.47 402.83 145.417 403.262C145.196 405.066 145.043 406.877 144.889 408.689C144.819 409.513 144.75 410.338 144.673 411.161C144.65 411.409 144.599 411.653 144.548 411.898C144.509 412.084 144.47 412.27 144.443 412.458C144.295 413.502 144.135 414.545 143.975 415.588C143.589 418.11 143.202 420.632 142.981 423.169C142.964 423.362 142.947 423.556 142.93 423.751C142.704 426.287 142.469 428.931 143.035 431.334ZM236.588 255.964L236.59 255.963C240.371 253.41 244.105 250.889 247.165 247.549C248.778 245.788 250.209 243.86 251.639 241.932C252.269 241.083 252.898 240.234 253.544 239.399C253.615 239.306 253.676 239.197 253.737 239.088C253.846 238.89 253.954 238.696 254.12 238.612C254.456 238.443 254.83 238.349 255.204 238.255L255.205 238.255C255.36 238.215 255.516 238.176 255.668 238.132C255.619 238.285 255.58 238.447 255.542 238.609L255.542 238.609C255.459 238.959 255.376 239.309 255.18 239.577C254.781 240.125 254.385 240.675 253.988 241.226L253.98 241.236C252.369 243.469 250.756 245.705 249 247.819C247.416 249.726 245.67 251.57 243.719 253.084C240.332 255.71 236.851 258.262 233.184 260.471C229.173 262.887 224.963 264.999 220.728 267.007C218.63 268.003 216.342 267.873 214.264 266.52C207.981 262.427 201.855 258.13 196.633 252.695C195.189 251.191 193.854 249.571 192.591 247.911C192.386 247.643 192.413 247.198 192.44 246.752C192.453 246.548 192.465 246.343 192.455 246.155C192.643 246.191 192.851 246.205 193.06 246.22C193.515 246.252 193.969 246.284 194.203 246.527C194.836 247.184 195.415 247.894 195.994 248.603C196.665 249.425 197.335 250.247 198.088 250.985C200.031 252.891 202.075 254.711 204.209 256.399C206.769 258.424 209.401 260.356 212.033 262.289L212.034 262.289L212.048 262.3L212.057 262.307C212.634 262.73 213.21 263.153 213.785 263.577C214.171 263.861 214.586 264.105 215.001 264.349C215.433 264.603 215.865 264.857 216.264 265.156C217.925 266.403 219.357 265.585 220.67 264.836L220.67 264.836C220.996 264.65 221.314 264.468 221.627 264.323C224.74 262.881 227.749 261.214 230.802 259.524C231.777 258.984 232.755 258.442 233.744 257.904C234.688 257.247 235.64 256.604 236.588 255.964ZM367.892 240.304C368.407 239.671 368.932 239.027 369.478 238.364C369.849 238.323 370.203 238.318 370.545 238.313C370.923 238.308 371.286 238.304 371.642 238.25C371.941 238.204 372.221 238.034 372.502 237.863C372.627 237.786 372.753 237.71 372.88 237.645C372.779 237.527 372.685 237.391 372.591 237.255C372.388 236.96 372.185 236.666 371.91 236.563C369.317 235.596 364.74 239.153 364.877 242.012C364.89 242.279 365.044 242.539 365.199 242.8L365.199 242.8C365.27 242.92 365.342 243.041 365.399 243.162C365.488 243.074 365.58 242.988 365.672 242.902L365.672 242.901C365.873 242.714 366.073 242.526 366.246 242.316C366.794 241.652 367.338 240.985 367.892 240.304ZM237.931 192.305C238.769 192.504 239.52 192.79 240.271 193.076L240.272 193.076C240.158 193.266 240.055 193.467 239.952 193.669C239.731 194.103 239.509 194.538 239.179 194.861C235.13 198.826 230.198 201.143 224.711 202.293C224.046 202.433 223.305 202.25 222.581 202.072C222.362 202.018 222.145 201.964 221.931 201.92C221.733 201.879 221.434 201.339 221.47 201.301C221.548 201.218 221.627 201.127 221.707 201.035C222.002 200.695 222.315 200.333 222.667 200.28C228.167 199.457 232.779 196.93 236.764 193.136C236.953 192.957 237.175 192.813 237.419 192.654L237.42 192.654C237.581 192.549 237.753 192.437 237.931 192.305ZM360.652 243.14C361.473 241.097 360.81 239.159 360.057 237.143C359.856 236.913 359.663 236.688 359.473 236.467L359.472 236.466C358.927 235.834 358.415 235.24 357.879 234.668C357.844 234.631 357.193 235.055 357.212 235.102C357.483 235.743 357.802 236.366 358.147 236.972C359.203 238.831 359.34 240.852 359.301 242.929C359.296 243.219 359.468 243.511 359.64 243.804C359.719 243.939 359.799 244.074 359.86 244.209C359.945 244.097 360.04 243.989 360.134 243.881C360.338 243.647 360.542 243.413 360.652 243.14ZM210.365 123.042C211.047 123.36 211.716 123.703 212.379 124.043C214.041 124.897 215.668 125.732 217.395 126.103L217.664 126.161C220.248 126.718 223.028 127.318 225.625 125.908C226.535 125.414 227.391 124.805 228.22 124.181C228.726 123.8 229.181 123.328 229.579 122.832C232.735 118.897 235.064 119.485 239.411 122.054C244.972 125.341 246.997 130.951 248.955 136.533C249.933 139.321 250.548 142.245 251.16 145.154L251.16 145.154L251.16 145.154L251.16 145.154L251.16 145.154L251.16 145.154L251.16 145.154L251.16 145.154L251.161 145.157L251.162 145.163L251.164 145.172L251.166 145.183C251.246 145.564 251.326 145.945 251.407 146.325C251.811 148.226 251.982 150.186 252.132 152.128C252.31 154.433 252.394 156.746 252.478 159.058L252.493 159.481C252.539 160.745 252.564 162.011 252.588 163.278V163.278V163.278V163.278V163.279V163.279V163.279V163.28V163.28C252.635 165.747 252.683 168.213 252.891 170.666C253.209 174.419 252.61 178.036 251.772 181.624C250.808 185.755 247.667 187.747 243.861 188.676C242.257 189.067 240.584 189.18 238.913 189.292H238.913L238.913 189.292L238.913 189.292L238.913 189.292L238.912 189.292L238.912 189.292L238.912 189.292L238.912 189.293C238.335 189.331 237.759 189.37 237.187 189.421C231.294 189.938 225.437 190.668 219.743 192.356C217.977 192.879 216.289 192.638 214.809 191.654C211.819 189.667 208.443 188.94 204.999 188.383C198.578 187.345 192.481 185.593 187.775 180.709C186.533 179.419 185.736 178.039 185.816 176.097C185.958 172.654 185.461 169.264 184.964 165.878C184.681 163.945 184.397 162.012 184.233 160.071C183.737 154.203 183.954 148.308 185.748 142.464C187.749 135.945 190.802 130.187 195.645 125.486C196.975 124.195 198.582 123.191 200.191 122.186C200.976 121.696 201.761 121.205 202.514 120.681L202.641 120.593L202.641 120.593C203.465 120.02 204.298 119.441 205.024 118.757C206.13 117.715 206.801 118.266 207.492 119.223C208.317 120.367 209.174 121.487 210.087 122.68L210.365 123.042ZM246.043 133.597C245.951 133.377 245.858 133.157 245.765 132.938C245.565 132.465 245.365 131.992 245.172 131.516C243.335 126.98 240.09 123.798 235.646 121.884C234.955 121.586 233.754 121.759 233.132 122.199C232.613 122.565 232.249 123.14 231.882 123.721C231.675 124.049 231.466 124.379 231.228 124.673C229.102 127.302 226.609 129.358 222.97 129.034C220.719 128.833 218.444 128.544 216.264 127.973C212.847 127.077 209.735 125.47 207.525 122.605L207.431 122.482L207.309 122.324C205.857 120.434 205.839 120.411 203.86 121.739C203.207 122.177 202.536 122.597 201.865 123.017L201.865 123.017C200.192 124.063 198.517 125.111 197.119 126.447C192.394 130.963 189.291 136.392 187.429 142.819C185.751 148.611 185.65 154.354 185.925 160.162C186.149 164.878 186.899 169.582 187.649 174.254C187.665 174.357 187.682 174.46 187.698 174.564C188.026 176.633 188.363 178.762 190.17 180.364C193.591 183.398 197.646 185.031 202.005 185.899C202.596 186.017 203.188 186.131 203.779 186.244C207.936 187.042 212.068 187.835 215.812 190.071C216.685 190.593 218.007 190.708 219.05 190.545C221.395 190.178 223.731 189.751 226.067 189.323L226.067 189.323L226.068 189.323L226.068 189.323L226.068 189.323L226.069 189.323L226.069 189.323L226.069 189.323C228.491 188.879 230.912 188.436 233.344 188.06C234.722 187.847 236.119 187.732 237.514 187.618H237.515C239.42 187.461 241.323 187.304 243.174 186.899C245.723 186.34 248.59 185.475 249.416 182.492C250.22 179.592 250.912 176.578 251.023 173.59C251.175 169.461 251.001 165.317 250.827 161.178V161.178V161.177V161.177V161.177V161.177V161.176V161.176L250.826 161.167L250.826 161.158L250.826 161.149L250.825 161.14L250.825 161.132L250.825 161.123L250.824 161.114C250.793 160.382 250.763 159.65 250.734 158.918C250.673 157.386 250.544 155.855 250.415 154.325C250.273 152.64 250.131 150.955 250.081 149.268C249.924 144.009 248.127 139.189 246.26 134.18L246.26 134.179L246.043 133.597ZM242.486 150.999C239.532 148.691 236.068 148.218 232.261 148.601C231.907 148.665 231.607 148.735 231.329 148.801L231.329 148.801C231.096 148.855 230.878 148.906 230.659 148.946C227.061 149.6 223.977 151.069 221.858 154.227C221.635 154.558 220.804 154.726 220.346 154.611C218.324 154.104 216.447 154.062 214.877 155.696C214.682 155.899 214.501 156.114 214.321 156.33L214.321 156.33C214.237 156.43 214.154 156.529 214.07 156.627C214.038 156.482 213.994 156.337 213.95 156.191C213.855 155.877 213.76 155.563 213.786 155.259C214.1 151.646 212.37 149.397 209.219 147.878C206.27 146.457 203.173 146.153 199.987 146.157C195.135 146.163 191.002 149.305 189.297 153.9C188.255 156.706 188.537 159.435 189.436 162.027C190.313 164.557 191.309 167.261 193.915 168.664C194.245 168.841 194.577 169.028 194.911 169.215L194.911 169.215C196.442 170.074 198.018 170.958 199.647 171.153C199.793 171.17 199.94 171.188 200.087 171.206C202.504 171.503 205.096 171.82 207.379 170.189C210.83 167.723 212.713 164.238 213.712 160.283C214.183 158.417 215.136 157.294 216.8 156.548C219.304 155.425 220.875 156.413 221.136 159.006C221.442 162.04 222.11 165.024 223.887 167.622C225.97 170.667 228.798 172.518 232.29 173.805C236.498 175.357 239.522 174.412 242.573 171.944C248.243 167.36 248.807 155.937 242.486 150.999ZM229.317 151.136C231.695 150.427 234.277 150.198 236.796 150.869C239.657 151.085 241.536 152.698 242.922 154.657C244.314 156.623 245.576 158.852 245.487 161.401C245.391 164.135 244.363 166.597 242.645 168.748C241.171 170.593 239.251 171.773 236.973 172.279C236.496 172.385 235.958 172.246 235.429 172.11L235.429 172.11C235.239 172.061 235.051 172.013 234.867 171.976C228.804 170.76 224.745 167.441 223.538 161.145C223.461 160.744 223.363 160.345 223.266 159.949L223.266 159.948C222.874 158.352 222.486 156.773 223.466 155.068C224.806 152.734 227.078 151.804 229.317 151.136ZM211.669 155.248C212.046 158.456 211.008 161.341 209.58 164.129C209.293 164.51 209.046 164.874 208.813 165.217L208.813 165.217L208.813 165.217L208.813 165.217L208.813 165.217C208.472 165.719 208.16 166.178 207.793 166.589C205.776 168.849 203.364 169.559 200.304 168.913C198.159 168.461 196.25 167.905 194.467 166.541C192.318 164.897 191.397 162.628 190.78 160.241C189.798 156.438 191.136 153.245 193.862 150.514C196.064 148.309 198.848 148.035 201.629 148.314C204.307 148.584 206.922 149.248 209.284 150.832C210.978 151.968 211.459 153.473 211.669 155.248ZM210.976 141.972C212.751 142.072 214.225 141.884 215.569 140.799C215.815 140.6 216.332 140.736 216.848 140.872C217.085 140.935 217.322 140.997 217.533 141.027C217.434 141.142 217.338 141.26 217.242 141.379C217.034 141.635 216.826 141.891 216.584 142.109C214.336 144.142 211.861 144 209.124 143.153C206.731 142.413 204.218 141.842 201.728 141.687C197.989 141.455 194.791 142.91 192.29 145.793C192.074 146.042 191.74 146.188 191.406 146.335C191.251 146.403 191.096 146.47 190.953 146.548C190.999 146.347 191.024 146.128 191.05 145.909C191.105 145.438 191.16 144.967 191.416 144.665C195.589 139.732 201.022 139.527 206.775 140.758C207.581 140.93 208.371 141.179 209.194 141.438C209.766 141.618 210.355 141.803 210.976 141.972ZM238.516 143.22C235.117 142.699 231.734 142.757 228.684 145.025C228.239 145.354 227.8 145.669 227.368 145.978L227.368 145.978L227.368 145.978L227.368 145.979L227.368 145.979L227.368 145.979L227.367 145.979C226.502 146.599 225.667 147.199 224.872 147.847C224.692 147.994 224.665 148.326 224.637 148.658C224.624 148.811 224.612 148.964 224.584 149.099C224.703 149.084 224.829 149.079 224.954 149.074C225.231 149.062 225.508 149.051 225.721 148.928C226.329 148.575 226.882 148.118 227.427 147.667L227.453 147.645C230.837 144.846 234.598 143.716 238.932 144.97C240.438 145.406 241.958 145.808 243.492 146.127C243.741 146.179 244.028 146.047 244.315 145.915C244.447 145.854 244.579 145.793 244.708 145.75C244.61 145.646 244.518 145.526 244.427 145.405C244.228 145.143 244.029 144.881 243.77 144.792C243.441 144.679 243.112 144.562 242.782 144.444C241.379 143.945 239.967 143.442 238.516 143.22ZM220.135 179.744C218.09 179.889 216.13 180.008 214.175 179.952C213.916 179.945 213.666 179.617 213.416 179.288L213.416 179.288C213.301 179.137 213.185 178.986 213.069 178.866C213.22 178.802 213.369 178.724 213.519 178.645C213.845 178.474 214.171 178.303 214.504 178.288C216.305 178.206 218.11 178.212 219.914 178.232C220.344 178.237 220.774 178.306 221.204 178.375C221.4 178.407 221.596 178.438 221.793 178.464L221.792 178.464C221.269 178.861 220.746 179.259 220.135 179.744ZM230.95 154.623C229.708 156.003 229.843 158.91 231.301 160.378C234.257 160.465 236.03 157.501 234.654 155.007C233.89 153.623 232.024 153.429 230.95 154.623ZM204.695 152.789C205.317 154.626 204.911 156.53 203.523 157.555C203.12 157.853 202.098 157.946 201.813 157.669C200.21 156.103 199.941 153.454 202.236 152.079C203.281 151.453 204.027 151.743 204.695 152.789ZM317.759 144.386C318.661 145.74 319.569 147.104 320.801 148.272C320.882 150.918 320.906 153.386 320.227 155.799C320.105 156.231 320.195 156.639 320.287 157.05C320.361 157.385 320.845 157.627 321.127 157.466C321.493 157.258 321.853 157.037 322.196 156.795C322.427 156.632 322.656 156.466 322.885 156.301C323.857 155.599 324.829 154.898 325.915 154.37C326.047 154.306 326.18 154.242 326.312 154.179C326.817 153.937 327.322 153.695 327.803 153.413C328.335 153.1 328.851 153.056 329.421 153.251C331.387 153.922 333.416 154.337 335.444 154.753C335.768 154.819 336.092 154.885 336.415 154.953C336.512 154.973 336.61 154.995 336.707 155.016C336.954 155.072 337.201 155.127 337.451 155.159C338.258 155.259 339.068 155.337 339.877 155.415C341.173 155.54 342.47 155.665 343.755 155.883C344.031 155.931 344.324 155.951 344.6 155.914C345.253 155.827 345.91 155.769 346.567 155.71C347.879 155.593 349.191 155.476 350.471 155.135C351.348 154.901 352.218 154.64 353.087 154.379C353.434 154.274 353.782 154.17 354.129 154.067L354.613 153.925C355.534 153.653 356.455 153.382 357.373 153.102C357.641 153.021 357.906 152.921 358.156 152.795C358.372 152.687 358.589 152.579 358.806 152.471C360.606 151.574 362.403 150.679 364.035 149.465C364.24 149.312 364.448 149.164 364.656 149.015C365.307 148.551 365.956 148.088 366.513 147.499C366.85 147.141 367.225 146.819 367.598 146.498L367.603 146.494C368.685 145.565 369.553 144.455 370.355 143.289C371.358 141.831 371.767 140.145 372.176 138.462L372.199 138.365C372.151 137.766 372.266 137.189 372.381 136.612C372.431 136.36 372.481 136.108 372.518 135.855C373.031 132.313 372.575 128.963 370.463 125.954C370.205 125.587 369.991 125.188 369.778 124.789C369.691 124.626 369.604 124.463 369.514 124.303C368.995 123.375 368.413 122.492 367.654 121.739C365.995 120.093 364.242 118.579 362.176 117.438C360.709 116.628 359.181 115.968 357.65 115.307C357.304 115.158 356.958 115.009 356.612 114.857C353.927 113.683 351.131 113.029 348.239 112.735C347.348 112.645 346.453 112.598 345.557 112.551C345.112 112.528 344.668 112.505 344.223 112.477C341.753 112.317 339.281 112.263 336.812 112.46C334.702 112.628 332.595 112.829 330.488 113.03C330.067 113.07 329.646 113.11 329.225 113.15C329.021 113.169 328.813 113.249 328.625 113.339C327.637 113.808 326.617 114.201 325.596 114.593C325.04 114.807 324.483 115.021 323.932 115.248C321.532 116.235 319.471 117.651 318.011 119.85C317.799 120.168 317.568 120.472 317.336 120.776C317.14 121.034 316.944 121.291 316.76 121.557C315.429 123.486 314.294 125.514 313.827 127.843C313.735 128.299 313.681 128.763 313.627 129.228C313.591 129.534 313.555 129.841 313.508 130.147C313.272 131.688 313.259 133.203 313.57 134.757C314.103 137.418 315.198 139.852 316.319 142.287C316.349 142.35 316.389 142.409 316.431 142.466C316.896 143.088 317.327 143.736 317.759 144.386ZM322.104 154.352C322.093 154.353 322.082 154.355 322.071 154.356C322.064 154.369 322.08 154.387 322.122 154.409C322.115 154.39 322.109 154.371 322.104 154.352ZM322.277 154.346C322.218 154.347 322.159 154.348 322.104 154.352C321.985 153.951 322.05 153.545 322.163 153.159C322.44 152.215 322.56 151.246 322.68 150.277C322.751 149.705 322.822 149.133 322.926 148.567C322.99 148.21 322.91 147.846 322.532 147.671C321.328 147.115 320.542 146.105 319.789 145.086C319.162 144.236 318.566 143.348 318.078 142.413C317.625 141.543 317.289 140.603 316.981 139.667C316.584 138.461 316.242 137.236 315.923 136.007C315.636 134.907 315.608 133.771 315.618 132.64C315.62 132.394 315.637 132.149 315.653 131.903C315.675 131.584 315.697 131.264 315.686 130.946C315.572 127.47 316.97 124.496 318.754 121.653C319.875 119.866 321.484 118.561 323.32 117.635C325.456 116.559 327.677 115.615 330.039 115.111C332.248 114.639 334.471 114.249 336.74 114.173C337.578 114.145 338.408 114.099 339.237 113.814C339.81 113.617 340.465 113.622 341.096 113.627C341.175 113.628 341.253 113.628 341.33 113.629C342.176 113.631 343.026 113.688 343.867 113.781C343.94 113.789 344.014 113.798 344.087 113.806C344.925 113.9 345.76 113.993 346.609 114.004C347.173 114.012 347.739 114.135 348.298 114.257C348.362 114.271 348.425 114.284 348.488 114.298C349.969 114.617 351.405 115.085 352.842 115.553C353.753 115.85 354.665 116.148 355.588 116.407C356.116 116.664 356.644 116.921 357.173 117.178C358.356 117.753 359.539 118.328 360.716 118.915C363.012 120.059 364.837 121.809 366.66 123.557L366.854 123.743C368.11 124.946 368.856 126.482 369.412 128.085C369.942 129.615 370.31 131.195 370.421 132.833C370.606 135.564 370.137 138.161 369.169 140.712C368.161 143.369 366.532 145.575 364.286 147.233C361.385 149.376 358.226 151.111 354.778 152.247C353.307 152.731 351.837 153.215 350.311 153.533C348.01 154.013 345.686 154.054 343.356 154.079C343.26 154.079 343.165 154.075 343.07 154.07C342.953 154.065 342.837 154.059 342.72 154.064C338.485 154.222 334.464 153.18 330.487 151.887C330.107 151.764 329.723 151.654 329.338 151.543C329.113 151.479 328.888 151.414 328.664 151.347C328.228 151.217 327.82 151.29 327.452 151.538C326.741 152.017 325.98 152.407 325.218 152.797C324.346 153.244 323.475 153.69 322.679 154.27C322.579 154.343 322.428 154.344 322.277 154.346Z" fill="#00160A"/>
<path fill-rule="evenodd" clip-rule="evenodd" d="M271.707 266.218L271.708 266.217C272.013 265.95 272.324 265.677 272.65 265.406C272.866 265.122 273.087 264.85 273.303 264.585C273.828 263.939 274.326 263.327 274.675 262.639C275.539 260.933 275.08 260.318 273.256 259.5C272.425 259.127 271.663 258.606 270.898 258.084C270.398 257.742 269.897 257.4 269.375 257.098L269.258 257.03C268.553 256.621 267.784 256.175 267.016 256.111C262.997 255.78 259.553 261.082 261.154 264.922C262.809 268.892 266.107 270.093 269.559 267.915C270.315 267.439 270.995 266.842 271.707 266.218L271.707 266.218ZM262.611 263.306C262.503 261.967 262.687 260.742 263.665 259.736C263.916 259.544 264.13 259.404 264.317 259.282L264.317 259.282C264.499 259.163 264.656 259.061 264.798 258.942C266.489 257.534 267.573 257.626 269.255 258.992C270.249 259.799 271.434 260.426 272.621 260.921C273.534 261.3 273.627 261.819 273.065 262.358C272.708 262.701 272.355 263.054 272.001 263.408C270.754 264.655 269.496 265.913 268.018 266.772C265.766 268.081 262.827 265.993 262.611 263.306ZM160.381 265.843L160.639 265.614C162.085 264.33 163.472 263.098 165.023 262.13C166.746 261.055 168.705 261.516 170.22 262.933C172.55 265.113 174.095 264.859 175.615 262.999C175.762 262.82 175.923 262.643 176.109 262.509C176.311 262.363 176.511 262.203 176.713 262.042C177.616 261.319 178.544 260.577 179.784 261.053C181.314 261.641 181.928 263.03 182.411 264.612C183.51 268.215 181.275 271.275 178.476 272.871C175.26 274.705 171.796 275.42 168.242 275.952C165.689 276.334 160.77 274.115 159.664 272.308C158.235 269.976 159.107 267.994 160.381 265.843ZM175.385 272.298C175.534 272.223 175.684 272.149 175.833 272.075C178.465 270.774 181.081 269.48 180.638 265.696C180.615 265.497 180.604 265.287 180.592 265.077C180.542 264.126 180.491 263.167 179.299 263.046C178.54 262.968 177.54 263.604 176.912 264.196C174.309 266.651 172.15 266.884 169.421 264.311C168.589 263.526 167.657 262.712 166.074 263.338C163.319 264.428 162.093 266.698 161.153 269.124C160.724 270.231 160.835 271.785 162.493 272.307C162.985 272.462 163.48 272.647 163.975 272.833C165.241 273.308 166.512 273.785 167.77 273.762C169.759 273.725 171.74 273.22 173.811 272.692C174.329 272.559 174.853 272.426 175.385 272.298ZM233.918 361.363C233.849 361.505 233.78 361.647 233.711 361.788L233.711 361.788C232.579 364.12 231.485 366.374 228.942 367.366C226.293 368.4 222.017 368.74 219.936 366.096C218.703 364.529 218.622 362.449 220.003 360.962C220.441 360.492 220.905 360.035 221.369 359.578C222.546 358.419 223.726 357.257 224.481 355.867C225.202 354.539 225.524 352.994 225.847 351.448C225.995 350.736 226.144 350.023 226.332 349.33C226.93 347.128 227.557 344.897 229.719 343.674C231.278 342.793 232.518 343.365 233.683 344.785C235.797 347.362 235.595 350.275 235.395 353.158C235.344 353.905 235.292 354.651 235.281 355.388C235.259 356.823 234.83 358.253 234.391 359.716C234.228 360.259 234.064 360.808 233.918 361.363ZM228.666 350.772L228.666 350.773C228.291 353.145 227.914 355.538 226.304 357.449C225.084 358.897 223.705 360.239 222.256 361.461C220.889 362.615 220.653 363.976 221.884 365.205C224.051 367.37 229.307 366.386 230.838 363.423C231.748 361.664 232.521 359.809 233.132 357.925C234.264 354.439 233.563 351.03 232.277 347.723C232.083 347.222 231.535 346.566 231.109 346.533C230.708 346.502 230.149 347.133 229.842 347.594C229.399 348.259 229.12 349.033 228.771 350.11C228.736 350.33 228.701 350.55 228.666 350.771L228.666 350.772ZM229.007 277.3C227.407 276.151 225.886 276.132 224.243 276.508C221.555 277.123 218.649 280.256 218.649 283.462C218.649 286.69 220.085 289.052 222.732 290.575C225.287 292.044 227.976 293.069 231.145 292.779C234.856 292.44 237.661 290.987 239.178 287.596C239.494 286.889 239.464 286.029 239.434 285.168C239.421 284.774 239.407 284.379 239.427 284C239.1 284.001 238.764 283.977 238.428 283.952C237.672 283.896 236.916 283.841 236.272 284.083C235.073 284.535 234.432 284.12 234.029 283.225C232.915 280.752 231.228 278.896 229.007 277.3ZM223.37 279.133C224.916 278.405 227.765 277.595 229.455 279.133C231.145 280.672 231.785 282.114 232.21 283.099C233.235 285.478 234.676 286.261 237.11 285.605C237.34 285.544 237.586 285.543 237.832 285.543C237.946 285.543 238.06 285.543 238.172 285.537C238.138 285.65 238.107 285.764 238.076 285.878L238.076 285.878C238.009 286.124 237.942 286.369 237.84 286.6C235.436 292.047 227.707 291.234 224.094 288.935C221.89 287.532 220.637 285.703 220.744 283.036C220.817 281.189 221.78 279.883 223.37 279.133ZM239.152 322.282C238.741 322.63 238.351 322.999 237.968 323.362C237.102 324.181 236.265 324.972 235.276 325.439C233.113 326.459 230.806 325.935 228.703 324.901C225.153 323.155 222.963 320.5 223.183 316.299C223.339 313.306 225.127 311.56 227.541 310.12C229.577 308.906 231.565 308.651 233.693 309.676C235.284 310.442 235.722 311.926 236.155 313.391C236.242 313.685 236.328 313.978 236.424 314.264C236.547 314.636 236.581 315.039 236.615 315.442V315.442C236.651 315.88 236.688 316.316 236.84 316.71C237.061 317.28 237.598 317.985 238.132 318.134C240.764 318.863 241.025 319.508 239.369 321.728C239.324 321.787 239.302 321.864 239.275 321.956C239.248 322.049 239.217 322.159 239.152 322.282ZM235.983 322.435L235.983 322.435C236.153 322.359 236.323 322.284 236.461 322.17C238.124 320.812 238.119 320.808 236.52 319.422L236.436 319.35C235.968 318.944 235.59 318.303 235.43 317.701C235.264 317.079 235.151 316.439 235.037 315.8L235.037 315.8C234.853 314.765 234.67 313.734 234.269 312.792C233.913 311.956 232.764 311.107 231.846 310.934C229.969 310.581 225.83 313.927 225.664 315.839C225.441 318.417 226.215 320.612 228.607 322.055C230.852 323.409 233.09 324.192 235.75 322.544C235.825 322.505 235.903 322.47 235.982 322.436L235.982 322.436L235.982 322.435L235.982 322.435L235.982 322.435L235.983 322.435L235.983 322.435ZM139.949 289.99C143.796 287.519 146.259 284.241 146.772 279.451C146.772 279.026 146.787 278.617 146.801 278.219C146.831 277.368 146.859 276.573 146.739 275.8C146.478 274.124 145.925 272.494 143.612 272.868C142.481 273.052 141.318 273.572 140.366 274.225C138.396 275.576 137.731 277.812 137.098 279.939L137.041 280.13C136.105 283.272 134.651 285.484 130.926 285.482C130.277 285.482 129.221 286.701 129.055 287.503C128.604 289.686 130.78 291.925 133.121 292.014C135.628 292.11 137.825 291.354 139.949 289.99ZM134.99 290.128C134.787 290.172 134.585 290.216 134.385 290.268C132.7 290.455 131.897 289.574 131.122 288.724C131.061 288.657 131.001 288.591 130.94 288.525C130.815 288.39 130.881 287.842 131.036 287.73L131.149 287.648C131.638 287.291 132.169 286.904 132.73 286.808C135.564 286.326 137.132 284.677 138.112 281.997C138.937 279.741 140.178 277.598 141.513 275.589C141.94 274.947 143.275 274.641 144.156 274.705C144.501 274.729 144.973 276.191 144.991 277.007C145.136 283.452 141.554 287.466 136.267 289.764C135.865 289.939 135.427 290.034 134.99 290.128ZM142.498 305.534C143.185 303.453 144.681 302.122 146.156 300.808L146.156 300.808C146.678 300.344 147.197 299.881 147.677 299.389C148.629 298.412 150.823 299.692 151.309 301.347C151.512 302.039 151.71 302.732 151.908 303.425L151.908 303.425C152.407 305.171 152.906 306.918 153.485 308.637C153.988 310.129 153.78 311.295 152.711 312.462C151.902 313.346 151.17 314.357 150.637 315.427C149.326 318.058 147.397 318.714 144.471 316.423C140.606 313.398 141.12 309.598 142.498 305.534ZM151.657 309.285C151.44 308.741 151.223 308.198 151.006 307.655C150.409 306.159 149.811 304.663 149.217 303.166C149.095 302.859 148.983 302.549 148.872 302.238L148.872 302.238L148.872 302.238L148.872 302.237L148.872 302.237L148.872 302.237L148.872 302.237L148.872 302.237L148.872 302.237L148.872 302.237L148.871 302.236C148.82 302.093 148.769 301.95 148.717 301.808C148.566 301.88 148.41 301.945 148.254 302.011C147.917 302.152 147.579 302.294 147.291 302.504C145.16 304.066 144.153 306.391 143.706 308.819C143.351 310.754 143.265 312.958 144.801 314.558C145.506 315.293 146.631 315.732 147.645 315.987C147.8 316.026 148.078 315.543 148.372 315.03L148.372 315.03C148.539 314.739 148.712 314.439 148.87 314.219C149.139 313.846 149.418 313.48 149.697 313.114L149.697 313.114C150.155 312.512 150.613 311.911 151.026 311.28C151.308 310.85 151.428 310.313 151.596 309.558L151.622 309.444L151.657 309.285ZM190.975 299.152C187.461 297.822 183.96 298.626 183.759 303.178C183.971 303.666 184.168 304.153 184.361 304.634C184.909 305.999 185.436 307.309 186.248 308.407C189.178 312.371 192.885 313.563 197.007 311.911C199.628 310.862 199.64 308.463 197.885 306.958C196.236 305.544 194.816 303.952 193.943 301.811C193.485 300.688 192.158 299.6 190.975 299.152ZM194.474 310.187C192.579 310.533 190.671 310.88 189.168 309.11C187.3 307.273 186.01 305.408 185.843 302.933C185.776 301.937 186.17 301.397 187.101 301.026C188.409 300.506 191.418 301.141 191.709 302.433C192.12 304.263 193.203 305.589 194.288 306.916L194.288 306.917C194.716 307.441 195.145 307.965 195.532 308.52C195.757 308.843 195.997 309.429 195.854 309.666C195.678 309.955 195.118 310.071 194.704 310.146L194.474 310.187ZM182.363 345.748C182.433 345.324 182.475 344.899 182.515 344.484C182.61 343.514 182.7 342.6 183.129 341.892C184.241 340.059 183.981 338.48 183.07 336.783C182.98 336.616 182.931 336.428 182.882 336.24C182.835 336.059 182.788 335.878 182.704 335.715C181.963 334.275 182.311 332.863 183.605 332.262C184.514 331.839 186.035 331.972 186.953 332.468C189.938 334.079 191.292 336.936 191.752 340.159C192.155 342.974 191.524 345.71 190.378 348.293C188.9 351.624 185.916 351.2 184.013 349.225C183.416 348.605 183.094 347.718 182.755 346.78C182.631 346.439 182.506 346.092 182.363 345.748ZM187.768 335.96L187.767 335.959L187.767 335.959C187.336 335.511 186.905 335.063 186.428 334.672C186.226 334.507 185.934 334.451 185.642 334.395C185.51 334.37 185.378 334.345 185.254 334.309C185.224 334.448 185.173 334.599 185.121 334.751C185.009 335.077 184.898 335.404 185.011 335.604C186.263 337.813 185.978 339.848 184.666 341.928C184.389 342.367 184.288 342.916 184.186 343.465C184.136 343.737 184.086 344.009 184.015 344.269C183.625 345.682 184.664 348.365 185.987 348.773C186.024 348.784 186.061 348.796 186.1 348.808C186.805 349.03 187.756 349.328 188.317 348.151C190.122 344.359 190.721 340.614 188.295 336.501C188.117 336.323 187.943 336.142 187.768 335.96ZM291.006 300.323C293.251 301.31 297.025 300.98 299.866 297.857C300.077 297.534 300.286 297.219 300.492 296.908L300.493 296.907C301.138 295.935 301.754 295.007 302.276 294.028C303.58 291.578 301.319 287.805 298.525 287.861C297.731 287.877 296.94 288.028 296.149 288.179C295.413 288.319 294.676 288.459 293.936 288.491C291.693 288.588 289.914 289.384 288.661 291.268C286.495 294.524 287.309 298.698 291.006 300.323ZM294.563 290.971C294.673 290.969 294.784 290.966 294.894 290.966C295.156 290.922 295.408 290.891 295.643 290.863C296.283 290.786 296.802 290.724 297.094 290.434C298.049 289.483 298.881 289.924 299.617 290.502C300.413 291.128 300.854 291.896 300.471 293.118C299.568 295.999 297.938 298.124 294.956 298.89C293.286 299.32 291.723 298.907 290.566 297.461C289.52 296.154 289.36 294.77 290.131 293.29C290.911 291.791 292.004 290.779 293.848 290.961C294.084 290.984 294.323 290.978 294.563 290.971ZM251.365 295.065C253.567 293.61 255.664 293.518 257.663 295.168C258.229 295.635 258.727 296.235 259.105 296.864C259.272 297.141 259.371 297.468 259.469 297.792C259.596 298.21 259.721 298.622 259.987 298.915C261.169 300.219 260.43 301.388 259.463 301.866C257.023 303.073 254.448 304.058 251.846 304.87C250.476 305.297 248.646 303.678 248.313 302.129C247.584 298.733 248.961 296.492 251.365 295.065ZM257.384 299.863C257.214 299.633 257.047 299.401 256.88 299.169C256.473 298.605 256.067 298.04 255.628 297.502L255.589 297.454C255.294 297.092 254.916 296.627 254.538 296.586C251.699 296.277 249.268 299.556 250.425 302.12C250.766 302.875 251.465 303.684 252.294 302.799C253.44 301.575 254.856 301.325 256.353 301.061L256.455 301.043C256.869 300.97 257.193 300.387 257.384 299.863ZM245.473 371.469C245.415 371.752 245.354 372.047 245.258 372.354C245.273 372.579 245.334 372.782 245.392 372.974C245.448 373.161 245.502 373.338 245.506 373.517C245.604 377.827 251.234 381.157 254.748 380.648C257.203 380.292 258.547 379.399 258.901 377.137C259.215 375.126 258.722 372.924 257.146 371.639C255.33 370.16 253.14 369.045 250.961 368.13C248.375 367.044 246.742 367.913 245.728 370.508C245.61 370.809 245.543 371.13 245.473 371.469ZM248.05 370.699L248.05 370.699C248.204 370.408 248.358 370.117 248.486 369.824C248.8 369.899 249.113 369.97 249.423 370.041L249.423 370.041C252.333 370.704 255.034 371.319 256.331 374.215C256.946 375.588 257.647 377.237 255.96 378.306C255.146 378.821 253.904 378.982 252.919 378.845C250.471 378.504 246.992 375.865 247.313 372.629C247.378 371.968 247.714 371.333 248.05 370.699ZM249.707 327.952C252.547 328.219 254.799 329.474 255.267 332.467C255.433 333.527 256.102 333.667 256.839 333.822C256.946 333.845 257.055 333.867 257.164 333.893C258.794 334.283 260.09 335.626 259.833 337.745C259.648 339.281 258.858 339.908 256.658 339.784C255.186 339.701 253.642 339.545 252.285 339.02C247.894 337.32 246.636 333.706 246.946 329.883C247.062 328.448 248.122 327.864 249.707 327.952ZM256.162 335.629C254.28 335.748 253.381 334.62 253.234 332.977C253.079 331.242 251.837 330.687 250.613 330.141L250.472 330.078C249.597 329.686 248.567 330.705 248.71 331.666C249.247 335.256 253.337 338.375 257.003 338.094C258.357 337.99 258.185 337.292 257.697 336.58C257.537 336.346 257.245 336.203 256.898 336.033C256.669 335.922 256.417 335.798 256.162 335.629ZM214.465 395.645C214.508 395.186 214.51 394.718 214.513 394.263C214.519 393.258 214.525 392.309 214.953 391.625C215.998 389.958 217.258 388.424 218.518 386.891L218.518 386.891C219.031 386.266 219.544 385.642 220.042 385.008C220.9 383.919 222.23 383.288 223.314 383.877C224.416 384.475 225.485 385.694 225.905 386.876C226.903 389.687 225.644 392.104 223.762 394.166C223.228 394.751 222.622 395.27 222.017 395.789L222.016 395.789L222.016 395.789C221.539 396.198 221.061 396.607 220.618 397.049C218.158 399.503 215.966 398.359 214.465 395.645ZM220.571 394.947C223.085 393.295 224.707 391.149 224.601 387.963C224.563 386.85 224.146 386.107 223.137 385.637C222.076 385.143 221.353 385.809 221.027 386.526C220.202 388.338 219.024 389.885 217.844 391.435L217.843 391.435C217.435 391.972 217.027 392.508 216.632 393.056C216.231 393.614 216.479 394.962 216.884 395.694C217.357 396.546 218.303 396.404 219.101 395.748C219.296 395.588 219.532 395.478 219.803 395.35C220.034 395.242 220.291 395.121 220.571 394.947ZM206.048 374.806C207.135 372.285 207.299 369.579 206.702 366.771C206.652 366.721 206.613 366.686 206.583 366.658C206.536 366.614 206.51 366.589 206.493 366.56C205.287 364.414 204.026 363.454 202.609 363.923C200.816 364.517 200.148 365.858 200.084 367.806C200.039 369.195 199.488 370.42 197.621 370.965C194.85 371.774 195.05 374.257 196.759 375.601C197.412 376.115 198.243 376.412 199.065 376.706C199.323 376.798 199.581 376.89 199.832 376.989C201.404 377.605 205.272 376.606 206.048 374.806ZM204.829 367.907C204.899 368.025 204.969 368.143 205.044 368.254C205.044 368.879 205.085 369.481 205.123 370.058C205.204 371.264 205.278 372.36 204.958 373.325C204.139 375.801 199.271 376.242 197.719 374.099C197.553 373.87 198.015 372.749 198.333 372.675C200.907 372.075 201.862 370.408 201.95 367.921C201.969 367.382 202.488 366.736 202.962 366.4C203.14 366.274 203.89 366.837 204.293 367.186C204.514 367.377 204.671 367.642 204.829 367.907Z" fill="#FFB61D"/>
</svg>
