<svg width="489" height="619" viewBox="0 0 489 619" fill="none" xmlns="http://www.w3.org/2000/svg">
<path fill-rule="evenodd" clip-rule="evenodd" d="M132.63 566.178C190.502 546.444 247.067 601.612 346.524 617.629C445.981 633.646 517.461 505.346 477.91 439.007C438.358 372.669 445.981 286.125 472.082 203.866C498.182 121.607 464.81 72.6411 429.344 52.5952C393.879 32.5493 359.076 26.2667 303.566 30.0375C248.056 33.8084 190.217 50.21 136.107 77.3823C81.9974 104.555 21.1665 164.77 14.8991 203.382C8.63178 241.994 33.6732 245.77 38.1534 306.843C42.6336 367.916 -19.0666 449.575 6.02225 504.965C31.1111 560.355 74.7576 585.912 132.63 566.178Z" fill="#C147FF"/>
<path fill-rule="evenodd" clip-rule="evenodd" d="M121.313 456.14L121.082 458.341C121.082 458.341 124.417 458.789 125.845 458.54C127.273 458.291 129.887 454.859 129.887 454.859C129.887 454.859 127.159 455.24 125.845 455.435" fill="#E7EAEE"/>
<path fill-rule="evenodd" clip-rule="evenodd" d="M132.402 522.409L138.252 527.994L233.031 181.18L227.243 173.656L132.402 522.409Z" fill="white"/>
<path fill-rule="evenodd" clip-rule="evenodd" d="M87.1196 526.336C87.1196 526.336 94.0784 528.153 100.216 507.241C106.353 486.329 187.749 188.724 187.749 188.724L185.059 182.195L87.1196 526.336Z" fill="white"/>
<path fill-rule="evenodd" clip-rule="evenodd" d="M142.471 398.302L151.124 402.61C151.124 402.61 173.912 369.597 173.912 353.094C173.912 346.517 155.148 342.108 144.431 334.627C138.327 330.365 135.794 322.69 132.39 319.735C129.727 317.424 123.759 316.215 115.408 316.781C113.406 316.916 109.018 319.735 109.018 319.735C109.018 319.735 90.7754 336.037 100.651 349.341C103.608 353.326 115.95 373.772 118.666 387.297C122.251 405.148 120.141 454.86 120.141 454.86C120.141 454.86 123.95 454.821 126.301 454.284C128.652 453.747 133.541 451.798 133.541 451.798C133.541 451.798 132.99 434.904 133.541 427.387C134.971 407.873 137.149 392.275 135.311 380.175C131.494 355.032 117.131 343.721 117.131 343.721L159.035 363.983L142.471 398.302Z" fill="white"/>
<path fill-rule="evenodd" clip-rule="evenodd" d="M150.204 407.337C150.27 408.718 149.832 410.118 148.998 411.196C148.667 409.999 148.577 408.73 148.735 407.495C145.704 407.085 142.746 406.098 140.053 404.599C139.04 407.228 138.234 409.942 137.647 412.707C137.382 413.952 137.219 415.426 138.07 416.345C138.81 417.145 140.01 417.18 141.079 417.161C144.422 417.101 147.812 417.033 151.019 416.053C154.226 415.072 157.283 413.048 158.818 409.964C157.288 408.372 155.028 407.571 152.879 407.862C153.438 408.914 153.298 410.321 152.543 411.232C151.844 410.177 151.614 408.801 151.928 407.562C151.397 407.296 150.782 407.216 150.204 407.337Z" fill="white"/>
<path fill-rule="evenodd" clip-rule="evenodd" d="M125.126 458.642C123.41 459.002 121.364 459.399 120.099 458.244C119.821 460.403 119.753 462.587 119.897 464.758C120.229 464.979 120.665 465.052 121.057 464.953C121.273 465.425 121.349 465.953 121.275 466.462C122.56 467.92 125.007 467.454 126.894 466.807C129.891 465.78 132.89 464.594 135.343 462.668C136.503 461.758 137.601 460.487 137.413 459.072C137.225 457.658 134.977 456.724 134.161 457.922C134.88 458.597 135.215 459.618 135.026 460.56C133.555 459.557 132.084 458.553 130.613 457.55C131.175 458.919 131.737 460.288 132.299 461.658C131.948 462.186 131.021 461.925 130.658 461.403C130.295 460.882 130.236 460.217 129.91 459.674C129.041 458.229 126.841 458.281 125.126 458.642Z" fill="white"/>
<path fill-rule="evenodd" clip-rule="evenodd" d="M140.873 261.481C144.414 259.283 148.722 262.671 151.485 265.782C154.878 269.602 158.272 273.421 161.665 277.241C163.303 266.947 169.649 258.093 175.813 249.662C177.583 247.241 179.406 244.769 181.905 243.099C184.403 241.429 189.213 242.633 190.456 242.022C190.286 240.215 188.722 238.636 186.908 238.438C187.147 236.339 188.148 234.334 189.684 232.874C189.695 231.619 187.706 231.817 186.636 232.483C175.766 239.248 166.037 247.823 157.979 257.741C156.015 260.158 153.001 262.942 150.245 261.477C147.395 259.961 148.222 255.79 149.031 252.68C150.139 248.417 150.42 243.943 149.853 239.576C149.249 234.925 147.698 230.217 148.747 225.645C149.797 221.073 155.057 217.024 159.142 219.369C162.285 221.174 166.649 219.49 168.468 216.368C170.287 213.246 169.917 209.223 168.352 205.968C166.787 202.712 164.18 200.081 161.532 197.614C159.722 195.928 157.759 194.228 155.343 193.673C151.793 192.858 147.804 195.072 146.64 198.504C145.476 201.935 147.301 206.098 150.622 207.587C148.539 208.21 146.196 207.915 144.336 206.795C147.145 208.069 148.351 211.621 147.724 214.626C147.098 217.632 145.039 220.143 142.785 222.242C140.385 224.475 137.688 226.392 134.786 227.928C119.842 235.832 112.615 253.122 109.141 269.591C105.667 286.061 104.674 303.382 97.1824 318.471C98.6446 319.936 101.074 318.731 102.935 317.815C111.716 313.494 122.193 317.622 131.97 316.978C134.44 316.815 137.122 316.203 138.618 314.242C139.502 313.085 139.842 311.618 140.159 310.199C140.919 306.803 141.679 303.406 142.439 300.01C142.622 299.191 142.806 298.344 142.649 297.519C142.454 296.496 141.762 295.646 141.094 294.843C137.358 290.351 133.621 285.774 131.098 280.513C128.575 275.252 127.342 269.167 128.857 263.537C130.473 272.162 134.028 280.424 139.187 287.543C142.206 291.709 146.058 295.664 151.06 296.943C156.756 298.4 162.698 296.112 167.978 293.539C180.665 287.356 192.399 279.244 202.645 269.572C201.697 269.871 200.749 270.17 199.8 270.469C200.562 268.992 201.599 267.656 202.843 266.549C201.512 267.218 200.181 267.886 198.85 268.555C199.928 267.01 201.005 265.466 202.082 263.921C199.855 264.751 197.84 266.136 196.272 267.913C196.712 266.219 196.614 264.391 195.997 262.752C195.03 267.644 189.933 270.417 185.387 272.522C180.728 274.679 176.07 276.837 171.411 278.994C167.859 280.639 162.965 282.001 160.587 278.905C155.22 271.913 148.486 265.962 140.873 261.481Z" fill="white"/>
<path fill-rule="evenodd" clip-rule="evenodd" d="M158.901 213.608C159.985 213.608 160.389 212.764 159.814 211.723C159.251 210.682 158.15 209.838 157.343 209.838C156.536 209.838 156.104 210.682 156.39 211.723C156.688 212.764 157.817 213.608 158.901 213.608Z" fill="#FFB61D"/>
<path fill-rule="evenodd" clip-rule="evenodd" d="M166.624 207.325C167.543 207.325 167.891 206.482 167.4 205.441C166.91 204.4 165.767 203.556 164.848 203.556C163.929 203.556 163.581 204.4 164.071 205.441C164.562 206.482 165.704 207.325 166.624 207.325Z" fill="#FFB61D"/>
<path fill-rule="evenodd" clip-rule="evenodd" d="M250.616 205.785L249.384 298.513L355.324 305.334L362.561 301.7L363.791 110.965C363.827 105.486 360.662 100.49 355.694 98.1802L355.324 98.0083L277.579 104.715L250.616 205.785Z" fill="white"/>
<path fill-rule="evenodd" clip-rule="evenodd" d="M283.62 106.406L345.626 100.355C347.086 100.213 349.035 99.4362 348.682 98.0139C327.238 99.6292 305.814 101.52 284.419 103.686C283.003 103.829 281.11 105.213 282.177 106.152C282.555 106.484 283.119 106.455 283.62 106.406ZM151.417 265.129C148.653 262.001 144.344 258.596 140.801 260.805C148.417 265.31 155.153 271.292 160.522 278.32C162.9 281.433 167.797 280.064 171.35 278.41L185.33 271.904C189.878 269.787 194.977 267 195.944 262.083C196.561 263.73 196.659 265.567 196.219 267.271C197.787 265.484 199.803 264.092 202.031 263.258L198.798 267.916L202.792 265.9C201.547 267.012 200.51 268.356 199.748 269.84L202.594 268.939C192.344 278.661 180.607 286.816 167.916 293.031C162.633 295.618 156.69 297.917 150.992 296.454C145.988 295.168 142.135 291.192 139.115 287.004C133.954 279.847 130.398 271.542 128.782 262.871C127.266 268.531 128.499 274.648 131.023 279.937C133.547 285.225 137.285 289.827 141.022 294.343C141.69 295.15 142.382 296.004 142.578 297.033C142.736 297.862 142.551 298.713 142.368 299.536L140.087 309.779C139.77 311.205 139.43 312.68 138.546 313.843C137.049 315.814 134.367 316.43 131.896 316.593C128.352 316.828 124.717 316.433 121.103 316.04C114.744 315.349 108.452 314.665 102.851 317.435L102.827 317.447C100.968 318.366 98.5526 319.561 97.0962 318.094C102.52 307.117 104.539 294.964 106.557 282.811C107.328 278.172 108.098 273.532 109.059 268.958C112.534 252.402 119.763 235.021 134.713 227.075C137.616 225.532 140.314 223.605 142.714 221.359C144.969 219.25 147.029 216.725 147.655 213.704C148.233 210.918 147.252 207.666 144.893 206.171C146.637 207.011 148.698 207.186 150.554 206.627C147.232 205.131 145.406 200.946 146.571 197.497C147.735 194.048 151.725 191.822 155.276 192.641C157.693 193.198 159.657 194.908 161.467 196.603C164.116 199.083 166.724 201.728 168.29 205C169.855 208.273 170.225 212.317 168.405 215.455C166.586 218.594 162.22 220.286 159.076 218.472C154.99 216.114 149.728 220.185 148.678 224.781C147.909 228.151 148.537 231.594 149.166 235.034C149.395 236.286 149.623 237.537 149.784 238.785C150.351 243.175 150.07 247.672 148.962 251.958C148.153 255.084 147.326 259.277 150.176 260.801C152.933 262.274 155.948 259.475 157.913 257.046C165.974 247.075 175.706 238.456 186.58 231.654C187.65 230.985 189.64 230.786 189.629 232.048C188.092 233.515 187.091 235.531 186.851 237.641C188.666 237.84 190.23 239.428 190.401 241.244C189.93 241.476 188.947 241.447 187.772 241.413C185.844 241.356 183.399 241.283 181.847 242.326C179.347 244.005 177.524 246.49 175.753 248.924C169.587 257.399 163.239 266.3 161.6 276.648L151.417 265.129ZM144.266 205.831C144.469 205.955 144.679 206.068 144.893 206.171C144.694 206.045 144.485 205.931 144.266 205.831ZM176.866 250.225C180.312 245.395 186.193 239.969 191.274 243.038C192.219 241.576 190.618 239.832 189.403 238.507C188.671 237.709 188.079 237.063 188.265 236.723C188.334 236.597 188.407 236.465 188.483 236.328L188.487 236.319C190.512 232.645 194.416 225.561 182.664 232.038C174.65 236.454 162.348 248.818 156.003 255.196C153.494 257.719 151.916 259.305 151.903 259.092C151.653 254.957 151.54 250.359 151.427 245.76C151.314 241.162 151.201 236.563 150.951 232.428C150.777 229.556 150.632 226.533 151.903 223.95C153.174 221.368 156.387 219.499 158.996 220.719C165.637 223.824 172.831 215.167 171.385 207.986C169.94 200.804 163.612 195.797 157.715 191.442C160.718 187.807 161.396 182.413 159.387 178.15C157.378 173.886 152.785 170.971 148.068 170.966C148.789 174.005 148.17 177.336 146.405 179.913C144.679 182.434 142.075 184.086 139.463 185.742L139.463 185.743L139.463 185.743C138.25 186.512 137.035 187.282 135.906 188.141C132.345 190.85 129.429 195.73 131.591 199.645C132.837 201.902 135.26 202.958 137.707 204.024C139.887 204.974 142.086 205.932 143.485 207.755C146.399 211.553 144.345 217.32 140.779 220.516C138.585 222.483 135.96 223.84 133.33 225.201C131.686 226.051 130.039 226.903 128.494 227.905C117.433 235.08 112.921 248.788 109.464 261.502C104.059 281.385 99.3557 301.458 95.3664 321.672L100.912 321.646C95.6634 328.028 95.4234 337.32 97.7914 345.234C99.5262 351.032 102.456 356.352 105.386 361.671C106.455 363.613 107.525 365.554 108.536 367.519C115.619 381.282 119.953 396.797 118.621 412.216C117.889 420.679 115.488 428.896 113.099 437.048L87.0752 525.856C92.3251 509.856 97.8145 492.168 103.304 474.48C108.793 456.791 114.283 439.103 119.532 423.103C119.752 422.435 119.642 425.386 119.532 428.336C119.423 431.287 119.313 434.237 119.532 433.569C118.224 438.498 116.673 443.573 115.196 448.409L115.195 448.41C114.071 452.089 112.989 455.63 112.089 458.862C110.408 464.892 108.832 470.602 107.248 476.339C103.267 490.758 99.2383 505.352 93.3889 525.641C101.909 507.075 106.475 486.989 110.986 467.068C111.956 467.065 113.12 467.062 114.285 467.059C115.45 467.056 116.614 467.052 117.583 467.049C116.432 465.664 112.089 464.742 112.089 464.742L112.563 462.334C112.563 462.334 118.368 463.322 118.072 462.049C117.479 461.623 113.099 460.956 113.099 460.956C113.099 460.956 117.853 443.701 119.532 438.104L118.368 465.356C118.323 466.411 118.328 467.601 119.078 468.346C119.849 469.111 121.085 469.084 122.164 468.957C125.389 468.58 128.564 467.773 131.577 466.564C134.059 465.569 136.644 463.979 137.92 461.766L146.57 462.023C146.57 462.023 146.126 463.923 145.912 464.835C145.88 464.973 143.507 465.035 141.145 465.098H141.144H141.143H141.143C138.8 465.16 136.467 465.222 136.436 465.356C136.395 465.529 138.702 465.776 140.996 466.021C143.264 466.264 145.52 466.505 145.481 466.673C144.383 471.342 143.444 475.697 142.664 479.315L142.664 479.315L142.664 479.315L142.664 479.317L142.664 479.319L142.663 479.321C141.923 482.752 141.326 485.52 140.872 487.266C140.43 488.966 139.917 490.782 138.564 491.904C137.732 492.595 132.494 493.216 129.307 493.594C128.231 493.721 127.388 493.821 127.029 493.886C122.469 494.716 118.551 494.773 114.867 494.827H114.866C111.868 494.871 109.025 494.912 106.117 495.366C104.74 495.581 104.013 496.859 104.452 497.289C110.235 497.112 115.777 496.72 121.319 496.327C126.861 495.935 132.404 495.542 138.186 495.366C138.061 495.924 137.999 496.387 137.949 496.768C137.825 497.7 137.767 498.139 137.001 498.258C131.928 499.046 126.583 499.453 121.237 499.86C115.892 500.268 110.547 500.675 105.473 501.463C103.801 501.723 101.835 503.964 103.444 504.487L136.613 500.747C134.177 507.64 131.705 514.862 132.716 522.1C149.909 461.793 166.553 401.329 182.646 340.72C174.947 339.78 167.046 340.53 159.664 342.903C165.767 344.636 173.003 347.617 173.767 353.909C174.164 357.177 172.571 360.32 171.025 363.227L150.859 401.14L143.068 396.904L157.975 369.374C159.173 367.16 160.365 364.389 159.001 362.273C158.271 361.14 156.977 360.526 155.75 359.968L114.711 341.307C120.576 344.702 124.891 350.659 126.285 357.285C127.029 360.821 128.719 364.027 130.415 367.242C131.615 369.519 132.818 371.8 133.689 374.206C136.74 382.637 135.523 391.848 134.339 400.806C134.215 401.745 134.091 402.68 133.973 403.612C131.996 419.173 131.613 434.936 132.832 450.574L120.759 453.338C123.091 426.102 125.172 397.37 113.435 372.677C111.977 369.61 110.318 366.639 108.66 363.67L108.66 363.669C106.367 359.564 104.076 355.461 102.318 351.106C99.2887 343.602 97.9756 334.894 101.298 327.514C104.621 320.135 113.716 315.066 121.165 318.245C124.569 319.698 128.464 319.975 132.04 319.018C140.514 337.1 165.34 345.246 182.896 335.704C184.783 334.678 185.514 332.389 186.078 330.319L200.873 276.049C196.983 278.754 196.061 283.839 195.195 288.609C195.086 289.211 194.978 289.807 194.865 290.393C193.855 295.627 190.808 301.685 185.472 301.743C175.778 301.849 166.096 302.959 156.631 305.051L158.154 298.862C172.144 294.167 185.241 286.836 196.554 277.369C201.408 273.307 206.316 266.759 203.18 261.264L197.492 263.468C198.182 262.539 197.533 260.97 196.388 260.799C187.928 269.928 176.287 276.059 163.966 277.875C164.674 267.593 170.879 258.619 176.866 250.225ZM138.337 460.898C138.221 461.197 138.081 461.486 137.92 461.766L137.001 461.738C137.001 461.738 137.281 461.261 138.337 460.898ZM135.558 410.664C136.143 414.081 139.621 417.18 143.304 417.657C148.151 418.285 152.826 415.91 157.136 413.608C158.022 413.134 158.936 412.638 159.553 411.846C161.292 409.613 159.704 406.086 157.171 404.821C154.638 403.555 151.636 403.879 148.826 404.233C153.367 403.459 155.316 398.406 157.02 393.989C157.156 393.638 157.29 393.291 157.423 392.95C159.237 388.324 164.222 383.372 168.422 386.032C165.176 396.19 162.358 406.483 159.976 416.877L140.685 419.157C138.373 419.431 135.263 421.004 136.263 423.103L159.148 419.942L151.125 449.14C150.532 451.298 148.068 459.797 148.068 459.797C148.068 459.797 140.83 460.339 139.122 460.688C138.822 460.749 138.562 460.821 138.337 460.898C138.553 460.343 138.688 459.753 138.723 459.128C138.926 455.5 133.015 452.891 131.626 456.25C129.838 454.605 131.803 450.957 134.163 451.543C133.622 437.907 134.09 424.231 135.558 410.664ZM135.558 410.664C135.673 409.601 135.794 408.539 135.921 407.478C135.472 408.525 135.378 409.61 135.558 410.664ZM135.921 407.478C136.668 401.249 137.625 395.045 138.793 388.88L144.302 388.667L135.954 407.403L135.936 407.443L135.921 407.478ZM163.049 336.763C158.241 337.41 152.683 337.826 149.221 334.432C148.879 334.097 148.557 333.709 148.465 333.24C148.38 332.81 148.501 332.368 148.62 331.946L155.627 307.21C160.034 307.825 164.509 307.238 168.92 306.652L190.804 303.745C188.508 313.027 186.049 322.268 183.427 331.463C183.162 332.392 182.84 333.4 182.032 333.932C181.52 334.271 180.887 334.361 180.279 334.443L163.049 336.763ZM218.074 201.293C217.742 207.086 217.36 213.073 214.716 218.24C212.073 223.408 211.305 228.098 211.305 228.098L209.237 235.037C203.308 234.609 197.294 235.385 191.668 237.305C197.13 239.687 203.568 239.734 209.064 237.431C206.291 244.752 204.682 252.512 204.316 260.331C213.602 232.546 221.656 204.35 228.446 175.854C232.153 176.544 232.119 181.84 231.131 185.475L139.849 521.511C138.565 525.856 136.015 539.193 145.793 504.487C157.002 464.701 174.616 401.066 191.931 338.509L191.931 338.508C207.705 281.522 223.231 225.431 233.441 189.078C234.235 186.253 235.035 182.525 234.5 179.64C233.965 176.755 231.662 173.969 228.725 173.917C225.14 179.146 222.601 185.088 221.302 191.291L187.034 194.44C188.574 191.82 188.427 188.306 186.673 185.823L172.9 237.582C178.856 225.091 183.145 211.81 185.619 198.197L220.929 193.421C221.039 198.678 213.652 199.749 208.388 199.725C200.683 199.689 192.974 201.256 185.896 204.298C196.692 204.717 207.542 203.703 218.074 201.293ZM138.889 378.979C138.876 380.18 139.259 381.382 139.964 382.355C142.791 381.705 145.71 381.46 148.605 381.63C147.021 383.561 145.698 385.706 144.684 387.987L144.221 386.096L139.029 386.343L137.999 381.817C137.436 379.343 136.869 376.825 137.044 374.294C137.188 372.21 137.831 370.196 138.468 368.206L142.244 356.423L154.464 361.345C155.465 361.749 156.504 362.177 157.226 362.979C157.949 363.781 158.248 365.074 157.61 365.944C154.355 370.384 151.573 375.17 149.324 380.194C148.974 379.451 148.964 378.555 149.299 377.805C145.807 377.946 142.324 378.338 138.889 378.979ZM144.425 298.97C144.531 298.186 145.481 297.753 146.258 297.908C147.035 298.062 147.66 298.617 148.245 299.151L149.287 298.19C149.885 298.262 149.914 299.116 149.771 299.699C147.384 309.428 144.643 319.069 141.556 328.599L135.332 318.506C137.748 318.835 140.085 317.181 141.31 315.075C142.535 312.97 142.882 310.485 143.206 308.071L144.425 298.97ZM149.346 409.756C150.198 408.697 150.645 407.321 150.578 405.964C151.168 405.845 151.796 405.924 152.338 406.186C152.017 407.403 152.253 408.755 152.966 409.792C153.737 408.896 153.88 407.514 153.31 406.48C155.503 406.194 157.812 406.981 159.374 408.546C157.807 411.576 154.685 413.565 151.41 414.529C148.135 415.492 144.673 415.558 141.259 415.617C140.168 415.636 138.942 415.602 138.186 414.816C137.317 413.912 137.484 412.464 137.754 411.241C138.354 408.524 139.177 405.857 140.211 403.274C142.962 404.747 145.982 405.717 149.077 406.12C148.916 407.333 149.008 408.58 149.346 409.756ZM120.234 457.353C121.498 458.572 123.545 458.152 125.26 457.772C126.976 457.392 129.176 457.336 130.045 458.862C130.197 459.13 130.291 459.425 130.385 459.72C130.493 460.057 130.6 460.394 130.793 460.687C131.156 461.238 132.083 461.514 132.434 460.956L130.748 456.62L135.162 459.797C135.35 458.803 135.015 457.725 134.296 457.012C135.112 455.747 137.36 456.734 137.548 458.227C137.736 459.72 136.638 461.061 135.479 462.022C133.025 464.056 130.026 465.308 127.029 466.392C125.142 467.075 122.694 467.567 121.41 466.027C121.484 465.49 121.407 464.932 121.192 464.435C120.8 464.539 120.363 464.462 120.032 464.228C119.888 461.937 119.955 459.632 120.234 457.353ZM146.319 332.638C144.79 332.216 143.791 330.429 144.234 328.907L152.913 299.061C153.787 298.968 154.679 299.042 155.526 299.278L146.319 332.638ZM168.572 373.471C168.852 372.848 169.132 372.225 169.417 371.606C171.19 367.758 173.193 364.015 175.411 360.404C176.104 362.573 175.036 364.828 174.048 366.916L174.046 366.92L174.039 366.934L173.914 367.198L173.833 367.371C172.157 370.944 171.039 374.778 170.531 378.691C170.146 381.657 166.437 383.642 163.752 382.318C165.798 379.643 167.187 376.551 168.572 373.471ZM134.947 353.633C135.227 354.079 135.167 354.651 135.085 355.172C134.526 358.708 133.388 362.153 131.729 365.327L126.485 350.851C128.994 351.245 131.458 351.922 133.816 352.865C134.247 353.037 134.7 353.24 134.947 353.633ZM168.576 344.459C172.193 342.714 176.429 342.283 180.324 343.264C178.977 346.679 178.091 350.275 177.697 353.924C176.84 354.257 176.294 353.029 176.096 352.132C175.282 348.449 172.245 345.35 168.576 344.459ZM139.608 355.921C139.776 356.497 139.608 357.112 139.441 357.688L135.528 371.212C134.272 369.391 134.674 366.944 135.161 364.787C135.914 361.447 136.748 358.125 137.662 354.825C138.458 354.612 139.378 355.13 139.608 355.921ZM146.507 403.974C145.062 403.911 143.503 403.806 142.39 402.883C141.277 401.96 141.049 399.899 142.318 399.206L147.691 402.004L146.507 403.974ZM125.572 456.716C124.028 457.008 122.443 456.673 120.908 456.339L121.107 454.822C123.737 454.841 126.368 454.495 128.903 453.797C128.621 455.341 127.115 456.425 125.572 456.716ZM170.116 237.188C169.544 239.211 168.485 241.642 166.382 241.727C171.287 224.074 176.245 206.436 181.256 188.813C182.02 186.127 182.877 183.29 184.962 181.43C185.311 183.368 184.771 185.345 184.235 187.241L170.116 237.188ZM187.567 262.608C187.791 263.274 188.191 263.879 188.716 264.346C185.626 264.341 182.622 265.113 179.614 265.886C176.909 266.581 174.2 267.276 171.425 267.408C170.157 267.469 168.369 266.655 168.925 265.515C169.17 265.014 169.777 264.826 170.319 264.695C175.961 263.335 181.762 262.633 187.567 262.608ZM140.013 228.866C141.306 232.857 144.039 236.365 147.593 238.597C147.939 236.821 146.433 235.422 145.042 234.131L145.041 234.13L145.041 234.13L145.04 234.129L145.039 234.128L145.039 234.128L145.038 234.127L145.037 234.126L145.037 234.126L145.035 234.124C144.804 233.909 144.576 233.698 144.361 233.488C142.311 231.492 141.045 228.713 140.885 225.858C140.032 226.567 139.671 227.812 140.013 228.866ZM151.515 202.597C153.137 202.597 155.853 204.75 154.53 205.779C153.208 206.809 150.159 202.597 151.515 202.597ZM170.085 273.016L179.074 270.092C179.733 269.877 180.524 269.486 180.5 268.795C176.051 269.104 171.632 269.849 167.328 271.014C166.441 271.254 166.596 272.725 167.41 273.151C168.224 273.577 169.212 273.301 170.085 273.016ZM157.291 198.213C157.99 197.532 161.915 200.052 160.547 201.509C159.846 202.256 156.519 198.966 157.291 198.213ZM149.921 201.466C150.049 201.203 150.179 200.937 150.387 200.699C150.648 200.402 151.058 200.047 151.471 199.691L151.471 199.691L151.471 199.691C152.282 198.99 153.101 198.283 152.81 197.986C151.072 198.438 149.544 199.642 148.699 201.226C147.988 202.597 149.093 202.697 149.32 202.355C149.612 202.102 149.765 201.786 149.921 201.466ZM161.798 202.597C162.01 202.709 162.237 202.819 162.47 202.933C163.738 203.551 165.158 204.243 165.041 205.543C164.902 207.081 163.073 208.188 162.467 206.768C162.584 206.516 162.833 206.427 163.09 206.335C163.482 206.195 163.893 206.048 163.893 205.312C163.893 204.806 163.414 204.44 162.915 204.057C162.384 203.651 161.83 203.226 161.798 202.597ZM157.37 195.659C155.712 195.829 154.313 197.481 154.473 199.138C154.712 199.328 155.066 198.801 155.463 198.214C155.745 197.795 156.048 197.345 156.346 197.102C156.662 196.842 157.228 196.582 157.751 196.341L157.751 196.341C158.492 195.999 159.146 195.698 158.886 195.496C158.628 195.522 158.38 195.55 158.133 195.577L158.133 195.577L158.132 195.577L158.131 195.577L158.128 195.577C157.879 195.605 157.63 195.632 157.37 195.659ZM191.377 295.945C191.9 296.843 190.534 297.63 189.506 297.787C180.058 299.229 170.58 300.466 161.078 301.497C160.815 300.35 161.576 299.166 162.585 298.559C163.594 297.952 164.802 297.794 165.97 297.649L171.897 296.912C177.873 296.169 183.866 295.425 189.887 295.408C190.441 295.406 191.098 295.466 191.377 295.945ZM161.878 215.357C161.6 215.396 161.346 215.195 161.313 214.909C161.28 214.623 161.479 214.36 161.758 214.321C163.123 214.131 164.062 213.647 164.952 212.867C165.337 212.529 165.949 211.767 166.554 211.012C167.387 209.975 168.208 208.952 168.411 209.067C168.763 209.265 166.812 212.757 165.788 213.655C164.74 214.574 163.433 215.141 161.878 215.357ZM293.137 158.577C293.154 159.031 293.185 159.524 293.48 159.869C293.886 160.344 294.607 160.347 295.231 160.311L312.44 159.332C313.058 159.297 313.692 159.258 314.257 159.005C315.175 158.595 315.684 157.775 315.952 156.805C315.01 156.222 315.057 155.041 315.122 153.434C315.137 153.062 315.153 152.668 315.158 152.252L315.439 127.705C315.447 127.063 315.483 126.349 315.942 125.899C316.4 125.449 317.407 125.636 317.406 126.279L317.405 126.805C317.599 126.698 317.821 126.658 318.073 126.709L317.85 153.899C318.335 154.403 319.122 154.485 319.831 154.529C321.923 154.659 324.091 154.778 326.051 154.035C328.011 153.291 329.711 151.432 329.57 149.342L327.739 122.345L285.891 126.269C284.946 126.357 283.897 126.499 283.295 127.232C282.775 127.864 282.746 128.754 282.742 129.573L282.604 157.194C282.599 158.313 281.149 158.727 280.033 158.81L258.415 160.412C257.132 160.508 255.422 160.296 255.196 159.03C263.054 157.31 271.126 156.563 279.166 156.812C279.99 156.838 280.259 155.726 280.254 154.903L280.105 130.69C280.097 129.394 279.398 127.573 278.182 128.023C274.442 129.409 270.2 129.395 266.47 127.984C284.269 123.975 302.442 121.624 320.676 120.973C324.127 120.85 328.682 119.77 328.784 116.322L269.045 121.322C275.52 117.795 283.154 117.275 290.515 116.829L326.662 114.641C327.801 114.572 329.083 114.552 329.908 115.34C330.706 116.102 330.77 117.333 330.781 118.437C330.938 134.171 330.973 149.907 330.887 165.642L332.948 165.091C333.794 164.865 334.746 164.651 335.503 165.091C336.261 165.53 336.367 166.926 335.519 167.142L330.871 168.329C330.801 179.434 330.67 190.537 330.478 201.64C332.339 201.699 334.193 201.99 335.981 202.511C335.704 203.993 333.748 204.313 332.239 204.291L330.432 204.265C330.057 224.96 329.473 245.651 328.678 266.334C326.324 259.258 325.712 251.61 326.913 244.25C325.841 245.418 324.084 245.174 322.354 244.934C320.553 244.684 318.78 244.438 317.837 245.791C317.357 246.478 317.316 247.368 317.292 248.206L316.823 264.328L327.263 266.281C327.762 266.375 328.316 266.503 328.593 266.929C328.869 267.354 328.53 268.106 328.042 267.965C316.903 266.895 305.662 267.2 294.434 267.504C279.376 267.912 264.344 268.319 249.621 265.41C253.338 264.915 260.076 264.944 266.203 264.971C272.547 264.998 278.238 265.023 279.246 264.46C279.415 257.801 279.811 251.147 280.432 244.515C269.48 242.939 258.335 242.702 247.325 243.811L246.802 276.857L339.415 282.127C341.349 282.237 343.348 282.338 345.167 281.672C346.987 281.005 348.594 279.359 348.583 277.424C348.556 272.834 348.634 265.974 348.712 259.115C348.79 252.255 348.868 245.396 348.842 240.806C348.829 238.547 348.956 235.971 350.698 234.53C350.821 240.279 350.84 248.298 350.86 256.317C350.879 264.336 350.899 272.355 351.022 278.105C351.076 280.624 348.998 282.791 346.634 283.67C344.269 284.548 341.666 284.418 339.147 284.276L251.262 279.338C248.52 279.184 244.947 278.231 244.883 275.489C244.249 248.132 244.64 220.751 246.053 193.423C246.086 192.786 246.159 192.069 246.655 191.668C247.152 191.267 248.144 191.644 247.976 192.26C247.912 196.853 248.307 201.452 249.154 205.967L249.682 205.941C249.688 205.373 249.982 204.839 250.547 204.796L282.085 202.386C282.431 202.359 282.801 202.324 283.068 202.103C283.454 201.785 283.484 201.215 283.482 200.715L283.37 173.807C283.368 173.463 283.364 173.104 283.21 172.796C282.82 172.016 281.749 171.954 280.878 172.001L255.833 173.342C255.363 172.813 255.639 171.917 256.206 171.494C256.773 171.072 257.518 170.995 258.223 170.932L285.159 168.542C285.486 168.513 285.85 168.495 286.104 168.702C286.399 168.942 286.421 169.375 286.419 169.755L286.242 202.564C286.234 204.082 285.639 206.157 284.132 205.963C283.235 205.848 282.337 205.758 281.439 205.69C282.296 206.659 282.358 208.118 282.361 209.432L282.411 231.912C282.413 232.805 282.355 233.828 281.655 234.383C281.146 234.786 280.445 234.813 279.796 234.823L255.22 235.196C252.398 235.238 249.46 235.257 246.911 234.048C246.339 236.555 246.852 239.29 248.293 241.42C258.958 239.955 269.852 240.173 280.449 242.062C280.976 242.156 281.54 242.274 281.904 242.665C282.329 243.122 282.356 243.808 282.359 244.431L282.473 265.383C285.328 265.519 286.334 261.684 286.374 258.83L286.576 244.654C286.589 243.746 286.684 242.683 287.455 242.202C287.911 241.917 288.484 241.924 289.021 241.941L290.638 241.992L290.624 215.455C290.623 214.738 290.662 213.931 291.195 213.452C291.666 213.03 292.363 213.012 292.996 213.018L314.157 213.212C314.494 213.215 314.862 213.229 315.117 213.45C315.142 213.471 315.166 213.494 315.187 213.518L315.25 208.125C315.263 207.038 315.326 205.827 316.108 205.072C316.841 204.364 317.962 204.294 318.98 204.266L323.512 204.137C322.351 203.883 321.989 202.192 321.996 200.905L322.149 169.589C322.151 169.095 322.168 168.558 322.481 168.175C322.769 167.822 323.239 167.686 323.679 167.568L328.875 166.179L329.123 155.248C326.64 156.401 320.83 157.308 317.823 157.214L317.81 158.793C317.805 159.494 317.769 160.271 317.279 160.773C316.813 161.25 316.084 161.325 315.418 161.371C311.646 161.635 307.872 161.888 304.099 162.141L304.085 162.142L304.084 162.142L292.607 162.913C292.179 162.941 291.711 162.959 291.363 162.707C290.893 162.365 290.85 161.692 290.85 161.111L290.894 132.72C290.896 131.685 290.977 130.486 291.82 129.884C293.087 131.401 293.083 133.571 293.032 135.545C292.831 143.221 292.866 150.903 293.137 158.577ZM328.815 168.855L326.473 169.453C325.852 169.612 325.184 169.8 324.791 170.307C324.405 170.806 324.385 171.488 324.381 172.119L324.224 200.484C324.22 201.22 324.537 202.242 325.258 202.092C326.185 201.899 327.125 201.766 328.07 201.694L328.815 168.855ZM315.465 236.674L315.468 242.288C315.865 242.086 316.426 242.035 316.886 242.069L327.008 242.819C327.466 240.532 327.391 238.139 326.791 235.885C324.531 236.763 319.232 237.465 316.823 237.181C316.187 237.106 315.755 236.933 315.465 236.674ZM314.953 244.885C314.18 245.629 312.684 245.872 311.478 245.843L311.087 262.151C311.056 263.457 311.342 265.171 312.635 265.368C314.172 265.603 314.806 263.475 314.818 261.922L314.953 244.885ZM290.682 244.342C290.734 244.634 290.846 244.901 291.083 245.07C291.333 245.246 291.658 245.261 291.964 245.27L308.968 245.77C309.09 245.886 309.201 246.016 309.298 246.163C309.872 247.028 309.76 248.158 309.649 249.19C309.206 253.304 309.127 257.458 309.413 261.586C309.429 261.82 309.409 262.138 309.388 262.484C309.338 263.298 309.278 264.27 309.649 264.677C308.995 265.384 295.182 265.28 289.806 264.774C289.313 264.728 288.757 264.642 288.473 264.236C288.272 263.948 288.265 263.573 288.265 263.222L288.25 246.5C288.25 245.894 288.275 245.221 288.7 244.788C289.152 244.327 289.879 244.317 290.525 244.337L290.682 244.342ZM311.337 243.338C312.712 243.014 313.986 242.276 313.872 240.974C313.196 233.279 313.134 225.53 313.685 217.824C313.808 216.095 311.463 215.467 309.728 215.449L294.083 215.29C293.757 215.287 293.417 215.286 293.123 215.427C292.402 215.773 292.303 216.741 292.303 217.541L292.322 242.045L309.256 242.575C310.006 242.599 310.944 242.806 311.337 243.338ZM359.175 256.164C360.96 252.104 361.004 247.523 361.017 243.089L361.357 134.292C361.366 131.384 361.283 128.209 359.412 125.981C358.669 169.371 358.59 212.772 359.175 256.164ZM293.807 168.301C292.858 168.161 291.667 168.104 291.178 168.93C290.978 169.268 290.958 169.68 290.943 170.073C290.489 182.122 290.458 194.187 290.849 206.239C292.542 205.661 292.762 203.399 292.706 201.613C292.385 191.436 292.998 181.255 293.61 171.092C300.681 171.82 307.854 171.557 314.853 170.314C315.844 170.138 316.232 171.55 316.195 172.554C315.848 182.061 315.829 191.579 316.137 201.087C316.269 201.605 315.536 201.869 315 201.89L294.587 202.694C293.804 202.725 293.624 203.958 294.194 204.495C294.764 205.032 295.636 205.045 296.42 205.025L316.536 204.519C316.92 204.509 317.352 204.479 317.607 204.192C317.834 203.937 317.847 203.562 317.847 203.221L317.855 169.581C317.855 169.203 317.851 168.808 317.675 168.474C317.203 167.578 315.913 167.663 314.917 167.854C307.972 169.184 300.803 169.336 293.807 168.301ZM362.052 112.064C361.896 116.775 361.706 121.633 359.717 125.906L358.787 107.073C358.646 104.215 357.09 100.288 354.368 101.178L353.996 286.986C353.989 290.674 353.972 294.428 352.881 297.952C351.704 297.286 351.567 295.675 351.572 294.323L352.254 101.016C352.256 100.527 352.261 100.023 352.457 99.5752C352.934 98.4888 354.349 98.1517 355.523 98.3262C358.284 98.7364 360.411 101.143 361.318 103.78C362.225 106.417 362.144 109.277 362.052 112.064ZM279.439 207.86C279.825 208.18 279.856 208.751 279.856 209.252L279.863 230.821C279.863 231.725 279.686 232.873 278.809 233.098C269.282 232.434 259.717 232.293 250.174 232.675C249.285 232.711 248.514 231.971 248.215 231.133C247.916 230.296 247.982 229.378 248.046 228.491C248.471 222.609 248.646 216.709 248.571 210.812C248.562 210.104 248.627 209.253 249.25 208.915C249.468 208.796 249.722 208.765 249.969 208.737C259.39 207.659 268.889 207.272 278.366 207.582C278.743 207.595 279.15 207.619 279.439 207.86ZM317.159 207.903C317.159 207.488 317.691 207.324 318.104 207.283L328.2 206.263L327.67 232.538C327.658 233.139 327.584 233.849 327.06 234.144C326.817 234.281 326.526 234.293 326.247 234.301L318.98 234.53C318.42 234.547 317.774 234.528 317.421 234.093C317.161 233.772 317.149 233.322 317.149 232.909L317.159 207.903Z" fill="#00160A"/>
<path fill-rule="evenodd" clip-rule="evenodd" d="M220.381 119.261C220.021 119.116 219.63 119.042 219.24 119.046C218.778 118.893 219.049 118.162 219.5 117.981C219.95 117.799 220.515 117.82 220.845 117.47C221.122 117.177 221.122 116.735 221.26 116.36C221.398 115.986 221.844 115.886 222.156 116.143C222.219 117.185 223.555 116.453 224.526 117.023C225.068 117.342 224.166 117.767 224.23 118.281C224.311 118.932 225.843 120.401 225.118 120.144C224.327 119.863 223.219 119.431 222.389 119.562C221.645 119.68 221.171 120.322 220.558 120.749C220.361 120.281 220.299 119.761 220.381 119.261Z" fill="#FFB61D"/>
<path fill-rule="evenodd" clip-rule="evenodd" d="M215.468 109.142C215.812 109.344 216.068 109.682 216.164 110.061C215.777 110.16 215.079 109.367 214.544 109.517C214.002 109.668 213.622 110.762 213.217 110.745C212.793 110.728 213.601 109.84 213.398 109.311C213.215 108.836 211.998 108.727 212 108.474C212.002 108.281 212.873 108.302 213.217 107.996C213.437 107.8 213.17 107.248 213.217 107.15C213.398 106.779 214.082 107.15 214.544 107.668C215.04 107.541 215.537 107.413 216.034 107.286C216.248 107.939 215.025 108.258 215.251 108.873L215.468 109.142Z" fill="#FFB61D"/>
<path fill-rule="evenodd" clip-rule="evenodd" d="M211.931 127.488C212.291 127.633 212.682 127.707 213.072 127.703C213.534 127.856 213.263 128.587 212.812 128.769C212.362 128.95 211.797 128.929 211.467 129.279C211.19 129.572 211.19 130.014 211.052 130.389C210.914 130.763 210.468 130.863 210.156 130.606C210.093 129.564 208.757 130.296 207.786 129.726C207.244 129.407 208.146 128.982 208.082 128.468C208.001 127.817 206.469 126.348 207.194 126.605C207.985 126.886 209.093 127.319 209.923 127.187C210.667 127.069 211.141 126.427 211.754 126C211.951 126.468 212.013 126.988 211.931 127.488Z" fill="#FFB61D"/>
<path fill-rule="evenodd" clip-rule="evenodd" d="M207.648 98.6032C207.304 98.4013 207.048 98.063 206.952 97.6839C207.339 97.5851 208.037 98.3781 208.572 98.2285C209.115 98.0769 209.494 96.9836 209.899 97.0002C210.323 97.0176 209.515 97.9048 209.718 98.434C209.901 98.9095 211.118 99.0177 211.116 99.2715C211.115 99.4644 210.243 99.4427 209.899 99.7492C209.68 99.9448 209.946 100.498 209.899 100.595C209.718 100.966 209.034 100.595 208.572 100.077C208.076 100.204 207.579 100.332 207.083 100.459C206.868 99.8063 208.091 99.4867 207.865 98.8726L207.648 98.6032Z" fill="#FFB61D"/>
<path fill-rule="evenodd" clip-rule="evenodd" d="M190.381 123.261C190.021 123.116 189.63 123.042 189.24 123.046C188.778 122.893 189.049 122.162 189.5 121.981C189.95 121.799 190.515 121.82 190.845 121.47C191.122 121.177 191.122 120.735 191.26 120.36C191.398 119.986 191.844 119.886 192.156 120.143C192.219 121.185 193.555 120.453 194.526 121.023C195.068 121.342 194.166 121.767 194.23 122.281C194.311 122.932 195.843 124.401 195.118 124.144C194.327 123.863 193.219 123.431 192.389 123.562C191.645 123.68 191.171 124.322 190.558 124.749C190.361 124.281 190.299 123.761 190.381 123.261Z" fill="#FFB61D"/>
<path fill-rule="evenodd" clip-rule="evenodd" d="M187.468 115.661C187.812 115.863 188.068 116.202 188.164 116.581C187.777 116.679 187.079 115.887 186.544 116.036C186.002 116.188 185.622 117.281 185.217 117.264C184.793 117.247 185.601 116.36 185.398 115.831C185.215 115.355 183.998 115.247 184 114.993C184.002 114.8 184.873 114.822 185.217 114.515C185.437 114.32 185.17 113.767 185.217 113.67C185.398 113.298 186.082 113.67 186.544 114.187C187.04 114.06 187.537 113.933 188.034 113.806C188.248 114.458 187.025 114.778 187.251 115.392L187.468 115.661Z" fill="#FFB61D"/>
<path fill-rule="evenodd" clip-rule="evenodd" d="M223.381 98.2614C223.021 98.1158 222.63 98.0421 222.24 98.0462C221.778 97.8929 222.049 97.1622 222.5 96.9805C222.95 96.7988 223.515 96.8197 223.845 96.4703C224.122 96.1772 224.122 95.7348 224.26 95.3603C224.398 94.9858 224.844 94.8859 225.156 95.143C225.219 96.1845 226.555 95.4527 227.526 96.0233C228.068 96.3416 227.166 96.767 227.23 97.2807C227.311 97.932 228.843 99.4006 228.118 99.1436C227.327 98.8631 226.219 98.4305 225.389 98.562C224.645 98.6798 224.171 99.3223 223.558 99.749C223.361 99.2813 223.299 98.7605 223.381 98.2614Z" fill="#FFB61D"/>
<path fill-rule="evenodd" clip-rule="evenodd" d="M211.468 139.661C211.812 139.863 212.068 140.202 212.164 140.581C211.777 140.679 211.079 139.887 210.544 140.036C210.002 140.188 209.622 141.281 209.217 141.264C208.793 141.247 209.601 140.36 209.398 139.831C209.215 139.355 207.998 139.247 208 138.993C208.002 138.8 208.873 138.822 209.217 138.515C209.437 138.32 209.17 137.767 209.217 137.67C209.398 137.298 210.082 137.67 210.544 138.187C211.04 138.06 211.537 137.933 212.034 137.806C212.248 138.458 211.025 138.778 211.251 139.392L211.468 139.661Z" fill="#FFB61D"/>
<path fill-rule="evenodd" clip-rule="evenodd" d="M206.931 118.003C207.291 118.149 207.682 118.223 208.072 118.218C208.534 118.372 208.263 119.102 207.812 119.284C207.362 119.466 206.797 119.445 206.467 119.794C206.19 120.087 206.19 120.53 206.052 120.904C205.914 121.279 205.468 121.379 205.156 121.122C205.093 120.08 203.757 120.812 202.786 120.241C202.244 119.923 203.146 119.498 203.082 118.984C203.001 118.333 201.469 116.864 202.194 117.121C202.985 117.402 204.093 117.834 204.923 117.703C205.667 117.585 206.141 116.942 206.754 116.516C206.951 116.983 207.013 117.504 206.931 118.003Z" fill="#FFB61D"/>
<path fill-rule="evenodd" clip-rule="evenodd" d="M195.696 128.603C195.352 128.401 195.096 128.063 195 127.684C195.387 127.585 196.085 128.378 196.62 128.228C197.163 128.077 197.542 126.984 197.947 127C198.371 127.018 197.563 127.905 197.766 128.434C197.949 128.91 199.166 129.018 199.164 129.271C199.162 129.464 198.291 129.443 197.947 129.749C197.727 129.945 197.994 130.498 197.947 130.595C197.766 130.966 197.082 130.595 196.62 130.077C196.124 130.204 195.627 130.332 195.13 130.459C194.916 129.806 196.139 129.487 195.913 128.873L195.696 128.603Z" fill="#FFB61D"/>
<path fill-rule="evenodd" clip-rule="evenodd" d="M220.381 132.261C220.021 132.116 219.63 132.042 219.24 132.046C218.778 131.893 219.049 131.162 219.5 130.981C219.95 130.799 220.515 130.82 220.845 130.47C221.122 130.177 221.122 129.735 221.26 129.36C221.398 128.986 221.844 128.886 222.156 129.143C222.219 130.185 223.555 129.453 224.526 130.023C225.068 130.342 224.166 130.767 224.23 131.281C224.311 131.932 225.843 133.401 225.118 133.144C224.327 132.863 223.219 132.431 222.389 132.562C221.645 132.68 221.171 133.322 220.558 133.749C220.361 133.281 220.299 132.761 220.381 132.261Z" fill="#FFB61D"/>
<path fill-rule="evenodd" clip-rule="evenodd" d="M228.468 108.142C228.812 108.344 229.068 108.682 229.164 109.061C228.777 109.16 228.079 108.367 227.544 108.517C227.002 108.668 226.622 109.762 226.217 109.745C225.793 109.728 226.601 108.84 226.398 108.311C226.215 107.836 224.998 107.727 225 107.474C225.002 107.281 225.873 107.302 226.217 106.996C226.437 106.8 226.17 106.248 226.217 106.15C226.398 105.779 227.082 106.15 227.544 106.668C228.04 106.541 228.537 106.413 229.034 106.286C229.248 106.939 228.025 107.258 228.251 107.873L228.468 108.142Z" fill="#FFB61D"/>
<path fill-rule="evenodd" clip-rule="evenodd" d="M197.381 107.261C197.021 107.116 196.63 107.042 196.24 107.046C195.778 106.893 196.049 106.162 196.5 105.981C196.95 105.799 197.515 105.82 197.845 105.47C198.122 105.177 198.122 104.735 198.26 104.36C198.398 103.986 198.844 103.886 199.156 104.143C199.219 105.185 200.555 104.453 201.526 105.023C202.068 105.342 201.166 105.767 201.23 106.281C201.311 106.932 202.843 108.401 202.118 108.144C201.327 107.863 200.219 107.431 199.389 107.562C198.645 107.68 198.171 108.322 197.558 108.749C197.361 108.281 197.299 107.761 197.381 107.261Z" fill="#FFB61D"/>
<path fill-rule="evenodd" clip-rule="evenodd" d="M184.468 131.142C184.812 131.344 185.068 131.682 185.164 132.061C184.777 132.16 184.079 131.367 183.544 131.517C183.002 131.668 182.622 132.762 182.217 132.745C181.793 132.728 182.601 131.84 182.398 131.311C182.215 130.836 180.998 130.727 181 130.474C181.002 130.281 181.873 130.302 182.217 129.996C182.437 129.8 182.17 129.248 182.217 129.15C182.398 128.779 183.082 129.15 183.544 129.668C184.04 129.541 184.537 129.413 185.034 129.286C185.248 129.939 184.025 130.258 184.251 130.873L184.468 131.142Z" fill="#FFB61D"/>
<path fill-rule="evenodd" clip-rule="evenodd" d="M190.381 99.2614C190.021 99.1158 189.63 99.0421 189.24 99.0462C188.778 98.8929 189.049 98.1622 189.5 97.9805C189.95 97.7988 190.515 97.8197 190.845 97.4703C191.122 97.1772 191.122 96.7348 191.26 96.3603C191.398 95.9858 191.844 95.8859 192.156 96.143C192.219 97.1845 193.555 96.4527 194.526 97.0233C195.068 97.3416 194.166 97.767 194.23 98.2807C194.311 98.932 195.843 100.401 195.118 100.144C194.327 99.8631 193.219 99.4305 192.389 99.562C191.645 99.6798 191.171 100.322 190.558 100.749C190.361 100.281 190.299 99.7605 190.381 99.2614Z" fill="#FFB61D"/>
<path fill-rule="evenodd" clip-rule="evenodd" d="M185.468 89.1419C185.812 89.3438 186.068 89.6821 186.164 90.0612C185.777 90.16 185.079 89.3671 184.544 89.5166C184.002 89.6682 183.622 90.7616 183.217 90.7449C182.793 90.7275 183.601 89.8403 183.398 89.3111C183.215 88.8356 181.998 88.7275 182 88.4737C182.002 88.2807 182.873 88.3024 183.217 87.9959C183.437 87.8003 183.17 87.2475 183.217 87.1504C183.398 86.779 184.082 87.1504 184.544 87.6679C185.04 87.5407 185.537 87.4134 186.034 87.2862C186.248 87.9388 185.025 88.2584 185.251 88.8726L185.468 89.1419Z" fill="#FFB61D"/>
<path fill-rule="evenodd" clip-rule="evenodd" d="M181.931 107.488C182.291 107.633 182.682 107.707 183.072 107.703C183.534 107.856 183.263 108.587 182.812 108.769C182.362 108.95 181.797 108.929 181.467 109.279C181.19 109.572 181.19 110.014 181.052 110.389C180.914 110.763 180.468 110.863 180.156 110.606C180.093 109.564 178.757 110.296 177.786 109.726C177.244 109.407 178.146 108.982 178.082 108.468C178.001 107.817 176.469 106.348 177.194 106.605C177.985 106.886 179.093 107.319 179.923 107.187C180.667 107.069 181.141 106.427 181.754 106C181.951 106.468 182.013 106.988 181.931 107.488Z" fill="#FFB61D"/>
<path fill-rule="evenodd" clip-rule="evenodd" d="M177.648 78.6032C177.304 78.4013 177.048 78.063 176.952 77.6839C177.339 77.5851 178.037 78.3781 178.572 78.2285C179.115 78.0769 179.494 76.9836 179.899 77.0002C180.323 77.0176 179.515 77.9048 179.718 78.434C179.901 78.9095 181.118 79.0177 181.116 79.2715C181.115 79.4644 180.243 79.4427 179.899 79.7492C179.68 79.9448 179.946 80.4976 179.899 80.5947C179.718 80.9662 179.034 80.5947 178.572 80.0772C178.076 80.2045 177.579 80.3317 177.083 80.4589C176.868 79.8063 178.091 79.4867 177.865 78.8726L177.648 78.6032Z" fill="#FFB61D"/>
<path fill-rule="evenodd" clip-rule="evenodd" d="M160.381 103.261C160.021 103.116 159.63 103.042 159.24 103.046C158.778 102.893 159.049 102.162 159.5 101.981C159.95 101.799 160.515 101.82 160.845 101.47C161.122 101.177 161.122 100.735 161.26 100.36C161.398 99.9858 161.844 99.8859 162.156 100.143C162.219 101.185 163.555 100.453 164.526 101.023C165.068 101.342 164.166 101.767 164.23 102.281C164.311 102.932 165.843 104.401 165.118 104.144C164.327 103.863 163.219 103.431 162.389 103.562C161.645 103.68 161.171 104.322 160.558 104.749C160.361 104.281 160.299 103.761 160.381 103.261Z" fill="#FFB61D"/>
<path fill-rule="evenodd" clip-rule="evenodd" d="M157.468 95.6614C157.812 95.8633 158.068 96.2017 158.164 96.5808C157.777 96.6795 157.079 95.8866 156.544 96.0362C156.002 96.1878 155.622 97.2811 155.217 97.2645C154.793 97.2471 155.601 96.3599 155.398 95.8306C155.215 95.3551 153.998 95.247 154 94.9932C154.002 94.8002 154.873 94.822 155.217 94.5154C155.437 94.3199 155.17 93.7671 155.217 93.6699C155.398 93.2985 156.082 93.6699 156.544 94.1874C157.04 94.0602 157.537 93.933 158.034 93.8057C158.248 94.4583 157.025 94.7779 157.251 95.3921L157.468 95.6614Z" fill="#FFB61D"/>
<path fill-rule="evenodd" clip-rule="evenodd" d="M193.381 78.2614C193.021 78.1158 192.63 78.0421 192.24 78.0462C191.778 77.8929 192.049 77.1622 192.5 76.9805C192.95 76.7988 193.515 76.8197 193.845 76.4703C194.122 76.1772 194.122 75.7348 194.26 75.3603C194.398 74.9858 194.844 74.8859 195.156 75.143C195.219 76.1845 196.555 75.4527 197.526 76.0233C198.068 76.3416 197.166 76.767 197.23 77.2807C197.311 77.932 198.843 79.4006 198.118 79.1436C197.327 78.8631 196.219 78.4305 195.389 78.562C194.645 78.6798 194.171 79.3223 193.558 79.749C193.361 79.2813 193.299 78.7605 193.381 78.2614Z" fill="#FFB61D"/>
<path fill-rule="evenodd" clip-rule="evenodd" d="M181.468 119.661C181.812 119.863 182.068 120.202 182.164 120.581C181.777 120.679 181.079 119.887 180.544 120.036C180.002 120.188 179.622 121.281 179.217 121.264C178.793 121.247 179.601 120.36 179.398 119.831C179.215 119.355 177.998 119.247 178 118.993C178.002 118.8 178.873 118.822 179.217 118.515C179.437 118.32 179.17 117.767 179.217 117.67C179.398 117.298 180.082 117.67 180.544 118.187C181.04 118.06 181.537 117.933 182.034 117.806C182.248 118.458 181.025 118.778 181.251 119.392L181.468 119.661Z" fill="#FFB61D"/>
<path fill-rule="evenodd" clip-rule="evenodd" d="M176.931 98.0032C177.291 98.1488 177.682 98.2225 178.072 98.2184C178.534 98.3718 178.263 99.1025 177.812 99.2841C177.362 99.4658 176.797 99.4449 176.467 99.7944C176.19 100.087 176.19 100.53 176.052 100.904C175.914 101.279 175.468 101.379 175.156 101.122C175.093 100.08 173.757 100.812 172.786 100.241C172.244 99.9231 173.146 99.4976 173.082 98.9839C173.001 98.3326 171.469 96.864 172.194 97.1211C172.985 97.4016 174.093 97.8341 174.923 97.7027C175.667 97.5849 176.141 96.9424 176.754 96.5156C176.951 96.9834 177.013 97.5041 176.931 98.0032Z" fill="#FFB61D"/>
<path fill-rule="evenodd" clip-rule="evenodd" d="M165.696 108.603C165.352 108.401 165.096 108.063 165 107.684C165.387 107.585 166.085 108.378 166.62 108.228C167.163 108.077 167.542 106.984 167.947 107C168.371 107.018 167.563 107.905 167.766 108.434C167.949 108.91 169.166 109.018 169.164 109.271C169.162 109.464 168.291 109.443 167.947 109.749C167.727 109.945 167.994 110.498 167.947 110.595C167.766 110.966 167.082 110.595 166.62 110.077C166.124 110.204 165.627 110.332 165.13 110.459C164.916 109.806 166.139 109.487 165.913 108.873L165.696 108.603Z" fill="#FFB61D"/>
<path fill-rule="evenodd" clip-rule="evenodd" d="M190.381 112.261C190.021 112.116 189.63 112.042 189.24 112.046C188.778 111.893 189.049 111.162 189.5 110.981C189.95 110.799 190.515 110.82 190.845 110.47C191.122 110.177 191.122 109.735 191.26 109.36C191.398 108.986 191.844 108.886 192.156 109.143C192.219 110.185 193.555 109.453 194.526 110.023C195.068 110.342 194.166 110.767 194.23 111.281C194.311 111.932 195.843 113.401 195.118 113.144C194.327 112.863 193.219 112.431 192.389 112.562C191.645 112.68 191.171 113.322 190.558 113.749C190.361 113.281 190.299 112.761 190.381 112.261Z" fill="#FFB61D"/>
<path fill-rule="evenodd" clip-rule="evenodd" d="M198.468 88.1419C198.812 88.3438 199.068 88.6821 199.164 89.0612C198.777 89.16 198.079 88.3671 197.544 88.5166C197.002 88.6682 196.622 89.7616 196.217 89.7449C195.793 89.7275 196.601 88.8403 196.398 88.3111C196.215 87.8356 194.998 87.7275 195 87.4737C195.002 87.2807 195.873 87.3024 196.217 86.9959C196.437 86.8003 196.17 86.2475 196.217 86.1504C196.398 85.779 197.082 86.1504 197.544 86.6679C198.04 86.5407 198.537 86.4134 199.034 86.2862C199.248 86.9388 198.025 87.2584 198.251 87.8726L198.468 88.1419Z" fill="#FFB61D"/>
<path fill-rule="evenodd" clip-rule="evenodd" d="M167.381 87.2614C167.021 87.1158 166.63 87.0421 166.24 87.0462C165.778 86.8929 166.049 86.1622 166.5 85.9805C166.95 85.7988 167.515 85.8197 167.845 85.4703C168.122 85.1772 168.122 84.7348 168.26 84.3603C168.398 83.9858 168.844 83.8859 169.156 84.143C169.219 85.1845 170.555 84.4527 171.526 85.0233C172.068 85.3416 171.166 85.767 171.23 86.2807C171.311 86.932 172.843 88.4006 172.118 88.1436C171.327 87.8631 170.219 87.4305 169.389 87.562C168.645 87.6798 168.171 88.3223 167.558 88.749C167.361 88.2813 167.299 87.7605 167.381 87.2614Z" fill="#FFB61D"/>
<path fill-rule="evenodd" clip-rule="evenodd" d="M154.468 111.142C154.812 111.344 155.068 111.682 155.164 112.061C154.777 112.16 154.079 111.367 153.544 111.517C153.002 111.668 152.622 112.762 152.217 112.745C151.793 112.728 152.601 111.84 152.398 111.311C152.215 110.836 150.998 110.727 151 110.474C151.002 110.281 151.873 110.302 152.217 109.996C152.437 109.8 152.17 109.248 152.217 109.15C152.398 108.779 153.082 109.15 153.544 109.668C154.04 109.541 154.537 109.413 155.034 109.286C155.248 109.939 154.025 110.258 154.251 110.873L154.468 111.142Z" fill="#FFB61D"/>
<path fill-rule="evenodd" clip-rule="evenodd" d="M163.381 141.261C163.021 141.116 162.63 141.042 162.24 141.046C161.778 140.893 162.049 140.162 162.5 139.981C162.95 139.799 163.515 139.82 163.845 139.47C164.122 139.177 164.122 138.735 164.26 138.36C164.398 137.986 164.844 137.886 165.156 138.143C165.219 139.185 166.555 138.453 167.526 139.023C168.068 139.342 167.166 139.767 167.23 140.281C167.311 140.932 168.843 142.401 168.118 142.144C167.327 141.863 166.219 141.431 165.389 141.562C164.645 141.68 164.171 142.322 163.558 142.749C163.361 142.281 163.299 141.761 163.381 141.261Z" fill="#FFB61D"/>
<path fill-rule="evenodd" clip-rule="evenodd" d="M158.468 131.142C158.812 131.344 159.068 131.682 159.164 132.061C158.777 132.16 158.079 131.367 157.544 131.517C157.002 131.668 156.622 132.762 156.217 132.745C155.793 132.728 156.601 131.84 156.398 131.311C156.215 130.836 154.998 130.727 155 130.474C155.002 130.281 155.873 130.302 156.217 129.996C156.437 129.8 156.17 129.248 156.217 129.15C156.398 128.779 157.082 129.15 157.544 129.668C158.04 129.541 158.537 129.413 159.034 129.286C159.248 129.939 158.025 130.258 158.251 130.873L158.468 131.142Z" fill="#FFB61D"/>
<path fill-rule="evenodd" clip-rule="evenodd" d="M154.931 149.488C155.291 149.633 155.682 149.707 156.072 149.703C156.534 149.856 156.263 150.587 155.812 150.769C155.362 150.95 154.797 150.929 154.467 151.279C154.19 151.572 154.19 152.014 154.052 152.389C153.914 152.763 153.468 152.863 153.156 152.606C153.093 151.564 151.757 152.296 150.786 151.726C150.244 151.407 151.146 150.982 151.082 150.468C151.001 149.817 149.469 148.348 150.194 148.605C150.985 148.886 152.093 149.319 152.923 149.187C153.667 149.069 154.141 148.427 154.754 148C154.951 148.468 155.013 148.988 154.931 149.488Z" fill="#FFB61D"/>
<path fill-rule="evenodd" clip-rule="evenodd" d="M150.648 120.603C150.304 120.401 150.048 120.063 149.952 119.684C150.339 119.585 151.037 120.378 151.572 120.228C152.115 120.077 152.494 118.984 152.899 119C153.323 119.018 152.515 119.905 152.718 120.434C152.901 120.91 154.118 121.018 154.116 121.271C154.115 121.464 153.243 121.443 152.899 121.749C152.68 121.945 152.946 122.498 152.899 122.595C152.718 122.966 152.034 122.595 151.572 122.077C151.076 122.204 150.579 122.332 150.083 122.459C149.868 121.806 151.091 121.487 150.865 120.873L150.648 120.603Z" fill="#FFB61D"/>
<path fill-rule="evenodd" clip-rule="evenodd" d="M133.381 145.261C133.021 145.116 132.63 145.042 132.24 145.046C131.778 144.893 132.049 144.162 132.5 143.981C132.95 143.799 133.515 143.82 133.845 143.47C134.122 143.177 134.122 142.735 134.26 142.36C134.398 141.986 134.844 141.886 135.156 142.143C135.219 143.185 136.555 142.453 137.526 143.023C138.068 143.342 137.166 143.767 137.23 144.281C137.311 144.932 138.843 146.401 138.118 146.144C137.327 145.863 136.219 145.431 135.389 145.562C134.645 145.68 134.171 146.322 133.558 146.749C133.361 146.281 133.299 145.761 133.381 145.261Z" fill="#FFB61D"/>
<path fill-rule="evenodd" clip-rule="evenodd" d="M130.468 137.661C130.812 137.863 131.068 138.202 131.164 138.581C130.777 138.679 130.079 137.887 129.544 138.036C129.002 138.188 128.622 139.281 128.217 139.264C127.793 139.247 128.601 138.36 128.398 137.831C128.215 137.355 126.998 137.247 127 136.993C127.002 136.8 127.873 136.822 128.217 136.515C128.437 136.32 128.17 135.767 128.217 135.67C128.398 135.298 129.082 135.67 129.544 136.187C130.04 136.06 130.537 135.933 131.034 135.806C131.248 136.458 130.025 136.778 130.251 137.392L130.468 137.661Z" fill="#FFB61D"/>
<path fill-rule="evenodd" clip-rule="evenodd" d="M166.381 120.261C166.021 120.116 165.63 120.042 165.24 120.046C164.778 119.893 165.049 119.162 165.5 118.981C165.95 118.799 166.515 118.82 166.845 118.47C167.122 118.177 167.122 117.735 167.26 117.36C167.398 116.986 167.844 116.886 168.156 117.143C168.219 118.185 169.555 117.453 170.526 118.023C171.068 118.342 170.166 118.767 170.23 119.281C170.311 119.932 171.843 121.401 171.118 121.144C170.327 120.863 169.219 120.431 168.389 120.562C167.645 120.68 167.171 121.322 166.558 121.749C166.361 121.281 166.299 120.761 166.381 120.261Z" fill="#FFB61D"/>
<path fill-rule="evenodd" clip-rule="evenodd" d="M154.468 161.661C154.812 161.863 155.068 162.202 155.164 162.581C154.777 162.679 154.079 161.887 153.544 162.036C153.002 162.188 152.622 163.281 152.217 163.264C151.793 163.247 152.601 162.36 152.398 161.831C152.215 161.355 150.998 161.247 151 160.993C151.002 160.8 151.873 160.822 152.217 160.515C152.437 160.32 152.17 159.767 152.217 159.67C152.398 159.298 153.082 159.67 153.544 160.187C154.04 160.06 154.537 159.933 155.034 159.806C155.248 160.458 154.025 160.778 154.251 161.392L154.468 161.661Z" fill="#FFB61D"/>
<path fill-rule="evenodd" clip-rule="evenodd" d="M149.931 140.003C150.291 140.149 150.682 140.223 151.072 140.218C151.534 140.372 151.263 141.102 150.812 141.284C150.362 141.466 149.797 141.445 149.467 141.794C149.19 142.087 149.19 142.53 149.052 142.904C148.914 143.279 148.468 143.379 148.156 143.122C148.093 142.08 146.757 142.812 145.786 142.241C145.244 141.923 146.146 141.498 146.082 140.984C146.001 140.333 144.469 138.864 145.194 139.121C145.985 139.402 147.093 139.834 147.923 139.703C148.667 139.585 149.141 138.942 149.754 138.516C149.951 138.983 150.013 139.504 149.931 140.003Z" fill="#FFB61D"/>
<path fill-rule="evenodd" clip-rule="evenodd" d="M138.696 150.603C138.352 150.401 138.096 150.063 138 149.684C138.387 149.585 139.085 150.378 139.62 150.228C140.163 150.077 140.542 148.984 140.947 149C141.371 149.018 140.563 149.905 140.766 150.434C140.949 150.91 142.166 151.018 142.164 151.271C142.162 151.464 141.291 151.443 140.947 151.749C140.727 151.945 140.994 152.498 140.947 152.595C140.766 152.966 140.082 152.595 139.62 152.077C139.124 152.204 138.627 152.332 138.13 152.459C137.916 151.806 139.139 151.487 138.913 150.873L138.696 150.603Z" fill="#FFB61D"/>
<path fill-rule="evenodd" clip-rule="evenodd" d="M163.381 154.261C163.021 154.116 162.63 154.042 162.24 154.046C161.778 153.893 162.049 153.162 162.5 152.981C162.95 152.799 163.515 152.82 163.845 152.47C164.122 152.177 164.122 151.735 164.26 151.36C164.398 150.986 164.844 150.886 165.156 151.143C165.219 152.185 166.555 151.453 167.526 152.023C168.068 152.342 167.166 152.767 167.23 153.281C167.311 153.932 168.843 155.401 168.118 155.144C167.327 154.863 166.219 154.431 165.389 154.562C164.645 154.68 164.171 155.322 163.558 155.749C163.361 155.281 163.299 154.761 163.381 154.261Z" fill="#FFB61D"/>
<path fill-rule="evenodd" clip-rule="evenodd" d="M171.468 130.142C171.812 130.344 172.068 130.682 172.164 131.061C171.777 131.16 171.079 130.367 170.544 130.517C170.002 130.668 169.622 131.762 169.217 131.745C168.793 131.728 169.601 130.84 169.398 130.311C169.215 129.836 167.998 129.727 168 129.474C168.002 129.281 168.873 129.302 169.217 128.996C169.437 128.8 169.17 128.248 169.217 128.15C169.398 127.779 170.082 128.15 170.544 128.668C171.04 128.541 171.537 128.413 172.034 128.286C172.248 128.939 171.025 129.258 171.251 129.873L171.468 130.142Z" fill="#FFB61D"/>
<path fill-rule="evenodd" clip-rule="evenodd" d="M140.381 129.261C140.021 129.116 139.63 129.042 139.24 129.046C138.778 128.893 139.049 128.162 139.5 127.981C139.95 127.799 140.515 127.82 140.845 127.47C141.122 127.177 141.122 126.735 141.26 126.36C141.398 125.986 141.844 125.886 142.156 126.143C142.219 127.185 143.555 126.453 144.526 127.023C145.068 127.342 144.166 127.767 144.23 128.281C144.311 128.932 145.843 130.401 145.118 130.144C144.327 129.863 143.219 129.431 142.389 129.562C141.645 129.68 141.171 130.322 140.558 130.749C140.361 130.281 140.299 129.761 140.381 129.261Z" fill="#FFB61D"/>
<path fill-rule="evenodd" clip-rule="evenodd" d="M127.468 153.142C127.812 153.344 128.068 153.682 128.164 154.061C127.777 154.16 127.079 153.367 126.544 153.517C126.002 153.668 125.622 154.762 125.217 154.745C124.793 154.728 125.601 153.84 125.398 153.311C125.215 152.836 123.998 152.727 124 152.474C124.002 152.281 124.873 152.302 125.217 151.996C125.437 151.8 125.17 151.248 125.217 151.15C125.398 150.779 126.082 151.15 126.544 151.668C127.04 151.541 127.537 151.413 128.034 151.286C128.248 151.939 127.025 152.258 127.251 152.873L127.468 153.142Z" fill="#FFB61D"/>
<path fill-rule="evenodd" clip-rule="evenodd" d="M205.931 159.488C206.291 159.633 206.682 159.707 207.072 159.703C207.534 159.856 207.263 160.587 206.812 160.769C206.362 160.95 205.797 160.929 205.467 161.279C205.19 161.572 205.19 162.014 205.052 162.389C204.914 162.763 204.468 162.863 204.156 162.606C204.093 161.564 202.757 162.296 201.786 161.726C201.244 161.407 202.146 160.982 202.082 160.468C202.001 159.817 200.469 158.348 201.194 158.605C201.985 158.886 203.093 159.319 203.923 159.187C204.667 159.069 205.141 158.427 205.754 158C205.951 158.468 206.013 158.988 205.931 159.488Z" fill="#FFB61D"/>
<path fill-rule="evenodd" clip-rule="evenodd" d="M201.648 130.603C201.304 130.401 201.048 130.063 200.952 129.684C201.339 129.585 202.037 130.378 202.572 130.228C203.115 130.077 203.494 128.984 203.899 129C204.323 129.018 203.515 129.905 203.718 130.434C203.901 130.91 205.118 131.018 205.116 131.271C205.115 131.464 204.243 131.443 203.899 131.749C203.68 131.945 203.946 132.498 203.899 132.595C203.718 132.966 203.034 132.595 202.572 132.077C202.076 132.204 201.579 132.332 201.083 132.459C200.868 131.806 202.091 131.487 201.865 130.873L201.648 130.603Z" fill="#FFB61D"/>
<path fill-rule="evenodd" clip-rule="evenodd" d="M184.381 155.261C184.021 155.116 183.63 155.042 183.24 155.046C182.778 154.893 183.049 154.162 183.5 153.981C183.95 153.799 184.515 153.82 184.845 153.47C185.122 153.177 185.122 152.735 185.26 152.36C185.398 151.986 185.844 151.886 186.156 152.143C186.219 153.185 187.555 152.453 188.526 153.023C189.068 153.342 188.166 153.767 188.23 154.281C188.311 154.932 189.843 156.401 189.118 156.144C188.327 155.863 187.219 155.431 186.389 155.562C185.645 155.68 185.171 156.322 184.558 156.749C184.361 156.281 184.299 155.761 184.381 155.261Z" fill="#FFB61D"/>
<path fill-rule="evenodd" clip-rule="evenodd" d="M181.468 147.661C181.812 147.863 182.068 148.202 182.164 148.581C181.777 148.679 181.079 147.887 180.544 148.036C180.002 148.188 179.622 149.281 179.217 149.264C178.793 149.247 179.601 148.36 179.398 147.831C179.215 147.355 177.998 147.247 178 146.993C178.002 146.8 178.873 146.822 179.217 146.515C179.437 146.32 179.17 145.767 179.217 145.67C179.398 145.298 180.082 145.67 180.544 146.187C181.04 146.06 181.537 145.933 182.034 145.806C182.248 146.458 181.025 146.778 181.251 147.392L181.468 147.661Z" fill="#FFB61D"/>
<path fill-rule="evenodd" clip-rule="evenodd" d="M210.468 154.142C210.812 154.344 211.068 154.682 211.164 155.061C210.777 155.16 210.079 154.367 209.544 154.517C209.002 154.668 208.622 155.762 208.217 155.745C207.793 155.728 208.601 154.84 208.398 154.311C208.215 153.836 206.998 153.727 207 153.474C207.002 153.281 207.873 153.302 208.217 152.996C208.437 152.8 208.17 152.248 208.217 152.15C208.398 151.779 209.082 152.15 209.544 152.668C210.04 152.541 210.537 152.413 211.034 152.286C211.248 152.939 210.025 153.258 210.251 153.873L210.468 154.142Z" fill="#FFB61D"/>
<path fill-rule="evenodd" clip-rule="evenodd" d="M200.931 150.003C201.291 150.149 201.682 150.223 202.072 150.218C202.534 150.372 202.263 151.102 201.812 151.284C201.362 151.466 200.797 151.445 200.467 151.794C200.19 152.087 200.19 152.53 200.052 152.904C199.914 153.279 199.468 153.379 199.156 153.122C199.093 152.08 197.757 152.812 196.786 152.241C196.244 151.923 197.146 151.498 197.082 150.984C197.001 150.333 195.469 148.864 196.194 149.121C196.985 149.402 198.093 149.834 198.923 149.703C199.667 149.585 200.141 148.942 200.754 148.516C200.951 148.983 201.013 149.504 200.931 150.003Z" fill="#FFB61D"/>
<path fill-rule="evenodd" clip-rule="evenodd" d="M189.696 160.603C189.352 160.401 189.096 160.063 189 159.684C189.387 159.585 190.085 160.378 190.62 160.228C191.163 160.077 191.542 158.984 191.947 159C192.371 159.018 191.563 159.905 191.766 160.434C191.949 160.91 193.166 161.018 193.164 161.271C193.162 161.464 192.291 161.443 191.947 161.749C191.727 161.945 191.994 162.498 191.947 162.595C191.766 162.966 191.082 162.595 190.62 162.077C190.124 162.204 189.627 162.332 189.13 162.459C188.916 161.806 190.139 161.487 189.913 160.873L189.696 160.603Z" fill="#FFB61D"/>
<path fill-rule="evenodd" clip-rule="evenodd" d="M214.381 150.261C214.021 150.116 213.63 150.042 213.24 150.046C212.778 149.893 213.049 149.162 213.5 148.981C213.95 148.799 214.515 148.82 214.845 148.47C215.122 148.177 215.122 147.735 215.26 147.36C215.398 146.986 215.844 146.886 216.156 147.143C216.219 148.185 217.555 147.453 218.526 148.023C219.068 148.342 218.166 148.767 218.23 149.281C218.311 149.932 219.843 151.401 219.118 151.144C218.327 150.863 217.219 150.431 216.389 150.562C215.645 150.68 215.171 151.322 214.558 151.749C214.361 151.281 214.299 150.761 214.381 150.261Z" fill="#FFB61D"/>
<path fill-rule="evenodd" clip-rule="evenodd" d="M222.468 140.142C222.812 140.344 223.068 140.682 223.164 141.061C222.777 141.16 222.079 140.367 221.544 140.517C221.002 140.668 220.622 141.762 220.217 141.745C219.793 141.728 220.601 140.84 220.398 140.311C220.215 139.836 218.998 139.727 219 139.474C219.002 139.281 219.873 139.302 220.217 138.996C220.437 138.8 220.17 138.248 220.217 138.15C220.398 137.779 221.082 138.15 221.544 138.668C222.04 138.541 222.537 138.413 223.034 138.286C223.248 138.939 222.025 139.258 222.251 139.873L222.468 140.142Z" fill="#FFB61D"/>
<path fill-rule="evenodd" clip-rule="evenodd" d="M191.381 139.261C191.021 139.116 190.63 139.042 190.24 139.046C189.778 138.893 190.049 138.162 190.5 137.981C190.95 137.799 191.515 137.82 191.845 137.47C192.122 137.177 192.122 136.735 192.26 136.36C192.398 135.986 192.844 135.886 193.156 136.143C193.219 137.185 194.555 136.453 195.526 137.023C196.068 137.342 195.166 137.767 195.23 138.281C195.311 138.932 196.843 140.401 196.118 140.144C195.327 139.863 194.219 139.431 193.389 139.562C192.645 139.68 192.171 140.322 191.558 140.749C191.361 140.281 191.299 139.761 191.381 139.261Z" fill="#FFB61D"/>
<path fill-rule="evenodd" clip-rule="evenodd" d="M178.468 163.142C178.812 163.344 179.068 163.682 179.164 164.061C178.777 164.16 178.079 163.367 177.544 163.517C177.002 163.668 176.622 164.762 176.217 164.745C175.793 164.728 176.601 163.84 176.398 163.311C176.215 162.836 174.998 162.727 175 162.474C175.002 162.281 175.873 162.302 176.217 161.996C176.437 161.8 176.17 161.248 176.217 161.15C176.398 160.779 177.082 161.15 177.544 161.668C178.04 161.541 178.537 161.413 179.034 161.286C179.248 161.939 178.025 162.258 178.251 162.873L178.468 163.142Z" fill="#FFB61D"/>
</svg>
