<svg width="984" height="1514" viewBox="0 0 984 1514" fill="none" xmlns="http://www.w3.org/2000/svg">
<mask id="mask0" mask-type="alpha" maskUnits="userSpaceOnUse" x="0" y="0" width="984" height="1514">
<rect width="984" height="1514" fill="#C4C4C4"/>
</mask>
<g mask="url(#mask0)">
<path opacity="0.35" fill-rule="evenodd" clip-rule="evenodd" d="M1471.39 1351.68C1314.04 1691.92 797.668 2672.91 330.904 2264.75C30.4779 2000.19 -148.94 1252.59 246.617 1111.43C350.486 1058.97 396.215 985.904 424.183 887.66C452.152 789.417 383.929 572.176 501.081 377.094C853.631 -209.972 2060.66 77.4952 1471.39 1351.68Z" fill="#C147FF"/>
<path opacity="0.35" fill-rule="evenodd" clip-rule="evenodd" d="M1777.82 1500.31C1620.47 1840.55 1104.1 2821.55 637.338 2413.38C336.912 2148.82 157.494 1401.23 553.051 1260.07C656.92 1207.6 702.649 1134.54 730.617 1036.29C758.586 938.051 690.363 720.81 807.515 525.728C1160.06 -61.3377 2367.1 226.13 1777.82 1500.31Z" fill="#C147FF"/>
<path opacity="0.35" fill-rule="evenodd" clip-rule="evenodd" d="M2095.82 1522.31C1938.47 1862.55 1422.1 2843.55 955.337 2435.38C654.911 2170.82 475.493 1423.23 871.05 1282.07C974.919 1229.6 1020.65 1156.54 1048.62 1058.29C1076.59 960.051 1008.36 742.81 1125.51 547.728C1478.06 -39.3377 2685.1 248.13 2095.82 1522.31Z" fill="#C147FF"/>
</g>
</svg>
