<svg width="26" height="27" viewBox="0 0 26 27" fill="none" xmlns="http://www.w3.org/2000/svg">
<path d="M12 27C13.6557 27 14.9986 25.657 14.9986 24H9.00144C9.00144 25.657 10.3444 27 12 27ZM22.0964 19.9823C21.1908 19.0092 19.4963 17.5453 19.4963 12.75C19.4963 9.10781 16.9425 6.19219 13.4991 5.47688V4.5C13.4991 3.67172 12.8278 3 12 3C11.1722 3 10.501 3.67172 10.501 4.5V5.47688C7.05753 6.19219 4.50378 9.10781 4.50378 12.75C4.50378 17.5453 2.80925 19.0092 1.90363 19.9823C1.62238 20.2847 1.49769 20.6461 1.50003 21C1.50519 21.7687 2.10847 22.5 3.00472 22.5H20.9953C21.8916 22.5 22.4953 21.7687 22.5 21C22.5024 20.6461 22.3777 20.2842 22.0964 19.9823Z" fill="#001A49"/>
<circle cx="19.5" cy="6" r="5.25" fill="#3751FF" stroke="#F7F8FC" stroke-width="1.5"/>
</svg>
