<svg width="96" height="96" viewBox="0 0 96 96" fill="none" xmlns="http://www.w3.org/2000/svg">
<g filter="url(#filter0_d)">
<path fill-rule="evenodd" clip-rule="evenodd" d="M48 72C65.6731 72 80 57.6731 80 40C80 22.3269 65.6731 8 48 8C30.3269 8 16 22.3269 16 40C16 57.6731 30.3269 72 48 72Z" fill="white"/>
</g>
<path d="M49.9583 28.2949L59.723 47.963C60.7126 49.9561 58.8927 51.9551 56.595 51.3888L37.2648 46.636C36.3982 46.4963 35.6523 45.947 35.2617 45.161C34.871 44.375 34.8836 43.4488 35.2955 42.6737L44.8631 27.7609C45.9986 25.9907 48.9687 26.3019 49.9583 28.2949Z" fill="url(#paint0_linear)"/>
<defs>
<filter id="filter0_d" x="0" y="0" width="96" height="96" filterUnits="userSpaceOnUse" color-interpolation-filters="sRGB">
<feFlood flood-opacity="0" result="BackgroundImageFix"/>
<feColorMatrix in="SourceAlpha" type="matrix" values="0 0 0 0 0 0 0 0 0 0 0 0 0 0 0 0 0 0 127 0"/>
<feOffset dy="8"/>
<feGaussianBlur stdDeviation="8"/>
<feColorMatrix type="matrix" values="0 0 0 0 0 0 0 0 0 0 0 0 0 0 0 0 0 0 0.0535402 0"/>
<feBlend mode="normal" in2="BackgroundImageFix" result="effect1_dropShadow"/>
<feBlend mode="normal" in="SourceGraphic" in2="effect1_dropShadow" result="shape"/>
</filter>
<linearGradient id="paint0_linear" x1="58.0305" y1="26.5361" x2="39.8347" y2="36.0728" gradientUnits="userSpaceOnUse">
<stop stop-color="#FFD7A9"/>
<stop offset="1" stop-color="#FFAE70"/>
</linearGradient>
</defs>
</svg>
